<svg width="675" height="95" viewBox="0 0 675 95" fill="none" xmlns="http://www.w3.org/2000/svg">
<path d="M652.976 14.799C652.976 14.799 653.104 13.9831 652.96 13.5991C652.832 13.2791 652.592 12.8472 652.464 12.5592C652.336 12.2712 651.952 10.9913 651.952 10.6553C651.952 10.5273 652.288 9.67937 652.256 9.40739C652.224 9.13541 652.064 8.59144 652.32 8.55944C652.576 8.54345 652.864 8.99142 652.864 8.99142C652.864 8.99142 652.896 8.75143 653.12 8.67144C653.552 8.51145 653.712 8.68744 653.712 8.68744C653.712 8.68744 653.872 8.39945 654.08 8.36746C654.512 8.30346 654.72 8.52745 654.72 8.52745C654.72 8.52745 654.912 8.36746 655.2 8.38346C655.584 8.41545 655.712 8.73543 655.712 8.73543C655.712 8.73543 656.208 8.65544 656.336 8.86342C656.464 9.08741 656.464 9.2954 656.512 9.50338C656.56 9.69537 656.528 11.4553 655.888 12.7032C655.36 13.7111 655.328 15.295 655.328 15.295L652.976 14.799Z" fill="#EEA886"/>
<path d="M620.53 14.7992C620.53 14.7992 620.402 13.9832 620.546 13.5992C620.674 13.2793 620.914 12.8473 621.042 12.5593C621.17 12.2713 621.554 10.9914 621.554 10.6554C621.554 10.5274 621.218 9.6795 621.25 9.40751C621.282 9.13553 621.442 8.59157 621.186 8.55957C620.93 8.54357 620.642 8.99154 620.642 8.99154C620.642 8.99154 620.658 8.73556 620.434 8.65556C620.002 8.49557 619.778 8.65556 619.778 8.65556C619.778 8.65556 619.618 8.38358 619.41 8.36758C618.978 8.30359 618.77 8.47957 618.77 8.47957C618.77 8.47957 618.578 8.33558 618.274 8.35158C617.89 8.38358 617.746 8.70356 617.746 8.70356C617.746 8.70356 617.266 8.63956 617.122 8.84755C616.994 9.07154 617.01 9.29552 616.962 9.48751C616.914 9.6795 616.946 11.4394 617.586 12.6873C618.114 13.6952 618.146 15.2791 618.146 15.2791L620.53 14.7992Z" fill="#EEA886"/>
<path d="M665.887 9.47144H607.843V10.6874H665.887V9.47144Z" fill="#6392D1"/>
<path d="M632.161 36.2856C632.161 36.2856 630.594 37.1176 629.682 37.1816C628.754 37.2456 626.674 35.9337 625.826 34.7817C624.978 33.6298 624.978 33.5178 624.002 32.4939C623.026 31.4699 621.746 28.6221 621.426 27.4702C621.106 26.3023 619.746 23.9344 619.602 23.4065C619.458 22.8785 618.802 20.6226 618.53 19.4707C618.242 18.2228 618.082 14.335 618.082 14.335L620.482 14.1591C620.482 14.1591 622.546 19.5347 623.266 20.9906C624.002 22.4305 623.586 23.3265 624.322 24.4624C625.042 25.5983 627.57 28.3981 628.194 30.094C628.818 31.7899 630.29 32.0299 631.138 33.8858C631.954 35.7097 632.161 36.2856 632.161 36.2856Z" fill="#EEA886"/>
<path d="M641.361 36.4136C641.361 36.4136 642.929 37.2455 643.841 37.3095C644.097 37.3255 644.449 37.2455 644.833 37.0695C644.897 37.0375 644.961 37.0056 645.041 36.9736C646.177 36.4456 647.297 35.4857 647.729 34.8777C648.561 33.7578 648.576 33.6298 649.536 32.6058C650.064 32.0619 650.656 31.0059 651.168 29.95C651.6 29.0221 651.968 28.1261 652.112 27.5822C652.432 26.4142 653.792 24.0464 653.936 23.5024C654.96 19.6147 655.248 20.0146 655.424 14.351L653.04 14.223C653.04 14.223 651.008 19.6147 650.272 21.0706C649.536 22.5105 649.952 23.4064 649.232 24.5424C648.576 25.5823 646.433 27.9821 645.585 29.678C645.505 29.854 645.425 30.014 645.361 30.174C645.153 30.718 644.865 31.1179 644.529 31.4699C643.841 32.1899 642.977 32.7178 642.417 33.9657C641.585 35.8376 641.361 36.4136 641.361 36.4136Z" fill="#EEA886"/>
<path d="M656.032 88.7943C655.744 88.1383 654.416 82.8427 653.776 79.7549C653.136 76.6671 651.872 72.9073 651.488 72.3313C651.104 71.7394 649.616 66.9237 649.232 64.8918C648.848 62.86 644.321 54.2045 644.113 53.8045C643.905 53.3886 643.425 52.1086 643.425 52.1086L636.897 52.5886L630.37 52.1086C630.37 52.1086 629.89 53.4046 629.682 53.8045C629.474 54.2205 624.434 63.4039 624.05 65.4358C623.666 67.4677 622.69 71.7554 622.306 72.3313C621.922 72.9233 620.658 76.6671 620.018 79.7549C619.378 82.8427 618.05 88.1383 617.762 88.7943C617.474 89.4502 620.194 89.4822 620.194 89.4822C620.194 89.4822 624.13 81.6427 625.01 80.2028C625.89 78.7629 626.69 76.2831 626.802 74.6992C626.914 73.1153 628.034 72.2993 629.01 71.0834C630.002 69.8835 634.737 60.7641 635.617 59.9481C636.657 58.9722 637.153 59.0042 638.161 59.9481C639.041 60.7801 643.793 69.8835 644.769 71.0834C645.761 72.2833 646.881 73.1153 646.977 74.6992C647.089 76.2831 647.889 78.7629 648.768 80.2028C649.648 81.6427 653.584 89.4822 653.584 89.4822C653.584 89.4822 656.304 89.4502 656.032 88.7943Z" fill="#2F4563"/>
<path d="M655.824 88.1704C655.824 88.1704 657.168 89.9303 657.936 90.3463C658.704 90.7622 661.504 91.9142 661.968 92.8741C662.288 93.5461 661.856 94.858 659.152 94.426C656.464 93.994 655.536 92.5381 654.72 92.3621C653.904 92.1862 653.008 91.5622 652.96 90.3623C652.912 89.1623 653.392 89.3863 653.296 88.9384C653.184 88.5064 655.824 88.1704 655.824 88.1704Z" fill="#5279AD"/>
<path d="M617.954 88.25C617.954 88.25 616.739 89.9299 615.971 90.3459C615.203 90.7618 612.403 91.9138 611.939 92.8737C611.619 93.5457 612.051 94.8576 614.755 94.4256C617.443 93.9936 618.37 92.5377 619.186 92.3617C620.002 92.1857 620.898 91.5618 620.946 90.3619C620.994 89.1619 620.514 89.3859 620.61 88.938C620.722 88.506 617.954 88.25 617.954 88.25Z" fill="#5279AD"/>
<path d="M645.04 37.1017C644.321 34.6219 645.408 29.4382 645.408 29.4382C644.017 28.8302 642.225 29.3582 641.457 29.3582C640.689 29.3582 638.561 28.7662 638.561 28.7662H636.849H635.137C635.137 28.7662 633.009 29.3582 632.241 29.3582C631.473 29.3582 629.681 28.8302 628.29 29.4382C628.29 29.4382 629.377 34.7179 628.658 37.1817C628.658 37.1817 630.337 41.8054 630.737 42.4934C631.137 43.1813 630.737 45.7091 630.721 46.3491C630.705 47.261 630.561 49.8689 630.369 52.0927C630.369 52.0927 632.433 53.3247 636.833 53.4206C641.201 53.1327 643.409 52.0927 643.409 52.0927C643.137 49.4369 642.961 47.197 642.849 46.3171C642.769 45.6771 642.545 43.1653 642.945 42.4774C643.361 41.8214 645.04 37.1017 645.04 37.1017Z" fill="#E55353"/>
<path d="M649.632 29.3261C650.336 29.3901 650.752 29.6621 651.232 29.822C651.2 29.87 651.184 29.934 651.152 29.982C650.656 31.038 650.048 32.0939 649.52 32.6379C648.592 33.6138 648.544 33.7738 647.808 34.7817C647.216 34.7817 646.721 34.8297 646.481 35.0057C646.001 35.3257 645.425 36.3976 645.137 36.9576C645.025 37.1816 644.961 37.3416 644.961 37.3416C644.961 37.3416 644.945 37.2456 644.913 37.0696C644.769 36.2056 644.337 33.4538 644.689 31.3579C644.817 30.606 645.041 29.934 645.409 29.4541C645.409 29.4541 645.505 29.5021 645.665 29.5661C646.049 29.726 646.753 30.014 647.152 30.046C647.696 30.062 648.56 29.2301 649.632 29.3261Z" fill="#EEA886"/>
<path d="M628.642 37.1816C628.642 37.1816 628.578 37.0536 628.482 36.8616C628.226 36.3336 627.682 35.3097 627.186 34.9897C626.93 34.8137 626.402 34.7657 625.794 34.7657C624.962 33.6458 624.946 33.5178 623.986 32.4939C623.458 31.9499 622.866 30.894 622.354 29.838C622.882 29.678 623.298 29.3901 624.034 29.3261C625.106 29.2301 625.97 30.078 626.53 30.03C626.898 29.998 627.554 29.758 627.938 29.582C628.13 29.5021 628.274 29.4381 628.274 29.4381C628.642 29.918 628.866 30.606 628.994 31.3739C629.314 33.5178 628.818 36.7976 628.642 37.1816Z" fill="#EEA886"/>
<path d="M639.025 25.9823C639.025 25.9823 638.785 27.8061 639.329 28.9261C639.329 28.9261 639.873 31.3259 637.217 31.5019C634.561 31.6779 634.433 29.294 634.433 29.294C634.433 29.294 635.057 28.4301 634.577 26.1103C634.113 23.7744 639.025 25.9823 639.025 25.9823Z" fill="#EEA886"/>
<path d="M637.233 16.559C637.233 16.559 640.673 17.039 640.273 22.5107C639.873 27.9823 636.849 27.5983 636.641 27.5983C636.433 27.5983 633.617 27.7583 633.249 21.1028C633.233 21.1028 633.025 16.1751 637.233 16.559Z" fill="#EEA886"/>
<path d="M640.241 20.9586C640.241 20.9586 640.609 20.5426 640.753 20.9586C640.897 21.3745 640.321 23.1664 640.273 23.3104C640.273 23.3104 640.209 23.4704 640.113 23.3904C640.017 23.2944 640.241 20.9586 640.241 20.9586Z" fill="#EEA886"/>
<path d="M633.297 21.0546C633.297 21.0546 632.929 20.6546 632.785 21.0546C632.657 21.4706 633.297 23.3264 633.329 23.3904C633.329 23.3904 633.393 23.5504 633.489 23.4544C633.569 23.3744 633.297 21.0546 633.297 21.0546Z" fill="#EEA886"/>
<path d="M640.305 21.8066L639.825 22.4785C639.825 22.4785 639.809 21.0066 639.729 20.7826C639.649 20.5587 639.793 19.7427 639.729 19.5827C639.665 19.4227 637.393 20.0787 633.649 19.7907C633.649 19.7907 634.097 21.1026 633.857 21.1986C633.617 21.2946 633.777 22.9105 633.777 22.9105L633.361 22.4625C633.361 22.4625 632.849 19.6947 632.881 19.2307C632.929 18.6068 632.657 15.743 637.921 16.1269C638.529 16.1749 639.105 16.3829 639.601 16.7349C640.145 17.1349 640.721 17.7908 640.689 18.6868C640.641 19.8867 640.305 21.8066 640.305 21.8066Z" fill="#E8734D"/>
<path d="M634.801 26.7663C634.801 26.7663 636.353 28.5102 638.737 26.6863C638.737 26.6863 638.097 28.0462 636.673 28.1102C635.249 28.1582 634.801 26.7663 634.801 26.7663Z" fill="#A77860"/>
<path d="M632.753 29.3102C632.753 29.3102 632.833 35.5498 636.849 35.7418V28.5742C636.849 28.5902 634.977 28.6542 632.753 29.3102Z" fill="#EEA886"/>
<path d="M640.929 29.3102C640.929 29.3102 640.849 35.5498 636.833 35.7418V28.5742C636.849 28.5902 638.705 28.6542 640.929 29.3102Z" fill="#EEA886"/>
<path d="M652.784 9.15139C652.784 9.15139 652.704 10.7193 653.136 11.0713C653.568 11.4232 653.632 10.8633 653.632 10.8633C653.632 10.8633 653.552 11.4232 654.032 11.5192C654.512 11.6152 654.544 10.9593 654.544 10.9593C654.544 10.9593 654.608 11.3912 655.12 11.3272C655.632 11.2633 655.52 10.7033 655.52 10.7033C655.52 10.7033 655.984 11.2633 656.304 10.7673C656.848 9.91934 656.368 8.86341 656.368 8.86341C656.368 8.86341 656.224 8.62342 655.744 8.71942C655.744 8.71942 655.44 8.09546 654.72 8.49543C654.72 8.49543 654 8.07946 653.712 8.68742C653.712 8.67142 652.912 8.27145 652.784 9.15139Z" fill="#D6926F"/>
<path d="M620.722 9.15139C620.722 9.15139 620.802 10.7193 620.37 11.0713C619.938 11.4232 619.874 10.8633 619.874 10.8633C619.874 10.8633 619.954 11.4232 619.474 11.5192C618.994 11.6152 618.962 10.9593 618.962 10.9593C618.962 10.9593 618.898 11.3912 618.386 11.3272C617.874 11.2633 617.986 10.7033 617.986 10.7033C617.986 10.7033 617.522 11.2633 617.202 10.7673C616.658 9.91934 617.138 8.86341 617.138 8.86341C617.138 8.86341 617.282 8.62342 617.762 8.71942C617.762 8.71942 618.066 8.09546 618.786 8.49543C618.786 8.49543 619.506 8.07946 619.794 8.68742C619.794 8.67142 620.594 8.27145 620.722 9.15139Z" fill="#D6926F"/>
<path d="M668.047 0H664.975V20.3187H668.047V0Z" fill="#5279AD"/>
<path d="M671.119 2.06396H667.775V18.2549H671.119V2.06396Z" fill="#5279AD"/>
<path d="M674.207 4.25574H670.783V16.079H674.207V4.25574Z" fill="#5279AD"/>
<path d="M608.931 0H605.859V20.3187H608.931V0Z" fill="#5279AD"/>
<path d="M606.419 2.06396H602.787V18.2549H606.419V2.06396Z" fill="#5279AD"/>
<path d="M603.155 4.25574H599.715V16.079H603.155V4.25574Z" fill="#5279AD"/>
<path d="M542.843 22.2361C542.843 22.2361 545.469 21.9639 546.397 24.4936C547.342 27.0234 548.223 27.856 548.335 29.1849C548.783 34.5646 551.297 33.3478 550.592 36.4379C549.888 39.528 549.391 40.0084 549.391 40.0084L543.387 38.8396L537.303 38.8556C537.303 38.8556 539.689 37.6708 539.144 35.141C538.616 32.6113 537.303 28.4644 538.039 25.6464C538.808 22.7965 541.274 22.4442 542.843 22.2361Z" fill="#163342"/>
<path d="M542.459 90.1072C550.346 90.1072 556.74 83.713 556.74 75.8253C556.74 67.9377 550.346 61.5435 542.459 61.5435C534.571 61.5435 528.177 67.9377 528.177 75.8253C528.177 83.713 534.571 90.1072 542.459 90.1072Z" fill="#EB4747"/>
<path d="M562.408 87.193C562.408 87.193 562.729 88.3619 562.408 89.4506C562.088 90.5394 561.88 92.3646 562.648 93.3733C563.417 94.382 564.682 94.7983 566.507 94.302C568.332 93.8056 568.012 92.3806 567.404 91.1638C566.795 89.947 565.322 87.5613 565.114 86.7768C564.906 85.9602 562.408 87.193 562.408 87.193Z" fill="#FAA146"/>
<path d="M562.552 88.3137C562.552 88.3137 563.737 88.8101 565.595 87.8334L565.114 86.7446L562.408 87.1769L562.552 88.3137Z" fill="#8E4F3A"/>
<path d="M564.362 83.1104C563.977 81.2851 563.017 73.2635 562.376 71.4223C561.752 69.565 560.327 67.2434 559.734 66.3948C559.142 65.5462 556.148 63.0645 555.139 61.8957C554.131 60.7269 550.336 58.1171 549.984 57.7008C549.631 57.2845 549.359 56.7081 549.359 56.7081C546.333 56.66 542.41 57.1244 542.41 57.1244C542.41 57.1244 538.888 56.7241 535.862 56.7721C535.862 56.7721 535.526 57.3005 535.189 57.7168C534.837 58.1331 530.69 60.7429 529.682 61.9117C528.673 63.0805 525.695 65.5622 525.086 66.4108C524.494 67.2594 523.069 69.581 522.445 71.4383C521.82 73.2956 520.94 81.4612 520.555 83.2865C520.171 85.1117 519.595 86.7609 519.595 86.7609C519.595 86.7609 520.491 87.5294 522.413 87.2252C522.413 87.2252 524.958 79.4918 526.127 77.3143C527.296 75.1528 527.76 70.8939 528.609 70.1414C529.457 69.3889 532.452 68.4762 535.462 66.9071C538.472 65.3381 539.128 64.0412 540.201 64.0091C541.274 63.9771 541.962 64.0732 542.394 64.0412C542.843 64.0732 543.531 63.9771 544.588 64.0091C545.661 64.0412 546.317 65.322 549.327 66.9071C552.337 68.4762 555.331 69.3889 556.18 70.1414C557.029 70.8939 557.493 75.1368 558.662 77.3143C559.83 79.4758 562.376 87.2252 562.376 87.2252C564.298 87.5454 565.082 86.7929 565.082 86.7929C565.082 86.7929 564.73 84.9356 564.362 83.1104Z" fill="#8E4F3A"/>
<path d="M565.594 87.8336C565.594 87.8336 565.482 87.9937 565.082 87.9297C564.666 87.8656 563.705 87.4653 562.552 88.3139C562.552 88.3139 565.466 89.4988 565.594 87.8336Z" fill="#FAA146"/>
<path d="M519.611 86.7448C519.611 86.7448 518.81 88.2658 517.929 88.7462C517.049 89.2105 513.302 91.0037 513.783 92.5568C514.247 94.0939 519.322 93.7897 520.283 92.5568C521.26 91.324 522.044 91.9324 522.332 90.7315C522.621 89.5307 522.429 87.2091 522.429 87.2091C522.429 87.2091 521.58 87.1771 520.972 86.985C520.379 86.7928 520.363 86.4726 519.611 86.7448Z" fill="#FAA146"/>
<path d="M563.369 76.6258C560.807 76.7218 559.014 77.9066 559.014 77.9066C558.902 77.6665 558.806 77.4583 558.71 77.2822C557.541 75.1207 557.077 70.8618 556.228 70.1092C555.379 69.3567 552.385 68.4441 549.375 66.875C546.365 65.3059 545.709 64.009 544.636 63.977C543.563 63.945 542.875 64.041 542.442 64.009C541.994 64.041 541.306 63.945 540.249 63.977C539.176 64.009 538.52 65.2899 535.51 66.875C532.5 68.4441 529.505 69.3567 528.657 70.1092C527.808 70.8618 527.344 75.1047 526.175 77.2822C526.111 77.3943 526.047 77.5224 525.983 77.6505C524.158 76.4657 521.58 76.4977 521.532 76.4977C521.836 74.3042 522.172 72.2387 522.445 71.4222C523.069 69.5649 524.494 67.2433 525.086 66.3947C525.679 65.5461 528.673 63.0644 529.682 61.8956C530.69 60.7268 534.837 58.1169 535.189 57.7007C535.542 57.2844 535.862 56.756 535.862 56.756C538.888 56.708 542.41 57.1082 542.41 57.1082C542.41 57.1082 546.333 56.6439 549.359 56.692C549.359 56.692 549.647 57.2684 549.984 57.6846C550.336 58.1009 554.131 60.7107 555.139 61.8796C556.148 63.0484 559.126 65.5301 559.734 66.3787C560.327 67.2273 561.752 69.5489 562.376 71.4061C562.664 72.2547 563.033 74.3842 563.369 76.6258Z" fill="#FCCCA2"/>
<path d="M561.416 31.3144C561.416 31.3144 561.64 30.5139 561.544 30.0976C561.464 29.7614 561.288 29.281 561.207 28.9768C561.127 28.6726 560.919 27.3117 560.967 26.9915C560.983 26.8474 561.4 26.0628 561.4 25.7746C561.4 25.4864 561.32 24.926 561.576 24.926C561.816 24.942 562.024 25.4384 562.024 25.4384C562.024 25.4384 562.04 25.1822 562.264 25.1182C562.697 25.0061 562.873 25.2142 562.873 25.2142C562.873 25.2142 563.065 24.958 563.257 24.958C563.673 24.958 563.849 25.1502 563.849 25.1502C563.849 25.1502 564.057 25.0221 564.33 25.0861C564.682 25.1662 564.794 25.5024 564.794 25.5024C564.794 25.5024 565.258 25.5024 565.354 25.7426C565.45 25.9828 565.402 26.2069 565.418 26.4151C565.45 26.6232 565.194 28.4004 564.426 29.5692C563.801 30.5139 563.561 32.115 563.561 32.115L561.416 31.3144Z" fill="#8E4F3A"/>
<path d="M566.756 26.6384L560.096 25.6003L559.906 26.8185L566.566 27.8566L566.756 26.6384Z" fill="#B85858"/>
<path d="M561.944 25.5825C561.944 25.5825 561.672 27.1515 562.024 27.5678C562.376 27.9841 562.52 27.4237 562.52 27.4237C562.52 27.4237 562.376 27.9841 562.809 28.1442C563.241 28.3043 563.369 27.6319 563.369 27.6319C563.369 27.6319 563.385 28.0802 563.865 28.0802C564.346 28.0802 564.314 27.5038 564.314 27.5038C564.314 27.5038 564.682 28.1282 565.05 27.6639C565.675 26.8794 565.354 25.7426 565.354 25.7426C565.354 25.7426 565.258 25.4704 564.794 25.5024C564.794 25.5024 564.586 24.8299 563.849 25.1502C563.849 25.1502 563.225 24.6378 562.889 25.1982C562.873 25.2142 562.168 24.7018 561.944 25.5825Z" fill="#693A2B"/>
<path d="M561.128 22.2201L560.231 22.06C559.959 22.012 559.687 22.2041 559.639 22.4763L558.438 29.6172C558.39 29.8894 558.582 30.1616 558.854 30.2096L559.751 30.3537C560.023 30.4018 560.295 30.2096 560.343 29.9374L561.544 22.7965C561.592 22.5243 561.416 22.2681 561.128 22.2201Z" fill="#EB7171"/>
<path d="M567.788 23.2609L566.891 23.1008C566.619 23.0527 566.347 23.2449 566.299 23.517L565.098 30.658C565.05 30.9302 565.242 31.2024 565.514 31.2504L566.411 31.3945C566.683 31.4425 566.955 31.2504 567.003 30.9782L568.204 23.8373C568.252 23.5651 568.06 23.3089 567.788 23.2609Z" fill="#EB7171"/>
<path d="M523.71 31.3625C523.71 31.3625 523.485 30.4979 523.581 30.0816C523.661 29.7454 523.838 29.265 523.918 28.9608C523.998 28.6566 524.206 27.2957 524.158 26.9755C524.142 26.8314 523.726 26.0468 523.726 25.7586C523.726 25.4704 523.806 24.91 523.549 24.91C523.309 24.926 523.101 25.4224 523.101 25.4224C523.101 25.4224 523.085 25.1662 522.861 25.1022C522.429 24.9901 522.252 25.1982 522.252 25.1982C522.252 25.1982 522.06 24.9421 521.868 24.9421C521.452 24.9421 521.276 25.1342 521.276 25.1342C521.276 25.1342 521.068 25.0061 520.795 25.0701C520.443 25.1502 520.331 25.4864 520.331 25.4864C520.331 25.4864 519.867 25.4864 519.771 25.7266C519.675 25.9668 519.723 26.1909 519.707 26.3991C519.675 26.6072 519.931 28.3844 520.699 29.5532C521.324 30.4979 521.564 32.099 521.564 32.099L523.71 31.3625Z" fill="#8E4F3A"/>
<path d="M518.574 27.8597L525.235 26.8217L525.045 25.6035L518.385 26.6415L518.574 27.8597Z" fill="#B85858"/>
<path d="M523.181 25.5825C523.181 25.5825 523.453 27.1515 523.101 27.5678C522.749 27.9841 522.605 27.4237 522.605 27.4237C522.605 27.4237 522.749 27.9841 522.316 28.1442C521.884 28.3043 521.756 27.6319 521.756 27.6319C521.756 27.6319 521.74 28.0802 521.26 28.0802C520.779 28.0802 520.811 27.5038 520.811 27.5038C520.811 27.5038 520.443 28.1282 520.075 27.6639C519.45 26.8794 519.771 25.7426 519.771 25.7426C519.771 25.7426 519.867 25.4704 520.331 25.5024C520.331 25.5024 520.539 24.8299 521.276 25.1502C521.276 25.1502 521.9 24.6378 522.236 25.1982C522.252 25.2142 522.957 24.7018 523.181 25.5825Z" fill="#693A2B"/>
<path d="M523.998 22.2201L524.894 22.06C525.166 22.012 525.439 22.2041 525.487 22.4763L526.687 29.6172C526.736 29.8894 526.543 30.1616 526.271 30.2096L525.375 30.3537C525.102 30.4018 524.83 30.2096 524.782 29.9374L523.581 22.7965C523.533 22.5243 523.725 22.2681 523.998 22.2201Z" fill="#EB7171"/>
<path d="M517.337 23.261L518.234 23.1169C518.506 23.0688 518.778 23.261 518.826 23.5332L520.027 30.6741C520.075 30.9463 519.883 31.2185 519.611 31.2665L518.714 31.4106C518.442 31.4586 518.17 31.2665 518.122 30.9943L516.921 23.8534C516.873 23.5652 517.065 23.309 517.337 23.261Z" fill="#EB7171"/>
<path d="M540.553 33.0438C540.553 33.0438 540.857 35.3174 540.713 36.8864C540.553 38.4555 545.004 37.3027 545.004 37.3027C545.004 37.3027 544.732 33.9084 545.116 32.6755C545.501 31.4587 540.553 33.0438 540.553 33.0438Z" fill="#8E4F3A"/>
<path d="M544.908 35.7173C544.908 35.7173 546.141 36.2937 546.654 36.3898C547.166 36.4698 550.592 39.2558 550.704 39.544C550.816 39.8322 549.904 42.1858 549.552 43.2746C549.199 44.3633 547.726 50.9439 547.854 51.4082C547.998 51.8725 549.295 56.3556 549.391 56.8039C540.457 58.5651 535.654 57.0761 535.654 57.0761C535.654 57.0761 537.255 52.657 537.191 51.7924C537.127 50.9279 536.294 46.0445 535.702 44.6675C535.094 43.2906 534.101 39.8162 534.101 39.8162C534.101 39.8162 538.008 36.7741 538.12 36.5659C538.232 36.3578 540.377 35.9415 540.729 35.6853L544.908 35.7173Z" fill="#8E4F3A"/>
<path d="M546.669 36.39C546.669 36.39 548.559 42.202 549.199 44.6837C549.199 44.6837 548.206 49.1188 548.094 49.7913C548.094 49.7913 542.539 48.7185 536.967 49.9834C536.967 49.9834 535.766 44.7638 535.654 44.4756C535.654 44.4756 537.559 41.0813 538.408 36.438C538.408 36.438 539.128 36.0057 539.657 36.0698C539.657 36.0698 539.128 41.8818 542.955 41.8178C546.782 41.7537 545.597 36.0057 545.597 36.0057C545.597 36.0057 546.269 36.1819 546.669 36.39Z" fill="#FCCCA2"/>
<path d="M546.669 36.3901C546.669 36.3901 548.286 35.8457 550.528 36.6623C552.77 37.4788 552.513 37.3027 554.883 37.719C557.253 38.1513 558.341 38.4395 558.341 38.4395C558.341 38.4395 559.654 35.7496 560.263 34.6929C560.823 33.7162 561.624 30.546 561.624 30.546L563.785 30.9783C563.785 30.9783 562.905 35.9257 562.472 37.3507C561.271 41.2895 560.359 42.042 559.67 42.074C558.982 42.09 556.548 42.3302 554.835 41.9939C553.234 41.6897 551.313 41.4976 549.952 42.2181L546.669 36.3901Z" fill="#8E4F3A"/>
<path d="M538.392 36.4221C538.392 36.4221 536.839 35.8457 534.597 36.6623C532.355 37.4788 532.612 37.3027 530.242 37.719C527.872 38.1513 526.784 38.4395 526.784 38.4395C526.784 38.4395 525.471 35.7496 524.862 34.6929C524.302 33.7162 523.501 30.546 523.501 30.546L521.34 30.9783C521.34 30.9783 522.22 35.9257 522.653 37.3507C523.854 41.2895 524.766 42.042 525.455 42.074C526.143 42.09 528.577 42.3302 530.29 41.9939C531.891 41.6897 533.812 41.4976 535.173 42.2181L538.392 36.4221Z" fill="#8E4F3A"/>
<path d="M543.179 23.7092C543.179 23.7092 546.653 24.2055 546.141 29.3291C545.629 34.4526 542.571 34.0363 542.362 34.0363C542.154 34.0363 539.288 34.1484 539.048 27.8881C539.048 27.9041 538.936 23.2769 543.179 23.7092Z" fill="#8E4F3A"/>
<path d="M542.779 25.5665C542.779 25.5665 544.396 27.2636 545.148 28.1282C545.901 28.9928 545.981 30.658 545.981 30.658C545.981 30.658 547.246 29.1049 546.717 27.3117C546.189 25.5024 544.94 21.996 541.754 23.0847C538.584 24.1575 538.456 28.9128 538.84 31.2664C538.856 31.2504 540.281 26.0628 542.779 25.5665Z" fill="#163342"/>
<path d="M541.418 33.8122C541.418 33.8122 542.891 34.5167 544.332 33.476C544.332 33.476 543.932 34.3085 542.875 34.4206C541.818 34.5327 541.418 33.8122 541.418 33.8122Z" fill="#633029"/>
<path d="M454.286 16.4707C454.286 16.4707 453.319 12.6211 455.709 10.6689C458.08 8.71674 460.726 9.41004 462.04 10.6689C463.353 11.9278 464.977 14.4638 463.463 18.0763C461.948 21.6887 461.62 20.8312 462.295 23.495C462.97 26.1587 463.791 28.0014 462.441 29.2055C461.091 30.4097 459.029 30.0995 458.829 28.5852C458.628 27.0709 458.464 21.6887 458.318 20.9042C458.19 20.1014 454.286 16.4707 454.286 16.4707Z" fill="#1C4154"/>
<path d="M459.522 22.9294C459.522 22.9294 462.277 24.0058 463.28 24.1336C464.284 24.2613 463.919 27.2534 463.919 27.2534C463.919 27.2534 464.63 29.3151 464.594 30.6652C464.521 32.4714 463.682 32.964 463.609 33.0917C463.536 33.2194 462.806 37.5069 462.733 38.255C462.66 39.003 462.934 39.9517 463.116 40.572C463.299 41.2653 463.919 43.8196 463.919 43.8196C463.919 43.8196 458.847 45.3521 451.202 43.9656C451.202 43.9656 451.695 41.9951 451.877 41.0099C451.969 40.4808 452.261 39.4591 452.133 38.4921C452.005 37.5252 450.929 33.4384 450.892 33.037C450.856 32.6538 448.758 30.501 450.637 27.9467C450.637 27.9467 451.129 25.283 451.257 24.5714C451.257 24.5714 454.541 23.0754 455.399 22.9476C456.293 22.8017 459.522 22.9294 459.522 22.9294Z" fill="#EEA886"/>
<path d="M463.299 24.1334C463.299 24.1334 464.63 24.1699 465.634 24.8997C466.637 25.6295 467.312 28.6034 467.477 29.0777C467.641 29.5703 469.502 32.6355 469.812 33.6024C470.122 34.5694 470.304 35.1897 470.45 35.135C470.596 35.0802 472.53 32.0334 472.841 31.3036C473.169 30.4643 474.501 26.8154 474.501 26.8154L475.906 29.4244L475.997 29.6433C475.997 29.6433 474.647 33.3105 474.227 34.6241C473.807 35.9377 472.841 39.0211 472.384 39.4407C471.928 39.8604 470.14 40.4442 469.192 39.6779C468.243 38.9299 466.035 35.3904 465.47 34.2045C464.904 33.0186 463.809 31.0847 463.809 31.0847C463.809 31.0847 462.04 25.3741 463.299 24.1334Z" fill="#EEA886"/>
<path d="M451.257 24.553C451.257 24.553 449.852 24.5348 449.195 25.1186C448.539 25.7025 447.298 27.1073 447.006 28.3479C446.714 29.5886 446.55 31.8327 446.148 33.0368C445.765 34.2592 444.671 37.3973 444.105 38.5285C443.539 39.6779 443.029 44.4398 442.7 45.5892C442.354 46.7386 441.113 50.5335 441.113 50.5335L443.083 51.537C443.083 51.537 447.097 42.7248 447.48 41.3929C447.863 40.061 447.936 38.419 448.301 37.4338C448.666 36.4303 450.272 32.7814 450.509 32.0699C450.783 31.3948 453.519 24.8632 451.257 24.553Z" fill="#EEA886"/>
<path d="M451.002 44.4946C451.002 44.4946 450.308 45.9176 449.852 46.8846C449.396 47.8516 447.699 51.9749 447.006 54.8211C446.331 57.6672 444.817 62.6845 444.634 64.1076C444.434 65.5307 443.758 67.7018 443.102 68.833C442.445 69.9824 440.912 73.3577 440.639 75.547C440.365 77.7364 438.668 87.4061 438.668 87.4061C438.668 87.4061 439.635 88.3183 441.46 87.2237C441.46 87.2237 444.835 78.1743 445.619 76.8607C446.404 75.547 447.626 72.0988 447.809 70.8217C447.973 69.5445 449.25 68.1762 450.418 65.257C451.585 62.3379 456.311 54 456.968 52.285C456.968 52.285 457.187 51.5917 457.843 51.8107L457.588 44.4398L451.002 44.4946Z" fill="#285173"/>
<path d="M464.119 44.4033C464.119 44.4033 464.867 45.9359 465.305 46.9028C465.761 47.8698 467.659 52.1573 468.352 55.0035C469.027 57.8497 470.341 62.7028 470.523 64.1441C470.724 65.5672 471.399 67.7383 472.056 68.8695C472.713 70.0189 474.245 73.3942 474.519 75.5835C474.793 77.7729 476.489 87.4426 476.489 87.4426C476.489 87.4426 475.522 88.3548 473.698 87.2601C473.698 87.2601 470.323 78.2108 469.538 76.8971C468.754 75.5835 467.531 72.1353 467.349 70.8581C467.185 69.581 465.907 68.2127 464.74 65.2935C463.572 62.3744 458.847 54.0365 458.19 52.3215C458.19 52.3215 458.026 51.5735 457.259 51.8654L450.947 44.5858L464.119 44.4033Z" fill="#285173"/>
<path d="M455.161 12.1649C455.161 12.1649 453.611 14.6279 454.578 18.0762C455.545 21.5244 456.949 21.7251 458.099 21.3785C459.485 20.9589 460.835 18.0397 461.054 16.7443C461.273 15.449 462.149 12.3291 458.792 11.9277C457.26 11.7453 455.709 11.8 455.161 12.1649Z" fill="#EEA886"/>
<path d="M459.248 20.3751C459.248 20.3751 459.23 24.1152 459.741 25.1552C460.252 26.1951 455.125 25.5566 455.125 25.5566C455.125 25.5566 455.745 21.3238 455.526 20.3203C455.307 19.2986 459.248 20.3751 459.248 20.3751Z" fill="#EEA886"/>
<path d="M454.267 15.8139C454.267 15.8139 455.545 12.8218 456.785 12.9312C456.785 12.9312 459.23 16.124 461.383 17.3647C461.383 17.3647 464.028 13.0224 457.807 11.1432C457.807 11.125 454.03 9.64718 454.267 15.8139Z" fill="#1C4154"/>
<path d="M455.782 20.6669C455.782 20.6669 456.603 21.6521 457.497 21.5061C458.391 21.3602 458.902 20.9041 458.902 20.9041C458.902 20.9041 458.482 21.8893 457.406 21.8893C456.457 21.871 455.782 20.6669 455.782 20.6669Z" fill="#A77860"/>
<path d="M461.93 23.7869C461.93 23.7869 463.536 26.3959 463.919 27.2534C463.919 27.2534 466.017 31.2307 463.609 33.0917C463.609 33.0917 463.353 35.1716 462.934 36.9048C462.934 36.9048 457.606 35.8101 451.841 37.069C451.841 37.069 450.892 33.493 450.892 33.0187C450.892 33.0187 448.63 30.2455 450.637 27.9284C450.637 27.9284 452.425 24.316 452.571 23.9693C452.589 23.9693 456.657 21.3786 461.93 23.7869Z" fill="#EB4747"/>
<path d="M478.861 29.6433C480.725 29.6433 482.236 27.9035 482.236 25.7572C482.236 23.611 480.725 21.8711 478.861 21.8711C476.997 21.8711 475.486 23.611 475.486 25.7572C475.486 27.9035 476.997 29.6433 478.861 29.6433Z" fill="#D1C0BA"/>
<path d="M478.734 27.9649C479.671 27.9649 480.43 27.0909 480.43 26.0127C480.43 24.9346 479.671 24.0605 478.734 24.0605C477.796 24.0605 477.037 24.9346 477.037 26.0127C477.037 27.0909 477.796 27.9649 478.734 27.9649Z" fill="#948884"/>
<path d="M475.979 29.6433C475.979 29.6433 477.092 28.2932 477.767 27.8735C478.423 27.4539 479.117 26.8336 479.025 26.195C478.952 25.5382 478.259 24.0239 477.84 23.9692C477.42 23.9144 475.851 24.4435 475.851 24.4435L474.483 26.8336L475.979 29.6433Z" fill="#EEA886"/>
<path d="M474.154 29.2785C476.018 29.2785 477.529 27.5386 477.529 25.3923C477.529 23.2461 476.018 21.5062 474.154 21.5062C472.29 21.5062 470.779 23.2461 470.779 25.3923C470.779 27.5386 472.29 29.2785 474.154 29.2785Z" fill="#EDDAD3"/>
<path d="M473.953 27.4905C474.961 27.4905 475.778 26.5511 475.778 25.3923C475.778 24.2336 474.961 23.2942 473.953 23.2942C472.946 23.2942 472.129 24.2336 472.129 25.3923C472.129 26.5511 472.946 27.4905 473.953 27.4905Z" fill="#CCBBB5"/>
<path d="M454.559 23.1483C454.559 23.1483 451.786 29.2785 457.077 29.4427C462.386 29.6069 460.325 23.7139 460.179 23.1483C460.179 23.1483 457.989 21.78 454.559 23.1483Z" fill="#EEA886"/>
<path d="M441.752 86.4754C441.752 86.4754 441.46 86.7491 441.04 86.6944C440.62 86.6396 439.416 86.1288 438.869 86.3477C438.34 86.5666 438.048 88.9567 436.99 89.5405C435.95 90.1244 432.812 91.9488 432.976 93.4996C433.14 95.0687 437.373 94.649 438.467 93.3537C439.562 92.0583 440.511 92.6969 441.387 91.8029C442.281 90.8906 441.606 87.3694 441.752 86.4754Z" fill="#CCBBB5"/>
<path d="M473.406 86.4572C473.406 86.4572 473.716 86.7491 474.136 86.6944C474.555 86.6396 475.76 86.1288 476.307 86.3477C476.836 86.5666 477.128 88.9567 478.186 89.5405C479.226 90.1244 482.364 91.9488 482.2 93.4996C482.036 95.0687 477.803 94.649 476.708 93.3537C475.614 92.0583 474.665 92.6969 473.789 91.8029C472.895 90.8906 473.534 87.3512 473.406 86.4572Z" fill="#CCBBB5"/>
<path d="M451.202 43.9289C451.202 43.9289 457.004 44.0566 463.919 43.783L464.229 44.6405C464.229 44.6405 459.12 45.6074 450.874 44.7499L451.202 43.9289Z" fill="#3B78AB"/>
<path d="M441.624 49.7491C441.624 49.7491 441.204 50.187 441.077 50.5702C440.967 50.8803 440.584 51.2999 440.401 51.5371C440.219 51.7743 439.562 52.8872 439.471 53.1792C439.434 53.3069 439.526 54.1461 439.416 54.4015C439.307 54.6387 439.051 55.1131 439.27 55.2043C439.489 55.2773 439.854 54.9306 439.854 54.9306C439.854 54.9306 439.781 55.1678 439.945 55.2955C440.274 55.551 440.511 55.4232 440.511 55.4232C440.511 55.4232 440.584 55.7152 440.748 55.7699C441.113 55.9159 441.332 55.8064 441.332 55.8064C441.332 55.8064 441.46 55.9888 441.733 56.0253C442.08 56.0801 442.281 55.8246 442.281 55.8246C442.281 55.8246 442.682 56.0071 442.864 55.8246C443.047 55.6422 443.065 55.4415 443.156 55.259C443.248 55.0948 443.686 53.4346 443.43 52.1574C443.175 50.8621 443.904 49.7856 443.904 49.7856L441.624 49.7491Z" fill="#EEA886"/>
<path d="M444.665 54.4339L438.476 52.9414L438.202 54.0765L444.392 55.569L444.665 54.4339Z" fill="#D1C0BA"/>
<path d="M439.799 54.7665C439.799 54.7665 440.128 53.2887 440.584 53.0515C441.04 52.8143 440.967 53.3617 440.967 53.3617C440.967 53.3617 441.04 52.8326 441.478 52.8508C441.916 52.869 441.788 53.4894 441.788 53.4894C441.788 53.4894 441.952 53.1062 442.372 53.2704C442.791 53.4346 442.554 53.9272 442.554 53.9272C442.554 53.9272 443.102 53.5076 443.248 54.055C443.503 54.9672 442.828 55.8429 442.828 55.8429C442.828 55.8429 442.645 56.0436 442.244 55.8429C442.244 55.8429 441.824 56.3538 441.295 55.8247C441.295 55.8247 440.566 56.0436 440.474 55.4233C440.493 55.4233 439.69 55.624 439.799 54.7665Z" fill="#DB9C7C"/>
<path d="M437.829 57.3934L437.117 57.2292C436.826 57.1562 436.643 56.8643 436.716 56.5724L438.212 50.0408C438.285 49.7489 438.577 49.5664 438.869 49.6394L439.58 49.8036C439.872 49.8766 440.055 50.1685 439.982 50.4604L438.486 56.992C438.413 57.2839 438.121 57.4664 437.829 57.3934Z" fill="#EDDAD3"/>
<path d="M444.014 58.8896L443.302 58.7254C443.01 58.6524 442.828 58.3605 442.901 58.0686L444.397 51.537C444.47 51.2451 444.762 51.0626 445.054 51.1356L445.765 51.2998C446.057 51.3728 446.24 51.6647 446.167 51.9566L444.652 58.47C444.598 58.7619 444.306 58.9443 444.014 58.8896Z" fill="#EDDAD3"/>
<path d="M383.419 26.9681C383.419 26.9681 386.097 32.6102 384.256 32.945C381.728 33.4138 380.706 28.7428 380.706 28.7428L383.419 26.9681Z" fill="#163342"/>
<path d="M383.904 32.5266C383.904 32.5266 385.344 31.3881 385.963 30.7687C386.583 30.1492 389.295 25.7963 389.848 24.9425C390.4 24.0886 391.019 22.4312 391.388 21.6945C391.756 20.9746 395.456 15.4163 395.456 15.4163L396.879 16.019C396.879 16.019 394.334 22.4479 393.681 23.5194C393.028 24.5909 392.392 26.7673 391.89 27.7049C391.388 28.6592 388.692 32.4596 388.224 33.3302C387.755 34.2008 387.303 35.9085 387.303 35.9085C387.303 35.9085 383.251 34.8872 383.904 32.5266Z" fill="#8E4F3A"/>
<path d="M378.597 29.6469C378.597 29.6469 378.865 31.6225 378.731 32.9786C378.597 34.3347 382.448 33.3469 382.448 33.3469C382.448 33.3469 382.23 30.3836 382.565 29.3288C382.9 28.2574 378.597 29.6469 378.597 29.6469Z" fill="#8E4F3A"/>
<path d="M374.729 49.8043C374.729 49.8043 374.21 51.0934 373.876 51.964C373.541 52.8346 371.9 56.4174 371.448 58.9454C370.996 61.4902 370.326 66.0775 370.226 67.3499C370.125 68.6223 369.657 70.5476 369.138 71.5856C368.635 72.6236 367.497 75.6707 367.363 77.596C367.229 79.5381 366.241 88.11 366.241 88.11C366.241 88.11 367.112 88.8634 368.602 87.8253C368.602 87.8253 371.046 79.7222 371.666 78.5335C372.268 77.3449 373.156 74.2476 373.239 73.1259C373.323 72.0042 374.344 70.7318 375.198 68.12C376.052 65.5083 379.635 57.9911 379.986 56.5011C379.986 56.5011 380.02 55.8314 380.907 55.9653L380.338 49.5029L374.729 49.8043Z" fill="#FAA146"/>
<path d="M386.064 49.8378C386.064 49.8378 386.616 51.2106 386.951 52.0979C387.286 52.9685 388.91 56.5513 389.362 59.0961C389.797 61.6409 390.467 66.2282 390.567 67.5006C390.668 68.7729 391.136 70.6983 391.639 71.7363C392.141 72.7743 393.279 75.8213 393.397 77.7634C393.514 79.7055 394.502 88.2774 394.502 88.2774C394.502 88.2774 393.631 89.0308 392.141 87.9928C392.141 87.9928 389.697 79.8729 389.094 78.6842C388.491 77.4955 387.604 74.3983 387.52 73.2765C387.436 72.1548 386.415 70.8824 385.561 68.2707C384.708 65.6589 381.091 58.0916 380.606 56.5513C380.606 56.5513 380.505 55.8984 379.836 56.0993L374.796 49.4025L386.064 49.8378Z" fill="#FAA146"/>
<path d="M368.803 87.1558C368.803 87.1558 368.568 87.4069 368.217 87.3734C367.865 87.3567 366.794 86.9716 366.359 87.1893C365.906 87.4069 365.773 89.4494 364.902 89.9852C364.031 90.5377 361.436 92.2286 361.654 93.5512C361.872 94.8906 365.454 94.3214 366.342 93.1829C367.212 92.0277 368.049 92.53 368.753 91.7264C369.473 90.906 368.736 87.9259 368.803 87.1558Z" fill="#EB7171"/>
<path d="M391.94 87.323C391.94 87.323 392.174 87.5574 392.526 87.5407C392.878 87.5239 393.949 87.1389 394.384 87.3565C394.836 87.5742 394.97 89.6167 395.824 90.1692C396.695 90.7217 399.273 92.4126 399.055 93.7352C398.838 95.0746 395.255 94.5053 394.368 93.3501C393.497 92.195 392.66 92.6972 391.957 91.8768C391.287 91.0565 392.024 88.0932 391.94 87.323Z" fill="#EB7171"/>
<path d="M377.425 24.4233C377.425 24.4233 377.073 24.0048 376.939 24.4233C376.805 24.8419 377.241 26.1143 377.291 26.2984C377.291 26.2984 377.509 27.0016 377.592 26.9179C377.676 26.8342 377.425 24.4233 377.425 24.4233Z" fill="#8E4F3A"/>
<path d="M383.569 24.4736C383.569 24.4736 383.921 24.0551 384.055 24.4736C384.189 24.8922 383.753 26.1646 383.703 26.3487C383.703 26.3487 383.486 27.0519 383.402 26.9682C383.335 26.8845 383.569 24.4736 383.569 24.4736Z" fill="#8E4F3A"/>
<path d="M381.058 20.3718C381.058 20.3718 384.289 20.8741 383.82 25.9469C383.352 31.0365 380.505 30.6347 380.305 30.6179C380.12 30.6179 377.442 30.7184 377.207 24.5239C377.207 24.5406 377.107 19.9533 381.058 20.3718Z" fill="#8E4F3A"/>
<path d="M377.827 24.2393C377.827 24.2393 381.409 25.3108 383.134 24.9592C383.134 24.9592 383.251 25.5954 383.485 25.6289C383.737 25.6624 383.854 24.4235 383.854 24.4235C383.854 24.4235 383.937 20.2882 380.204 20.2547C376.471 20.2212 377.224 24.7416 377.224 24.7416L377.274 25.5117C377.274 25.4949 377.81 25.7126 377.827 24.2393Z" fill="#163342"/>
<path d="M379.032 30.1492C379.032 30.1492 380.171 31.2207 381.895 30.2329C381.895 30.2329 381.376 31.0867 380.405 31.07C379.434 31.0532 379.032 30.1492 379.032 30.1492Z" fill="#633029"/>
<path d="M382.381 31.9573C382.381 31.9573 383.452 32.4595 383.904 32.5432C384.356 32.6102 387.319 35.0378 387.42 35.2889C387.52 35.5401 386.717 37.5826 386.415 38.5369C386.114 39.4912 384.825 45.1834 384.942 45.5853C385.059 45.9871 386.181 49.9884 386.231 50.3065C378.48 51.83 374.428 50.5241 374.428 50.5241C374.428 50.5241 375.734 46.6567 375.684 45.9034C375.633 45.15 374.914 40.9142 374.395 39.7256C373.876 38.5369 373.005 35.5066 373.005 35.5066C373.005 35.5066 376.387 32.8613 376.487 32.6939C376.588 32.5265 378.279 32.1917 378.748 31.9573H382.381Z" fill="#8E4F3A"/>
<path d="M376.705 32.56C376.705 32.56 375.081 31.3881 374.462 30.7687C373.842 30.1492 371.13 25.7963 370.577 24.9424C370.025 24.0886 369.405 22.4311 369.037 21.6945C368.669 20.9913 364.986 15.433 364.986 15.433L363.562 16.0357C363.562 16.0357 366.107 22.4646 366.76 23.5361C367.413 24.6076 368.049 26.7841 368.552 27.7216C369.054 28.6759 371.749 32.4763 372.218 33.3469C372.687 34.2175 373.139 35.9252 373.139 35.9252C373.139 35.9252 377.358 34.9207 376.705 32.56Z" fill="#8E4F3A"/>
<path d="M383.904 32.5265C383.904 32.5265 385.545 37.5658 386.097 39.7255C386.097 39.7255 385.243 43.5762 385.126 44.1622C385.126 44.1622 380.305 43.2246 375.466 44.3296C375.466 44.3296 374.428 39.7925 374.328 39.5414C374.328 39.5414 375.985 36.5948 376.705 32.5767C376.705 32.5767 377.324 32.2084 377.793 32.2586C377.793 32.2586 377.341 37.2979 380.656 37.2477C383.971 37.1975 382.95 32.2084 382.95 32.2084C382.95 32.2084 383.552 32.3591 383.904 32.5265Z" fill="#FAA146"/>
<path d="M365.806 16.6719C365.806 16.6719 365.454 16.1361 365.438 15.8013C365.421 15.5334 365.454 15.1316 365.454 14.8805C365.454 14.6293 365.304 13.5579 365.203 13.3067C365.17 13.2063 364.668 12.6873 364.601 12.4864C364.534 12.2687 364.467 11.8167 364.282 11.8837C364.098 11.9506 364.048 12.3692 364.048 12.3692C364.048 12.3692 363.981 12.185 363.797 12.185C363.445 12.2017 363.362 12.3859 363.362 12.3859C363.362 12.3859 363.161 12.2352 363.027 12.2855C362.709 12.3692 362.625 12.5701 362.625 12.5701C362.625 12.5701 362.441 12.5198 362.24 12.637C361.989 12.771 361.989 13.0556 361.989 13.0556C361.989 13.0556 361.637 13.156 361.604 13.3569C361.587 13.5579 361.671 13.7253 361.704 13.8759C361.738 14.0434 362.324 15.3325 363.161 16.0524C363.814 16.6551 364.316 17.8271 364.316 17.8271L365.806 16.6719Z" fill="#8E4F3A"/>
<path d="M361.124 15.2257L365.957 12.9548L365.545 12.0759L360.711 14.3468L361.124 15.2257Z" fill="#B85858"/>
<path d="M364.132 12.4696C364.132 12.4696 364.684 13.608 364.517 13.9931C364.333 14.3949 364.115 13.9931 364.115 13.9931C364.115 13.9931 364.349 14.3782 364.048 14.5958C363.747 14.8135 363.512 14.3279 363.512 14.3279C363.512 14.3279 363.613 14.6795 363.244 14.78C362.876 14.8804 362.776 14.4451 362.776 14.4451C362.776 14.4451 362.642 15.0144 362.257 14.7298C361.604 14.261 361.604 13.3402 361.604 13.3402C361.604 13.3402 361.621 13.1225 361.989 13.0388C361.989 13.0388 361.989 12.4863 362.625 12.5533C362.625 12.5533 362.993 12.0176 363.378 12.3691C363.345 12.4026 363.763 11.8501 364.132 12.4696Z" fill="#693A2B"/>
<path d="M364.148 9.67375L364.5 9.50633C364.785 9.37239 365.119 9.48959 365.253 9.7742L367.614 14.6294C367.748 14.914 367.631 15.2488 367.346 15.3828L366.994 15.5502C366.71 15.6841 366.375 15.5669 366.241 15.2823L363.88 10.4271C363.747 10.1425 363.864 9.80768 364.148 9.67375Z" fill="#EB7171"/>
<path d="M359.21 11.984L359.796 11.6994C360.013 11.5989 360.281 11.6827 360.382 11.9003L362.843 16.9899C362.943 17.2075 362.859 17.4754 362.642 17.5758L362.056 17.8605C361.838 17.9609 361.57 17.8772 361.47 17.6595L359.009 12.5867C358.892 12.3523 358.992 12.1012 359.21 11.984Z" fill="#EB7171"/>
<path d="M394.619 16.6719C394.619 16.6719 394.971 16.1361 394.987 15.8013C395.004 15.5334 394.971 15.1316 394.971 14.8805C394.971 14.6293 395.121 13.5579 395.222 13.3067C395.255 13.2063 395.757 12.6873 395.824 12.4864C395.891 12.2687 395.958 11.8167 396.143 11.8837C396.327 11.9506 396.377 12.3692 396.377 12.3692C396.377 12.3692 396.444 12.185 396.628 12.185C396.98 12.2017 397.063 12.3859 397.063 12.3859C397.063 12.3859 397.264 12.2352 397.398 12.2855C397.716 12.3692 397.8 12.5701 397.8 12.5701C397.8 12.5701 397.984 12.5198 398.185 12.637C398.436 12.771 398.436 13.0556 398.436 13.0556C398.436 13.0556 398.788 13.156 398.821 13.3569C398.838 13.5579 398.754 13.7253 398.721 13.8759C398.687 14.0434 398.101 15.3325 397.264 16.0524C396.578 16.6384 396.076 17.8103 396.076 17.8103L394.619 16.6719Z" fill="#8E4F3A"/>
<path d="M399.71 14.353L394.877 12.0822L394.464 12.961L399.298 15.2319L399.71 14.353Z" fill="#B85858"/>
<path d="M396.293 12.4696C396.293 12.4696 395.741 13.608 395.908 13.9931C396.092 14.3949 396.31 13.9931 396.31 13.9931C396.31 13.9931 396.075 14.3782 396.377 14.5958C396.678 14.8135 396.913 14.3279 396.913 14.3279C396.913 14.3279 396.812 14.6795 397.18 14.78C397.549 14.8804 397.649 14.4451 397.649 14.4451C397.649 14.4451 397.783 15.0144 398.168 14.7298C398.821 14.261 398.821 13.3402 398.821 13.3402C398.821 13.3402 398.804 13.1225 398.436 13.0388C398.436 13.0388 398.436 12.4863 397.8 12.5533C397.8 12.5533 397.432 12.0176 397.047 12.3691C397.08 12.4026 396.661 11.8501 396.293 12.4696Z" fill="#693A2B"/>
<path d="M396.276 9.67375L395.925 9.50633C395.64 9.37239 395.305 9.48959 395.171 9.7742L392.811 14.6294C392.677 14.914 392.794 15.2488 393.079 15.3828L393.43 15.5502C393.715 15.6841 394.05 15.5669 394.184 15.2823L396.544 10.4271C396.678 10.1425 396.561 9.80768 396.276 9.67375Z" fill="#EB7171"/>
<path d="M401.215 11.984L400.629 11.6994C400.412 11.5989 400.144 11.6827 400.043 11.9003L397.582 16.9899C397.482 17.2075 397.566 17.4754 397.783 17.5758L398.369 17.8605C398.587 17.9609 398.855 17.8772 398.955 17.6595L401.416 12.57C401.533 12.3523 401.433 12.1012 401.215 11.984Z" fill="#EB7171"/>
<path d="M307.225 48.5182C307.225 48.5182 307.752 49.9234 307.981 50.3626C308.209 50.8017 313.127 60.1994 313.549 62.3951C313.97 64.5908 315.569 69.8254 315.991 70.4578C316.412 71.0902 317.782 75.1654 318.467 78.5205C319.152 81.8755 320.61 87.6195 320.909 88.3222C321.208 89.0248 318.274 89.0599 318.274 89.0599C318.274 89.0599 314.006 80.5581 313.057 78.9947C312.109 77.4314 311.23 74.7438 311.107 73.0224C310.984 71.301 309.772 70.4051 308.701 69.1052C307.629 67.8054 302.482 57.9159 301.534 57.02C300.585 56.1242 299.988 56.1944 299.988 56.1944V49.0276L307.225 48.5182Z" fill="#2F4563"/>
<path d="M293.085 48.5182C293.085 48.5182 292.558 49.9234 292.329 50.3626C292.101 50.8017 286.638 60.7791 286.216 62.9748C285.795 65.1705 284.741 69.8254 284.319 70.4578C283.898 71.0902 282.528 75.1654 281.843 78.5205C281.158 81.8755 279.7 87.6195 279.401 88.3222C279.102 89.0248 282.036 89.0599 282.036 89.0599C282.036 89.0599 286.304 80.5581 287.253 78.9947C288.201 77.4314 289.08 74.7438 289.203 73.0224C289.326 71.301 290.538 70.4051 291.609 69.1052C292.681 67.8054 297.827 57.9159 298.776 57.02C299.725 56.1242 300.339 56.1944 300.339 56.1944L300.322 49.0276L293.085 48.5182Z" fill="#2F4563"/>
<path d="M321.102 87.936C321.102 87.936 322.156 89.5345 322.982 89.9912C323.807 90.4304 326.846 91.6951 327.356 92.7315C327.707 93.4517 327.233 94.8921 324.299 94.4178C321.383 93.9435 320.382 92.3626 319.486 92.1869C318.608 92.0113 317.642 91.3262 317.571 90.0264C317.519 88.7265 318.046 88.9548 317.94 88.4806C317.817 87.9887 321.102 87.936 321.102 87.936Z" fill="#DBDFF0"/>
<path d="M279.331 87.936C279.331 87.936 278.277 89.5345 277.451 89.9912C276.626 90.4304 273.587 91.6951 273.077 92.7315C272.726 93.4517 273.2 94.8921 276.134 94.4178C279.05 93.9435 280.051 92.3626 280.947 92.1869C281.825 92.0113 282.791 91.3262 282.844 90.0264C282.897 88.7265 282.37 88.9548 282.475 88.4806C282.616 87.9887 279.331 87.936 279.331 87.936Z" fill="#DBDFF0"/>
<path d="M308.999 32.2347C308.226 29.5472 309.386 23.9261 309.386 23.9261C307.875 23.2762 305.925 23.8383 305.1 23.8383C304.256 23.8383 301.973 23.2059 301.973 23.2059H300.111H298.249C298.249 23.2059 295.948 23.8383 295.122 23.8383C294.279 23.8383 292.347 23.2586 290.836 23.9261C290.836 23.9261 292.013 29.6526 291.223 32.3401C291.223 32.3401 293.049 37.3639 293.489 38.1017C293.928 38.8394 293.489 41.5973 293.471 42.2823C293.453 43.266 293.295 46.0941 293.102 48.5182C293.102 48.5182 295.333 49.8532 300.111 49.9586C304.854 49.6599 307.243 48.5182 307.243 48.5182C306.944 45.6374 306.751 43.1957 306.628 42.2648C306.54 41.5797 306.294 38.857 306.733 38.1017C307.172 37.3464 308.999 32.2347 308.999 32.2347Z" fill="#E55353"/>
<path d="M309.386 23.9261C309.386 23.9261 310.668 24.5233 311.283 24.5585C311.88 24.5936 312.829 23.6802 313.988 23.7856C315.147 23.891 315.587 24.5058 316.676 24.4531C317.765 24.4004 318.134 24.172 318.221 23.768C318.292 23.364 319.679 20.9048 319.1 17.5146C318.52 14.1244 320.154 15.1608 320.154 15.1608C320.154 15.1608 321.752 18.0416 322.068 21.2385C322.384 24.4355 321.383 27.5446 321.331 27.9838C321.295 28.4229 321.049 29.0553 320.751 29.231C320.452 29.4066 316.64 29.7228 315.323 29.7931C314.006 29.8633 311.283 29.4242 310.563 29.916C309.825 30.4079 308.912 32.4455 308.912 32.4455C308.912 32.4455 307.647 26.1745 309.386 23.9261Z" fill="#EEA886"/>
<path d="M290.801 23.9261C290.801 23.9261 289.519 24.5233 288.904 24.5585C288.307 24.5936 287.358 23.6802 286.199 23.7856C285.04 23.891 284.6 24.5058 283.511 24.4531C282.422 24.4004 282.053 24.172 281.966 23.768C281.895 23.364 280.508 20.9048 281.087 17.5146C281.667 14.1244 280.033 15.1608 280.033 15.1608C280.033 15.1608 278.435 18.0416 278.119 21.2385C277.802 24.4355 278.804 27.5446 278.856 27.9838C278.892 28.4229 279.137 29.0553 279.436 29.231C279.735 29.4066 283.546 29.7228 284.864 29.7931C286.181 29.8633 288.904 29.4242 289.624 29.916C290.362 30.4079 291.205 32.305 291.205 32.305C291.205 32.305 292.54 26.1745 290.801 23.9261Z" fill="#EEA886"/>
<path d="M302.465 20.167C302.465 20.167 302.184 21.9411 302.763 23.1532C302.763 23.1532 303.396 25.9637 300.497 26.1569C297.617 26.3501 297.494 23.7504 297.494 23.7504C297.494 23.7504 298.161 22.8018 297.652 20.2899C297.125 17.778 302.465 20.167 302.465 20.167Z" fill="#EEA886"/>
<path d="M300.48 9.9438C300.48 9.9438 304.186 10.4532 303.765 16.408C303.326 22.3452 300.058 21.9236 299.83 21.9236C299.619 21.9236 296.563 22.0993 296.159 14.8798C296.159 14.8798 295.948 9.52222 300.48 9.9438Z" fill="#EEA886"/>
<path d="M303.782 14.7218C303.782 14.7218 304.186 14.2651 304.344 14.7218C304.502 15.1609 303.87 17.1107 303.817 17.2688C303.817 17.2688 303.747 17.4445 303.642 17.3566C303.554 17.2688 303.782 14.7218 303.782 14.7218Z" fill="#EEA886"/>
<path d="M296.247 14.8271C296.247 14.8271 295.843 14.388 295.684 14.8271C295.544 15.2838 296.229 17.2863 296.264 17.3742C296.264 17.3742 296.334 17.5498 296.44 17.4444C296.545 17.3566 296.247 14.8271 296.247 14.8271Z" fill="#EEA886"/>
<path d="M303.8 15.6351L303.29 16.3729C303.29 16.3729 303.273 14.7744 303.185 14.5285C303.097 14.2826 303.255 13.4043 303.185 13.2286C303.115 13.053 300.673 13.7732 296.615 13.457C296.615 13.457 297.09 14.8798 296.844 14.9852C296.58 15.0906 296.756 16.8472 296.756 16.8472L296.317 16.3553C296.317 16.3553 295.755 13.3516 295.79 12.8597C295.842 12.1922 295.544 9.08311 301.235 9.48712C301.868 9.53982 302.5 9.76817 303.027 10.1546C303.624 10.5938 304.239 11.2964 304.204 12.2801C304.151 13.5624 303.8 15.6351 303.8 15.6351Z" fill="#FCCCA2"/>
<path d="M297.88 21.0102C297.88 21.0102 299.566 22.8897 302.149 20.9224C302.149 20.9224 301.446 22.3979 299.918 22.4681C298.372 22.5384 297.88 21.0102 297.88 21.0102Z" fill="#A77860"/>
<path d="M295.667 23.7856C295.667 23.7856 295.755 30.566 300.093 30.7767V22.9951C300.093 22.9951 298.073 23.0654 295.667 23.7856Z" fill="#EEA886"/>
<path d="M304.538 23.7856C304.538 23.7856 304.45 30.566 300.093 30.7767V22.9951C300.093 22.9951 302.113 23.0654 304.538 23.7856Z" fill="#EEA886"/>
<path d="M317.747 20.4482C320.405 20.4482 322.56 18.2933 322.56 15.6352C322.56 12.977 320.405 10.8221 317.747 10.8221C315.089 10.8221 312.934 12.977 312.934 15.6352C312.934 18.2933 315.089 20.4482 317.747 20.4482Z" fill="#434343"/>
<path d="M317.747 17.9713C319.037 17.9713 320.083 16.9253 320.083 15.6351C320.083 14.3448 319.037 13.2988 317.747 13.2988C316.457 13.2988 315.411 14.3448 315.411 15.6351C315.411 16.9253 316.457 17.9713 317.747 17.9713Z" fill="#6B6B6B"/>
<path d="M282.545 20.4482C285.203 20.4482 287.358 18.2933 287.358 15.6352C287.358 12.977 285.203 10.8221 282.545 10.8221C279.887 10.8221 277.732 12.977 277.732 15.6352C277.732 18.2933 279.887 20.4482 282.545 20.4482Z" fill="#434343"/>
<path d="M282.545 17.9713C283.835 17.9713 284.881 16.9253 284.881 15.6351C284.881 14.3448 283.835 13.2988 282.545 13.2988C281.255 13.2988 280.209 14.3448 280.209 15.6351C280.209 16.9253 281.255 17.9713 282.545 17.9713Z" fill="#6B6B6B"/>
<path d="M220.006 14.799C220.006 14.799 220.134 13.9831 219.99 13.5991C219.862 13.2791 219.623 12.8472 219.495 12.5592C219.367 12.2712 218.983 10.9913 218.983 10.6553C218.983 10.5273 219.319 9.67937 219.287 9.40739C219.255 9.13541 219.095 8.59144 219.351 8.55944C219.607 8.54345 219.894 8.99142 219.894 8.99142C219.894 8.99142 219.926 8.75143 220.15 8.67144C220.582 8.51145 220.742 8.68744 220.742 8.68744C220.742 8.68744 220.902 8.39945 221.11 8.36746C221.542 8.30346 221.75 8.52745 221.75 8.52745C221.75 8.52745 221.942 8.36746 222.23 8.38346C222.614 8.41545 222.742 8.73543 222.742 8.73543C222.742 8.73543 223.238 8.65544 223.366 8.86342C223.494 9.08741 223.494 9.2954 223.542 9.50338C223.59 9.69537 223.558 11.4553 222.918 12.7032C222.39 13.7111 222.358 15.295 222.358 15.295L220.006 14.799Z" fill="#EEA886"/>
<path d="M187.561 14.7992C187.561 14.7992 187.433 13.9832 187.577 13.5992C187.705 13.2793 187.945 12.8473 188.073 12.5593C188.201 12.2713 188.585 10.9914 188.585 10.6554C188.585 10.5274 188.249 9.6795 188.281 9.40751C188.313 9.13553 188.473 8.59157 188.217 8.55957C187.961 8.54357 187.673 8.99154 187.673 8.99154C187.673 8.99154 187.689 8.73556 187.465 8.65556C187.033 8.49557 186.809 8.65556 186.809 8.65556C186.809 8.65556 186.649 8.38358 186.441 8.36758C186.009 8.30359 185.801 8.47957 185.801 8.47957C185.801 8.47957 185.609 8.33558 185.305 8.35158C184.921 8.38358 184.777 8.70356 184.777 8.70356C184.777 8.70356 184.297 8.63956 184.153 8.84755C184.025 9.07154 184.041 9.29552 183.993 9.48751C183.945 9.6795 183.977 11.4394 184.617 12.6873C185.145 13.6952 185.177 15.2791 185.177 15.2791L187.561 14.7992Z" fill="#EEA886"/>
<path d="M232.918 9.47144H174.873V10.6874H232.918V9.47144Z" fill="#6392D1"/>
<path d="M199.192 36.2856C199.192 36.2856 197.624 37.1176 196.712 37.1816C195.784 37.2456 193.704 35.9337 192.856 34.7817C192.008 33.6298 192.008 33.5178 191.032 32.4939C190.056 31.4699 188.777 28.6221 188.457 27.4702C188.137 26.3023 186.777 23.9344 186.633 23.4065C186.489 22.8785 185.833 20.6226 185.561 19.4707C185.273 18.2228 185.113 14.335 185.113 14.335L187.513 14.1591C187.513 14.1591 189.577 19.5347 190.296 20.9906C191.032 22.4305 190.616 23.3265 191.352 24.4624C192.072 25.5983 194.6 28.3981 195.224 30.094C195.848 31.7899 197.32 32.0299 198.168 33.8858C198.984 35.7097 199.192 36.2856 199.192 36.2856Z" fill="#EEA886"/>
<path d="M208.391 36.4136C208.391 36.4136 209.959 37.2455 210.871 37.3095C211.127 37.3255 211.479 37.2455 211.863 37.0695C211.927 37.0375 211.991 37.0056 212.071 36.9736C213.207 36.4456 214.327 35.4857 214.759 34.8777C215.591 33.7578 215.607 33.6298 216.567 32.6058C217.095 32.0619 217.687 31.0059 218.199 29.95C218.631 29.0221 218.999 28.1261 219.143 27.5822C219.463 26.4142 220.822 24.0464 220.966 23.5024C221.99 19.6147 222.278 20.0146 222.454 14.351L220.07 14.223C220.07 14.223 218.039 19.6147 217.303 21.0706C216.567 22.5105 216.983 23.4064 216.263 24.5424C215.607 25.5823 213.463 27.9821 212.615 29.678C212.535 29.854 212.455 30.014 212.391 30.174C212.183 30.718 211.895 31.1179 211.559 31.4699C210.871 32.1899 210.007 32.7178 209.447 33.9657C208.615 35.8376 208.391 36.4136 208.391 36.4136Z" fill="#EEA886"/>
<path d="M223.062 88.7943C222.774 88.1383 221.446 82.8427 220.807 79.7549C220.167 76.6671 218.903 72.9073 218.519 72.3313C218.135 71.7394 216.647 66.9237 216.263 64.8918C215.879 62.86 211.351 54.2045 211.143 53.8045C210.935 53.3886 210.455 52.1086 210.455 52.1086L203.928 52.5886L197.4 52.1086C197.4 52.1086 196.92 53.4046 196.712 53.8045C196.504 54.2205 191.464 63.4039 191.08 65.4358C190.696 67.4677 189.721 71.7554 189.337 72.3313C188.953 72.9233 187.689 76.6671 187.049 79.7549C186.409 82.8427 185.081 88.1383 184.793 88.7943C184.505 89.4502 187.225 89.4822 187.225 89.4822C187.225 89.4822 191.16 81.6427 192.04 80.2028C192.92 78.7629 193.72 76.2831 193.832 74.6992C193.944 73.1153 195.064 72.2993 196.04 71.0834C197.032 69.8835 201.768 60.7641 202.648 59.9481C203.688 58.9722 204.184 59.0042 205.192 59.9481C206.071 60.7801 210.823 69.8835 211.799 71.0834C212.791 72.2833 213.911 73.1153 214.007 74.6992C214.119 76.2831 214.919 78.7629 215.799 80.2028C216.679 81.6427 220.615 89.4822 220.615 89.4822C220.615 89.4822 223.334 89.4502 223.062 88.7943Z" fill="#2F4563"/>
<path d="M222.854 88.1704C222.854 88.1704 224.198 89.9303 224.966 90.3463C225.734 90.7622 228.534 91.9142 228.998 92.8741C229.318 93.5461 228.886 94.858 226.182 94.426C223.494 93.994 222.566 92.5381 221.75 92.3621C220.934 92.1862 220.038 91.5622 219.99 90.3623C219.942 89.1623 220.422 89.3863 220.326 88.9384C220.214 88.5064 222.854 88.1704 222.854 88.1704Z" fill="#5279AD"/>
<path d="M184.985 88.25C184.985 88.25 183.769 89.9299 183.001 90.3459C182.233 90.7618 179.433 91.9138 178.969 92.8737C178.649 93.5457 179.081 94.8576 181.785 94.4256C184.473 93.9936 185.401 92.5377 186.217 92.3617C187.033 92.1857 187.929 91.5618 187.977 90.3619C188.025 89.1619 187.545 89.3859 187.641 88.938C187.753 88.506 184.985 88.25 184.985 88.25Z" fill="#5279AD"/>
<path d="M212.071 37.1017C211.351 34.6219 212.439 29.4382 212.439 29.4382C211.047 28.8302 209.255 29.3582 208.487 29.3582C207.719 29.3582 205.591 28.7662 205.591 28.7662H203.879H202.168C202.168 28.7662 200.04 29.3582 199.272 29.3582C198.504 29.3582 196.712 28.8302 195.32 29.4382C195.32 29.4382 196.408 34.7179 195.688 37.1817C195.688 37.1817 197.368 41.8054 197.768 42.4934C198.168 43.1813 197.768 45.7091 197.752 46.3491C197.736 47.261 197.592 49.8689 197.4 52.0927C197.4 52.0927 199.464 53.3247 203.863 53.4206C208.231 53.1327 210.439 52.0927 210.439 52.0927C210.167 49.4369 209.991 47.197 209.879 46.3171C209.799 45.6771 209.575 43.1653 209.975 42.4774C210.391 41.8214 212.071 37.1017 212.071 37.1017Z" fill="#E55353"/>
<path d="M216.663 29.3261C217.367 29.3901 217.783 29.6621 218.263 29.822C218.231 29.87 218.215 29.934 218.183 29.982C217.687 31.038 217.079 32.0939 216.551 32.6379C215.623 33.6138 215.575 33.7738 214.839 34.7817C214.247 34.7817 213.751 34.8297 213.511 35.0057C213.031 35.3257 212.455 36.3976 212.167 36.9576C212.055 37.1816 211.991 37.3416 211.991 37.3416C211.991 37.3416 211.975 37.2456 211.943 37.0696C211.799 36.2056 211.367 33.4538 211.719 31.3579C211.847 30.606 212.071 29.934 212.439 29.4541C212.439 29.4541 212.535 29.5021 212.695 29.5661C213.079 29.726 213.783 30.014 214.183 30.046C214.727 30.062 215.591 29.2301 216.663 29.3261Z" fill="#EEA886"/>
<path d="M195.672 37.1816C195.672 37.1816 195.608 37.0536 195.512 36.8616C195.256 36.3336 194.712 35.3097 194.216 34.9897C193.96 34.8137 193.432 34.7657 192.824 34.7657C191.992 33.6458 191.976 33.5178 191.017 32.4939C190.489 31.9499 189.897 30.894 189.385 29.838C189.913 29.678 190.329 29.3901 191.065 29.3261C192.136 29.2301 193 30.078 193.56 30.03C193.928 29.998 194.584 29.758 194.968 29.582C195.16 29.5021 195.304 29.4381 195.304 29.4381C195.672 29.918 195.896 30.606 196.024 31.3739C196.344 33.5178 195.848 36.7976 195.672 37.1816Z" fill="#EEA886"/>
<path d="M206.055 25.9823C206.055 25.9823 205.815 27.8061 206.359 28.9261C206.359 28.9261 206.903 31.3259 204.248 31.5019C201.592 31.6779 201.464 29.294 201.464 29.294C201.464 29.294 202.088 28.4301 201.608 26.1103C201.144 23.7744 206.055 25.9823 206.055 25.9823Z" fill="#EEA886"/>
<path d="M204.264 16.559C204.264 16.559 207.703 17.039 207.303 22.5107C206.903 27.9823 203.88 27.5983 203.672 27.5983C203.464 27.5983 200.648 27.7583 200.28 21.1028C200.264 21.1028 200.056 16.1751 204.264 16.559Z" fill="#EEA886"/>
<path d="M207.271 20.9586C207.271 20.9586 207.639 20.5426 207.783 20.9586C207.927 21.3745 207.351 23.1664 207.303 23.3104C207.303 23.3104 207.239 23.4704 207.143 23.3904C207.047 23.2944 207.271 20.9586 207.271 20.9586Z" fill="#EEA886"/>
<path d="M200.328 21.0546C200.328 21.0546 199.96 20.6546 199.816 21.0546C199.688 21.4706 200.328 23.3264 200.36 23.3904C200.36 23.3904 200.424 23.5504 200.52 23.4544C200.6 23.3744 200.328 21.0546 200.328 21.0546Z" fill="#EEA886"/>
<path d="M207.335 21.8066L206.855 22.4785C206.855 22.4785 206.839 21.0066 206.759 20.7826C206.679 20.5587 206.823 19.7427 206.759 19.5827C206.695 19.4227 204.424 20.0787 200.68 19.7907C200.68 19.7907 201.128 21.1026 200.888 21.1986C200.648 21.2946 200.808 22.9105 200.808 22.9105L200.392 22.4625C200.392 22.4625 199.88 19.6947 199.912 19.2307C199.96 18.6068 199.688 15.743 204.952 16.1269C205.559 16.1749 206.135 16.3829 206.631 16.7349C207.175 17.1349 207.751 17.7908 207.719 18.6868C207.671 19.8867 207.335 21.8066 207.335 21.8066Z" fill="#E8734D"/>
<path d="M201.832 26.7663C201.832 26.7663 203.384 28.5102 205.767 26.6863C205.767 26.6863 205.127 28.0462 203.704 28.1102C202.28 28.1582 201.832 26.7663 201.832 26.7663Z" fill="#A77860"/>
<path d="M199.784 29.3102C199.784 29.3102 199.864 35.5498 203.88 35.7418V28.5742C203.88 28.5902 202.008 28.6542 199.784 29.3102Z" fill="#EEA886"/>
<path d="M207.959 29.3102C207.959 29.3102 207.879 35.5498 203.863 35.7418V28.5742C203.879 28.5902 205.735 28.6542 207.959 29.3102Z" fill="#EEA886"/>
<path d="M219.815 9.15139C219.815 9.15139 219.735 10.7193 220.167 11.0713C220.599 11.4232 220.663 10.8633 220.663 10.8633C220.663 10.8633 220.583 11.4232 221.062 11.5192C221.542 11.6152 221.574 10.9593 221.574 10.9593C221.574 10.9593 221.638 11.3912 222.15 11.3272C222.662 11.2633 222.55 10.7033 222.55 10.7033C222.55 10.7033 223.014 11.2633 223.334 10.7673C223.878 9.91934 223.398 8.86341 223.398 8.86341C223.398 8.86341 223.254 8.62342 222.774 8.71942C222.774 8.71942 222.47 8.09546 221.75 8.49543C221.75 8.49543 221.03 8.07946 220.742 8.68742C220.742 8.67142 219.943 8.27145 219.815 9.15139Z" fill="#D6926F"/>
<path d="M187.753 9.15139C187.753 9.15139 187.833 10.7193 187.401 11.0713C186.969 11.4232 186.905 10.8633 186.905 10.8633C186.905 10.8633 186.985 11.4232 186.505 11.5192C186.025 11.6152 185.993 10.9593 185.993 10.9593C185.993 10.9593 185.929 11.3912 185.417 11.3272C184.905 11.2633 185.017 10.7033 185.017 10.7033C185.017 10.7033 184.553 11.2633 184.233 10.7673C183.689 9.91934 184.169 8.86341 184.169 8.86341C184.169 8.86341 184.313 8.62342 184.793 8.71942C184.793 8.71942 185.097 8.09546 185.817 8.49543C185.817 8.49543 186.537 8.07946 186.825 8.68742C186.825 8.67142 187.625 8.27145 187.753 9.15139Z" fill="#D6926F"/>
<path d="M235.078 0H232.006V20.3187H235.078V0Z" fill="#5279AD"/>
<path d="M238.149 2.06396H234.806V18.2549H238.149V2.06396Z" fill="#5279AD"/>
<path d="M241.237 4.25574H237.813V16.079H241.237V4.25574Z" fill="#5279AD"/>
<path d="M175.961 0H172.89V20.3187H175.961V0Z" fill="#5279AD"/>
<path d="M173.45 2.06396H169.818V18.2549H173.45V2.06396Z" fill="#5279AD"/>
<path d="M170.186 4.25574H166.746V16.079H170.186V4.25574Z" fill="#5279AD"/>
<path d="M109.873 22.2361C109.873 22.2361 112.499 21.9639 113.428 24.4936C114.372 27.0234 115.253 27.856 115.365 29.1849C115.813 34.5646 118.327 33.3478 117.623 36.4379C116.918 39.528 116.422 40.0084 116.422 40.0084L110.418 38.8396L104.333 38.8556C104.333 38.8556 106.719 37.6708 106.175 35.141C105.646 32.6113 104.333 28.4644 105.07 25.6464C105.838 22.7965 108.304 22.4442 109.873 22.2361Z" fill="#163342"/>
<path d="M109.489 90.1072C117.377 90.1072 123.771 83.713 123.771 75.8253C123.771 67.9377 117.377 61.5435 109.489 61.5435C101.601 61.5435 95.207 67.9377 95.207 75.8253C95.207 83.713 101.601 90.1072 109.489 90.1072Z" fill="#EB4747"/>
<path d="M129.439 87.193C129.439 87.193 129.759 88.3619 129.439 89.4506C129.118 90.5394 128.91 92.3646 129.679 93.3733C130.447 94.382 131.712 94.7983 133.537 94.302C135.363 93.8056 135.042 92.3806 134.434 91.1638C133.826 89.947 132.353 87.5613 132.144 86.7768C131.936 85.9602 129.439 87.193 129.439 87.193Z" fill="#FAA146"/>
<path d="M129.583 88.3137C129.583 88.3137 130.768 88.8101 132.625 87.8334L132.145 86.7446L129.439 87.1769L129.583 88.3137Z" fill="#8E4F3A"/>
<path d="M131.392 83.1104C131.008 81.2851 130.047 73.2635 129.407 71.4223C128.782 69.565 127.357 67.2434 126.765 66.3948C126.172 65.5462 123.178 63.0645 122.17 61.8957C121.161 60.7269 117.366 58.1171 117.014 57.7008C116.662 57.2845 116.39 56.7081 116.39 56.7081C113.364 56.66 109.441 57.1244 109.441 57.1244C109.441 57.1244 105.918 56.7241 102.892 56.7721C102.892 56.7721 102.556 57.3005 102.22 57.7168C101.868 58.1331 97.7207 60.7429 96.712 61.9117C95.7033 63.0805 92.7253 65.5622 92.1169 66.4108C91.5245 67.2594 90.0995 69.581 89.475 71.4383C88.8506 73.2956 87.97 81.4612 87.5857 83.2865C87.2015 85.1117 86.6251 86.7609 86.6251 86.7609C86.6251 86.7609 87.5217 87.5294 89.443 87.2252C89.443 87.2252 91.9888 79.4918 93.1576 77.3143C94.3264 75.1528 94.7907 70.8939 95.6393 70.1414C96.4879 69.3889 99.482 68.4762 102.492 66.9071C105.502 65.3381 106.159 64.0412 107.231 64.0091C108.304 63.9771 108.993 64.0732 109.425 64.0412C109.873 64.0732 110.562 63.9771 111.618 64.0091C112.691 64.0412 113.348 65.322 116.358 66.9071C119.368 68.4762 122.362 69.3889 123.21 70.1414C124.059 70.8939 124.523 75.1368 125.692 77.3143C126.861 79.4758 129.407 87.2252 129.407 87.2252C131.328 87.5454 132.113 86.7929 132.113 86.7929C132.113 86.7929 131.76 84.9356 131.392 83.1104Z" fill="#8E4F3A"/>
<path d="M132.625 87.8336C132.625 87.8336 132.513 87.9937 132.113 87.9297C131.696 87.8656 130.736 87.4653 129.583 88.3139C129.583 88.3139 132.497 89.4988 132.625 87.8336Z" fill="#FAA146"/>
<path d="M86.6411 86.7448C86.6411 86.7448 85.8405 88.2658 84.9599 88.7462C84.0793 89.2105 80.3327 91.0037 80.813 92.5568C81.2774 94.0939 86.3529 93.7897 87.3135 92.5568C88.2902 91.324 89.0748 91.9324 89.363 90.7315C89.6512 89.5307 89.459 87.2091 89.459 87.2091C89.459 87.2091 88.6104 87.1771 88.002 86.985C87.4096 86.7928 87.3936 86.4726 86.6411 86.7448Z" fill="#FAA146"/>
<path d="M130.399 76.6258C127.838 76.7218 126.044 77.9066 126.044 77.9066C125.932 77.6665 125.836 77.4583 125.74 77.2822C124.571 75.1207 124.107 70.8618 123.258 70.1092C122.41 69.3567 119.416 68.4441 116.406 66.875C113.396 65.3059 112.739 64.009 111.666 63.977C110.594 63.945 109.905 64.041 109.473 64.009C109.025 64.041 108.336 63.945 107.279 63.977C106.207 64.009 105.55 65.2899 102.54 66.875C99.53 68.4441 96.5359 69.3567 95.6873 70.1092C94.8387 70.8618 94.3744 75.1047 93.2056 77.2822C93.1415 77.3943 93.0775 77.5224 93.0135 77.6505C91.1882 76.4657 88.6104 76.4977 88.5624 76.4977C88.8666 74.3042 89.2028 72.2387 89.475 71.4222C90.0994 69.5649 91.5244 67.2433 92.1168 66.3947C92.7092 65.5461 95.7033 63.0644 96.712 61.8956C97.7207 60.7268 101.868 58.1169 102.22 57.7007C102.572 57.2844 102.892 56.756 102.892 56.756C105.918 56.708 109.441 57.1082 109.441 57.1082C109.441 57.1082 113.364 56.6439 116.39 56.692C116.39 56.692 116.678 57.2684 117.014 57.6846C117.366 58.1009 121.161 60.7107 122.17 61.8796C123.178 63.0484 126.156 65.5301 126.765 66.3787C127.357 67.2273 128.782 69.5489 129.407 71.4061C129.695 72.2547 130.063 74.3842 130.399 76.6258Z" fill="#FCCCA2"/>
<path d="M128.446 31.3144C128.446 31.3144 128.67 30.5139 128.574 30.0976C128.494 29.7614 128.318 29.281 128.238 28.9768C128.158 28.6726 127.95 27.3117 127.998 26.9915C128.014 26.8474 128.43 26.0628 128.43 25.7746C128.43 25.4864 128.35 24.926 128.606 24.926C128.846 24.942 129.054 25.4384 129.054 25.4384C129.054 25.4384 129.07 25.1822 129.294 25.1182C129.727 25.0061 129.903 25.2142 129.903 25.2142C129.903 25.2142 130.095 24.958 130.287 24.958C130.703 24.958 130.88 25.1502 130.88 25.1502C130.88 25.1502 131.088 25.0221 131.36 25.0861C131.712 25.1662 131.824 25.5024 131.824 25.5024C131.824 25.5024 132.289 25.5024 132.385 25.7426C132.481 25.9828 132.433 26.2069 132.449 26.4151C132.481 26.6232 132.225 28.4004 131.456 29.5692C130.832 30.5139 130.591 32.115 130.591 32.115L128.446 31.3144Z" fill="#8E4F3A"/>
<path d="M133.787 26.6384L127.126 25.6003L126.936 26.8185L133.597 27.8566L133.787 26.6384Z" fill="#B85858"/>
<path d="M128.974 25.5825C128.974 25.5825 128.702 27.1515 129.054 27.5678C129.407 27.9841 129.551 27.4237 129.551 27.4237C129.551 27.4237 129.407 27.9841 129.839 28.1442C130.271 28.3043 130.399 27.6319 130.399 27.6319C130.399 27.6319 130.415 28.0802 130.896 28.0802C131.376 28.0802 131.344 27.5038 131.344 27.5038C131.344 27.5038 131.712 28.1282 132.081 27.6639C132.705 26.8794 132.385 25.7426 132.385 25.7426C132.385 25.7426 132.289 25.4704 131.824 25.5024C131.824 25.5024 131.616 24.8299 130.88 25.1502C130.88 25.1502 130.255 24.6378 129.919 25.1982C129.903 25.2142 129.199 24.7018 128.974 25.5825Z" fill="#693A2B"/>
<path d="M128.158 22.2201L127.261 22.06C126.989 22.012 126.717 22.2041 126.669 22.4763L125.468 29.6172C125.42 29.8894 125.612 30.1616 125.884 30.2096L126.781 30.3537C127.053 30.4018 127.325 30.2096 127.373 29.9374L128.574 22.7965C128.622 22.5243 128.446 22.2681 128.158 22.2201Z" fill="#EB7171"/>
<path d="M134.818 23.2609L133.922 23.1008C133.65 23.0527 133.377 23.2449 133.329 23.517L132.128 30.658C132.08 30.9302 132.273 31.2024 132.545 31.2504L133.441 31.3945C133.714 31.4425 133.986 31.2504 134.034 30.9782L135.235 23.8373C135.283 23.5651 135.091 23.3089 134.818 23.2609Z" fill="#EB7171"/>
<path d="M90.7398 31.3625C90.7398 31.3625 90.5157 30.4979 90.6117 30.0816C90.6918 29.7454 90.8679 29.265 90.948 28.9608C91.028 28.6566 91.2362 27.2957 91.1881 26.9755C91.1721 26.8314 90.7558 26.0468 90.7558 25.7586C90.7558 25.4704 90.8359 24.91 90.5797 24.91C90.3396 24.926 90.1314 25.4224 90.1314 25.4224C90.1314 25.4224 90.1154 25.1662 89.8913 25.1022C89.459 24.9901 89.2828 25.1982 89.2828 25.1982C89.2828 25.1982 89.0907 24.9421 88.8986 24.9421C88.4823 24.9421 88.3062 25.1342 88.3062 25.1342C88.3062 25.1342 88.098 25.0061 87.8258 25.0701C87.4736 25.1502 87.3615 25.4864 87.3615 25.4864C87.3615 25.4864 86.8972 25.4864 86.8011 25.7266C86.705 25.9668 86.7531 26.1909 86.7371 26.3991C86.705 26.6072 86.9612 28.3844 87.7298 29.5532C88.3542 30.4979 88.5944 32.099 88.5944 32.099L90.7398 31.3625Z" fill="#8E4F3A"/>
<path d="M85.6049 27.8597L92.2653 26.8217L92.0755 25.6035L85.415 26.6415L85.6049 27.8597Z" fill="#B85858"/>
<path d="M90.2114 25.5825C90.2114 25.5825 90.4836 27.1515 90.1314 27.5678C89.7792 27.9841 89.6351 27.4237 89.6351 27.4237C89.6351 27.4237 89.7792 27.9841 89.3469 28.1442C88.9146 28.3043 88.7865 27.6319 88.7865 27.6319C88.7865 27.6319 88.7705 28.0802 88.2901 28.0802C87.8098 28.0802 87.8418 27.5038 87.8418 27.5038C87.8418 27.5038 87.4736 28.1282 87.1053 27.6639C86.4809 26.8794 86.8011 25.7426 86.8011 25.7426C86.8011 25.7426 86.8972 25.4704 87.3615 25.5024C87.3615 25.5024 87.5696 24.8299 88.3061 25.1502C88.3061 25.1502 88.9306 24.6378 89.2668 25.1982C89.2828 25.2142 89.9873 24.7018 90.2114 25.5825Z" fill="#693A2B"/>
<path d="M91.028 22.2201L91.9247 22.06C92.1968 22.012 92.469 22.2041 92.5171 22.4763L93.7179 29.6172C93.7659 29.8894 93.5738 30.1616 93.3016 30.2096L92.405 30.3537C92.1328 30.4018 91.8606 30.2096 91.8126 29.9374L90.6117 22.7965C90.5637 22.5243 90.7558 22.2681 91.028 22.2201Z" fill="#EB7171"/>
<path d="M84.3674 23.261L85.2641 23.1169C85.5363 23.0688 85.8084 23.261 85.8565 23.5332L87.0573 30.6741C87.1053 30.9463 86.9132 31.2185 86.641 31.2665L85.7444 31.4106C85.4722 31.4586 85.2 31.2665 85.152 30.9943L83.9512 23.8534C83.9031 23.5652 84.0953 23.309 84.3674 23.261Z" fill="#EB7171"/>
<path d="M107.584 33.0438C107.584 33.0438 107.888 35.3174 107.744 36.8864C107.584 38.4555 112.035 37.3027 112.035 37.3027C112.035 37.3027 111.762 33.9084 112.147 32.6755C112.531 31.4587 107.584 33.0438 107.584 33.0438Z" fill="#8E4F3A"/>
<path d="M111.939 35.7173C111.939 35.7173 113.172 36.2937 113.684 36.3898C114.196 36.4698 117.623 39.2558 117.735 39.544C117.847 39.8322 116.934 42.1858 116.582 43.2746C116.23 44.3633 114.757 50.9439 114.885 51.4082C115.029 51.8725 116.326 56.3556 116.422 56.8039C107.488 58.5651 102.684 57.0761 102.684 57.0761C102.684 57.0761 104.285 52.657 104.221 51.7924C104.157 50.9279 103.325 46.0445 102.732 44.6675C102.124 43.2906 101.131 39.8162 101.131 39.8162C101.131 39.8162 105.038 36.7741 105.15 36.5659C105.262 36.3578 107.408 35.9415 107.76 35.6853L111.939 35.7173Z" fill="#8E4F3A"/>
<path d="M113.7 36.39C113.7 36.39 115.589 42.202 116.23 44.6837C116.23 44.6837 115.237 49.1188 115.125 49.7913C115.125 49.7913 109.569 48.7185 103.997 49.9834C103.997 49.9834 102.796 44.7638 102.684 44.4756C102.684 44.4756 104.59 41.0813 105.438 36.438C105.438 36.438 106.159 36.0057 106.687 36.0698C106.687 36.0698 106.159 41.8818 109.985 41.8178C113.812 41.7537 112.627 36.0057 112.627 36.0057C112.627 36.0057 113.3 36.1819 113.7 36.39Z" fill="#FCCCA2"/>
<path d="M113.7 36.3901C113.7 36.3901 115.317 35.8457 117.558 36.6623C119.8 37.4788 119.544 37.3027 121.913 37.719C124.283 38.1513 125.372 38.4395 125.372 38.4395C125.372 38.4395 126.685 35.7496 127.293 34.6929C127.854 33.7162 128.654 30.546 128.654 30.546L130.816 30.9783C130.816 30.9783 129.935 35.9257 129.503 37.3507C128.302 41.2895 127.389 42.042 126.701 42.074C126.012 42.09 123.579 42.3302 121.865 41.9939C120.264 41.6897 118.343 41.4976 116.982 42.2181L113.7 36.3901Z" fill="#8E4F3A"/>
<path d="M105.422 36.4221C105.422 36.4221 103.869 35.8457 101.627 36.6623C99.3858 37.4788 99.642 37.3027 97.2723 37.719C94.9027 38.1513 93.8139 38.4395 93.8139 38.4395C93.8139 38.4395 92.501 35.7496 91.8926 34.6929C91.3322 33.7162 90.5317 30.546 90.5317 30.546L88.3702 30.9783C88.3702 30.9783 89.2508 35.9257 89.6831 37.3507C90.8839 41.2895 91.7965 42.042 92.485 42.074C93.1735 42.09 95.6072 42.3302 97.3204 41.9939C98.9215 41.6897 100.843 41.4976 102.204 42.2181L105.422 36.4221Z" fill="#8E4F3A"/>
<path d="M110.209 23.7092C110.209 23.7092 113.684 24.2055 113.171 29.3291C112.659 34.4526 109.601 34.0363 109.393 34.0363C109.185 34.0363 106.319 34.1484 106.079 27.8881C106.079 27.9041 105.966 23.2769 110.209 23.7092Z" fill="#8E4F3A"/>
<path d="M109.809 25.5665C109.809 25.5665 111.426 27.2636 112.179 28.1282C112.931 28.9928 113.011 30.658 113.011 30.658C113.011 30.658 114.276 29.1049 113.748 27.3117C113.219 25.5024 111.971 21.996 108.784 23.0847C105.614 24.1575 105.486 28.9128 105.87 31.2664C105.886 31.2504 107.311 26.0628 109.809 25.5665Z" fill="#163342"/>
<path d="M108.448 33.8122C108.448 33.8122 109.921 34.5167 111.362 33.476C111.362 33.476 110.962 34.3085 109.905 34.4206C108.848 34.5327 108.448 33.8122 108.448 33.8122Z" fill="#633029"/>
<path d="M21.316 16.4707C21.316 16.4707 20.349 12.6211 22.7391 10.6689C25.1109 8.71674 27.7564 9.41004 29.07 10.6689C30.3836 11.9278 32.0074 14.4638 30.4931 18.0763C28.9788 21.6887 28.6504 20.8312 29.3254 23.495C30.0005 26.1587 30.8215 28.0014 29.4714 29.2055C28.1213 30.4097 26.0596 30.0995 25.8589 28.5852C25.6582 27.0709 25.494 21.6887 25.3481 20.9042C25.2204 20.1014 21.316 16.4707 21.316 16.4707Z" fill="#1C4154"/>
<path d="M26.5523 22.9294C26.5523 22.9294 29.3072 24.0058 30.3107 24.1336C31.3141 24.2613 30.9492 27.2534 30.9492 27.2534C30.9492 27.2534 31.6608 29.3151 31.6243 30.6652C31.5513 32.4714 30.712 32.964 30.6391 33.0917C30.5661 33.2194 29.8363 37.5069 29.7633 38.255C29.6903 39.003 29.964 39.9517 30.1465 40.572C30.3289 41.2653 30.9492 43.8196 30.9492 43.8196C30.9492 43.8196 25.8772 45.3521 18.2327 43.9656C18.2327 43.9656 18.7253 41.9951 18.9077 41.0099C18.9989 40.4808 19.2909 39.4591 19.1631 38.4921C19.0354 37.5252 17.959 33.4384 17.9225 33.037C17.886 32.6538 15.7879 30.501 17.6671 27.9467C17.6671 27.9467 18.1597 25.283 18.2874 24.5714C18.2874 24.5714 21.5715 23.0754 22.429 22.9476C23.3229 22.8017 26.5523 22.9294 26.5523 22.9294Z" fill="#EEA886"/>
<path d="M30.3289 24.1334C30.3289 24.1334 31.6607 24.1699 32.6642 24.8997C33.6676 25.6295 34.3427 28.6034 34.5069 29.0777C34.6711 29.5703 36.5321 32.6355 36.8422 33.6024C37.1524 34.5694 37.3348 35.1897 37.4808 35.135C37.6267 35.0802 39.5607 32.0334 39.8708 31.3036C40.1992 30.4643 41.5311 26.8154 41.5311 26.8154L42.936 29.4244L43.0272 29.6433C43.0272 29.6433 41.6771 33.3105 41.2574 34.6241C40.8378 35.9377 39.8708 39.0211 39.4147 39.4407C38.9586 39.8604 37.1706 40.4442 36.2219 39.6779C35.2732 38.9299 33.0656 35.3904 32.5 34.2045C31.9344 33.0186 30.8397 31.0847 30.8397 31.0847C30.8397 31.0847 29.07 25.3741 30.3289 24.1334Z" fill="#EEA886"/>
<path d="M18.2874 24.553C18.2874 24.553 16.8825 24.5348 16.2257 25.1186C15.5689 25.7025 14.3283 27.1073 14.0364 28.3479C13.7444 29.5886 13.5802 31.8327 13.1788 33.0368C12.7957 34.2592 11.701 37.3973 11.1354 38.5285C10.5699 39.6779 10.059 44.4398 9.7306 45.5892C9.38395 46.7386 8.14331 50.5335 8.14331 50.5335L10.1137 51.537C10.1137 51.537 14.1276 42.7248 14.5107 41.3929C14.8939 40.061 14.9668 38.419 15.3317 37.4338C15.6966 36.4303 17.3022 32.7814 17.5393 32.0699C17.813 31.3948 20.5497 24.8632 18.2874 24.553Z" fill="#EEA886"/>
<path d="M18.032 44.4946C18.032 44.4946 17.3387 45.9176 16.8826 46.8846C16.4264 47.8516 14.7297 51.9749 14.0364 54.8211C13.3613 57.6672 11.847 62.6845 11.6646 64.1076C11.4639 65.5307 10.7888 67.7018 10.132 68.833C9.4752 69.9824 7.94265 73.3577 7.66898 75.547C7.39531 77.7364 5.69855 87.4061 5.69855 87.4061C5.69855 87.4061 6.66552 88.3183 8.48999 87.2237C8.48999 87.2237 11.8653 78.1743 12.6498 76.8607C13.4343 75.547 14.6567 72.0988 14.8391 70.8217C15.0033 69.5445 16.2805 68.1762 17.4481 65.257C18.6158 62.3379 23.3412 54 23.998 52.285C23.998 52.285 24.2169 51.5917 24.8737 51.8107L24.6183 44.4398L18.032 44.4946Z" fill="#285173"/>
<path d="M31.1499 44.4033C31.1499 44.4033 31.8979 45.9359 32.3358 46.9028C32.7919 47.8698 34.6894 52.1573 35.3827 55.0035C36.0577 57.8497 37.3714 62.7028 37.5538 64.1441C37.7545 65.5672 38.4295 67.7383 39.0864 68.8695C39.7432 70.0189 41.2757 73.3942 41.5494 75.5835C41.8231 77.7729 43.5198 87.4426 43.5198 87.4426C43.5198 87.4426 42.5529 88.3548 40.7284 87.2601C40.7284 87.2601 37.3531 78.2108 36.5686 76.8971C35.7841 75.5835 34.5617 72.1353 34.3792 70.8581C34.215 69.581 32.9379 68.2127 31.7702 65.2935C30.6026 62.3744 25.8772 54.0365 25.2204 52.3215C25.2204 52.3215 25.0562 51.5735 24.2899 51.8654L17.9772 44.5858L31.1499 44.4033Z" fill="#285173"/>
<path d="M22.1917 12.1649C22.1917 12.1649 20.6409 14.6279 21.6079 18.0762C22.5749 21.5244 23.9797 21.7251 25.1291 21.3785C26.5157 20.9589 27.8658 18.0397 28.0848 16.7443C28.3037 15.449 29.1794 12.3291 25.8224 11.9277C24.2899 11.7453 22.7391 11.8 22.1917 12.1649Z" fill="#EEA886"/>
<path d="M26.2786 20.3751C26.2786 20.3751 26.2603 24.1152 26.7712 25.1552C27.282 26.1951 22.1553 25.5566 22.1553 25.5566C22.1553 25.5566 22.7756 21.3238 22.5567 20.3203C22.3377 19.2986 26.2786 20.3751 26.2786 20.3751Z" fill="#EEA886"/>
<path d="M21.2978 15.8139C21.2978 15.8139 22.575 12.8218 23.8156 12.9312C23.8156 12.9312 26.2604 16.124 28.4133 17.3647C28.4133 17.3647 31.0588 13.0224 24.8373 11.1432C24.8373 11.125 21.0606 9.64718 21.2978 15.8139Z" fill="#1C4154"/>
<path d="M22.8121 20.6669C22.8121 20.6669 23.6331 21.6521 24.5271 21.5061C25.4211 21.3602 25.9319 20.9041 25.9319 20.9041C25.9319 20.9041 25.5123 21.8893 24.4359 21.8893C23.4871 21.871 22.8121 20.6669 22.8121 20.6669Z" fill="#A77860"/>
<path d="M28.9605 23.7869C28.9605 23.7869 30.566 26.3959 30.9492 27.2534C30.9492 27.2534 33.0473 31.2307 30.639 33.0917C30.639 33.0917 30.3836 35.1716 29.964 36.9048C29.964 36.9048 24.6365 35.8101 18.8712 37.069C18.8712 37.069 17.9225 33.493 17.9225 33.0187C17.9225 33.0187 15.6601 30.2455 17.667 27.9284C17.667 27.9284 19.455 24.316 19.601 23.9693C19.6192 23.9693 23.6878 21.3786 28.9605 23.7869Z" fill="#EB4747"/>
<path d="M45.8916 29.6433C47.7557 29.6433 49.2668 27.9035 49.2668 25.7572C49.2668 23.611 47.7557 21.8711 45.8916 21.8711C44.0275 21.8711 42.5163 23.611 42.5163 25.7572C42.5163 27.9035 44.0275 29.6433 45.8916 29.6433Z" fill="#D1C0BA"/>
<path d="M45.7639 27.9649C46.701 27.9649 47.4607 27.0909 47.4607 26.0127C47.4607 24.9346 46.701 24.0605 45.7639 24.0605C44.8268 24.0605 44.0671 24.9346 44.0671 26.0127C44.0671 27.0909 44.8268 27.9649 45.7639 27.9649Z" fill="#948884"/>
<path d="M43.0089 29.6433C43.0089 29.6433 44.1219 28.2932 44.7969 27.8735C45.4537 27.4539 46.147 26.8336 46.0558 26.195C45.9828 25.5382 45.2895 24.0239 44.8699 23.9692C44.4503 23.9144 42.8812 24.4435 42.8812 24.4435L41.5129 26.8336L43.0089 29.6433Z" fill="#EEA886"/>
<path d="M41.1845 29.2785C43.0486 29.2785 44.5598 27.5386 44.5598 25.3923C44.5598 23.2461 43.0486 21.5062 41.1845 21.5062C39.3204 21.5062 37.8093 23.2461 37.8093 25.3923C37.8093 27.5386 39.3204 29.2785 41.1845 29.2785Z" fill="#EDDAD3"/>
<path d="M40.9838 27.4905C41.9914 27.4905 42.8082 26.5511 42.8082 25.3923C42.8082 24.2336 41.9914 23.2942 40.9838 23.2942C39.9761 23.2942 39.1593 24.2336 39.1593 25.3923C39.1593 26.5511 39.9761 27.4905 40.9838 27.4905Z" fill="#CCBBB5"/>
<path d="M21.5897 23.1483C21.5897 23.1483 18.8165 29.2785 24.1075 29.4427C29.4167 29.6069 27.355 23.7139 27.2091 23.1483C27.2091 23.1483 25.0197 21.78 21.5897 23.1483Z" fill="#EEA886"/>
<path d="M8.78191 86.4754C8.78191 86.4754 8.49 86.7491 8.07037 86.6944C7.65074 86.6396 6.44659 86.1288 5.89925 86.3477C5.37015 86.5666 5.07824 88.9567 4.02004 89.5405C2.9801 90.1244 -0.157993 91.9488 0.0062092 93.4996C0.170412 95.0687 4.40318 94.649 5.49787 93.3537C6.59255 92.0583 7.54127 92.6969 8.41702 91.8029C9.31101 90.8906 8.63595 87.3694 8.78191 86.4754Z" fill="#CCBBB5"/>
<path d="M40.4365 86.4572C40.4365 86.4572 40.7466 86.7491 41.1662 86.6944C41.5859 86.6396 42.79 86.1288 43.3374 86.3477C43.8665 86.5666 44.1584 88.9567 45.2166 89.5405C46.2565 90.1244 49.3946 91.9488 49.2304 93.4996C49.0662 95.0687 44.8334 94.649 43.7387 93.3537C42.6441 92.0583 41.6953 92.6969 40.8196 91.8029C39.9256 90.8906 40.5642 87.3512 40.4365 86.4572Z" fill="#CCBBB5"/>
<path d="M18.2326 43.9289C18.2326 43.9289 24.0345 44.0566 30.9492 43.783L31.2594 44.6405C31.2594 44.6405 26.1508 45.6074 17.9042 44.7499L18.2326 43.9289Z" fill="#3B78AB"/>
<path d="M8.65413 49.7491C8.65413 49.7491 8.2345 50.187 8.10679 50.5702C7.99732 50.8803 7.61418 51.2999 7.43173 51.5371C7.24929 51.7743 6.59248 52.8872 6.50125 53.1792C6.46476 53.3069 6.55599 54.1461 6.44652 54.4015C6.33705 54.6387 6.08163 55.1131 6.30056 55.2043C6.5195 55.2773 6.88439 54.9306 6.88439 54.9306C6.88439 54.9306 6.81141 55.1678 6.97562 55.2955C7.30402 55.551 7.5412 55.4232 7.5412 55.4232C7.5412 55.4232 7.61418 55.7152 7.77838 55.7699C8.14328 55.9159 8.36221 55.8064 8.36221 55.8064C8.36221 55.8064 8.48993 55.9888 8.7636 56.0253C9.11025 56.0801 9.31094 55.8246 9.31094 55.8246C9.31094 55.8246 9.71232 56.0071 9.89477 55.8246C10.0772 55.6422 10.0955 55.4415 10.1867 55.259C10.2779 55.0948 10.7158 53.4346 10.4604 52.1574C10.2049 50.8621 10.9347 49.7856 10.9347 49.7856L8.65413 49.7491Z" fill="#EEA886"/>
<path d="M11.6959 54.4339L5.5061 52.9414L5.2324 54.0765L11.4222 55.569L11.6959 54.4339Z" fill="#D1C0BA"/>
<path d="M6.82972 54.7665C6.82972 54.7665 7.15813 53.2887 7.61424 53.0515C8.07036 52.8143 7.99738 53.3617 7.99738 53.3617C7.99738 53.3617 8.07036 52.8326 8.50823 52.8508C8.94611 52.869 8.81839 53.4894 8.81839 53.4894C8.81839 53.4894 8.9826 53.1062 9.40222 53.2704C9.82185 53.4346 9.58467 53.9272 9.58467 53.9272C9.58467 53.9272 10.132 53.5076 10.278 54.055C10.5334 54.9672 9.85834 55.8429 9.85834 55.8429C9.85834 55.8429 9.67589 56.0436 9.27451 55.8429C9.27451 55.8429 8.85488 56.3538 8.32579 55.8247C8.32579 55.8247 7.596 56.0436 7.50477 55.4233C7.52302 55.4233 6.72025 55.624 6.82972 54.7665Z" fill="#DB9C7C"/>
<path d="M4.85924 57.3934L4.1477 57.2292C3.85579 57.1562 3.67334 56.8643 3.74632 56.5724L5.24238 50.0408C5.31536 49.7489 5.60728 49.5664 5.89919 49.6394L6.61074 49.8036C6.90265 49.8766 7.0851 50.1685 7.01212 50.4604L5.51605 56.992C5.44307 57.2839 5.15116 57.4664 4.85924 57.3934Z" fill="#EDDAD3"/>
<path d="M11.0442 58.8896L10.3326 58.7254C10.0407 58.6524 9.85827 58.3605 9.93125 58.0686L11.4273 51.537C11.5003 51.2451 11.7922 51.0626 12.0841 51.1356L12.7957 51.2998C13.0876 51.3728 13.27 51.6647 13.1971 51.9566L11.6827 58.47C11.628 58.7619 11.3361 58.9443 11.0442 58.8896Z" fill="#EDDAD3"/>
</svg>
