<svg width="614" height="123" viewBox="0 0 614 123" fill="none" xmlns="http://www.w3.org/2000/svg">
<path d="M586.942 63.1108C586.942 63.1108 587.628 64.9388 587.925 65.51C588.222 66.0812 594.62 78.3053 595.168 81.1615C595.716 84.0176 597.796 90.8265 598.344 91.6491C598.892 92.4717 600.675 97.7726 601.566 102.137C602.457 106.501 604.353 113.972 604.742 114.886C605.13 115.8 601.314 115.846 601.314 115.846C601.314 115.846 595.762 104.787 594.528 102.754C593.294 100.72 592.152 97.2242 591.992 94.985C591.832 92.7458 590.256 91.5806 588.862 89.8897C587.468 88.1989 580.773 75.335 579.539 74.1697C578.306 73.0044 577.529 73.0958 577.529 73.0958V63.7735L586.942 63.1108Z" fill="#2F4563"/>
<path d="M568.549 63.1108C568.549 63.1108 567.864 64.9388 567.566 65.51C567.269 66.0812 560.163 79.0594 559.615 81.9155C559.067 84.7716 557.696 90.8265 557.147 91.6491C556.599 92.4717 554.817 97.7726 553.926 102.137C553.035 106.501 551.138 113.972 550.75 114.886C550.361 115.8 554.177 115.846 554.177 115.846C554.177 115.846 559.729 104.787 560.963 102.754C562.197 100.72 563.339 97.2242 563.499 94.985C563.659 92.7458 565.236 91.5806 566.63 89.8897C568.023 88.1989 574.718 75.335 575.952 74.1697C577.186 73.0044 577.986 73.0958 577.986 73.0958L577.963 63.7735L568.549 63.1108Z" fill="#2F4563"/>
<path d="M604.993 114.384C604.993 114.384 606.364 116.463 607.438 117.057C608.512 117.628 612.465 119.273 613.127 120.622C613.584 121.558 612.967 123.432 609.152 122.815C605.359 122.198 604.056 120.142 602.891 119.913C601.749 119.685 600.492 118.794 600.4 117.103C600.332 115.412 601.017 115.709 600.88 115.092C600.72 114.452 604.993 114.384 604.993 114.384Z" fill="#DBDFF0"/>
<path d="M550.658 114.384C550.658 114.384 549.287 116.463 548.214 117.057C547.14 117.628 543.187 119.273 542.524 120.622C542.067 121.558 542.684 123.432 546.5 122.815C550.293 122.198 551.595 120.142 552.76 119.913C553.903 119.685 555.16 118.794 555.228 117.103C555.297 115.412 554.611 115.709 554.748 115.092C554.931 114.452 550.658 114.384 550.658 114.384Z" fill="#DBDFF0"/>
<path d="M589.25 41.93C588.245 38.4341 589.753 31.1225 589.753 31.1225C587.788 30.2771 585.252 31.0082 584.178 31.0082C583.081 31.0082 580.111 30.1857 580.111 30.1857H577.689H575.267C575.267 30.1857 572.273 31.0082 571.2 31.0082C570.103 31.0082 567.589 30.2542 565.624 31.1225C565.624 31.1225 567.155 38.5712 566.127 42.0671C566.127 42.0671 568.503 48.6019 569.075 49.5615C569.646 50.5212 569.075 54.1085 569.052 54.9996C569.029 56.2791 568.823 59.9578 568.572 63.1109C568.572 63.1109 571.474 64.8474 577.689 64.9845C583.858 64.5961 586.965 63.1109 586.965 63.1109C586.577 59.3637 586.325 56.1877 586.166 54.9767C586.051 54.0856 585.731 50.544 586.303 49.5615C586.874 48.579 589.25 41.93 589.25 41.93Z" fill="#E55353"/>
<path d="M589.753 31.1224C589.753 31.1224 591.421 31.8993 592.221 31.945C592.997 31.9907 594.231 30.8025 595.739 30.9396C597.247 31.0767 597.819 31.8764 599.235 31.8079C600.652 31.7393 601.132 31.4423 601.246 30.9168C601.337 30.3912 603.142 27.1924 602.388 22.7826C601.634 18.3727 603.759 19.7208 603.759 19.7208C603.759 19.7208 605.838 23.468 606.25 27.6265C606.661 31.785 605.359 35.8293 605.29 36.4005C605.244 36.9717 604.925 37.7943 604.536 38.0228C604.148 38.2513 599.189 38.6625 597.476 38.7539C595.762 38.8453 592.221 38.2741 591.284 38.9139C590.324 39.5536 589.136 42.2041 589.136 42.2041C589.136 42.2041 587.491 34.0471 589.753 31.1224Z" fill="#EEA886"/>
<path d="M565.579 31.1224C565.579 31.1224 563.911 31.8993 563.111 31.945C562.334 31.9907 561.1 30.8025 559.592 30.9396C558.084 31.0767 557.513 31.8764 556.096 31.8079C554.68 31.7393 554.2 31.4423 554.086 30.9168C553.994 30.3912 552.189 27.1924 552.943 22.7826C553.697 18.3727 551.572 19.7208 551.572 19.7208C551.572 19.7208 549.493 23.468 549.082 27.6265C548.67 31.785 549.973 35.8293 550.041 36.4005C550.087 36.9717 550.407 37.7943 550.795 38.0228C551.184 38.2513 556.142 38.6625 557.856 38.7539C559.569 38.8453 563.111 38.2741 564.048 38.9139C565.007 39.5536 566.104 42.0213 566.104 42.0213C566.104 42.0213 567.841 34.0471 565.579 31.1224Z" fill="#EEA886"/>
<path d="M580.75 26.2327C580.75 26.2327 580.385 28.5405 581.139 30.117C581.139 30.117 581.961 33.7729 578.191 34.0242C574.444 34.2755 574.284 30.8939 574.284 30.8939C574.284 30.8939 575.152 29.6601 574.49 26.3927C573.804 23.1253 580.75 26.2327 580.75 26.2327Z" fill="#EEA886"/>
<path d="M578.168 12.9347C578.168 12.9347 582.989 13.5973 582.441 21.3431C581.87 29.066 577.62 28.5176 577.323 28.5176C577.049 28.5176 573.073 28.7461 572.548 19.3552C572.548 19.3552 572.273 12.3863 578.168 12.9347Z" fill="#EEA886"/>
<path d="M582.464 19.1497C582.464 19.1497 582.99 18.5556 583.195 19.1497C583.401 19.7209 582.578 22.2571 582.51 22.4627C582.51 22.4627 582.418 22.6912 582.281 22.577C582.167 22.4627 582.464 19.1497 582.464 19.1497Z" fill="#EEA886"/>
<path d="M572.662 19.2867C572.662 19.2867 572.136 18.7155 571.931 19.2867C571.748 19.8808 572.639 22.4856 572.685 22.5998C572.685 22.5998 572.776 22.8283 572.913 22.6912C573.05 22.577 572.662 19.2867 572.662 19.2867Z" fill="#EEA886"/>
<path d="M582.487 20.3377L581.824 21.2974C581.824 21.2974 581.801 19.2181 581.687 18.8983C581.573 18.5784 581.779 17.4359 581.687 17.2074C581.596 16.9789 578.42 17.9157 573.142 17.5045C573.142 17.5045 573.759 19.3552 573.439 19.4923C573.096 19.6294 573.324 21.9143 573.324 21.9143L572.753 21.2745C572.753 21.2745 572.022 17.3674 572.068 16.7276C572.136 15.8593 571.748 11.8151 579.151 12.3406C579.973 12.4092 580.796 12.7062 581.481 13.2089C582.258 13.7801 583.058 14.6941 583.012 15.9736C582.944 17.6416 582.487 20.3377 582.487 20.3377Z" fill="#FCCCA2"/>
<path d="M574.787 27.3295C574.787 27.3295 576.98 29.7743 580.339 27.2152C580.339 27.2152 579.425 29.1345 577.437 29.2259C575.427 29.3173 574.787 27.3295 574.787 27.3295Z" fill="#A77860"/>
<path d="M571.908 30.9396C571.908 30.9396 572.022 39.7592 577.666 40.0334V29.9114C577.666 29.9114 575.038 30.0028 571.908 30.9396Z" fill="#EEA886"/>
<path d="M583.447 30.9396C583.447 30.9396 583.332 39.7592 577.666 40.0334V29.9114C577.666 29.9114 580.293 30.0028 583.447 30.9396Z" fill="#EEA886"/>
<path d="M600.629 26.5985C604.087 26.5985 606.889 23.7955 606.889 20.3379C606.889 16.8802 604.087 14.0773 600.629 14.0773C597.171 14.0773 594.368 16.8802 594.368 20.3379C594.368 23.7955 597.171 26.5985 600.629 26.5985Z" fill="#434343"/>
<path d="M600.629 23.3766C602.307 23.3766 603.668 22.0161 603.668 20.3377C603.668 18.6594 602.307 17.2988 600.629 17.2988C598.951 17.2988 597.59 18.6594 597.59 20.3377C597.59 22.0161 598.951 23.3766 600.629 23.3766Z" fill="#6B6B6B"/>
<path d="M554.84 26.5985C558.297 26.5985 561.1 23.7955 561.1 20.3379C561.1 16.8802 558.297 14.0773 554.84 14.0773C551.382 14.0773 548.579 16.8802 548.579 20.3379C548.579 23.7955 551.382 26.5985 554.84 26.5985Z" fill="#434343"/>
<path d="M554.84 23.3766C556.518 23.3766 557.879 22.0161 557.879 20.3377C557.879 18.6594 556.518 17.2988 554.84 17.2988C553.161 17.2988 551.801 18.6594 551.801 20.3377C551.801 22.0161 553.161 23.3766 554.84 23.3766Z" fill="#6B6B6B"/>
<path d="M477.897 19.2501C477.897 19.2501 478.064 18.1887 477.876 17.6893C477.71 17.273 477.398 16.7111 477.231 16.3366C477.065 15.962 476.565 14.2971 476.565 13.8601C476.565 13.6936 477.002 12.5906 476.961 12.2368C476.919 11.883 476.711 11.1755 477.044 11.1338C477.377 11.113 477.751 11.6957 477.751 11.6957C477.751 11.6957 477.793 11.3836 478.084 11.2795C478.646 11.0714 478.854 11.3003 478.854 11.3003C478.854 11.3003 479.062 10.9257 479.333 10.8841C479.895 10.8009 480.165 11.0922 480.165 11.0922C480.165 11.0922 480.415 10.8841 480.79 10.9049C481.289 10.9465 481.456 11.3627 481.456 11.3627C481.456 11.3627 482.101 11.2587 482.267 11.5292C482.434 11.8206 482.434 12.0911 482.496 12.3617C482.559 12.6114 482.517 14.9006 481.685 16.5238C480.998 17.8349 480.956 19.8952 480.956 19.8952L477.897 19.2501Z" fill="#EEA886"/>
<path d="M435.693 19.2501C435.693 19.2501 435.526 18.1887 435.713 17.6893C435.88 17.2731 436.192 16.7112 436.359 16.3366C436.525 15.962 437.025 14.2971 437.025 13.8601C437.025 13.6936 436.588 12.5906 436.629 12.2368C436.671 11.883 436.879 11.1755 436.546 11.1338C436.213 11.113 435.838 11.6957 435.838 11.6957C435.838 11.6957 435.859 11.3628 435.568 11.2587C435.006 11.0506 434.715 11.2587 434.715 11.2587C434.715 11.2587 434.506 10.9049 434.236 10.8841C433.674 10.8009 433.403 11.0298 433.403 11.0298C433.403 11.0298 433.154 10.8425 432.758 10.8633C432.259 10.9049 432.072 11.3211 432.072 11.3211C432.072 11.3211 431.447 11.2379 431.26 11.5084C431.093 11.7998 431.114 12.0912 431.052 12.3409C430.989 12.5906 431.031 14.8798 431.863 16.5031C432.55 17.8141 432.592 19.8744 432.592 19.8744L435.693 19.2501Z" fill="#EEA886"/>
<path d="M494.691 12.3201H419.189V13.9017H494.691V12.3201Z" fill="#6392D1"/>
<path d="M450.822 47.1991C450.822 47.1991 448.783 48.2812 447.597 48.3645C446.39 48.4477 443.684 46.7412 442.581 45.2428C441.478 43.7445 441.478 43.5988 440.209 42.2669C438.939 40.935 437.274 37.2306 436.858 35.7323C436.442 34.2131 434.673 31.1331 434.486 30.4463C434.298 29.7595 433.445 26.8252 433.091 25.3268C432.717 23.7036 432.509 18.6465 432.509 18.6465L435.63 18.4176C435.63 18.4176 438.315 25.4101 439.251 27.3039C440.209 29.1768 439.668 30.3422 440.625 31.8198C441.561 33.2974 444.85 36.9393 445.661 39.1452C446.473 41.3512 448.387 41.6634 449.49 44.0774C450.552 46.4499 450.822 47.1991 450.822 47.1991Z" fill="#EEA886"/>
<path d="M462.788 47.3656C462.788 47.3656 464.828 48.4477 466.014 48.531C466.347 48.5518 466.805 48.4477 467.304 48.2188C467.388 48.1772 467.471 48.1356 467.575 48.0939C469.053 47.4072 470.509 46.1585 471.071 45.3677C472.153 43.911 472.174 43.7445 473.423 42.4126C474.11 41.705 474.88 40.3315 475.546 38.958C476.107 37.7509 476.586 36.5855 476.773 35.8779C477.19 34.3588 478.959 31.2787 479.146 30.5712C480.478 25.5141 480.852 26.0344 481.081 18.6673L477.98 18.5009C477.98 18.5009 475.337 25.5141 474.38 27.4079C473.423 29.2809 473.964 30.4463 473.027 31.9239C472.174 33.2766 469.386 36.3982 468.283 38.6042C468.178 38.8331 468.074 39.0412 467.991 39.2493C467.721 39.9569 467.346 40.4772 466.909 40.935C466.014 41.8715 464.89 42.5582 464.162 44.1815C463.08 46.6164 462.788 47.3656 462.788 47.3656Z" fill="#EEA886"/>
<path d="M481.872 115.5C481.498 114.647 479.77 107.759 478.938 103.742C478.105 99.7258 476.461 94.8353 475.962 94.0861C475.462 93.3161 473.527 87.052 473.027 84.409C472.528 81.766 466.639 70.5073 466.368 69.9871C466.097 69.446 465.473 67.7811 465.473 67.7811L456.982 68.4055L448.491 67.7811C448.491 67.7811 447.867 69.4668 447.597 69.9871C447.326 70.5282 440.771 82.4736 440.271 85.1166C439.772 87.7596 438.502 93.3369 438.003 94.0861C437.503 94.8561 435.859 99.7258 435.027 103.742C434.194 107.759 432.467 114.647 432.092 115.5C431.718 116.354 435.256 116.395 435.256 116.395C435.256 116.395 440.375 106.198 441.52 104.325C442.664 102.452 443.705 99.2264 443.851 97.1661C443.996 95.1058 445.453 94.0445 446.723 92.4628C448.013 90.902 454.173 79.0398 455.317 77.9785C456.67 76.709 457.315 76.7506 458.626 77.9785C459.771 79.0606 465.952 90.902 467.221 92.4628C468.512 94.0237 469.968 95.1058 470.093 97.1661C470.239 99.2264 471.279 102.452 472.424 104.325C473.569 106.198 478.688 116.395 478.688 116.395C478.688 116.395 482.226 116.354 481.872 115.5Z" fill="#2F4563"/>
<path d="M481.601 114.689C481.601 114.689 483.349 116.978 484.348 117.519C485.347 118.06 488.989 119.559 489.593 120.807C490.009 121.681 489.447 123.388 485.93 122.826C482.434 122.264 481.227 120.37 480.165 120.141C479.104 119.912 477.939 119.101 477.876 117.54C477.814 115.979 478.438 116.27 478.313 115.688C478.168 115.126 481.601 114.689 481.601 114.689Z" fill="#5279AD"/>
<path d="M432.342 114.793C432.342 114.793 430.76 116.978 429.762 117.519C428.763 118.06 425.121 119.559 424.517 120.807C424.101 121.681 424.663 123.388 428.18 122.826C431.676 122.264 432.883 120.37 433.945 120.141C435.006 119.912 436.171 119.101 436.234 117.54C436.296 115.979 435.672 116.27 435.797 115.688C435.942 115.126 432.342 114.793 432.342 114.793Z" fill="#5279AD"/>
<path d="M467.575 48.2604C466.638 45.0348 468.053 38.292 468.053 38.292C466.243 37.5012 463.912 38.188 462.913 38.188C461.914 38.188 459.146 37.418 459.146 37.418H456.92H454.693C454.693 37.418 451.925 38.188 450.926 38.188C449.927 38.188 447.596 37.5012 445.786 38.292C445.786 38.292 447.201 45.1596 446.264 48.3645C446.264 48.3645 448.45 54.3788 448.97 55.2737C449.49 56.1686 448.97 59.4567 448.949 60.2891C448.928 61.4754 448.741 64.8675 448.491 67.7602C448.491 67.7602 451.176 69.3627 456.899 69.4875C462.58 69.1129 465.452 67.7602 465.452 67.7602C465.098 64.3056 464.869 61.3921 464.724 60.2475C464.62 59.4151 464.328 56.1478 464.849 55.2529C465.39 54.3997 467.575 48.2604 467.575 48.2604Z" fill="#E55353"/>
<path d="M473.548 38.1465C474.463 38.2298 475.004 38.5835 475.629 38.7916C475.587 38.8541 475.566 38.9373 475.525 38.9998C474.879 40.3733 474.089 41.7468 473.402 42.4544C472.195 43.7238 472.132 43.9319 471.175 45.243C470.405 45.243 469.76 45.3055 469.448 45.5344C468.824 45.9506 468.074 47.3449 467.7 48.0733C467.554 48.3647 467.471 48.5728 467.471 48.5728C467.471 48.5728 467.45 48.4479 467.408 48.219C467.221 47.0952 466.659 43.5157 467.117 40.7895C467.284 39.8114 467.575 38.9373 468.054 38.313C468.054 38.313 468.178 38.3754 468.386 38.4587C468.886 38.6668 469.802 39.0414 470.322 39.083C471.029 39.1038 472.153 38.0216 473.548 38.1465Z" fill="#EEA886"/>
<path d="M446.244 48.3645C446.244 48.3645 446.161 48.198 446.036 47.9483C445.703 47.2615 444.995 45.9296 444.35 45.5134C444.017 45.2845 443.33 45.222 442.54 45.222C441.457 43.7653 441.437 43.5988 440.188 42.2669C439.501 41.5593 438.731 40.1858 438.065 38.8123C438.752 38.6042 439.293 38.2296 440.25 38.1463C441.645 38.0215 442.768 39.1244 443.497 39.062C443.975 39.0204 444.829 38.7082 445.328 38.4793C445.578 38.3753 445.765 38.292 445.765 38.292C446.244 38.9163 446.535 39.8112 446.702 40.8101C447.118 43.5988 446.473 47.865 446.244 48.3645Z" fill="#EEA886"/>
<path d="M459.75 33.7969C459.75 33.7969 459.438 36.1694 460.145 37.6262C460.145 37.6262 460.853 40.7478 457.398 40.9767C453.944 41.2056 453.777 38.1048 453.777 38.1048C453.777 38.1048 454.589 36.981 453.965 33.9634C453.361 30.925 459.75 33.7969 459.75 33.7969Z" fill="#EEA886"/>
<path d="M457.419 21.5393C457.419 21.5393 461.894 22.1637 461.373 29.281C460.853 36.3983 456.92 35.8989 456.649 35.8989C456.379 35.8989 452.716 36.107 452.237 27.4496C452.217 27.4496 451.946 21.0399 457.419 21.5393Z" fill="#EEA886"/>
<path d="M461.332 27.2622C461.332 27.2622 461.81 26.7211 461.998 27.2622C462.185 27.8033 461.436 30.1341 461.373 30.3214C461.373 30.3214 461.29 30.5295 461.165 30.4255C461.04 30.3006 461.332 27.2622 461.332 27.2622Z" fill="#EEA886"/>
<path d="M452.3 27.3871C452.3 27.3871 451.821 26.8668 451.634 27.3871C451.467 27.9282 452.3 30.3423 452.341 30.4255C452.341 30.4255 452.424 30.6336 452.549 30.5087C452.653 30.4047 452.3 27.3871 452.3 27.3871Z" fill="#EEA886"/>
<path d="M461.415 28.3653L460.791 29.2393C460.791 29.2393 460.77 27.3247 460.666 27.0334C460.562 26.742 460.749 25.6807 460.666 25.4726C460.582 25.2644 457.627 26.1177 452.758 25.7431C452.758 25.7431 453.34 27.4496 453.028 27.5745C452.716 27.6993 452.924 29.8012 452.924 29.8012L452.383 29.2185C452.383 29.2185 451.717 25.6182 451.759 25.0147C451.821 24.2031 451.467 20.4779 458.314 20.9774C459.105 21.0398 459.854 21.3104 460.499 21.7682C461.207 22.2885 461.956 23.1417 461.914 24.3071C461.852 25.868 461.415 28.3653 461.415 28.3653Z" fill="#E8734D"/>
<path d="M454.256 34.8166C454.256 34.8166 456.275 37.085 459.375 34.7125C459.375 34.7125 458.543 36.4814 456.691 36.5647C454.839 36.6271 454.256 34.8166 454.256 34.8166Z" fill="#A77860"/>
<path d="M451.592 38.1255C451.592 38.1255 451.696 46.2418 456.92 46.4915V37.1682C456.92 37.189 454.485 37.2723 451.592 38.1255Z" fill="#EEA886"/>
<path d="M462.226 38.1255C462.226 38.1255 462.122 46.2418 456.899 46.4915V37.1682C456.92 37.189 459.334 37.2723 462.226 38.1255Z" fill="#EEA886"/>
<path d="M477.647 11.9039C477.647 11.9039 477.543 13.9433 478.105 14.4012C478.667 14.859 478.75 14.1306 478.75 14.1306C478.75 14.1306 478.646 14.859 479.271 14.9839C479.895 15.1087 479.937 14.2555 479.937 14.2555C479.937 14.2555 480.02 14.8174 480.686 14.7342C481.352 14.6509 481.206 13.9225 481.206 13.9225C481.206 13.9225 481.81 14.6509 482.226 14.0058C482.933 12.9028 482.309 11.5293 482.309 11.5293C482.309 11.5293 482.122 11.2171 481.497 11.342C481.497 11.342 481.102 10.5304 480.165 11.0506C480.165 11.0506 479.229 10.5095 478.854 11.3004C478.854 11.2795 477.814 10.7593 477.647 11.9039Z" fill="#D6926F"/>
<path d="M435.942 11.9039C435.942 11.9039 436.046 13.9433 435.484 14.4012C434.923 14.859 434.839 14.1306 434.839 14.1306C434.839 14.1306 434.943 14.859 434.319 14.9839C433.695 15.1087 433.653 14.2555 433.653 14.2555C433.653 14.2555 433.57 14.8174 432.904 14.7342C432.238 14.6509 432.384 13.9225 432.384 13.9225C432.384 13.9225 431.78 14.6509 431.364 14.0058C430.656 12.9028 431.281 11.5293 431.281 11.5293C431.281 11.5293 431.468 11.2171 432.092 11.342C432.092 11.342 432.488 10.5304 433.424 11.0506C433.424 11.0506 434.361 10.5095 434.735 11.3004C434.735 11.2795 435.776 10.7593 435.942 11.9039Z" fill="#D6926F"/>
<path d="M497.501 0H493.505V26.4298H497.501V0Z" fill="#5279AD"/>
<path d="M501.497 2.68469H497.147V23.7453H501.497V2.68469Z" fill="#5279AD"/>
<path d="M505.513 5.53577H501.06V20.915H505.513V5.53577Z" fill="#5279AD"/>
<path d="M420.605 0H416.609V26.4298H420.605V0Z" fill="#5279AD"/>
<path d="M417.337 2.68469H412.613V23.7453H417.337V2.68469Z" fill="#5279AD"/>
<path d="M413.092 5.53577H408.618V20.915H413.092V5.53577Z" fill="#5279AD"/>
<path d="M338.738 28.9241C338.738 28.9241 342.153 28.57 343.361 31.8606C344.59 35.1512 345.735 36.2342 345.881 37.9628C346.464 44.9606 349.734 43.3778 348.818 47.3973C347.901 51.4168 347.256 52.0416 347.256 52.0416L339.446 50.5213L331.531 50.5421C331.531 50.5421 334.635 49.0009 333.927 45.7103C333.239 42.4197 331.531 37.0256 332.49 33.3601C333.489 29.653 336.697 29.1948 338.738 28.9241Z" fill="#163342"/>
<path d="M338.238 117.208C348.498 117.208 356.815 108.891 356.815 98.631C356.815 88.371 348.498 80.0536 338.238 80.0536C327.978 80.0536 319.66 88.371 319.66 98.631C319.66 108.891 327.978 117.208 338.238 117.208Z" fill="#EB4747"/>
<path d="M364.187 113.418C364.187 113.418 364.604 114.938 364.187 116.354C363.771 117.771 363.5 120.145 364.5 121.457C365.5 122.769 367.145 123.31 369.519 122.665C371.893 122.019 371.477 120.166 370.685 118.583C369.894 117 367.978 113.897 367.707 112.876C367.436 111.814 364.187 113.418 364.187 113.418Z" fill="#FAA146"/>
<path d="M364.375 114.876C364.375 114.876 365.916 115.521 368.332 114.251L367.707 112.835L364.188 113.397L364.375 114.876Z" fill="#8E4F3A"/>
<path d="M366.728 108.107C366.229 105.733 364.979 95.2987 364.146 92.9036C363.334 90.4877 361.48 87.4679 360.709 86.3641C359.939 85.2602 356.044 82.0321 354.732 80.5118C353.42 78.9914 348.484 75.5967 348.026 75.0552C347.568 74.5137 347.214 73.7639 347.214 73.7639C343.278 73.7015 338.175 74.3054 338.175 74.3054C338.175 74.3054 333.593 73.7848 329.657 73.8472C329.657 73.8472 329.22 74.5345 328.782 75.076C328.324 75.6175 322.93 79.0122 321.618 80.5326C320.306 82.0529 316.432 85.2811 315.641 86.3849C314.87 87.4887 313.016 90.5086 312.204 92.9244C311.392 95.3403 310.247 105.962 309.747 108.336C309.247 110.71 308.497 112.856 308.497 112.856C308.497 112.856 309.663 113.855 312.163 113.46C312.163 113.46 315.474 103.4 316.994 100.568C318.515 97.7562 319.119 92.2163 320.222 91.2375C321.326 90.2586 325.221 89.0715 329.136 87.0305C333.052 84.9895 333.906 83.3025 335.301 83.2609C336.696 83.2192 337.592 83.3442 338.154 83.3025C338.737 83.3442 339.633 83.2192 341.007 83.2609C342.403 83.3025 343.257 84.9687 347.172 87.0305C351.088 89.0715 354.982 90.2586 356.086 91.2375C357.19 92.2163 357.794 97.7354 359.314 100.568C360.834 103.379 364.146 113.46 364.146 113.46C366.645 113.876 367.666 112.897 367.666 112.897C367.666 112.897 367.207 110.481 366.728 108.107Z" fill="#8E4F3A"/>
<path d="M368.332 114.251C368.332 114.251 368.186 114.459 367.666 114.376C367.124 114.293 365.875 113.772 364.375 114.876C364.375 114.876 368.165 116.417 368.332 114.251Z" fill="#FAA146"/>
<path d="M308.518 112.835C308.518 112.835 307.477 114.813 306.331 115.438C305.186 116.042 300.312 118.375 300.937 120.395C301.541 122.394 308.143 121.998 309.393 120.395C310.663 118.791 311.684 119.583 312.058 118.021C312.433 116.459 312.183 113.439 312.183 113.439C312.183 113.439 311.08 113.397 310.288 113.147C309.518 112.897 309.497 112.481 308.518 112.835Z" fill="#FAA146"/>
<path d="M365.437 99.6722C362.105 99.7972 359.772 101.338 359.772 101.338C359.627 101.026 359.502 100.755 359.377 100.526C357.856 97.7145 357.252 92.1746 356.149 91.1958C355.045 90.2169 351.15 89.0298 347.235 86.9888C343.319 84.9478 342.465 83.2608 341.07 83.2192C339.675 83.1775 338.779 83.3025 338.217 83.2608C337.634 83.3025 336.738 83.1775 335.364 83.2192C333.968 83.2608 333.114 84.927 329.199 86.9888C325.283 89.0298 321.389 90.2169 320.285 91.1958C319.181 92.1746 318.577 97.6937 317.057 100.526C316.974 100.672 316.89 100.839 316.807 101.005C314.433 99.464 311.08 99.5056 311.017 99.5056C311.413 96.6524 311.85 93.9657 312.204 92.9036C313.017 90.4877 314.87 87.4678 315.641 86.364C316.411 85.2602 320.306 82.0321 321.618 80.5117C322.93 78.9914 328.324 75.5966 328.782 75.0551C329.241 74.5136 329.657 73.8264 329.657 73.8264C333.593 73.7639 338.175 74.2845 338.175 74.2845C338.175 74.2845 343.278 73.6806 347.214 73.7431C347.214 73.7431 347.589 74.4928 348.026 75.0343C348.484 75.5758 353.42 78.9705 354.732 80.4909C356.044 82.0112 359.918 85.2394 360.71 86.3432C361.48 87.447 363.334 90.4669 364.146 92.8827C364.521 93.9866 365 96.7565 365.437 99.6722Z" fill="#FCCCA2"/>
<path d="M362.896 40.7329C362.896 40.7329 363.188 39.6916 363.063 39.1501C362.959 38.7127 362.73 38.0879 362.626 37.6922C362.521 37.2965 362.251 35.5263 362.313 35.1097C362.334 34.9223 362.876 33.9018 362.876 33.5269C362.876 33.152 362.771 32.4231 363.105 32.4231C363.417 32.4439 363.688 33.0895 363.688 33.0895C363.688 33.0895 363.709 32.7563 364 32.673C364.562 32.5272 364.792 32.798 364.792 32.798C364.792 32.798 365.041 32.4647 365.291 32.4647C365.833 32.4647 366.062 32.7147 366.062 32.7147C366.062 32.7147 366.333 32.5481 366.687 32.6314C367.145 32.7355 367.291 33.1729 367.291 33.1729C367.291 33.1729 367.895 33.1729 368.02 33.4853C368.145 33.7977 368.082 34.0892 368.103 34.36C368.145 34.6307 367.811 36.9425 366.812 38.4628C366 39.6916 365.687 41.7743 365.687 41.7743L362.896 40.7329Z" fill="#8E4F3A"/>
<path d="M369.843 34.6504L361.179 33.3002L360.932 34.8847L369.596 36.235L369.843 34.6504Z" fill="#B85858"/>
<path d="M363.584 33.2769C363.584 33.2769 363.23 35.3179 363.688 35.8594C364.146 36.4009 364.333 35.6719 364.333 35.6719C364.333 35.6719 364.146 36.4009 364.708 36.6091C365.271 36.8174 365.437 35.9427 365.437 35.9427C365.437 35.9427 365.458 36.5258 366.083 36.5258C366.708 36.5258 366.666 35.7761 366.666 35.7761C366.666 35.7761 367.145 36.5883 367.624 35.9843C368.436 34.9638 368.02 33.4851 368.02 33.4851C368.02 33.4851 367.895 33.1311 367.291 33.1727C367.291 33.1727 367.02 32.298 366.062 32.7146C366.062 32.7146 365.25 32.0481 364.812 32.777C364.792 32.7979 363.875 32.1314 363.584 33.2769Z" fill="#693A2B"/>
<path d="M362.522 28.9033L361.355 28.695C361.001 28.6325 360.647 28.8825 360.585 29.2365L359.023 38.5252C358.96 38.8792 359.21 39.2333 359.564 39.2958L360.73 39.4832C361.084 39.5457 361.439 39.2958 361.501 38.9417L363.063 29.653C363.126 29.299 362.896 28.9658 362.522 28.9033Z" fill="#EB7171"/>
<path d="M371.185 30.257L370.019 30.0488C369.665 29.9863 369.311 30.2362 369.248 30.5903L367.686 39.879C367.624 40.233 367.874 40.5871 368.228 40.6495L369.394 40.837C369.748 40.8995 370.102 40.6495 370.165 40.2955L371.727 31.0068C371.789 30.6527 371.539 30.3195 371.185 30.257Z" fill="#EB7171"/>
<path d="M313.849 40.7954C313.849 40.7954 313.558 39.6707 313.683 39.1292C313.787 38.6919 314.016 38.0671 314.12 37.6714C314.224 37.2757 314.495 35.5054 314.433 35.0889C314.412 34.9014 313.87 33.8809 313.87 33.506C313.87 33.1312 313.974 32.4022 313.641 32.4022C313.329 32.423 313.058 33.0687 313.058 33.0687C313.058 33.0687 313.037 32.7354 312.746 32.6521C312.183 32.5064 311.954 32.7771 311.954 32.7771C311.954 32.7771 311.704 32.4439 311.454 32.4439C310.913 32.4439 310.684 32.6938 310.684 32.6938C310.684 32.6938 310.413 32.5272 310.059 32.6105C309.601 32.7146 309.455 33.152 309.455 33.152C309.455 33.152 308.851 33.152 308.726 33.4644C308.601 33.7768 308.664 34.0684 308.643 34.3391C308.601 34.6098 308.934 36.9216 309.934 38.4419C310.746 39.6707 311.059 41.7534 311.059 41.7534L313.849 40.7954Z" fill="#8E4F3A"/>
<path d="M307.17 36.2391L315.834 34.8888L315.587 33.3042L306.923 34.6545L307.17 36.2391Z" fill="#B85858"/>
<path d="M313.162 33.2769C313.162 33.2769 313.516 35.3179 313.058 35.8594C312.6 36.4009 312.412 35.6719 312.412 35.6719C312.412 35.6719 312.6 36.4009 312.038 36.6091C311.475 36.8174 311.309 35.9427 311.309 35.9427C311.309 35.9427 311.288 36.5258 310.663 36.5258C310.038 36.5258 310.08 35.7761 310.08 35.7761C310.08 35.7761 309.601 36.5883 309.122 35.9843C308.31 34.9638 308.726 33.4851 308.726 33.4851C308.726 33.4851 308.851 33.1311 309.455 33.1727C309.455 33.1727 309.726 32.298 310.684 32.7146C310.684 32.7146 311.496 32.0481 311.933 32.777C311.954 32.7979 312.871 32.1314 313.162 33.2769Z" fill="#693A2B"/>
<path d="M314.224 28.9033L315.391 28.695C315.745 28.6325 316.099 28.8825 316.161 29.2365L317.723 38.5252C317.786 38.8792 317.536 39.2333 317.182 39.2958L316.016 39.4832C315.661 39.5457 315.307 39.2958 315.245 38.9417L313.683 29.653C313.62 29.299 313.87 28.9658 314.224 28.9033Z" fill="#EB7171"/>
<path d="M305.561 30.2571L306.727 30.0697C307.081 30.0072 307.435 30.2571 307.497 30.6111L309.059 39.8998C309.122 40.2539 308.872 40.6079 308.518 40.6704L307.352 40.8579C306.998 40.9203 306.644 40.6704 306.581 40.3164L305.019 31.0277C304.957 30.6528 305.207 30.3196 305.561 30.2571Z" fill="#EB7171"/>
<path d="M335.759 42.9822C335.759 42.9822 336.155 45.9396 335.967 47.9806C335.759 50.0216 341.549 48.5221 341.549 48.5221C341.549 48.5221 341.195 44.1068 341.695 42.5032C342.195 40.9204 335.759 42.9822 335.759 42.9822Z" fill="#8E4F3A"/>
<path d="M341.424 46.4601C341.424 46.4601 343.028 47.2099 343.694 47.3348C344.361 47.439 348.818 51.0628 348.963 51.4377C349.109 51.8126 347.922 54.8741 347.464 56.2903C347.006 57.7065 345.09 66.2662 345.256 66.8702C345.444 67.4742 347.131 73.3057 347.256 73.8888C335.634 76.1797 329.386 74.2429 329.386 74.2429C329.386 74.2429 331.469 68.4947 331.386 67.3701C331.302 66.2454 330.219 59.8933 329.449 58.1022C328.657 56.3111 327.366 51.7917 327.366 51.7917C327.366 51.7917 332.448 47.8347 332.594 47.5639C332.739 47.2932 335.53 46.7517 335.988 46.4185L341.424 46.4601Z" fill="#8E4F3A"/>
<path d="M343.715 47.3349C343.715 47.3349 346.173 54.895 347.006 58.1231C347.006 58.1231 345.714 63.8921 345.569 64.7668C345.569 64.7668 338.342 63.3714 331.094 65.0167C331.094 65.0167 329.532 58.2273 329.386 57.8524C329.386 57.8524 331.865 53.4371 332.969 47.3974C332.969 47.3974 333.906 46.8351 334.593 46.9184C334.593 46.9184 333.906 54.4785 338.883 54.3952C343.861 54.3118 342.32 46.8351 342.32 46.8351C342.32 46.8351 343.194 47.0642 343.715 47.3349Z" fill="#FCCCA2"/>
<path d="M343.715 47.335C343.715 47.335 345.818 46.6269 348.734 47.6891C351.65 48.7512 351.317 48.5221 354.399 49.0636C357.481 49.6259 358.898 50.0008 358.898 50.0008C358.898 50.0008 360.605 46.5019 361.397 45.1274C362.126 43.857 363.167 39.7333 363.167 39.7333L365.979 40.2956C365.979 40.2956 364.833 46.731 364.271 48.5846C362.709 53.708 361.522 54.6868 360.626 54.7285C359.731 54.7493 356.565 55.0617 354.337 54.6243C352.254 54.2286 349.755 53.9787 347.984 54.9159L343.715 47.335Z" fill="#8E4F3A"/>
<path d="M332.947 47.3767C332.947 47.3767 330.927 46.6269 328.012 47.6891C325.096 48.7512 325.429 48.5221 322.347 49.0636C319.264 49.6259 317.848 50.0008 317.848 50.0008C317.848 50.0008 316.14 46.5019 315.349 45.1274C314.62 43.857 313.579 39.7333 313.579 39.7333L310.767 40.2956C310.767 40.2956 311.913 46.731 312.475 48.5846C314.037 53.708 315.224 54.6868 316.12 54.7285C317.015 54.7493 320.181 55.0617 322.409 54.6243C324.492 54.2286 326.991 53.9787 328.761 54.9159L332.947 47.3767Z" fill="#8E4F3A"/>
<path d="M339.175 30.8402C339.175 30.8402 343.694 31.4858 343.028 38.1503C342.361 44.8149 338.383 44.2734 338.113 44.2734C337.842 44.2734 334.114 44.4192 333.802 36.2759C333.802 36.2968 333.656 30.2779 339.175 30.8402Z" fill="#8E4F3A"/>
<path d="M338.654 33.256C338.654 33.256 340.758 35.4636 341.736 36.5883C342.715 37.7129 342.819 39.8789 342.819 39.8789C342.819 39.8789 344.465 37.8587 343.777 35.5261C343.09 33.1727 341.466 28.6117 337.321 30.0279C333.197 31.4233 333.031 37.6088 333.531 40.6703C333.552 40.6495 335.405 33.9016 338.654 33.256Z" fill="#163342"/>
<path d="M336.884 43.9818C336.884 43.9818 338.8 44.8982 340.674 43.5444C340.674 43.5444 340.154 44.6274 338.779 44.7732C337.405 44.919 336.884 43.9818 336.884 43.9818Z" fill="#633029"/>
<path d="M227.643 21.4247C227.643 21.4247 226.386 16.4172 229.494 13.8779C232.58 11.3385 236.021 12.2404 237.729 13.8779C239.438 15.5154 241.55 18.8141 239.581 23.5131C237.611 28.212 237.184 27.0966 238.062 30.5615C238.94 34.0264 240.008 36.4233 238.252 37.9896C236.495 39.556 233.814 39.1525 233.553 37.1828C233.292 35.213 233.078 28.212 232.888 27.1916C232.722 26.1473 227.643 21.4247 227.643 21.4247Z" fill="#1C4154"/>
<path d="M234.454 29.8259C234.454 29.8259 238.038 31.2261 239.343 31.3923C240.648 31.5584 240.174 35.4504 240.174 35.4504C240.174 35.4504 241.099 38.1322 241.052 39.8883C240.957 42.2378 239.865 42.8786 239.77 43.0447C239.675 43.2108 238.726 48.7879 238.631 49.7609C238.536 50.7339 238.892 51.968 239.13 52.7748C239.367 53.6767 240.174 56.9991 240.174 56.9991C240.174 56.9991 233.576 58.9926 223.633 57.189C223.633 57.189 224.273 54.6259 224.511 53.3444C224.629 52.6562 225.009 51.3272 224.843 50.0694C224.677 48.8116 223.277 43.4956 223.229 42.9735C223.182 42.4751 220.452 39.6747 222.897 36.3523C222.897 36.3523 223.538 32.8874 223.704 31.9618C223.704 31.9618 227.976 30.0158 229.091 29.8497C230.254 29.6598 234.454 29.8259 234.454 29.8259Z" fill="#EEA886"/>
<path d="M239.367 31.3921C239.367 31.3921 241.099 31.4396 242.405 32.3888C243.71 33.3381 244.588 37.2064 244.802 37.8235C245.015 38.4642 247.436 42.4512 247.839 43.709C248.243 44.9668 248.48 45.7737 248.67 45.7025C248.86 45.6313 251.375 41.6681 251.779 40.7188C252.206 39.6271 253.938 34.8807 253.938 34.8807L255.766 38.2744L255.885 38.5592C255.885 38.5592 254.128 43.3293 253.583 45.038C253.037 46.7467 251.779 50.7575 251.186 51.3033C250.592 51.8491 248.267 52.6086 247.032 51.6118C245.798 50.6388 242.927 46.0348 242.191 44.4922C241.455 42.9496 240.031 40.434 240.031 40.434C240.031 40.434 237.729 33.0059 239.367 31.3921Z" fill="#EEA886"/>
<path d="M223.704 31.9379C223.704 31.9379 221.876 31.9142 221.022 32.6736C220.168 33.4331 218.554 35.2604 218.174 36.8742C217.795 38.488 217.581 41.407 217.059 42.9734C216.56 44.5634 215.137 48.6453 214.401 50.1167C213.665 51.6118 213.001 57.8059 212.573 59.301C212.123 60.7961 210.509 65.7324 210.509 65.7324L213.072 67.0377C213.072 67.0377 218.293 55.5751 218.791 53.8426C219.29 52.1102 219.385 49.9743 219.859 48.6928C220.334 47.3875 222.422 42.6411 222.731 41.7156C223.087 40.8375 226.647 32.3414 223.704 31.9379Z" fill="#EEA886"/>
<path d="M223.372 57.8771C223.372 57.8771 222.47 59.7282 221.876 60.986C221.283 62.2438 219.076 67.6073 218.174 71.3095C217.296 75.0117 215.326 81.538 215.089 83.3891C214.828 85.2402 213.95 88.0643 213.096 89.5357C212.241 91.0308 210.248 95.4212 209.892 98.2691C209.536 101.117 207.329 113.695 207.329 113.695C207.329 113.695 208.587 114.882 210.96 113.458C210.96 113.458 215.35 101.686 216.371 99.9778C217.391 98.2691 218.981 93.7837 219.218 92.1225C219.432 90.4612 221.093 88.6813 222.612 84.8842C224.131 81.0871 230.278 70.2415 231.132 68.0107C231.132 68.0107 231.417 67.1089 232.271 67.3937L231.939 57.8059L223.372 57.8771Z" fill="#285173"/>
<path d="M240.435 57.7585C240.435 57.7585 241.408 59.752 241.978 61.0098C242.571 62.2676 245.039 67.8447 245.941 71.5469C246.819 75.2491 248.528 81.5618 248.765 83.4366C249.026 85.2877 249.904 88.1119 250.758 89.5832C251.613 91.0784 253.606 95.4688 253.962 98.3166C254.318 101.164 256.525 113.742 256.525 113.742C256.525 113.742 255.268 114.929 252.894 113.505C252.894 113.505 248.504 101.734 247.483 100.025C246.463 98.3166 244.873 93.8313 244.636 92.17C244.422 90.5088 242.761 88.7289 241.242 84.9318C239.723 81.1346 233.576 70.2891 232.722 68.0583C232.722 68.0583 232.508 67.0852 231.512 67.465L223.3 57.9959L240.435 57.7585Z" fill="#285173"/>
<path d="M228.782 15.8239C228.782 15.8239 226.765 19.0277 228.023 23.5131C229.281 27.9984 231.108 28.2595 232.603 27.8086C234.407 27.2627 236.163 23.4656 236.448 21.7806C236.733 20.0957 237.872 16.0375 233.505 15.5154C231.512 15.278 229.494 15.3492 228.782 15.8239Z" fill="#EEA886"/>
<path d="M234.099 26.5033C234.099 26.5033 234.075 31.3684 234.739 32.7211C235.404 34.0739 228.735 33.2432 228.735 33.2432C228.735 33.2432 229.542 27.7374 229.257 26.4321C228.972 25.1031 234.099 26.5033 234.099 26.5033Z" fill="#EEA886"/>
<path d="M227.62 20.5704C227.62 20.5704 229.281 16.6783 230.895 16.8207C230.895 16.8207 234.075 20.9738 236.875 22.5876C236.875 22.5876 240.316 16.9394 232.224 14.495C232.224 14.4712 227.311 12.5489 227.62 20.5704Z" fill="#1C4154"/>
<path d="M229.589 26.8829C229.589 26.8829 230.657 28.1645 231.82 27.9746C232.983 27.7848 233.648 27.1915 233.648 27.1915C233.648 27.1915 233.102 28.473 231.702 28.473C230.467 28.4492 229.589 26.8829 229.589 26.8829Z" fill="#A77860"/>
<path d="M237.587 30.9412C237.587 30.9412 239.675 34.3349 240.174 35.4503C240.174 35.4503 242.903 40.6239 239.77 43.0446C239.77 43.0446 239.438 45.75 238.892 48.0046C238.892 48.0046 231.962 46.5807 224.463 48.2182C224.463 48.2182 223.229 43.5667 223.229 42.9496C223.229 42.9496 220.286 39.3424 222.897 36.3284C222.897 36.3284 225.223 31.6294 225.412 31.1785C225.436 31.1785 230.728 27.8086 237.587 30.9412Z" fill="#EB4747"/>
<path d="M259.61 38.5592C262.035 38.5592 264.001 36.296 264.001 33.5043C264.001 30.7125 262.035 28.4493 259.61 28.4493C257.186 28.4493 255.22 30.7125 255.22 33.5043C255.22 36.296 257.186 38.5592 259.61 38.5592Z" fill="#D1C0BA"/>
<path d="M259.444 36.3759C260.663 36.3759 261.651 35.239 261.651 33.8366C261.651 32.4341 260.663 31.2972 259.444 31.2972C258.225 31.2972 257.237 32.4341 257.237 33.8366C257.237 35.239 258.225 36.3759 259.444 36.3759Z" fill="#948884"/>
<path d="M255.861 38.5592C255.861 38.5592 257.308 36.803 258.187 36.2572C259.041 35.7113 259.943 34.9044 259.824 34.0738C259.729 33.2195 258.827 31.2497 258.281 31.1785C257.736 31.1073 255.695 31.7955 255.695 31.7955L253.915 34.9044L255.861 38.5592Z" fill="#EEA886"/>
<path d="M253.488 38.0846C255.912 38.0846 257.878 35.8214 257.878 33.0297C257.878 30.2379 255.912 27.9747 253.488 27.9747C251.063 27.9747 249.097 30.2379 249.097 33.0297C249.097 35.8214 251.063 38.0846 253.488 38.0846Z" fill="#EDDAD3"/>
<path d="M253.226 35.7588C254.537 35.7588 255.6 34.5369 255.6 33.0296C255.6 31.5223 254.537 30.3004 253.226 30.3004C251.916 30.3004 250.853 31.5223 250.853 33.0296C250.853 34.5369 251.916 35.7588 253.226 35.7588Z" fill="#CCBBB5"/>
<path d="M227.999 30.1106C227.999 30.1106 224.392 38.0846 231.274 38.2982C238.18 38.5118 235.499 30.8463 235.309 30.1106C235.309 30.1106 232.461 28.3307 227.999 30.1106Z" fill="#EEA886"/>
<path d="M211.339 112.484C211.339 112.484 210.96 112.84 210.414 112.769C209.868 112.698 208.302 112.034 207.59 112.318C206.902 112.603 206.522 115.712 205.145 116.471C203.793 117.231 199.711 119.604 199.924 121.621C200.138 123.662 205.644 123.116 207.068 121.431C208.492 119.747 209.726 120.577 210.865 119.414C212.028 118.228 211.15 113.647 211.339 112.484Z" fill="#CCBBB5"/>
<path d="M252.515 112.461C252.515 112.461 252.918 112.84 253.464 112.769C254.01 112.698 255.576 112.034 256.288 112.318C256.976 112.603 257.356 115.712 258.732 116.471C260.085 117.231 264.167 119.604 263.953 121.621C263.74 123.662 258.234 123.116 256.81 121.431C255.386 119.747 254.152 120.577 253.013 119.414C251.85 118.228 252.681 113.624 252.515 112.461Z" fill="#CCBBB5"/>
<path d="M223.633 57.1415C223.633 57.1415 231.179 57.3076 240.174 56.9517L240.577 58.0671C240.577 58.0671 233.932 59.3249 223.205 58.2095L223.633 57.1415Z" fill="#3B78AB"/>
<path d="M211.173 64.7119C211.173 64.7119 210.627 65.2815 210.461 65.7799C210.319 66.1833 209.821 66.7291 209.583 67.0377C209.346 67.3462 208.492 68.7938 208.373 69.1735C208.325 69.3397 208.444 70.4313 208.302 70.7636C208.159 71.0721 207.827 71.6891 208.112 71.8078C208.397 71.9027 208.871 71.4518 208.871 71.4518C208.871 71.4518 208.776 71.7603 208.99 71.9265C209.417 72.2587 209.726 72.0926 209.726 72.0926C209.726 72.0926 209.821 72.4723 210.034 72.5435C210.509 72.7334 210.794 72.591 210.794 72.591C210.794 72.591 210.96 72.8283 211.316 72.8757C211.767 72.9469 212.028 72.6147 212.028 72.6147C212.028 72.6147 212.55 72.852 212.787 72.6147C213.024 72.3774 213.048 72.1163 213.167 71.879C213.285 71.6654 213.855 69.5058 213.523 67.8445C213.19 66.1596 214.14 64.7594 214.14 64.7594L211.173 64.7119Z" fill="#EEA886"/>
<path d="M215.129 70.8056L207.078 68.8641L206.721 70.3406L214.773 72.282L215.129 70.8056Z" fill="#D1C0BA"/>
<path d="M208.8 71.2383C208.8 71.2383 209.227 69.316 209.821 69.0075C210.414 68.699 210.319 69.4109 210.319 69.4109C210.319 69.4109 210.414 68.7227 210.983 68.7464C211.553 68.7702 211.387 69.5771 211.387 69.5771C211.387 69.5771 211.6 69.0787 212.146 69.2923C212.692 69.5059 212.384 70.1466 212.384 70.1466C212.384 70.1466 213.096 69.6008 213.285 70.3128C213.618 71.4994 212.74 72.6385 212.74 72.6385C212.74 72.6385 212.502 72.8996 211.98 72.6385C211.98 72.6385 211.434 73.303 210.746 72.6148C210.746 72.6148 209.797 72.8996 209.678 72.0927C209.702 72.0927 208.658 72.3537 208.8 71.2383Z" fill="#DB9C7C"/>
<path d="M206.237 74.6555L205.311 74.4419C204.932 74.347 204.694 73.9673 204.789 73.5876L206.735 65.0915C206.83 64.7118 207.21 64.4745 207.59 64.5694L208.515 64.783C208.895 64.8779 209.132 65.2576 209.037 65.6373L207.091 74.1334C206.996 74.5131 206.617 74.7505 206.237 74.6555Z" fill="#EDDAD3"/>
<path d="M214.282 76.6017L213.357 76.3881C212.977 76.2932 212.74 75.9135 212.835 75.5337L214.781 67.0377C214.875 66.658 215.255 66.4206 215.635 66.5156L216.56 66.7292C216.94 66.8241 217.177 67.2038 217.083 67.5835L215.113 76.0559C215.042 76.4356 214.662 76.6729 214.282 76.6017Z" fill="#EDDAD3"/>
<path d="M139.56 35.0793C139.56 35.0793 143.044 42.4183 140.649 42.8539C137.361 43.4636 136.032 37.3877 136.032 37.3877L139.56 35.0793Z" fill="#163342"/>
<path d="M140.192 42.3096C140.192 42.3096 142.064 40.8287 142.87 40.023C143.676 39.2172 147.204 33.5551 147.923 32.4444C148.641 31.3338 149.447 29.1778 149.926 28.2196C150.405 27.2832 155.218 20.0531 155.218 20.0531L157.069 20.8371C157.069 20.8371 153.759 29.1996 152.91 30.5934C152.06 31.9871 151.233 34.8182 150.579 36.0377C149.926 37.279 146.42 42.2225 145.81 43.3549C145.2 44.4873 144.612 46.7086 144.612 46.7086C144.612 46.7086 139.342 45.3802 140.192 42.3096Z" fill="#8E4F3A"/>
<path d="M133.288 38.5639C133.288 38.5639 133.637 41.1336 133.462 42.8976C133.288 44.6615 138.297 43.3767 138.297 43.3767C138.297 43.3767 138.014 39.5221 138.449 38.1501C138.885 36.7563 133.288 38.5639 133.288 38.5639Z" fill="#8E4F3A"/>
<path d="M128.258 64.7838C128.258 64.7838 127.582 66.4607 127.147 67.5931C126.711 68.7255 124.577 73.3859 123.989 76.6743C123.401 79.9845 122.53 85.9515 122.399 87.6065C122.269 89.2616 121.659 91.766 120.984 93.1162C120.331 94.4664 118.85 98.4299 118.676 100.934C118.501 103.46 117.216 114.61 117.216 114.61C117.216 114.61 118.349 115.59 120.287 114.24C120.287 114.24 123.467 103.7 124.272 102.154C125.056 100.608 126.21 96.5788 126.319 95.1197C126.428 93.6606 127.757 92.0056 128.867 88.6083C129.978 85.211 134.638 75.433 135.096 73.4948C135.096 73.4948 135.139 72.6237 136.293 72.7979L135.553 64.3918L128.258 64.7838Z" fill="#FAA146"/>
<path d="M143.001 64.8273C143.001 64.8273 143.719 66.6131 144.155 67.7673C144.591 68.8997 146.703 73.5601 147.291 76.8702C147.857 80.1804 148.728 86.1474 148.859 87.8025C148.99 89.4575 149.599 91.9619 150.253 93.3121C150.906 94.6623 152.387 98.6258 152.539 101.152C152.692 103.678 153.977 114.828 153.977 114.828C153.977 114.828 152.844 115.808 150.906 114.458C150.906 114.458 147.726 103.896 146.942 102.35C146.159 100.804 145.004 96.7747 144.895 95.3157C144.787 93.8566 143.458 92.2015 142.347 88.8042C141.237 85.4069 136.533 75.5636 135.901 73.5601C135.901 73.5601 135.771 72.7107 134.9 72.9721L128.345 64.2611L143.001 64.8273Z" fill="#FAA146"/>
<path d="M120.549 113.369C120.549 113.369 120.244 113.696 119.786 113.652C119.329 113.631 117.935 113.13 117.369 113.413C116.781 113.696 116.607 116.353 115.474 117.05C114.342 117.768 110.966 119.968 111.25 121.688C111.533 123.43 116.193 122.69 117.347 121.209C118.48 119.706 119.569 120.36 120.483 119.314C121.42 118.247 120.461 114.371 120.549 113.369Z" fill="#EB7171"/>
<path d="M150.645 113.587C150.645 113.587 150.95 113.892 151.407 113.87C151.864 113.848 153.258 113.347 153.824 113.63C154.412 113.914 154.586 116.57 155.697 117.289C156.829 118.008 160.183 120.207 159.9 121.928C159.617 123.67 154.957 122.929 153.802 121.427C152.67 119.924 151.581 120.577 150.666 119.51C149.795 118.443 150.754 114.589 150.645 113.587Z" fill="#EB7171"/>
<path d="M131.764 31.7692C131.764 31.7692 131.306 31.2248 131.132 31.7692C130.958 32.3136 131.524 33.9687 131.59 34.2083C131.59 34.2083 131.873 35.1229 131.982 35.014C132.09 34.9051 131.764 31.7692 131.764 31.7692Z" fill="#8E4F3A"/>
<path d="M139.756 31.8346C139.756 31.8346 140.213 31.2902 140.388 31.8346C140.562 32.3791 139.996 34.0341 139.93 34.2737C139.93 34.2737 139.647 35.1883 139.538 35.0795C139.451 34.9706 139.756 31.8346 139.756 31.8346Z" fill="#8E4F3A"/>
<path d="M136.489 26.4991C136.489 26.4991 140.692 27.1524 140.083 33.751C139.473 40.3713 135.771 39.8486 135.509 39.8269C135.27 39.8269 131.786 39.9575 131.481 31.8999C131.481 31.9217 131.35 25.9547 136.489 26.4991Z" fill="#8E4F3A"/>
<path d="M132.286 31.5298C132.286 31.5298 136.947 32.9236 139.19 32.4662C139.19 32.4662 139.342 33.2938 139.647 33.3373C139.974 33.3809 140.126 31.7694 140.126 31.7694C140.126 31.7694 140.235 26.3904 135.379 26.3468C130.522 26.3032 131.502 32.1831 131.502 32.1831L131.568 33.1849C131.568 33.1631 132.264 33.4462 132.286 31.5298Z" fill="#163342"/>
<path d="M133.854 39.2172C133.854 39.2172 135.335 40.6109 137.578 39.3261C137.578 39.3261 136.903 40.4367 135.64 40.4149C134.377 40.3931 133.854 39.2172 133.854 39.2172Z" fill="#633029"/>
<path d="M138.21 41.5691C138.21 41.5691 139.603 42.2224 140.191 42.3313C140.779 42.4184 144.634 45.5761 144.765 45.9028C144.895 46.2295 143.85 48.8863 143.458 50.1276C143.066 51.3689 141.389 58.7732 141.542 59.2959C141.694 59.8185 143.153 65.0233 143.219 65.4371C133.136 67.4188 127.865 65.7202 127.865 65.7202C127.865 65.7202 129.564 60.6896 129.499 59.7097C129.433 58.7297 128.497 53.22 127.822 51.6738C127.147 50.1276 126.014 46.1859 126.014 46.1859C126.014 46.1859 130.413 42.7451 130.544 42.5273C130.675 42.3095 132.874 41.874 133.484 41.5691H138.21Z" fill="#8E4F3A"/>
<path d="M130.827 42.3531C130.827 42.3531 128.715 40.8287 127.909 40.0229C127.103 39.2172 123.575 33.555 122.857 32.4444C122.138 31.3337 121.332 29.1778 120.853 28.2196C120.374 27.3049 115.583 20.0748 115.583 20.0748L113.732 20.8588C113.732 20.8588 117.042 29.2213 117.892 30.6151C118.741 32.0088 119.568 34.8399 120.222 36.0594C120.875 37.3007 124.381 42.2442 124.991 43.3766C125.601 44.5091 126.189 46.7303 126.189 46.7303C126.189 46.7303 131.677 45.4237 130.827 42.3531Z" fill="#8E4F3A"/>
<path d="M140.192 42.3095C140.192 42.3095 142.326 48.8645 143.044 51.6738C143.044 51.6738 141.934 56.6826 141.781 57.4448C141.781 57.4448 135.509 56.2253 129.216 57.6626C129.216 57.6626 127.866 51.7609 127.735 51.4342C127.735 51.4342 129.891 47.6014 130.827 42.3749C130.827 42.3749 131.633 41.8958 132.243 41.9611C132.243 41.9611 131.655 48.5161 135.967 48.4507C140.279 48.3854 138.95 41.8958 138.95 41.8958C138.95 41.8958 139.734 42.0917 140.192 42.3095Z" fill="#FAA146"/>
<path d="M116.65 21.6863C116.65 21.6863 116.193 20.9894 116.171 20.5538C116.149 20.2054 116.193 19.6827 116.193 19.3561C116.193 19.0294 115.997 17.6357 115.866 17.309C115.823 17.1783 115.169 16.5032 115.082 16.2419C114.995 15.9588 114.908 15.3708 114.668 15.4579C114.429 15.545 114.363 16.0895 114.363 16.0895C114.363 16.0895 114.276 15.8499 114.037 15.8499C113.58 15.8717 113.471 16.1113 113.471 16.1113C113.471 16.1113 113.209 15.9153 113.035 15.9806C112.621 16.0895 112.512 16.3508 112.512 16.3508C112.512 16.3508 112.273 16.2855 112.012 16.4379C111.685 16.6121 111.685 16.9823 111.685 16.9823C111.685 16.9823 111.228 17.113 111.184 17.3743C111.162 17.6357 111.271 17.8534 111.315 18.0494C111.358 18.2672 112.12 19.9441 113.209 20.8805C114.059 21.6645 114.712 23.1889 114.712 23.1889L116.65 21.6863Z" fill="#8E4F3A"/>
<path d="M110.56 19.8052L116.847 16.8513L116.31 15.7081L110.023 18.662L110.56 19.8052Z" fill="#B85858"/>
<path d="M114.473 16.2202C114.473 16.2202 115.191 17.701 114.973 18.2019C114.734 18.7246 114.451 18.2019 114.451 18.2019C114.451 18.2019 114.756 18.7028 114.364 18.9859C113.972 19.269 113.667 18.6375 113.667 18.6375C113.667 18.6375 113.797 19.0948 113.318 19.2255C112.839 19.3561 112.709 18.7899 112.709 18.7899C112.709 18.7899 112.534 19.5303 112.034 19.1601C111.184 18.5504 111.184 17.3526 111.184 17.3526C111.184 17.3526 111.206 17.0695 111.685 16.9606C111.685 16.9606 111.685 16.242 112.513 16.3291C112.513 16.3291 112.992 15.6322 113.493 16.0895C113.449 16.1331 113.993 15.4144 114.473 16.2202Z" fill="#693A2B"/>
<path d="M114.494 12.5834L114.952 12.3656C115.322 12.1914 115.757 12.3438 115.932 12.714L119.002 19.0295C119.176 19.3997 119.024 19.8352 118.654 20.0095L118.196 20.2272C117.826 20.4015 117.391 20.249 117.216 19.8788L114.146 13.5634C113.972 13.1931 114.124 12.7576 114.494 12.5834Z" fill="#EB7171"/>
<path d="M108.07 15.5886L108.832 15.2184C109.115 15.0878 109.464 15.1967 109.594 15.4798L112.796 22.1001C112.926 22.3832 112.817 22.7316 112.534 22.8623L111.772 23.2325C111.489 23.3632 111.141 23.2543 111.01 22.9712L107.809 16.3726C107.656 16.0678 107.787 15.7411 108.07 15.5886Z" fill="#EB7171"/>
<path d="M154.129 21.6863C154.129 21.6863 154.586 20.9894 154.608 20.5538C154.63 20.2054 154.586 19.6827 154.586 19.3561C154.586 19.0294 154.782 17.6357 154.913 17.309C154.957 17.1783 155.61 16.5032 155.697 16.2419C155.784 15.9588 155.871 15.3708 156.111 15.4579C156.35 15.545 156.416 16.0895 156.416 16.0895C156.416 16.0895 156.503 15.8499 156.742 15.8499C157.2 15.8717 157.309 16.1113 157.309 16.1113C157.309 16.1113 157.57 15.9153 157.744 15.9806C158.158 16.0895 158.267 16.3508 158.267 16.3508C158.267 16.3508 158.506 16.2855 158.768 16.4379C159.094 16.6121 159.094 16.9823 159.094 16.9823C159.094 16.9823 159.552 17.113 159.595 17.3743C159.617 17.6357 159.508 17.8534 159.465 18.0494C159.421 18.2672 158.659 19.9441 157.57 20.8805C156.677 21.6427 156.024 23.1671 156.024 23.1671L154.129 21.6863Z" fill="#8E4F3A"/>
<path d="M160.752 18.6702L154.464 15.7163L153.927 16.8595L160.215 19.8134L160.752 18.6702Z" fill="#B85858"/>
<path d="M156.307 16.2202C156.307 16.2202 155.588 17.701 155.806 18.2019C156.046 18.7246 156.329 18.2019 156.329 18.2019C156.329 18.2019 156.024 18.7028 156.416 18.9859C156.808 19.269 157.113 18.6375 157.113 18.6375C157.113 18.6375 156.982 19.0948 157.461 19.2255C157.94 19.3561 158.071 18.7899 158.071 18.7899C158.071 18.7899 158.245 19.5303 158.746 19.1601C159.595 18.5504 159.595 17.3526 159.595 17.3526C159.595 17.3526 159.573 17.0695 159.094 16.9606C159.094 16.9606 159.094 16.242 158.267 16.3291C158.267 16.3291 157.788 15.6322 157.287 16.0895C157.33 16.1331 156.786 15.4144 156.307 16.2202Z" fill="#693A2B"/>
<path d="M156.285 12.5834L155.828 12.3656C155.458 12.1914 155.022 12.3438 154.848 12.714L151.777 19.0295C151.603 19.3997 151.755 19.8352 152.126 20.0095L152.583 20.2272C152.953 20.4015 153.389 20.249 153.563 19.8788L156.634 13.5634C156.808 13.1931 156.655 12.7576 156.285 12.5834Z" fill="#EB7171"/>
<path d="M162.709 15.5886L161.947 15.2184C161.664 15.0878 161.316 15.1967 161.185 15.4798L157.984 22.1001C157.853 22.3832 157.962 22.7316 158.245 22.8623L159.007 23.2325C159.29 23.3632 159.639 23.2543 159.769 22.9712L162.971 16.3509C163.123 16.0678 162.992 15.7411 162.709 15.5886Z" fill="#EB7171"/>
<path d="M44.5482 63.1108C44.5482 63.1108 45.2337 64.9388 45.5307 65.51C45.8277 66.0812 52.2254 78.3053 52.7738 81.1615C53.3222 84.0176 55.4014 90.8265 55.9498 91.6491C56.4982 92.4717 58.2804 97.7726 59.1715 102.137C60.0626 106.501 61.9591 113.972 62.3475 114.886C62.7359 115.8 58.9202 115.846 58.9202 115.846C58.9202 115.846 53.3679 104.787 52.134 102.754C50.9002 100.72 49.7577 97.2242 49.5978 94.985C49.4379 92.7458 47.8613 91.5806 46.4675 89.8897C45.0737 88.1989 38.379 75.335 37.1452 74.1697C35.9113 73.0044 35.1345 73.0958 35.1345 73.0958V63.7735L44.5482 63.1108Z" fill="#2F4563"/>
<path d="M26.1548 63.1108C26.1548 63.1108 25.4693 64.9388 25.1723 65.51C24.8753 66.0812 17.7693 79.0594 17.2209 81.9155C16.6725 84.7716 15.3016 90.8265 14.7532 91.6491C14.2048 92.4717 12.4226 97.7726 11.5315 102.137C10.6404 106.501 8.74395 113.972 8.35552 114.886C7.96709 115.8 11.7829 115.846 11.7829 115.846C11.7829 115.846 17.3351 104.787 18.569 102.754C19.8028 100.72 20.9453 97.2242 21.1052 94.985C21.2651 92.7458 22.8417 91.5806 24.2355 89.8897C25.6293 88.1989 32.324 75.335 33.5578 74.1697C34.7917 73.0044 35.5914 73.0958 35.5914 73.0958L35.5686 63.7735L26.1548 63.1108Z" fill="#2F4563"/>
<path d="M62.5989 114.384C62.5989 114.384 63.9699 116.463 65.0438 117.057C66.1177 117.628 70.0705 119.273 70.7331 120.622C71.1901 121.558 70.5732 123.432 66.7574 122.815C62.9645 122.198 61.6621 120.142 60.4968 119.913C59.3544 119.685 58.0977 118.794 58.0063 117.103C57.9378 115.412 58.6232 115.709 58.4861 115.092C58.3262 114.452 62.5989 114.384 62.5989 114.384Z" fill="#DBDFF0"/>
<path d="M8.2642 114.384C8.2642 114.384 6.89326 116.463 5.81937 117.057C4.74547 117.628 0.792611 119.273 0.129994 120.622C-0.326984 121.558 0.289936 123.432 4.1057 122.815C7.89862 122.198 9.201 120.142 10.3663 119.913C11.5087 119.685 12.7654 118.794 12.834 117.103C12.9025 115.412 12.2171 115.709 12.3541 115.092C12.5369 114.452 8.2642 114.384 8.2642 114.384Z" fill="#DBDFF0"/>
<path d="M46.8559 41.93C45.8506 38.4341 47.3586 31.1225 47.3586 31.1225C45.3936 30.2771 42.8574 31.0082 41.7835 31.0082C40.6867 31.0082 37.7164 30.1857 37.7164 30.1857H35.2944H32.8724C32.8724 30.1857 29.8792 31.0082 28.8053 31.0082C27.7085 31.0082 25.1952 30.2542 23.2302 31.1225C23.2302 31.1225 24.761 38.5712 23.7328 42.0671C23.7328 42.0671 26.1091 48.6019 26.6803 49.5615C27.2516 50.5212 26.6803 54.1085 26.6575 54.9996C26.6346 56.2791 26.429 59.9578 26.1777 63.1109C26.1777 63.1109 29.0795 64.8474 35.2944 64.9845C41.4636 64.5961 44.571 63.1109 44.571 63.1109C44.1826 59.3637 43.9313 56.1877 43.7713 54.9767C43.6571 54.0856 43.3372 50.544 43.9084 49.5615C44.4796 48.579 46.8559 41.93 46.8559 41.93Z" fill="#E55353"/>
<path d="M47.3588 31.1224C47.3588 31.1224 49.0267 31.8993 49.8264 31.945C50.6033 31.9907 51.8371 30.8025 53.3452 30.9396C54.8532 31.0767 55.4244 31.8764 56.841 31.8079C58.2577 31.7393 58.7375 31.4423 58.8517 30.9168C58.9431 30.3912 60.7482 27.1924 59.9942 22.7826C59.2402 18.3727 61.3651 19.7208 61.3651 19.7208C61.3651 19.7208 63.4444 23.468 63.8556 27.6265C64.2669 31.785 62.9645 35.8293 62.896 36.4005C62.8503 36.9717 62.5304 37.7943 62.142 38.0228C61.7536 38.2513 56.7953 38.6625 55.0817 38.7539C53.368 38.8453 49.8264 38.2741 48.8896 38.9139C47.93 39.5536 46.7418 42.2041 46.7418 42.2041C46.7418 42.2041 45.0967 34.0471 47.3588 31.1224Z" fill="#EEA886"/>
<path d="M23.1844 31.1224C23.1844 31.1224 21.5165 31.8993 20.7168 31.945C19.9399 31.9907 18.7061 30.8025 17.198 30.9396C15.69 31.0767 15.1188 31.8764 13.7022 31.8079C12.2855 31.7393 11.8057 31.4423 11.6915 30.9168C11.6001 30.3912 9.795 27.1924 10.549 22.7826C11.303 18.3727 9.17808 19.7208 9.17808 19.7208C9.17808 19.7208 7.09883 23.468 6.68755 27.6265C6.27627 31.785 7.57866 35.8293 7.6472 36.4005C7.6929 36.9717 8.01279 37.7943 8.40122 38.0228C8.78965 38.2513 13.7479 38.6625 15.4615 38.7539C17.1752 38.8453 20.7168 38.2741 21.6536 38.9139C22.6132 39.5536 23.71 42.0213 23.71 42.0213C23.71 42.0213 25.4465 34.0471 23.1844 31.1224Z" fill="#EEA886"/>
<path d="M38.3561 26.2327C38.3561 26.2327 37.9905 28.5405 38.7446 30.117C38.7446 30.117 39.5671 33.7729 35.7971 34.0242C32.0498 34.2755 31.8899 30.8939 31.8899 30.8939C31.8899 30.8939 32.7581 29.6601 32.0955 26.3927C31.4101 23.1253 38.3561 26.2327 38.3561 26.2327Z" fill="#EEA886"/>
<path d="M35.7742 12.9347C35.7742 12.9347 40.5954 13.5973 40.047 21.3431C39.4758 29.066 35.2259 28.5176 34.9288 28.5176C34.6546 28.5176 30.6789 28.7461 30.1534 19.3552C30.1534 19.3552 29.8792 12.3863 35.7742 12.9347Z" fill="#EEA886"/>
<path d="M40.0698 19.1497C40.0698 19.1497 40.5953 18.5556 40.8009 19.1497C41.0066 19.7209 40.184 22.2571 40.1155 22.4627C40.1155 22.4627 40.0241 22.6912 39.887 22.577C39.7727 22.4627 40.0698 19.1497 40.0698 19.1497Z" fill="#EEA886"/>
<path d="M30.2677 19.2867C30.2677 19.2867 29.7422 18.7155 29.5365 19.2867C29.3537 19.8808 30.2448 22.4856 30.2905 22.5998C30.2905 22.5998 30.3819 22.8283 30.519 22.6912C30.6561 22.577 30.2677 19.2867 30.2677 19.2867Z" fill="#EEA886"/>
<path d="M40.0927 20.3377L39.43 21.2974C39.43 21.2974 39.4072 19.2181 39.2929 18.8983C39.1787 18.5784 39.3843 17.4359 39.2929 17.2074C39.2015 16.9789 36.0256 17.9157 30.7475 17.5045C30.7475 17.5045 31.3644 19.3552 31.0445 19.4923C30.7018 19.6294 30.9303 21.9143 30.9303 21.9143L30.359 21.2745C30.359 21.2745 29.6279 17.3674 29.6736 16.7276C29.7421 15.8593 29.3537 11.8151 36.7567 12.3406C37.5793 12.4092 38.4018 12.7062 39.0873 13.2089C39.8642 13.7801 40.6639 14.6941 40.6182 15.9736C40.5496 17.6416 40.0927 20.3377 40.0927 20.3377Z" fill="#FCCCA2"/>
<path d="M32.3926 27.3295C32.3926 27.3295 34.5861 29.7743 37.9449 27.2152C37.9449 27.2152 37.0309 29.1345 35.0431 29.2259C33.0323 29.3173 32.3926 27.3295 32.3926 27.3295Z" fill="#A77860"/>
<path d="M29.5136 30.9396C29.5136 30.9396 29.6279 39.7592 35.2715 40.0334V29.9114C35.2715 29.9114 32.6439 30.0028 29.5136 30.9396Z" fill="#EEA886"/>
<path d="M41.0523 30.9396C41.0523 30.9396 40.9381 39.7592 35.2715 40.0334V29.9114C35.2715 29.9114 37.8992 30.0028 41.0523 30.9396Z" fill="#EEA886"/>
<path d="M58.2347 26.5985C61.6923 26.5985 64.4953 23.7955 64.4953 20.3379C64.4953 16.8802 61.6923 14.0773 58.2347 14.0773C54.7771 14.0773 51.9741 16.8802 51.9741 20.3379C51.9741 23.7955 54.7771 26.5985 58.2347 26.5985Z" fill="#434343"/>
<path d="M58.2346 23.3766C59.913 23.3766 61.2735 22.0161 61.2735 20.3377C61.2735 18.6594 59.913 17.2988 58.2346 17.2988C56.5563 17.2988 55.1957 18.6594 55.1957 20.3377C55.1957 22.0161 56.5563 23.3766 58.2346 23.3766Z" fill="#6B6B6B"/>
<path d="M12.4455 26.5985C15.9031 26.5985 18.7061 23.7955 18.7061 20.3379C18.7061 16.8802 15.9031 14.0773 12.4455 14.0773C8.98784 14.0773 6.18488 16.8802 6.18488 20.3379C6.18488 23.7955 8.98784 26.5985 12.4455 26.5985Z" fill="#434343"/>
<path d="M12.4455 23.3766C14.1238 23.3766 15.4844 22.0161 15.4844 20.3377C15.4844 18.6594 14.1238 17.2988 12.4455 17.2988C10.7671 17.2988 9.40656 18.6594 9.40656 20.3377C9.40656 22.0161 10.7671 23.3766 12.4455 23.3766Z" fill="#6B6B6B"/>
</svg>
