<svg width="199" height="135" viewBox="0 0 199 135" fill="none" xmlns="http://www.w3.org/2000/svg">
<path d="M54.3549 62.0038C54.3549 62.0038 55.1913 64.2341 55.5537 64.9311C55.9162 65.628 63.7222 80.5431 64.3913 84.028C65.0604 87.5128 67.5973 95.8207 68.2664 96.8243C68.9355 97.828 71.1101 104.296 72.1973 109.621C73.2846 114.946 75.5985 124.062 76.0725 125.177C76.5464 126.292 71.8907 126.348 71.8907 126.348C71.8907 126.348 65.1161 112.855 63.6107 110.373C62.1052 107.892 60.7113 103.627 60.5161 100.895C60.321 98.1625 58.3974 96.7407 56.6968 94.6777C54.9962 92.6147 46.8277 76.9189 45.3222 75.4971C43.8168 74.0753 42.8689 74.1868 42.8689 74.1868V62.8123L54.3549 62.0038Z" fill="#2F4563"/>
<path d="M31.9124 62.0038C31.9124 62.0038 31.0761 64.2341 30.7136 64.9311C30.3512 65.628 21.6809 81.4632 21.0118 84.948C20.3428 88.4328 18.67 95.8207 18.0009 96.8243C17.3318 97.828 15.1573 104.296 14.07 109.621C12.9828 114.946 10.6688 124.062 10.1949 125.177C9.72095 126.292 14.3767 126.348 14.3767 126.348C14.3767 126.348 21.1512 112.855 22.6567 110.373C24.1621 107.892 25.5561 103.627 25.7512 100.895C25.9464 98.1625 27.87 96.7407 29.5706 94.6777C31.2712 92.6147 39.4397 76.9189 40.9451 75.4971C42.4506 74.0753 43.4264 74.1868 43.4264 74.1868L43.3985 62.8123L31.9124 62.0038Z" fill="#2F4563"/>
<path d="M76.3792 124.564C76.3792 124.564 78.0519 127.101 79.3622 127.826C80.6725 128.523 85.4955 130.53 86.304 132.175C86.8616 133.318 86.1089 135.604 81.4531 134.851C76.8252 134.098 75.2362 131.589 73.8143 131.311C72.4204 131.032 70.8871 129.944 70.7756 127.881C70.6919 125.818 71.5283 126.181 71.361 125.428C71.1659 124.647 76.3792 124.564 76.3792 124.564Z" fill="#DBDFF0"/>
<path d="M10.0834 124.564C10.0834 124.564 8.41072 127.101 7.10042 127.826C5.79012 128.523 0.967094 130.53 0.15861 132.175C-0.398965 133.318 0.353761 135.604 5.00951 134.851C9.63738 134.098 11.2265 131.589 12.6483 131.311C14.0422 131.032 15.5756 129.944 15.6592 127.881C15.7428 125.818 14.9065 126.181 15.0737 125.428C15.2968 124.647 10.0834 124.564 10.0834 124.564Z" fill="#DBDFF0"/>
<path d="M57.1706 36.1604C55.944 31.8949 57.784 22.9737 57.784 22.9737C55.3864 21.9422 52.2918 22.8343 50.9815 22.8343C49.6434 22.8343 46.0191 21.8307 46.0191 21.8307H43.064H40.1088C40.1088 21.8307 36.4567 22.8343 35.1464 22.8343C33.8082 22.8343 30.7416 21.9143 28.344 22.9737C28.344 22.9737 30.2119 32.0622 28.9573 36.3276C28.9573 36.3276 31.8567 44.301 32.5537 45.4719C33.2507 46.6428 32.5537 51.0197 32.5258 52.107C32.4979 53.6682 32.247 58.1567 31.9404 62.004C31.9404 62.004 35.481 64.1228 43.064 64.29C50.5912 63.8161 54.3827 62.004 54.3827 62.004C53.9088 57.4319 53.6021 53.5567 53.407 52.0791C53.2676 50.9919 52.8773 46.6707 53.5743 45.4719C54.2712 44.2731 57.1706 36.1604 57.1706 36.1604Z" fill="#E55353"/>
<path d="M57.784 22.9736C57.784 22.9736 59.8192 23.9215 60.7949 23.9772C61.7428 24.033 63.2483 22.5833 65.0883 22.7506C66.9283 22.9178 67.6252 23.8936 69.3537 23.81C71.0822 23.7263 71.6676 23.3639 71.807 22.7227C71.9186 22.0815 74.121 18.1785 73.201 12.7979C72.281 7.41726 74.8737 9.06211 74.8737 9.06211C74.8737 9.06211 77.4107 13.6342 77.9125 18.7082C78.4143 23.7821 76.8252 28.7166 76.7416 29.4136C76.6858 30.1106 76.2955 31.1142 75.8216 31.393C75.3476 31.6718 69.2979 32.1736 67.207 32.2851C65.1161 32.3966 60.7949 31.6997 59.6519 32.4803C58.481 33.2609 57.0313 36.4948 57.0313 36.4948C57.0313 36.4948 55.024 26.5421 57.784 22.9736Z" fill="#EEA886"/>
<path d="M28.2882 22.9736C28.2882 22.9736 26.2531 23.9215 25.2773 23.9772C24.3295 24.033 22.824 22.5833 20.984 22.7506C19.144 22.9178 18.447 23.8936 16.7186 23.81C14.9901 23.7263 14.4046 23.3639 14.2652 22.7227C14.1537 22.0815 11.9513 18.1785 12.8713 12.7979C13.7913 7.41726 11.1986 9.06211 11.1986 9.06211C11.1986 9.06211 8.6616 13.6342 8.15978 18.7082C7.65796 23.7821 9.24705 28.7166 9.33069 29.4136C9.38644 30.1106 9.77675 31.1142 10.2507 31.393C10.7246 31.6718 16.7743 32.1736 18.8652 32.2851C20.9561 32.3966 25.2773 31.6997 26.4204 32.4803C27.5913 33.2609 28.9294 36.2718 28.9294 36.2718C28.9294 36.2718 31.0482 26.5421 28.2882 22.9736Z" fill="#EEA886"/>
<path d="M46.7997 17.0075C46.7997 17.0075 46.3537 19.8233 47.2737 21.7469C47.2737 21.7469 48.2773 26.2075 43.6773 26.5142C39.1052 26.8209 38.91 22.6948 38.91 22.6948C38.91 22.6948 39.9694 21.1893 39.1609 17.2027C38.3246 13.216 46.7997 17.0075 46.7997 17.0075Z" fill="#EEA886"/>
<path d="M43.6494 0.782142C43.6494 0.782142 49.5318 1.59062 48.8627 11.0415C48.1658 20.4645 42.9803 19.7955 42.6179 19.7955C42.2834 19.7955 37.4325 20.0742 36.7912 8.61607C36.7912 8.61607 36.4567 0.113052 43.6494 0.782142Z" fill="#EEA886"/>
<path d="M48.8907 8.36525C48.8907 8.36525 49.5319 7.6404 49.7828 8.36525C50.0337 9.06221 49.0301 12.1568 48.9464 12.4077C48.9464 12.4077 48.8349 12.6865 48.6677 12.5471C48.5283 12.4077 48.8907 8.36525 48.8907 8.36525Z" fill="#EEA886"/>
<path d="M36.9307 8.53242C36.9307 8.53242 36.2894 7.83545 36.0385 8.53242C35.8155 9.25727 36.9028 12.4354 36.9585 12.5748C36.9585 12.5748 37.07 12.8536 37.2373 12.6864C37.4046 12.547 36.9307 8.53242 36.9307 8.53242Z" fill="#EEA886"/>
<path d="M48.9185 9.81481L48.11 10.9857C48.11 10.9857 48.0821 8.44875 47.9427 8.05845C47.8033 7.66815 48.0542 6.27421 47.9427 5.99542C47.8312 5.71663 43.956 6.85966 37.5161 6.35784C37.5161 6.35784 38.2688 8.61602 37.8785 8.7833C37.4603 8.95057 37.7391 11.7384 37.7391 11.7384L37.0421 10.9578C37.0421 10.9578 36.15 6.19057 36.2058 5.40997C36.2894 4.35057 35.8155 -0.583964 44.8482 0.057247C45.8518 0.140883 46.8554 0.503307 47.6918 1.11664C48.6397 1.81361 49.6154 2.92876 49.5597 4.48997C49.476 6.52512 48.9185 9.81481 48.9185 9.81481Z" fill="#FCCCA2"/>
<path d="M39.5233 18.3457C39.5233 18.3457 42.1997 21.3287 46.2979 18.2063C46.2979 18.2063 45.1827 20.5481 42.7573 20.6596C40.3039 20.7711 39.5233 18.3457 39.5233 18.3457Z" fill="#A77860"/>
<path d="M36.0106 22.7505C36.0106 22.7505 36.15 33.5117 43.0361 33.8463V21.496C43.0361 21.496 39.83 21.6075 36.0106 22.7505Z" fill="#EEA886"/>
<path d="M50.0895 22.7505C50.0895 22.7505 49.9501 33.5117 43.0361 33.8463V21.496C43.0361 21.496 46.2422 21.6075 50.0895 22.7505Z" fill="#EEA886"/>
<path d="M71.0543 17.4537C75.2731 17.4537 78.6931 14.0337 78.6931 9.81493C78.6931 5.59615 75.2731 2.17615 71.0543 2.17615C66.8355 2.17615 63.4155 5.59615 63.4155 9.81493C63.4155 14.0337 66.8355 17.4537 71.0543 17.4537Z" fill="#434343"/>
<path d="M71.0542 13.5227C73.102 13.5227 74.7621 11.8626 74.7621 9.81481C74.7621 7.76701 73.102 6.10693 71.0542 6.10693C69.0064 6.10693 67.3463 7.76701 67.3463 9.81481C67.3463 11.8626 69.0064 13.5227 71.0542 13.5227Z" fill="#6B6B6B"/>
<path d="M15.1852 17.4537C19.4039 17.4537 22.8239 14.0337 22.8239 9.81493C22.8239 5.59615 19.4039 2.17615 15.1852 2.17615C10.9664 2.17615 7.54639 5.59615 7.54639 9.81493C7.54639 14.0337 10.9664 17.4537 15.1852 17.4537Z" fill="#434343"/>
<path d="M15.1852 13.5227C17.233 13.5227 18.893 11.8626 18.893 9.81481C18.893 7.76701 17.233 6.10693 15.1852 6.10693C13.1374 6.10693 11.4773 7.76701 11.4773 9.81481C11.4773 11.8626 13.1374 13.5227 15.1852 13.5227Z" fill="#6B6B6B"/>
<path d="M170.282 27.8016C170.282 27.8016 174.534 36.7562 171.611 37.2876C167.599 38.0316 165.978 30.6182 165.978 30.6182L170.282 27.8016Z" fill="#163342"/>
<path d="M171.053 36.6235C171.053 36.6235 173.338 34.8166 174.321 33.8335C175.304 32.8503 179.609 25.9418 180.486 24.5866C181.363 23.2315 182.346 20.6009 182.93 19.4318C183.515 18.2892 189.387 9.46753 189.387 9.46753L191.646 10.4241C191.646 10.4241 187.607 20.6275 186.571 22.3281C185.534 24.0286 184.525 27.4829 183.727 28.9709C182.93 30.4855 178.652 36.5172 177.908 37.8989C177.164 39.2806 176.447 41.9909 176.447 41.9909C176.447 41.9909 170.017 40.37 171.053 36.6235Z" fill="#8E4F3A"/>
<path d="M162.63 32.0531C162.63 32.0531 163.055 35.1885 162.842 37.3408C162.63 39.4931 168.741 37.9254 168.741 37.9254C168.741 37.9254 168.396 33.2223 168.927 31.5483C169.459 29.8477 162.63 32.0531 162.63 32.0531Z" fill="#8E4F3A"/>
<path d="M156.492 64.0451C156.492 64.0451 155.668 66.0911 155.137 67.4728C154.605 68.8545 152.001 74.5408 151.284 78.553C150.566 82.5919 149.503 89.8724 149.344 91.8918C149.185 93.9113 148.441 96.967 147.617 98.6144C146.82 100.262 145.013 105.098 144.8 108.154C144.588 111.236 143.02 124.84 143.02 124.84C143.02 124.84 144.402 126.036 146.767 124.389C146.767 124.389 150.646 111.528 151.629 109.642C152.586 107.755 153.994 102.839 154.127 101.059C154.26 99.2787 155.881 97.2593 157.236 93.1141C158.591 88.969 164.277 77.0385 164.835 74.6736C164.835 74.6736 164.888 73.6107 166.297 73.8233L165.393 63.5668L156.492 64.0451Z" fill="#FAA146"/>
<path d="M174.48 64.0982C174.48 64.0982 175.357 66.2771 175.889 67.6853C176.42 69.0671 178.998 74.7533 179.715 78.7922C180.406 82.831 181.469 90.1116 181.628 92.131C181.788 94.1504 182.532 97.2061 183.329 98.8536C184.126 100.501 185.933 105.337 186.119 108.419C186.305 111.502 187.872 125.106 187.872 125.106C187.872 125.106 186.491 126.302 184.126 124.654C184.126 124.654 180.246 111.767 179.29 109.881C178.333 107.994 176.925 103.078 176.792 101.298C176.659 99.5178 175.038 97.4984 173.683 93.3533C172.328 89.2081 166.589 77.1979 165.818 74.7533C165.818 74.7533 165.659 73.717 164.596 74.0359L156.598 63.4073L174.48 64.0982Z" fill="#FAA146"/>
<path d="M147.086 123.326C147.086 123.326 146.714 123.724 146.156 123.671C145.598 123.645 143.897 123.034 143.206 123.379C142.489 123.724 142.276 126.966 140.894 127.816C139.513 128.693 135.394 131.377 135.74 133.476C136.085 135.602 141.771 134.698 143.18 132.891C144.561 131.058 145.89 131.855 147.006 130.58C148.148 129.278 146.979 124.548 147.086 123.326Z" fill="#EB7171"/>
<path d="M183.807 123.591C183.807 123.591 184.179 123.963 184.737 123.937C185.295 123.91 186.996 123.299 187.686 123.645C188.404 123.99 188.616 127.232 189.972 128.109C191.353 128.985 195.445 131.669 195.1 133.768C194.754 135.894 189.068 134.991 187.66 133.157C186.278 131.324 184.95 132.121 183.834 130.819C182.771 129.517 183.94 124.814 183.807 123.591Z" fill="#EB7171"/>
<path d="M160.77 23.7628C160.77 23.7628 160.212 23.0985 159.999 23.7628C159.787 24.4271 160.477 26.4465 160.557 26.7388C160.557 26.7388 160.903 27.8548 161.035 27.7219C161.168 27.589 160.77 23.7628 160.77 23.7628Z" fill="#8E4F3A"/>
<path d="M170.521 23.8426C170.521 23.8426 171.079 23.1783 171.292 23.8426C171.504 24.5069 170.814 26.5263 170.734 26.8186C170.734 26.8186 170.388 27.9346 170.256 27.8017C170.149 27.6689 170.521 23.8426 170.521 23.8426Z" fill="#8E4F3A"/>
<path d="M166.536 17.3325C166.536 17.3325 171.664 18.1297 170.92 26.1808C170.176 34.2585 165.659 33.6208 165.34 33.5942C165.048 33.5942 160.796 33.7536 160.424 23.9222C160.424 23.9488 160.265 16.6682 166.536 17.3325Z" fill="#8E4F3A"/>
<path d="M161.407 23.4706C161.407 23.4706 167.094 25.1712 169.83 24.6132C169.83 24.6132 170.016 25.6229 170.388 25.6761C170.787 25.7292 170.973 23.7629 170.973 23.7629C170.973 23.7629 171.106 17.1998 165.18 17.1467C159.255 17.0935 160.451 24.2678 160.451 24.2678L160.53 25.4901C160.53 25.4635 161.381 25.8089 161.407 23.4706Z" fill="#163342"/>
<path d="M163.321 32.8502C163.321 32.8502 165.128 34.5508 167.864 32.9831C167.864 32.9831 167.041 34.3382 165.5 34.3116C163.958 34.2851 163.321 32.8502 163.321 32.8502Z" fill="#633029"/>
<path d="M168.635 35.72C168.635 35.72 170.335 36.5171 171.053 36.65C171.77 36.7563 176.473 40.6091 176.633 41.0077C176.792 41.4062 175.517 44.648 175.038 46.1625C174.56 47.6771 172.514 56.7114 172.7 57.3491C172.886 57.9868 174.666 64.3373 174.746 64.8422C162.444 67.2602 156.013 65.1876 156.013 65.1876C156.013 65.1876 158.086 59.0496 158.006 57.8539C157.926 56.6582 156.784 49.9357 155.96 48.0491C155.136 46.1625 153.755 41.3531 153.755 41.3531C153.755 41.3531 159.122 37.1548 159.282 36.8891C159.441 36.6234 162.125 36.092 162.869 35.72H168.635Z" fill="#8E4F3A"/>
<path d="M159.627 36.6765C159.627 36.6765 157.05 34.8165 156.067 33.8334C155.083 32.8503 150.779 25.9417 149.902 24.5866C149.025 23.2314 148.042 20.6009 147.457 19.4317C146.873 18.3157 141.027 9.49402 141.027 9.49402L138.769 10.4506C138.769 10.4506 142.807 20.654 143.844 22.3546C144.88 24.0551 145.89 27.5094 146.687 28.9974C147.484 30.512 151.762 36.5437 152.506 37.9254C153.25 39.3071 153.967 42.0174 153.967 42.0174C153.967 42.0174 160.663 40.4231 159.627 36.6765Z" fill="#8E4F3A"/>
<path d="M171.053 36.6234C171.053 36.6234 173.657 44.6214 174.534 48.0491C174.534 48.0491 173.178 54.1605 172.992 55.0905C172.992 55.0905 165.34 53.6025 157.661 55.3562C157.661 55.3562 156.013 48.1554 155.854 47.7568C155.854 47.7568 158.484 43.0802 159.627 36.7031C159.627 36.7031 160.61 36.1185 161.354 36.1982C161.354 36.1982 160.637 44.1962 165.898 44.1165C171.159 44.0368 169.538 36.1185 169.538 36.1185C169.538 36.1185 170.495 36.3577 171.053 36.6234Z" fill="#FAA146"/>
<path d="M142.329 11.4603C142.329 11.4603 141.771 10.61 141.745 10.0786C141.718 9.65341 141.771 9.0157 141.771 8.61713C141.771 8.21856 141.532 6.51799 141.373 6.11942C141.319 5.95999 140.522 5.13628 140.416 4.81742C140.31 4.47199 140.203 3.75457 139.911 3.86085C139.619 3.96714 139.539 4.63142 139.539 4.63142C139.539 4.63142 139.433 4.33914 139.141 4.33914C138.583 4.36571 138.45 4.65799 138.45 4.65799C138.45 4.65799 138.131 4.41885 137.918 4.49856C137.413 4.63142 137.281 4.95028 137.281 4.95028C137.281 4.95028 136.988 4.87056 136.669 5.05656C136.271 5.26913 136.271 5.72085 136.271 5.72085C136.271 5.72085 135.713 5.88028 135.66 6.19913C135.633 6.51799 135.766 6.7837 135.819 7.02284C135.872 7.28856 136.802 9.33455 138.131 10.4771C139.167 11.4337 139.964 13.2937 139.964 13.2937L142.329 11.4603Z" fill="#8E4F3A"/>
<path d="M134.898 9.16502L142.569 5.56091L141.914 4.16603L134.242 7.77014L134.898 9.16502Z" fill="#B85858"/>
<path d="M139.672 4.79084C139.672 4.79084 140.549 6.5977 140.283 7.20884C139.991 7.84655 139.645 7.20884 139.645 7.20884C139.645 7.20884 140.017 7.81998 139.539 8.16541C139.061 8.51084 138.689 7.74027 138.689 7.74027C138.689 7.74027 138.848 8.29826 138.264 8.45769C137.679 8.61712 137.52 7.92627 137.52 7.92627C137.52 7.92627 137.307 8.82969 136.696 8.37798C135.66 7.63398 135.66 6.17255 135.66 6.17255C135.66 6.17255 135.686 5.82713 136.271 5.69427C136.271 5.69427 136.271 4.81742 137.281 4.9237C137.281 4.9237 137.865 4.07342 138.476 4.63142C138.423 4.68456 139.087 3.8077 139.672 4.79084Z" fill="#693A2B"/>
<path d="M139.698 0.353446L140.256 0.0877324C140.708 -0.124839 141.24 0.061161 141.452 0.512874L145.199 8.21857C145.411 8.67028 145.225 9.20171 144.774 9.41428L144.216 9.68C143.764 9.89257 143.232 9.70657 143.02 9.25486L139.273 1.54916C139.061 1.09744 139.247 0.566017 139.698 0.353446Z" fill="#EB7171"/>
<path d="M131.86 4.02024L132.79 3.56852C133.135 3.40909 133.561 3.54195 133.72 3.88738L137.626 11.9651C137.785 12.3105 137.653 12.7356 137.307 12.8951L136.377 13.3468C136.032 13.5062 135.607 13.3734 135.447 13.0279L131.541 4.9768C131.355 4.60481 131.515 4.20623 131.86 4.02024Z" fill="#EB7171"/>
<path d="M188.059 11.4603C188.059 11.4603 188.617 10.61 188.643 10.0786C188.67 9.65341 188.617 9.0157 188.617 8.61713C188.617 8.21856 188.856 6.51799 189.015 6.11942C189.068 5.95999 189.865 5.13628 189.972 4.81742C190.078 4.47199 190.184 3.75457 190.477 3.86085C190.769 3.96714 190.849 4.63142 190.849 4.63142C190.849 4.63142 190.955 4.33914 191.247 4.33914C191.805 4.36571 191.938 4.65799 191.938 4.65799C191.938 4.65799 192.257 4.41885 192.469 4.49856C192.974 4.63142 193.107 4.95028 193.107 4.95028C193.107 4.95028 193.399 4.87056 193.718 5.05656C194.117 5.26913 194.117 5.72085 194.117 5.72085C194.117 5.72085 194.675 5.88028 194.728 6.19913C194.755 6.51799 194.622 6.7837 194.569 7.02284C194.515 7.28856 193.585 9.33455 192.257 10.4771C191.167 11.4071 190.37 13.2671 190.37 13.2671L188.059 11.4603Z" fill="#8E4F3A"/>
<path d="M196.139 7.78001L188.467 4.1759L187.812 5.57079L195.484 9.1749L196.139 7.78001Z" fill="#B85858"/>
<path d="M190.716 4.79084C190.716 4.79084 189.839 6.5977 190.104 7.20884C190.397 7.84655 190.742 7.20884 190.742 7.20884C190.742 7.20884 190.37 7.81998 190.848 8.16541C191.327 8.51084 191.699 7.74027 191.699 7.74027C191.699 7.74027 191.539 8.29826 192.124 8.45769C192.708 8.61712 192.868 7.92627 192.868 7.92627C192.868 7.92627 193.08 8.82969 193.692 8.37798C194.728 7.63398 194.728 6.17255 194.728 6.17255C194.728 6.17255 194.701 5.82713 194.117 5.69427C194.117 5.69427 194.117 4.81742 193.107 4.9237C193.107 4.9237 192.522 4.07342 191.911 4.63142C191.964 4.68456 191.3 3.8077 190.716 4.79084Z" fill="#693A2B"/>
<path d="M190.689 0.353446L190.131 0.0877324C189.679 -0.124839 189.148 0.061161 188.935 0.512874L185.189 8.21857C184.976 8.67028 185.162 9.20171 185.614 9.41428L186.172 9.68C186.624 9.89257 187.155 9.70657 187.368 9.25486L191.114 1.54916C191.327 1.09744 191.141 0.566017 190.689 0.353446Z" fill="#EB7171"/>
<path d="M198.528 4.02024L197.598 3.56852C197.252 3.40909 196.827 3.54195 196.668 3.88738L192.762 11.9651C192.602 12.3105 192.735 12.7356 193.08 12.8951L194.01 13.3468C194.356 13.5062 194.781 13.3734 194.94 13.0279L198.846 4.95023C199.032 4.60481 198.873 4.20623 198.528 4.02024Z" fill="#EB7171"/>
</svg>
