<svg width="148" height="148" viewBox="0 0 148 148" fill="none" xmlns="http://www.w3.org/2000/svg">
<path d="M73.6904 147.381C114.388 147.381 147.381 114.388 147.381 73.6904C147.381 32.9923 114.388 0 73.6904 0C32.9923 0 0 32.9923 0 73.6904C0 114.388 32.9923 147.381 73.6904 147.381Z" fill="#0071BC"/>
<path d="M123.545 20.7659C123.06 20.3618 122.575 20.4426 122.009 20.8467C121.848 21.0083 121.686 21.0891 121.524 21.2507C121.444 21.3315 121.282 21.4123 121.201 21.3315C120.636 21.0891 119.989 21.1699 119.424 20.8467C118.373 20.3618 117.242 20.2002 116.111 19.877C115.545 19.7154 115.06 19.5538 114.576 19.3922C114.01 19.1498 113.525 18.8266 112.96 18.7458C112.071 18.665 111.263 18.5842 110.616 18.5842C109.889 18.5842 109.404 18.5842 108.92 18.5842C108.758 18.5842 108.516 18.5842 108.354 18.665C107.869 19.1498 107.223 19.069 106.576 19.2306C106.415 19.2306 106.253 19.2306 106.092 19.3114C105.203 20.0386 104.233 20.6851 103.506 21.5739C103.425 21.6547 103.344 21.7355 103.183 21.8163C102.617 22.3011 102.051 22.7859 101.647 23.3515C101.486 23.5939 101.243 23.7555 101.001 23.9171C100.516 24.2403 100.031 24.5635 99.4659 24.8059C98.9811 24.9675 98.6579 25.3715 98.173 25.5331C97.1226 25.9371 97.1226 25.9371 97.2034 27.2299C97.2034 27.5531 97.365 27.7955 97.4458 28.1187C97.5266 28.2803 97.5266 28.5227 97.6074 28.6843C97.6882 29.2499 98.0922 29.5731 98.6578 29.6539C99.1427 29.6539 99.5467 29.5731 99.8699 29.3307C100.031 29.2499 100.193 29.0883 100.355 28.9267C100.597 28.7651 100.759 28.7651 101.001 28.9267C101.567 29.3307 101.971 29.9772 102.455 30.5428C102.617 30.7852 102.536 31.0276 102.294 31.1892C102.132 31.27 101.89 31.4316 101.728 31.5932C101.567 31.674 101.567 31.8356 101.647 31.9972C101.728 32.1588 101.809 32.2396 101.971 32.2396C102.536 32.1588 103.183 32.1588 103.748 31.7548C103.991 31.5932 104.233 31.4316 104.556 31.4316C104.88 31.4316 105.041 31.27 105.122 30.9468C105.284 30.5428 105.364 30.1388 105.364 29.6539C105.364 29.3307 105.445 29.0883 105.768 29.0075C105.93 28.9267 106.011 28.8459 106.172 28.7651C106.819 28.2803 106.9 27.7955 106.253 27.2299C106.172 27.1491 106.092 27.0683 106.011 26.9875C105.364 26.4219 105.445 25.6947 106.172 25.2099C106.334 25.1291 106.576 24.9675 106.738 24.8867C107.304 24.5635 107.788 24.2403 108.031 23.5939C108.192 23.1899 108.516 22.9475 108.92 22.9475C109.243 22.9475 109.485 22.9475 109.808 22.9475C109.889 22.9475 110.051 22.9475 110.051 23.1091C110.132 23.2707 109.97 23.3515 109.889 23.4323C109.485 23.8363 109.081 24.2403 108.516 24.4827C108.031 24.7251 107.627 25.1291 107.708 25.7755C107.869 26.7451 108.192 27.4723 109.243 27.7955C109.324 27.7955 109.324 27.7955 109.404 27.7955C109.808 27.9571 110.051 28.2803 109.97 28.6843C109.889 29.1691 109.728 29.4115 109.243 29.4923C108.596 29.5731 108.354 29.8964 108.192 30.5428C108.192 30.7044 108.112 30.866 108.112 31.0276C107.95 31.9164 107.384 32.3204 106.657 32.2396C106.415 32.2396 106.253 32.3204 106.011 32.3204C105.284 32.4012 104.556 32.7244 103.829 32.9668C103.668 33.0476 103.425 33.1284 103.264 32.886C102.859 32.3204 102.294 32.3204 101.728 32.6436C101.486 32.7244 101.324 32.8052 101.082 32.7244C100.516 32.4012 100.355 32.1588 100.516 31.5932C100.678 31.1892 100.597 30.7852 100.597 30.3812C100.597 30.1388 100.435 29.9772 100.193 29.9772C99.7891 29.9772 99.2235 30.462 99.0619 30.866C98.9003 31.3508 98.9003 31.9164 98.9003 32.4012C98.9811 32.7244 98.8195 32.9668 98.4963 33.1284C98.173 33.29 97.8498 33.4516 97.5266 33.5324C97.0418 33.694 96.557 34.0172 96.3146 34.502C95.9106 35.0676 95.345 35.3908 94.7794 35.714C94.537 35.8756 94.2946 36.0372 94.133 36.3604C93.9714 36.8452 93.4058 36.8452 93.0018 37.0876C92.8402 37.2492 92.5978 37.0876 92.3554 37.0068C92.0322 36.926 91.709 36.8452 91.5474 37.1684C91.305 37.6532 90.901 37.734 90.4162 37.734C90.093 37.734 89.7698 37.734 89.5274 37.8956C89.3658 37.9764 89.2849 37.9764 89.2849 38.138C89.2849 38.3804 89.689 38.8652 89.9314 38.8652C90.8202 38.946 91.2242 39.5925 91.709 40.1581C92.0322 40.5621 92.113 40.9661 91.8706 41.4509C91.7898 41.6933 91.709 41.9357 91.709 42.1781C91.6282 42.7437 91.5474 42.8245 90.9818 42.8245C90.8202 42.8245 90.6586 42.8245 90.497 42.8245C89.3658 42.6629 88.1537 42.6629 86.9417 42.5821C86.7801 42.5821 86.6993 42.5821 86.5377 42.6629C86.1337 42.9861 85.4873 43.1477 85.7297 43.9557C85.8105 44.2789 85.5681 44.6021 85.6489 44.9253C85.7297 45.3293 85.6489 45.6525 85.5681 46.0565C85.4873 46.3797 85.2449 46.6221 85.1641 46.9453C85.0833 47.1069 84.9217 47.2685 85.0833 47.4301C85.4873 47.7533 85.4065 48.2382 85.4065 48.6422C85.4065 48.9654 85.5681 49.127 85.8913 49.127C85.9721 49.127 86.1337 49.127 86.2145 49.127C86.7801 49.0462 87.2649 49.2078 87.6689 49.6118C87.9921 49.935 88.4769 50.0158 88.8809 49.8542C89.2041 49.6926 89.5274 49.6118 89.9314 49.6926C90.8202 49.7734 91.3858 49.2078 91.9514 48.723C92.1938 48.4806 92.3554 47.9957 92.5978 47.6725C92.6786 47.5917 92.6786 47.4301 92.5978 47.3493C92.4362 47.0261 92.5978 46.8645 92.7594 46.6221C92.921 46.3797 93.0826 46.1373 93.2442 45.8949C93.4058 45.6525 93.6482 45.4909 93.9714 45.4101C94.4562 45.3293 94.7794 45.0061 95.1026 44.6829C95.345 44.4405 95.2642 44.1173 95.2642 43.8749C95.2642 43.3901 95.6682 43.0669 96.2338 43.0669C96.557 43.0669 96.8802 43.2285 97.2034 43.2285C97.4458 43.3093 97.6882 43.3901 97.8498 43.3093C98.2538 42.9861 98.7387 42.8245 99.2235 42.5821C99.7891 42.2589 99.7891 42.1781 100.274 42.5821C100.435 42.7437 100.597 42.9053 100.678 43.0669C100.839 43.4709 101.082 43.7133 101.405 43.9557C102.051 44.5213 102.698 45.0061 103.506 45.4101C104.072 45.6525 104.476 46.1373 104.88 46.6221C105.203 47.0261 104.96 47.5917 104.395 47.7533C103.829 47.9149 103.344 47.8341 102.779 47.8341C102.617 47.8341 102.375 47.8341 102.375 48.0765C102.294 48.319 102.455 48.3998 102.617 48.4806C103.102 48.723 103.587 48.9654 104.072 49.2078C104.395 49.3694 104.637 49.2078 104.637 48.8846C104.637 48.4806 104.799 48.2381 105.203 48.1573C105.688 47.9957 105.768 47.5917 105.93 47.1877C106.092 46.9453 106.011 46.7029 105.849 46.4605C105.688 46.2181 105.849 45.9757 106.172 46.0565C106.415 46.0565 106.496 46.2181 106.738 46.2989C106.98 46.3797 107.142 46.2989 107.142 46.0565C107.142 45.7333 106.98 45.5717 106.738 45.4909C106.253 45.1677 105.768 44.8445 105.284 44.5213C105.041 44.3597 104.88 44.2789 104.637 44.1981C104.152 44.0365 103.748 43.7941 103.506 43.3901C103.344 42.9861 103.102 42.7437 102.859 42.5013C102.779 42.4205 102.698 42.3397 102.617 42.1781C102.455 41.9357 102.536 41.4509 102.698 41.2893C102.94 41.1277 103.183 41.0469 103.425 41.2085C103.829 41.5317 104.314 41.7741 104.637 42.2589C104.88 42.5821 105.203 42.8245 105.607 42.9053C105.849 42.9861 106.092 43.0669 106.253 43.3093C106.415 43.4709 106.576 43.5517 106.738 43.6325C107.465 44.0365 107.788 44.6829 107.788 45.4909C107.788 45.6525 107.788 45.8949 107.869 46.0565C108.354 46.6221 108.596 47.4301 109.162 47.9149C109.324 48.0765 109.485 48.319 109.485 48.5614C109.485 49.2078 109.97 49.3694 110.455 49.4502C110.859 49.531 110.94 49.4502 111.101 49.127C111.424 48.319 111.748 47.5109 111.344 46.6221C111.344 46.6221 111.344 46.5413 111.344 46.4605C111.263 46.0565 111.667 45.4909 111.99 45.4101C112.556 45.3293 113.121 45.7333 113.202 46.2989C113.202 46.5413 113.202 46.8645 113.202 47.1069C113.202 47.6725 113.364 48.1573 113.687 48.5614C113.929 48.9654 114.252 49.2886 114.818 49.2078C115.222 49.2078 115.626 49.3694 116.03 49.531C116.353 49.6926 116.596 49.7734 116.838 49.531C117 49.3694 117.242 49.3694 117.484 49.4502C117.808 49.531 118.131 49.6118 118.373 49.7734C118.777 50.0158 119.262 50.0158 119.666 49.6926C119.828 49.6118 119.989 49.531 120.151 49.4502C120.555 49.3694 121.12 49.6118 121.12 50.0158C121.201 50.5006 121.282 51.0662 121.12 51.551C120.959 52.0358 120.797 52.4398 120.716 52.9246C120.636 53.3286 120.555 53.7326 120.393 54.0558C120.151 54.5406 120.151 54.9446 120.312 55.4294C120.474 55.995 120.716 56.5606 120.959 57.0454C121.363 57.9343 121.848 58.8231 122.413 59.6311C122.656 59.9543 122.898 60.3583 123.06 60.7623C123.141 61.0047 123.302 61.1663 123.464 61.3279C123.868 61.5703 124.11 62.0551 124.353 62.4591C124.595 62.8631 124.676 63.3479 124.757 63.8327C124.918 64.4791 125.161 64.9639 125.726 65.2871C125.888 65.3679 126.049 65.5295 126.13 65.6911C126.696 66.4992 127.261 67.4688 127.585 68.3576C127.908 69.408 128.473 70.3776 128.877 71.3472C129.039 71.7512 129.362 71.9936 129.685 72.1552C130.009 72.3168 130.251 72.0744 130.493 71.9128C130.574 71.9128 130.655 71.9128 130.655 71.832C131.867 71.3472 133.079 70.9432 134.129 70.2968C134.372 70.1352 134.614 70.1352 134.857 70.1352C135.341 70.0544 135.745 69.812 135.988 69.3272C136.149 69.0848 136.392 68.8424 136.634 68.6808C137.361 68.2768 138.089 67.9536 138.816 67.4688C139.624 66.9032 140.432 66.4991 140.594 65.4487C140.674 65.2063 140.755 65.0447 140.917 64.8831C141.24 64.3983 141.563 63.9135 141.725 63.3479C141.806 63.1055 141.806 62.9439 141.644 62.7015C141.402 62.3783 141.159 62.0551 140.917 61.8127C140.755 61.5703 140.513 61.4087 140.19 61.4895C139.785 61.5703 139.543 61.3279 139.381 61.0047C139.301 60.8431 139.139 60.7623 139.058 60.6007C138.493 59.7927 137.927 59.7927 137.361 60.5199C137.2 60.7623 136.957 60.9239 136.715 61.0047C136.23 61.1663 135.665 61.0855 135.18 61.0047C135.018 61.0047 134.857 60.8431 134.937 60.6007C135.18 59.5503 134.614 58.9847 133.806 58.4999C132.917 58.0151 132.352 57.3687 131.948 56.399C131.786 55.8334 132.19 55.4294 132.756 55.5102C133.564 55.591 133.806 56.2374 134.049 56.803C134.129 57.1263 134.21 57.4495 134.533 57.6111C135.341 57.9343 135.907 58.5807 136.796 58.8231C137.281 58.9039 137.604 59.0655 138.089 58.8231C138.25 58.7423 138.412 58.7423 138.573 58.6615C138.897 58.4999 138.977 58.4999 139.22 58.9039C139.301 58.9847 139.301 59.0655 139.381 59.2271C139.462 59.6311 139.785 59.8735 140.19 59.8735C140.755 59.9543 141.321 60.1159 141.886 60.1967C143.098 60.4391 144.23 60.5199 145.442 60.2775C145.684 60.1967 145.926 60.1967 146.169 60.1967C143.422 44.8445 135.907 31.1084 125.161 20.6851C125.08 20.6851 124.999 20.7659 124.918 20.7659C124.353 21.2507 123.949 21.1699 123.545 20.7659Z" fill="#AAD16A"/>
<path d="M135.018 73.1249C134.453 73.4481 133.887 73.4481 133.321 73.6097C132.352 73.8521 131.544 74.2561 130.574 74.4177C129.847 74.4985 129.039 74.0945 129.039 73.4481C129.039 72.8825 128.716 72.5593 128.393 72.2361C128.069 71.9129 127.746 71.5089 127.423 71.1857C127.181 70.8625 126.938 70.6201 126.615 70.5393C125.807 70.2969 125.322 69.7313 125.322 68.8425C125.322 68.2769 125.08 67.7921 124.676 67.3881C124.029 66.7416 123.625 65.9336 123.545 65.0448C123.464 64.3984 123.221 63.752 122.817 63.2672C122.252 62.7016 121.848 62.0552 121.605 61.2472C121.525 60.924 121.363 60.6816 121.201 60.4392C120.959 59.6312 120.232 59.0656 120.313 58.0959C120.393 57.5303 120.07 56.9647 119.909 56.3991C119.747 55.5103 119.101 55.1063 118.373 54.7023C117.808 54.3791 117.242 54.5407 116.757 54.9447C116.434 55.1871 116.111 55.1871 115.788 55.0255C115.545 54.8639 115.222 54.8639 114.98 54.7831C114.091 54.6215 113.283 54.4599 112.475 54.1367C112.071 53.9751 111.748 53.8943 111.344 53.5711C111.02 53.3287 110.536 53.2479 110.051 53.3287C109.889 53.3287 109.728 53.4095 109.566 53.4903C109.162 53.4903 108.92 53.8943 108.677 54.1367C108.435 54.3791 108.596 54.6215 108.677 54.8639C108.839 55.2679 108.596 55.5103 108.192 55.5911C107.95 55.5911 107.708 55.5103 107.546 55.3487C107.142 55.0255 106.657 54.7831 106.092 54.7831C105.688 54.7831 105.364 54.6215 105.284 54.2175C105.122 53.6519 104.637 53.4903 104.152 53.4095C103.91 53.4095 103.668 53.4095 103.425 53.4095C102.86 53.4903 102.375 53.2479 101.89 52.9247C101.405 52.6015 101.244 52.1167 101.567 51.5511C101.648 51.3895 101.728 51.1471 101.728 50.9047C101.728 50.5815 101.728 50.1775 101.728 49.8543C101.809 49.4503 101.567 49.127 101.244 49.127C100.92 49.0462 100.516 49.0462 100.193 49.2079C99.9507 49.3695 99.6275 49.2887 99.3851 49.2887C98.7387 49.2887 98.0923 49.127 97.5267 49.5311C97.3651 49.6119 97.2035 49.6119 97.1227 49.5311C96.7187 49.3695 96.3955 49.3695 95.9915 49.4503C95.2643 49.6119 94.537 49.8543 93.8098 49.7735C93.4058 49.7735 93.0826 49.9351 92.8402 50.2583C92.7594 50.4199 92.5978 50.5007 92.4362 50.5815C91.6282 50.9047 90.8202 50.9855 90.0122 51.0663C89.6082 51.1471 89.2042 51.1471 88.8002 50.8239C88.477 50.5815 88.073 50.7431 87.8306 51.0663C87.669 51.3087 87.5074 51.4703 87.4266 51.7127C87.265 52.1167 86.9418 52.3591 86.6186 52.6015C85.7297 53.0863 85.0025 53.8943 84.6793 54.8639C84.5177 55.5103 84.1945 56.0759 83.7905 56.5607C83.3057 57.1263 82.9825 57.7727 82.1745 57.9343C81.9321 58.0151 81.7705 58.1767 81.6089 58.4192C81.4473 58.7424 81.2857 59.1464 81.0433 59.308C80.4777 59.6312 80.3161 60.0352 80.2353 60.6008C80.1545 60.7624 80.0737 60.924 79.9929 61.0856C79.5889 61.8128 79.0233 62.4592 78.7001 63.2672C78.2961 64.0752 78.1345 64.8024 78.5385 65.6104C78.8617 66.4184 79.1849 67.3072 78.7809 68.2769C78.7001 68.4385 78.7001 68.6001 78.7001 68.7617C78.6193 69.0849 78.5385 69.4081 78.2153 69.6505C77.8113 70.0545 77.6497 70.4585 77.6497 71.0241C77.6497 72.0745 78.0537 72.8825 78.6193 73.6905C78.7809 73.9329 79.1041 74.0137 79.2657 74.1753C79.6697 74.4985 79.9121 74.9833 80.2353 75.3065C80.4777 75.5489 80.6393 75.7913 80.8009 76.1145C81.2049 77.4074 81.9321 78.2962 83.0633 79.0234C83.7097 79.4274 84.2753 79.8314 84.8409 80.3162C85.4065 80.801 86.053 80.9626 86.6994 80.5586C86.861 80.4778 87.0226 80.397 87.265 80.3162C87.9922 80.0738 88.6386 79.9122 89.4466 80.1546C89.9314 80.3162 90.497 80.5586 91.0626 80.2354C91.7898 79.9122 92.517 79.6698 93.1634 79.3466C93.8906 79.0234 94.537 78.8618 95.2643 78.8618C96.1531 78.8618 96.6379 79.185 96.8803 79.993C97.1227 80.7202 97.3651 80.8818 98.1731 80.7202C98.7387 80.6394 99.3043 80.6394 99.8699 80.9626C100.516 81.3666 100.678 81.609 100.516 82.417C100.436 82.821 100.193 83.225 100.274 83.629C100.274 84.1946 100.193 84.6794 99.9507 85.245C99.8699 85.4874 99.7891 85.649 99.8699 85.8915C100.032 86.2147 100.112 86.6187 100.355 86.8611C100.84 87.4267 101.244 87.9923 101.728 88.5579C102.132 89.0427 102.375 89.5275 102.456 90.0931C102.536 90.4971 102.698 90.8203 102.86 91.2243C103.102 91.6283 103.264 92.0323 103.264 92.4363C103.183 93.2443 103.425 93.9715 103.748 94.6987C104.072 95.5068 104.072 96.3148 103.344 96.9612C103.021 97.2036 102.86 97.6076 102.86 98.0116C102.779 98.658 102.536 99.3044 102.375 99.9508C102.213 100.597 102.213 101.244 102.213 101.809C102.213 102.052 102.294 102.213 102.456 102.375C102.779 102.779 102.94 103.264 103.102 103.748C103.344 104.395 103.587 105.041 104.072 105.526C104.476 106.011 104.637 106.496 104.556 107.061C104.556 107.465 104.476 107.869 104.637 108.273C104.799 108.677 104.799 109.162 104.88 109.566C104.88 110.293 105.041 111.021 105.526 111.505C106.334 112.313 106.819 113.283 106.98 114.333V114.414C107.223 114.818 107.304 115.222 107.223 115.869C107.061 116.353 107.465 116.838 107.546 117.404C107.546 117.485 107.627 117.565 107.708 117.646C108.192 117.889 108.596 118.212 109.081 118.131C109.889 117.969 110.778 118.05 111.586 117.727C111.667 117.646 111.828 117.646 111.909 117.646C112.717 117.646 113.525 117.485 114.333 117.161C115.141 116.919 115.788 116.434 116.272 115.788C116.434 115.545 116.676 115.303 116.919 115.141C117.323 114.818 117.646 114.414 117.808 113.929C118.05 113.445 118.292 113.041 118.697 112.717C119.181 112.313 119.424 111.909 119.585 111.344C119.666 111.101 119.747 110.859 119.828 110.617C119.909 109.728 120.393 109.162 121.201 108.839C121.525 108.677 121.767 108.435 121.848 108.112C122.171 107.223 122.413 106.334 122.09 105.445C122.009 105.284 122.009 105.122 121.929 104.96C121.767 104.152 122.009 103.506 122.656 103.021C122.898 102.86 123.141 102.617 123.302 102.294C123.545 102.052 123.787 101.809 124.029 101.728C124.757 101.405 125.484 101.001 125.969 100.355C126.453 99.7084 126.777 99.062 126.696 98.254C126.615 97.6884 126.615 97.042 126.777 96.3956C126.938 95.7492 126.938 95.0219 126.453 94.3755C126.13 93.9715 125.888 93.4867 125.888 92.9211C125.888 92.0323 125.807 91.1435 125.565 90.3355C125.484 90.0123 125.484 89.6083 125.726 89.3659C125.888 89.2043 125.969 88.9619 126.049 88.7195C126.373 87.8307 126.777 87.0227 127.585 86.4571C127.746 86.3763 127.827 86.2147 127.908 86.0531C128.312 85.4874 128.716 84.9218 129.12 84.437C129.524 83.9522 129.928 83.4674 130.413 83.1442C131.786 82.4978 132.594 81.3666 133.241 80.1546C133.968 78.781 134.614 77.3266 135.261 75.8721C135.341 75.7105 135.341 75.5489 135.341 75.3873C135.503 74.8217 135.261 74.1753 135.422 73.5289C135.584 73.2865 135.18 72.9633 135.018 73.1249Z" fill="#AAD16A"/>
<path d="M2.58559 59.9544C2.50479 60.2776 2.66639 60.52 2.98959 60.7624C3.5552 61.1664 3.8784 61.6512 4.2016 62.2168C4.36321 62.54 4.52481 62.944 4.76721 63.2672C5.09041 63.752 5.09041 64.2368 4.84801 64.8024C4.52481 65.6104 4.76721 66.3376 5.57522 66.7416C5.65602 66.7416 5.73682 66.8224 5.81762 66.9032C6.14083 67.4689 6.70643 67.7113 7.27204 67.8729C7.35284 67.8729 7.43364 67.9537 7.51444 68.0345C7.83764 68.3577 8.16085 68.6001 8.64565 68.7617C9.45366 69.0849 10.3425 69.4081 11.1505 69.7313C11.5545 69.8929 11.9585 69.8929 12.2817 69.7313C12.5241 69.6505 12.6857 69.6505 12.9281 69.5697C13.2513 69.4889 13.4937 69.5697 13.7361 69.7313C13.8977 69.8929 14.1401 69.9737 14.3017 70.2161C15.2713 71.6705 16.8065 72.1553 18.4226 72.3977C18.8266 72.4785 19.1498 72.7209 19.3114 72.9633C19.5538 73.3673 19.7962 73.7713 19.877 74.2561C19.9578 74.9833 20.281 75.4681 21.0082 75.7105C21.4122 75.8721 21.8162 76.1145 21.9778 76.5185C22.1394 76.8418 22.4626 77.0034 22.7858 77.0842C23.1898 77.165 23.5938 77.2458 23.8362 77.6498C23.9978 77.8922 24.321 77.8114 24.5634 77.7306C24.8058 77.6498 24.8058 77.4882 24.8058 77.2458C24.8058 77.0842 24.8058 76.9226 24.9674 76.761C25.129 76.5993 25.129 76.3569 25.0482 76.1145C24.8866 75.9529 24.6442 75.9529 24.4018 76.0337C23.8362 76.1953 23.4322 76.0337 23.0282 75.6297C22.8666 75.5489 22.7858 75.3873 22.6242 75.3065C22.0586 74.9025 21.897 74.2561 22.1394 73.6097C22.4626 72.8017 22.3818 71.9129 22.7858 71.1049C22.9474 70.8625 22.8666 70.5393 22.7858 70.2969C22.7858 70.1353 22.705 70.0545 22.5434 69.9737C21.897 69.4081 21.1698 69.2465 20.3618 69.4081C20.0386 69.4889 19.7154 69.4081 19.473 69.4081C19.2306 69.4081 19.069 69.2465 18.9882 69.0041C18.8266 68.5193 18.9074 68.1153 19.1498 67.7113C19.473 67.3073 19.6346 66.8224 19.877 66.3376C20.1194 65.772 20.0386 65.1256 20.5234 64.56C20.7658 64.3176 20.5234 64.0752 20.2002 63.9944C19.3114 63.8328 18.5034 64.0752 17.6954 64.3176C17.4529 64.3984 17.2913 64.56 17.2913 64.8832C17.2105 65.368 17.0489 65.772 16.8873 66.176C16.6449 66.6608 16.4025 66.9032 15.8369 66.8224C15.3521 66.7416 14.9481 66.7416 14.4633 66.8224C13.6553 66.984 12.8473 66.4184 12.4433 65.6104C11.9585 64.7216 12.0393 63.8328 11.9585 62.944C11.9585 62.7824 11.9585 62.7016 12.0393 62.54C12.1201 61.732 12.4433 61.0048 12.7665 60.2776C12.9281 59.8736 13.0897 59.5504 13.0089 59.1464C13.0089 58.7424 13.1705 58.3384 13.4937 58.0151C13.8977 57.6919 14.3017 57.3687 14.7865 57.1263C15.2713 56.9647 15.6753 56.7223 16.1601 56.4799C16.5641 56.2375 16.9681 56.2375 17.3721 56.3991C18.0994 56.6415 18.9882 56.6415 19.7962 56.8031C20.0386 56.8031 20.1194 56.7223 20.2002 56.5607C20.3618 56.3183 20.6042 56.0759 20.9274 55.9951C21.3314 55.9143 21.7354 55.8335 22.1394 55.7527C22.5434 55.6719 22.9474 55.7527 23.109 56.1567C23.2706 56.4799 23.513 56.5607 23.8362 56.4799C24.5634 56.3991 24.9674 56.8031 24.8866 57.5303C24.8866 57.8535 24.8866 58.096 24.8866 58.4192C25.0482 59.1464 25.2906 59.7928 25.6946 60.3584C26.0178 60.7624 26.1794 60.8432 26.5834 60.52C26.9875 60.116 27.2299 59.712 27.2299 59.1464C27.2299 58.4191 27.0683 57.7727 26.9067 57.1263C26.5834 55.8335 26.9875 54.7023 28.0379 53.8943C28.9267 53.2479 29.8155 52.6015 30.7851 52.1167C31.3507 51.8743 31.9163 51.6319 32.2395 50.9855C32.4819 50.5815 32.7243 50.2583 32.8051 49.8543C32.9667 49.2079 33.2899 48.6422 33.6939 48.1574C34.1787 47.5918 34.7443 47.0262 35.2291 46.4606C35.7947 45.8142 36.4412 45.4102 37.2492 45.3294C37.6532 45.2486 37.9764 45.087 38.3804 44.9254C38.6228 44.8446 38.7844 44.6022 38.7036 44.3598C38.6228 43.9558 38.8652 43.7134 39.1076 43.5518C39.5116 43.2286 39.9964 43.067 40.4004 42.8246C40.966 42.4206 41.4508 42.5822 41.9356 42.5014C42.178 42.5014 42.4204 42.5822 42.5012 42.9054C42.6628 43.3094 42.986 43.3094 43.3092 43.067C43.4708 42.9054 43.7132 42.663 43.8748 42.5014C44.0364 42.3398 44.198 42.1782 44.3596 42.1782C45.0061 42.259 45.5717 41.855 46.2181 41.855C46.3797 41.855 46.5413 41.7742 46.7029 41.7742C47.0261 41.6934 47.1069 41.2894 46.8645 41.047C46.7837 40.9662 46.6221 40.8854 46.4605 40.8854C46.2181 40.8854 45.9757 40.8046 45.7333 40.7238C45.0868 40.5622 44.7636 40.1582 44.9252 39.5117C45.0061 39.1885 45.1677 38.9461 45.4101 38.7037C45.7333 38.3805 45.8949 38.0573 45.8141 37.5725C45.7333 37.2493 45.8949 37.1685 46.1373 37.0877C46.6221 36.8453 47.1877 36.8453 47.6725 36.9261C48.3189 37.0069 48.9653 37.0069 49.5309 36.8453C49.8541 36.7645 50.0965 37.0877 49.9349 37.4109C49.8541 37.6533 49.6117 37.8957 49.4501 38.0573C49.2077 38.2997 49.0461 38.6229 48.9653 38.9461C48.8845 39.1885 48.8845 39.3501 49.2077 39.4309C49.6117 39.5117 50.0157 39.5925 50.4197 39.5117C50.8237 39.4309 51.3085 39.4309 51.7125 39.6733C52.1165 39.9157 52.5205 39.9965 52.9245 40.0774C53.5709 40.239 53.9749 39.6733 53.7325 39.1077C53.5709 38.7037 53.5709 38.3805 53.7325 38.0573C53.9749 37.4917 53.9749 37.4917 53.4093 37.2493C52.9245 37.0877 52.8437 36.8453 52.8437 36.3605C52.8437 35.7141 53.2477 35.1485 53.3285 34.4213C53.4093 34.0173 53.3285 33.7749 53.0053 33.5325C52.8437 33.4517 52.6821 33.2901 52.7629 33.1285C52.7629 32.7245 52.5205 32.6437 52.2781 32.5629C51.5509 32.4013 51.3085 31.8357 51.3085 31.1893C51.3085 30.7852 51.3085 30.3812 51.3085 29.9772C51.3085 29.3308 51.0661 28.6844 50.6621 28.1188C50.3389 27.7148 50.1773 27.7148 49.7733 28.038C49.2885 28.442 48.7229 28.846 48.1573 29.1692C47.7533 29.4116 47.3493 29.3308 47.0261 29.0884C46.7837 28.846 46.7029 28.6036 46.9453 28.1188C47.0261 28.038 47.0261 27.9572 47.1069 27.7956C47.2685 27.3916 47.2685 27.23 46.9453 26.9876C46.6221 26.826 46.3797 26.5836 46.1373 26.3412C45.8949 26.0988 45.6525 25.7756 45.2485 25.7756C44.5212 25.6948 43.8748 25.614 43.1476 25.614C42.9052 25.614 42.6628 25.6948 42.5012 25.8564C42.0164 26.2604 41.8548 26.9068 41.5316 27.3916C41.6124 28.1996 41.2084 28.5228 40.4812 28.7652C40.4004 28.7652 40.3196 28.7652 40.3196 28.846C39.9964 29.0076 39.9156 29.1692 40.158 29.4924C40.562 29.9772 40.562 30.1388 40.2388 30.7044C39.9964 31.1085 39.6732 31.3509 39.2692 31.5933C38.7036 31.9973 37.9764 32.0781 37.4108 32.4013C37.1684 32.5629 36.926 32.7245 36.926 33.0477C36.926 33.6133 36.6028 34.0173 36.6028 34.5829C36.6028 34.8253 36.3604 34.9869 36.1988 35.0677C36.0372 35.1485 35.8755 35.2293 35.6331 35.3101C35.2291 35.5525 34.9059 35.4717 34.7443 34.9869C34.5827 34.6637 34.5827 34.2597 34.8251 33.9365C35.0675 33.5325 35.2291 33.0477 35.6331 32.6437C35.7947 32.4821 35.7139 32.3205 35.5523 32.2397C35.2291 32.0781 34.8251 32.0781 34.4211 32.0781C33.6131 32.0781 32.9667 31.6741 32.4011 31.1893C31.9163 30.7044 31.3507 30.462 30.7851 30.3004C30.3811 30.2196 30.3003 29.9772 30.2195 29.654C30.1387 29.4116 30.2195 29.0884 30.0579 28.9268C29.8155 28.6036 29.9771 28.2804 30.2195 28.038C30.4619 27.7148 30.8659 27.4724 31.1891 27.23C32.0779 26.5028 33.0475 26.018 34.1787 25.8564C34.7443 25.7756 35.2291 25.4524 35.6331 25.1292C35.8755 24.8868 36.1988 24.7252 36.6028 24.7252C37.1684 24.6444 37.734 24.806 38.2188 25.21C38.4612 25.4524 38.6228 25.3716 38.8652 25.2908C39.1884 25.1292 39.5116 24.9676 39.8348 24.806C40.0772 24.7252 40.3196 24.6444 40.4812 24.806C40.6428 24.9676 40.8852 25.0484 41.1276 25.0484C41.2892 25.0484 41.4508 24.9676 41.5316 24.806C41.6124 24.6444 41.5316 24.4828 41.37 24.402C41.1276 24.2404 41.0468 23.998 40.966 23.6748C40.8044 23.19 40.8852 22.9476 41.4508 22.9476C41.8548 22.9476 42.0972 22.786 42.4204 22.5436C42.9052 22.2204 43.4708 21.978 43.794 21.3315C43.8748 21.1699 44.0364 21.0891 44.198 20.9275C44.3596 20.7659 44.5212 20.6043 44.6828 20.3619C44.8444 19.9579 45.2485 19.7963 45.6525 19.8771C45.9757 19.9579 46.2989 19.8771 46.6221 19.8771C47.1069 19.8771 47.5917 19.9579 47.8341 20.3619C47.9957 20.6043 48.2381 20.7659 48.4805 20.9275C48.8845 21.1699 48.9653 21.4123 48.5613 21.7356C48.3189 21.978 47.9957 22.2204 47.6725 22.382C47.5109 22.4628 47.2685 22.5436 47.1877 22.786C47.1069 23.19 46.7837 23.2708 46.3797 23.2708C45.9757 23.3516 45.6525 23.2708 45.2485 23.1092C44.6828 22.9476 44.0364 23.2708 43.8748 23.8364C43.794 24.0788 43.8748 24.2404 44.1172 24.2404C44.8444 24.3212 45.5717 24.4828 46.2989 24.3212C46.6221 24.2404 46.7837 24.402 46.9453 24.5636C47.0261 24.7252 47.1877 24.8868 47.1877 25.1292C47.2685 25.5332 47.5917 25.7756 47.9957 25.9372C48.3997 26.0988 48.8845 26.2604 49.2885 26.422C49.6925 26.5836 50.0157 26.5836 50.4197 26.2604C50.8237 25.9372 51.2277 25.614 51.6317 25.3716C52.1973 25.0484 52.2781 24.4828 51.9549 23.9172C51.8741 23.7556 51.7125 23.5132 51.6317 23.3516C51.5509 23.19 51.5509 23.0284 51.7125 22.9476C51.8741 22.8668 52.0357 22.9476 52.1165 23.0284C52.3589 23.19 52.5205 23.5132 52.6821 23.7556C53.0053 24.0788 53.3285 24.1596 53.7325 23.8364C54.0557 23.594 54.2981 23.3516 54.6214 23.1092C55.0254 22.786 55.1062 22.5436 54.8638 22.0588C54.783 21.8164 54.6214 21.574 54.2981 21.4123C53.6517 21.0891 53.2477 20.6043 53.3285 19.8771C53.4093 19.4731 53.1669 19.2307 52.9245 18.9883C52.5205 18.5843 51.9549 18.4227 51.4701 18.3419C50.8237 18.2611 50.4197 17.8571 50.2581 17.2915C50.0965 16.8875 49.8541 16.8067 49.5309 16.7259C48.6421 16.4835 47.7533 16.4835 46.8645 16.6451C46.2181 16.7259 45.6525 16.7259 45.0061 16.7259C44.602 16.7259 44.198 16.7259 43.7132 16.7259C43.3092 16.7259 42.9052 16.8067 42.5012 17.0491C42.0972 17.3723 41.6932 17.6955 41.2892 18.0187C40.8044 18.4227 40.7236 18.6651 40.966 19.3115C41.0468 19.4731 41.1276 19.5539 41.0468 19.7155C40.8852 20.0387 40.6428 20.2003 40.2388 20.2811C39.9156 20.2811 39.5924 20.2811 39.35 19.9579C39.1076 19.5539 38.946 19.1499 38.946 18.7459C38.8652 18.3419 38.6228 18.0995 38.2996 18.1803C37.734 18.3419 37.2492 18.4227 36.7644 18.7459C36.2796 19.0691 35.7947 19.4731 36.0372 20.2811C36.1988 20.7659 36.0372 20.8467 35.6331 21.0891C35.3099 21.2507 35.0675 21.1699 34.7443 21.0891C34.2595 21.0083 33.7747 20.9275 33.2899 21.0891C32.9667 21.2507 32.6435 21.2507 32.2395 21.2507C31.8355 21.2507 31.4315 21.2507 31.0275 21.3315C30.4619 21.4123 29.9771 21.4123 29.4923 20.9275C29.1691 20.6043 28.7651 20.5235 28.3611 20.6043C27.6339 20.7659 26.9875 20.7659 26.2602 21.0083C25.2098 21.3315 24.1594 21.4931 23.1898 20.6851C23.0282 20.5235 22.7858 20.4427 22.5434 20.4427C12.4433 30.3004 4.84801 43.3094 1.69678 57.8535C2.10078 58.4192 2.18158 59.0656 2.50479 59.6312C2.58559 59.712 2.58559 59.8736 2.58559 59.9544Z" fill="#AAD16A"/>
<path d="M2.02001 62.459C2.10081 62.1358 2.02001 61.8934 1.8584 61.651C1.616 61.3278 1.4544 61.0046 1.2928 60.6005C1.2928 60.5197 1.212 60.3581 1.212 60.2773C1.1312 60.9238 0.969595 61.4894 0.888794 62.1358C1.0504 62.2974 1.212 62.459 1.2928 62.6206C1.5352 62.863 1.8584 62.7822 2.02001 62.459Z" fill="#AAD16A"/>
<path d="M61.7318 89.4465C61.0854 89.3657 60.6006 89.0425 60.1966 88.5577C60.035 88.3961 59.8734 88.2345 59.7118 88.0729C59.1462 87.6689 58.5806 87.2649 57.8534 87.4265C56.8838 87.5881 55.995 87.1033 55.2678 86.6185C53.975 85.8913 52.6013 85.4065 51.2277 84.8409C50.6621 84.5985 50.3389 84.1945 50.1773 83.6288C50.0965 83.3864 50.0965 83.2248 49.9349 82.9824C49.5309 82.5784 49.3693 82.0128 49.2885 81.528C49.2077 81.124 49.1269 80.72 48.8037 80.4776C48.3997 80.2352 48.1573 79.912 47.9149 79.6696C47.8341 79.5888 47.6725 79.4272 47.5109 79.4272C46.7837 79.2656 46.1373 78.9424 45.3293 79.0232C44.2788 79.104 43.5516 78.5384 43.0668 77.7304C42.7436 77.2456 42.4204 76.8416 41.8548 76.68C41.4508 76.5992 41.2892 76.276 41.2084 75.9528C41.1276 75.7104 41.2892 75.468 41.37 75.2256C41.4508 74.9832 41.5316 74.6599 41.2084 74.4983C40.8852 74.3367 40.562 74.1751 40.2388 74.3367C39.8348 74.4175 39.4308 74.4175 39.0268 74.4175C38.7036 74.4175 38.4612 74.4175 38.2188 74.66C37.8148 74.9832 37.4108 74.9832 37.0068 74.7408C36.6836 74.4983 36.2796 74.4983 35.9564 74.4175C35.5524 74.3367 35.2292 74.2559 34.9059 74.0135C34.4211 73.6903 33.9363 73.4479 33.4515 73.2055C33.0475 73.0439 32.6435 73.0439 32.1587 72.9631C31.9971 72.9631 31.8355 72.9631 31.6739 73.1247C31.2699 73.6095 30.7043 73.7711 30.0579 73.9327C29.3307 74.0943 28.6843 74.4175 28.4419 75.3064C28.2803 75.9528 27.4723 76.3568 26.8259 76.1952C26.5835 76.1144 26.3411 76.1144 26.0986 76.1952C26.0178 76.1952 25.8562 76.276 25.8562 76.3568C25.8562 76.5992 25.6946 76.9224 26.0179 77.084C26.1795 77.1648 26.1795 77.2456 26.1795 77.4072C26.1795 77.6496 26.3411 77.892 26.4219 78.0536C26.8259 78.7 26.9067 79.4272 26.8259 80.1544C26.7451 80.8008 26.6643 81.4472 26.3411 82.0128C26.0986 82.336 25.7754 82.4976 25.533 82.8208C25.2098 83.144 25.0482 83.6289 24.725 83.8713C24.0786 84.3561 23.8362 85.0833 23.6746 85.8105C23.5938 86.2953 23.513 86.7801 23.7554 87.2649C24.1594 87.9113 23.9978 88.3961 23.513 88.9617C23.3514 89.1233 23.1898 89.3657 23.1898 89.6889C23.2706 90.4969 23.4322 91.2241 24.1594 91.7897C24.8058 92.1937 25.129 92.921 25.2906 93.5674C25.3714 93.9714 25.533 94.2946 25.8562 94.6178C26.4219 95.1834 26.8259 95.9106 27.1491 96.557C27.4723 97.1226 27.7955 97.769 28.0379 98.3346C28.3611 99.0618 29.0075 99.5466 29.5731 100.112C29.6539 100.193 29.6539 100.193 29.7347 100.193C30.2195 100.355 30.7043 100.597 31.1083 100.759C31.9971 101.163 32.6435 101.809 33.2899 102.455C33.4515 102.617 33.4515 102.859 33.5323 103.021C33.8555 104.071 33.8555 105.122 33.8555 106.253C33.9363 107.788 34.0171 109.324 34.1787 110.859C34.1787 111.101 34.1787 111.424 34.1787 111.667C34.0171 112.313 34.0979 113.04 34.1787 113.687C34.2595 114.495 34.5827 115.222 34.7443 116.03C34.9059 116.838 34.9059 117.646 34.7443 118.535C34.5827 119.181 34.5827 119.908 34.5019 120.555C34.5019 120.716 34.5019 120.878 34.5827 121.04C35.0675 121.848 35.1483 122.736 35.31 123.706C35.3908 124.353 35.6332 124.918 36.118 125.484C36.8452 126.373 37.1684 127.423 37.33 128.554C37.33 128.877 37.4108 129.201 37.6532 129.443C37.8956 129.766 37.9764 130.089 37.9764 130.493C38.0572 131.14 38.2188 131.867 38.6228 132.433C38.7036 132.513 38.7036 132.675 38.7844 132.756C39.35 133.645 39.6732 134.614 40.4004 135.341C40.8852 135.826 41.4508 136.23 42.178 135.907C42.7436 135.665 43.5516 136.149 43.7132 136.796C43.794 137.2 44.0364 137.281 44.4405 137.361C44.6829 137.361 45.0061 137.361 45.2485 137.442C45.7333 137.685 46.2989 137.604 46.7837 137.604C47.0261 137.604 47.2685 137.604 47.3493 137.281C47.4301 136.957 47.1877 136.877 46.9453 136.715C46.8645 136.634 46.7837 136.634 46.7029 136.634C46.3797 136.634 46.0565 136.553 45.7333 136.392C45.1677 136.069 44.5213 135.745 44.198 135.099C44.0364 134.695 43.794 134.453 43.4708 134.129C42.6628 133.402 42.8244 133.16 43.1476 132.513C43.1476 132.433 43.2284 132.352 43.2284 132.271C43.1476 131.786 43.4708 131.544 43.794 131.221C44.3596 130.655 44.198 130.089 43.5516 129.766C42.9052 129.443 42.7436 128.716 43.0668 128.15C43.3092 127.827 43.4708 127.423 43.3092 126.938C43.2284 126.696 43.39 126.534 43.4708 126.373C43.7132 126.049 43.8748 125.726 43.9556 125.403C44.0364 124.999 44.198 124.676 44.3596 124.352C44.6021 124.029 44.7637 123.706 44.7637 123.302C44.8445 122.817 45.1677 122.494 45.5717 122.332C45.7333 122.252 45.8949 122.252 46.0565 122.171C46.8645 121.848 47.5109 121.524 47.5109 120.555C47.5109 120.474 47.5917 120.393 47.5917 120.312C47.8341 119.585 48.0765 118.939 48.7229 118.454C49.0461 118.212 49.3693 117.888 49.5309 117.484C49.7733 116.919 50.0157 116.353 50.2581 115.788C50.5005 115.222 50.5813 114.656 51.1469 114.333C51.6317 114.01 51.5509 113.283 51.9549 112.879C52.0357 112.798 52.1165 112.717 52.2781 112.636C52.5205 112.475 52.6013 112.152 52.6013 111.909C52.6013 111.586 52.6013 111.182 52.5205 110.859C52.1165 109.485 52.3589 108.92 53.571 108.192C53.8134 108.031 53.975 107.95 54.2174 107.869C54.4598 107.788 54.6214 107.708 54.783 107.627C55.2678 107.304 55.7526 107.142 56.399 107.061C56.8838 107.061 57.5302 107.061 57.7726 106.334C57.7726 106.253 57.9342 106.172 57.9342 106.172C58.1766 106.011 58.2574 105.768 58.2574 105.526C58.2574 105.122 58.3382 104.879 58.5806 104.556C58.823 104.152 59.0654 103.748 59.0654 103.263C59.0654 102.779 59.0654 102.375 59.3886 101.971C59.4694 101.809 59.4694 101.647 59.4694 101.486C59.4694 101.243 59.4694 101.001 59.4694 100.839C59.631 100.355 59.5502 99.9506 59.3886 99.4658C59.1462 98.7386 59.1462 97.9306 59.7118 97.2842C60.439 96.3954 60.843 95.2642 61.7318 94.4562C61.8126 94.3754 61.8126 94.3754 61.8934 94.2946C62.6206 93.0826 62.863 91.7897 62.3782 90.4161C62.6206 89.8505 62.3782 89.5273 61.7318 89.4465Z" fill="#AAD16A"/>
<path d="M80.3161 19.877C81.2857 19.6346 81.6897 19.1498 81.4473 18.0994C81.2857 17.453 81.4473 17.2914 82.0129 17.049C83.0633 16.645 83.8713 15.9986 84.2753 14.9482C84.3561 14.7866 84.3561 14.625 84.5177 14.4634C84.8409 14.221 84.9217 13.817 84.8409 13.413C84.8409 13.0897 84.9217 12.8473 85.2449 12.6857C85.9721 12.4433 86.6185 11.9585 87.3457 11.7969C87.9113 11.7161 88.5577 11.6353 89.1234 11.3121C89.2042 11.2313 89.3658 11.1505 89.3658 10.9889C89.3658 10.8273 89.2042 10.8273 89.1234 10.8273C88.7193 10.6657 88.3153 10.7465 87.9113 10.7465C87.1033 10.8273 86.2953 10.7465 85.5681 10.5041C84.7601 10.2617 83.8713 10.1001 82.9825 9.93852C81.6089 9.69611 80.1545 9.61531 78.7 9.93852C78.1344 10.0193 77.5688 10.1001 77.0032 10.1001C76.1952 10.0193 75.3872 10.0193 74.5792 10.1809C73.2056 10.4233 71.832 10.5849 70.3775 10.6657C69.9735 10.6657 69.6503 10.8273 69.2463 10.7465C67.7919 10.5041 66.4991 11.0697 65.0447 10.9889C64.9639 10.9889 64.8831 10.9889 64.8023 11.0697C64.3175 11.2313 63.9135 11.3929 63.4287 11.3929C62.6207 11.4737 61.8935 11.8777 61.0854 11.8777C60.843 11.8777 60.6006 11.8777 60.5198 12.1201C60.439 12.4433 60.1158 12.4433 59.8734 12.5241C59.1462 12.7665 58.419 12.7665 57.6918 12.8473C57.2878 12.9281 56.803 13.0089 56.399 13.0898C56.0758 13.1706 55.995 13.3322 55.995 13.5746C55.995 14.0594 56.399 14.5442 56.8838 14.7866C57.2878 14.9482 57.7726 15.029 58.2574 14.9482C59.227 14.7866 60.1158 14.9482 61.0854 15.1098C61.8127 15.2714 62.2975 15.837 62.3783 16.5642C62.3783 16.9682 62.2975 17.2914 62.1359 17.6146C61.8935 18.0186 61.8935 18.3418 62.1359 18.7458C62.3783 19.069 62.4591 19.473 62.7015 19.7962C63.0247 20.2002 62.9439 20.4426 62.3783 20.5234C61.247 20.7658 60.6006 21.4122 60.6006 22.6243C60.5198 23.1091 60.7622 23.5939 60.7622 24.1595C60.6814 24.7251 60.843 25.2907 61.0854 25.7755C61.247 26.0987 61.4086 26.4219 61.5703 26.7451C61.8127 27.2299 61.8935 27.2299 62.3783 27.1491C62.8631 27.0683 63.2671 27.1491 63.5903 27.5531C64.3175 28.3611 64.8023 28.1187 65.2063 27.5531C65.6103 27.0683 66.1759 26.6643 66.4183 26.0987C66.4991 25.9371 66.5799 25.7755 66.7415 25.6947C67.2263 25.3715 67.5495 24.9675 67.7919 24.4827C68.1959 23.8363 68.6807 23.4323 69.4887 23.3515C69.9735 23.3515 70.4584 23.2707 70.9432 23.1899C71.9936 23.0283 72.8824 22.6243 73.7712 21.9778C74.0944 21.7354 74.4176 21.4122 74.9024 21.4122C75.7104 21.4122 76.5184 21.1698 77.3264 21.0082C77.892 20.9274 78.4576 20.7658 79.0232 20.4426C79.3464 20.2002 79.7505 20.0386 80.3161 19.877Z" fill="#AAD16A"/>
<path d="M134.533 97.8499C134.453 97.3651 134.291 96.9611 134.049 96.5571C133.887 96.2339 133.645 96.2339 133.483 96.4763C133.16 96.9611 132.837 97.4459 132.594 97.9307C132.109 98.9811 131.463 99.7891 130.251 99.9507C129.928 100.031 129.605 100.031 129.443 100.355C129.201 100.839 128.877 101.324 128.958 101.89C129.039 102.213 128.958 102.536 129.039 102.86C129.281 103.668 128.958 104.314 128.473 104.96C128.15 105.445 127.989 105.849 128.069 106.334C128.069 106.98 128.231 107.546 128.312 108.112C128.473 108.758 129.281 109.404 129.847 109.324C130.251 109.243 130.655 109.081 131.059 108.92C131.14 108.839 131.301 108.758 131.382 108.677C131.544 108.273 131.867 107.788 131.948 107.384C132.19 106.334 132.675 105.364 132.998 104.314C133.321 103.506 133.725 102.698 133.887 101.728C133.968 101.244 134.129 100.759 134.372 100.355C134.695 99.7891 134.776 99.2235 134.614 98.6579C134.614 98.4155 134.614 98.0923 134.533 97.8499Z" fill="#AAD16A"/>
<path d="M89.7697 32.1587C90.0121 32.4819 90.4161 32.6435 90.7393 32.8051C91.0625 32.9667 91.2241 33.2899 91.2241 33.6131C91.2241 33.9363 90.9009 33.9363 90.6585 34.0171C90.3353 34.0979 90.1737 34.2595 90.0929 34.5827C90.0929 34.7443 90.0121 34.9059 90.0121 35.0675C89.9313 35.5523 89.7697 36.0371 89.6081 36.5219C89.5273 37.0067 89.7697 37.1683 90.1737 37.0875C90.2545 37.0875 90.3353 37.0067 90.3353 37.0067C90.9817 36.5219 91.7897 36.5219 92.5169 36.5219C92.9209 36.5219 93.3249 36.3603 93.7289 36.1987C93.8905 36.1179 93.9713 36.0371 94.0521 35.8755C94.0521 35.6331 94.2137 35.4715 94.3753 35.3099C94.8602 34.8251 94.7794 34.5019 94.2137 34.3403C93.8097 34.1787 93.6481 33.9363 93.5673 33.6131C93.4865 33.2899 93.4057 32.9667 93.0825 32.8051C93.0017 32.7243 92.9209 32.6435 92.8401 32.5627C92.5169 31.9162 92.1129 31.2698 92.1937 30.4618C92.2745 29.7346 91.6281 29.2498 90.8201 29.2498C90.4161 29.169 90.0121 29.3306 89.6889 29.8154C89.4465 30.2194 89.2041 30.5426 89.2849 31.1082C89.3657 31.4314 89.4465 31.8354 89.7697 32.1587Z" fill="#AAD16A"/>
<path d="M84.0329 22.3816C83.7097 22.3816 83.3865 22.3816 83.0633 22.4624C82.2553 22.624 81.3664 22.7856 80.5584 22.4624C79.912 22.22 79.4272 22.4624 78.9424 22.8664C78.7 23.028 78.7 23.2704 78.9424 23.432C79.1848 23.6745 79.3464 23.9169 79.508 24.2401C79.5888 24.5633 79.8312 24.8057 80.2352 24.8057C80.8008 24.8865 81.3665 24.8865 81.9321 25.0481C81.9321 25.0481 82.0129 25.0481 82.0937 25.0481C82.1745 25.0481 82.2553 25.0481 82.3361 24.9673C83.1441 24.4825 84.0329 24.3209 84.8409 24.0785C85.0833 23.9977 85.3257 23.8361 85.4873 23.5936C85.6489 23.432 85.6489 23.1896 85.4873 23.028C85.0833 22.7048 84.6793 22.3008 84.0329 22.3816Z" fill="#AAD16A"/>
<path d="M26.4219 64.0751C26.7451 64.4792 27.2299 64.7216 27.6339 64.964C27.7955 65.0448 27.8763 65.2064 27.9571 65.4488C28.0379 65.9336 28.1995 66.0144 28.6035 65.8528C29.0075 65.6912 29.3307 65.8528 29.6539 66.0144C29.9771 66.2568 30.3004 66.176 30.6236 65.9336C31.0276 65.6912 31.0276 65.4488 30.6236 65.2064C30.3812 65.0448 30.1387 64.964 29.8963 64.8023C29.4923 64.4791 28.9267 64.3983 28.5227 63.9943C27.9571 63.3479 27.1491 63.0247 26.3411 62.7015C25.8563 62.5399 25.3715 62.2975 24.8059 62.3783C24.4019 62.2975 23.9171 62.5399 23.5131 62.6207C23.1091 62.7015 22.7051 62.9439 22.4627 63.2671C22.3011 63.4287 22.0587 63.5903 22.1395 63.9135C22.3011 64.2367 22.5435 63.9135 22.7859 63.9135C23.1899 63.8327 23.5131 63.5095 23.9979 63.5903C24.7251 63.5903 25.4523 63.8327 26.1795 63.9943C26.2603 63.9943 26.3411 63.9943 26.4219 64.0751Z" fill="#AAD16A"/>
<path d="M89.3658 32.3203C88.9618 31.9971 87.9922 32.0778 87.5882 32.4011C87.3458 32.6435 87.1034 32.8859 86.6994 32.9667C86.2146 33.0475 86.2146 33.1283 86.2954 33.6131C86.3762 34.0171 86.2954 34.3403 86.053 34.6635C85.8914 34.9059 85.8914 35.1483 86.053 35.3907C86.2146 35.6331 86.3762 35.7947 86.6994 35.7947C86.9418 35.7947 87.1034 35.7139 87.265 35.6331C87.669 35.3907 88.073 35.1483 88.5578 35.1483C88.7194 35.1483 88.881 35.0675 88.9618 34.8251C89.0426 34.5827 89.2042 34.3403 89.2042 34.0979C89.2042 33.8555 89.285 33.6131 89.5274 33.4515C89.8506 33.0475 89.7698 32.5627 89.3658 32.3203Z" fill="#AAD16A"/>
<path d="M31.4315 66.8223C31.1891 66.8223 30.8659 66.9031 30.6235 66.9839C30.4619 66.9839 30.3811 67.0647 30.3811 67.2263C30.3811 67.3879 30.4619 67.4687 30.6235 67.4687C31.4315 67.5495 32.3203 67.8727 33.1283 67.7111C33.7747 67.5495 34.3403 67.4687 34.9868 67.3879C35.1484 67.3879 35.3908 67.3071 35.3908 67.0647C35.4716 66.8223 35.2292 66.6607 35.0676 66.5799C34.5828 66.2567 33.9363 66.1759 33.4515 65.7719C33.3707 65.6911 33.1283 65.7719 32.9667 65.7719C32.8051 65.7719 32.5627 65.7719 32.4819 65.7719C32.2395 65.7719 32.1587 65.7719 32.0779 65.7719C31.8355 65.8527 31.5123 65.5295 31.3507 65.8527C31.1891 66.0951 31.5123 66.2567 31.5931 66.4183C31.8355 66.6607 31.7547 66.8223 31.4315 66.8223Z" fill="#AAD16A"/>
<path opacity="0.19" d="M116.838 32.1587C116.838 27.7147 116.434 23.2707 115.707 19.069C115.545 18.1802 115.384 17.2914 115.222 16.4834C115.222 16.3218 115.141 16.1602 115.141 16.0794C114.98 15.1906 114.737 14.3826 114.495 13.5745C114.495 13.4937 114.414 13.3321 114.414 13.2513C114.333 12.9281 114.252 12.5241 114.091 12.2009C102.456 4.44405 88.5578 0 73.6904 0C53.975 0 36.0372 7.75688 22.8666 20.3618C22.301 20.9274 21.7354 21.493 21.1698 22.0586C21.0082 22.2202 20.9274 22.301 20.7658 22.4626C20.2002 23.0282 19.6346 23.5939 19.1498 24.2403L19.069 24.3211C18.5842 24.8867 18.0186 25.4523 17.5338 26.0987C17.453 26.2603 17.2914 26.3411 17.2106 26.5027C16.7258 27.1491 16.1602 27.7955 15.6754 28.4419C15.6754 28.5227 15.5946 28.5227 15.5946 28.6035C15.1098 29.2499 14.625 29.8155 14.221 30.4619C14.1402 30.5427 14.0594 30.7043 13.9786 30.7851C13.4937 31.4315 13.0089 32.1587 12.5241 32.8052C12.5241 32.886 12.4433 32.886 12.4433 32.9668C11.9585 33.6132 11.5545 34.3404 11.1505 34.9868C11.0697 35.0676 11.0697 35.1484 10.9889 35.2292C10.5041 35.9564 10.1001 36.6836 9.69611 37.4916C9.69611 37.4916 9.69611 37.5724 9.6153 37.5724C9.2113 38.2996 8.8073 39.1076 8.40329 39.8348C7.99929 40.6428 7.59528 41.4509 7.19128 42.2589C7.19128 42.2589 7.19128 42.2589 7.19128 42.3397C6.38327 43.9557 5.73686 45.6525 5.09046 47.3493C1.69682 55.4294 0 64.3175 0 73.6904C0 80.6393 0.969611 87.3457 2.74723 93.729C14.3826 101.405 28.2803 105.849 43.2285 105.849C83.8713 105.768 116.838 72.8016 116.838 32.1587Z" fill="white"/>
<path opacity="0.21" d="M146.169 60.5199C146.007 59.6311 145.846 58.7423 145.684 57.9343C145.684 57.7727 145.603 57.6111 145.603 57.5303C145.442 56.6415 145.199 55.8335 144.957 55.0255C144.957 54.9447 144.876 54.7831 144.876 54.7023C144.634 53.8943 144.472 53.0863 144.23 52.3591C144.23 52.2783 144.149 52.1975 144.149 52.1166C143.906 51.3086 143.583 50.4198 143.341 49.6118C143.26 49.4502 143.26 49.3694 143.179 49.2078C142.614 47.511 141.967 45.895 141.24 44.279C141.159 44.1982 141.159 44.0366 141.078 43.9558C140.755 43.1478 140.351 42.3397 139.947 41.5317C139.947 41.5317 139.947 41.5317 139.947 41.4509C139.543 40.6429 139.139 39.8349 138.735 39.0269L138.654 38.9461C138.25 38.1381 137.766 37.3301 137.361 36.6029C137.361 36.5221 137.281 36.5221 137.281 36.4413C136.392 34.9061 135.341 33.29 134.372 31.8356L134.291 31.7548C131.625 27.9572 128.635 24.3211 125.322 21.0891C138.089 38.2189 149.401 87.5882 107.627 117.646C71.9128 143.422 26.9875 125.403 16.3218 119.828C29.8155 136.634 50.5006 147.381 73.7712 147.381C114.414 147.381 147.462 114.414 147.462 73.6905C147.3 69.1656 146.896 64.8024 146.169 60.5199Z" fill="#343433"/>
</svg>
