<svg width="314" height="123" viewBox="0 0 314 123" fill="none" xmlns="http://www.w3.org/2000/svg">
<path d="M286.942 63.1108C286.942 63.1108 287.628 64.9388 287.925 65.51C288.222 66.0812 294.62 78.3053 295.168 81.1615C295.716 84.0176 297.796 90.8265 298.344 91.6491C298.892 92.4717 300.675 97.7726 301.566 102.137C302.457 106.501 304.353 113.972 304.742 114.886C305.13 115.8 301.314 115.846 301.314 115.846C301.314 115.846 295.762 104.787 294.528 102.754C293.294 100.72 292.152 97.2242 291.992 94.985C291.832 92.7458 290.256 91.5806 288.862 89.8897C287.468 88.1989 280.773 75.335 279.539 74.1697C278.306 73.0044 277.529 73.0958 277.529 73.0958V63.7735L286.942 63.1108Z" fill="#2F4563"/>
<path d="M268.549 63.1108C268.549 63.1108 267.864 64.9388 267.566 65.51C267.269 66.0812 260.163 79.0594 259.615 81.9155C259.067 84.7716 257.696 90.8265 257.147 91.6491C256.599 92.4717 254.817 97.7726 253.926 102.137C253.035 106.501 251.138 113.972 250.75 114.886C250.361 115.8 254.177 115.846 254.177 115.846C254.177 115.846 259.729 104.787 260.963 102.754C262.197 100.72 263.339 97.2242 263.499 94.985C263.659 92.7458 265.236 91.5806 266.63 89.8897C268.023 88.1989 274.718 75.335 275.952 74.1697C277.186 73.0044 277.986 73.0958 277.986 73.0958L277.963 63.7735L268.549 63.1108Z" fill="#2F4563"/>
<path d="M304.993 114.384C304.993 114.384 306.364 116.463 307.438 117.057C308.512 117.628 312.465 119.273 313.127 120.622C313.584 121.558 312.967 123.432 309.152 122.815C305.359 122.198 304.056 120.142 302.891 119.913C301.749 119.685 300.492 118.794 300.4 117.103C300.332 115.412 301.017 115.709 300.88 115.092C300.72 114.452 304.993 114.384 304.993 114.384Z" fill="#DBDFF0"/>
<path d="M250.658 114.384C250.658 114.384 249.287 116.463 248.214 117.057C247.14 117.628 243.187 119.273 242.524 120.622C242.067 121.558 242.684 123.432 246.5 122.815C250.293 122.198 251.595 120.142 252.76 119.913C253.903 119.685 255.16 118.794 255.228 117.103C255.297 115.412 254.611 115.709 254.748 115.092C254.931 114.452 250.658 114.384 250.658 114.384Z" fill="#DBDFF0"/>
<path d="M289.25 41.93C288.245 38.4341 289.753 31.1225 289.753 31.1225C287.788 30.2771 285.252 31.0082 284.178 31.0082C283.081 31.0082 280.111 30.1857 280.111 30.1857H277.689H275.267C275.267 30.1857 272.273 31.0082 271.2 31.0082C270.103 31.0082 267.589 30.2542 265.624 31.1225C265.624 31.1225 267.155 38.5712 266.127 42.0671C266.127 42.0671 268.503 48.6019 269.075 49.5615C269.646 50.5212 269.075 54.1085 269.052 54.9996C269.029 56.2791 268.823 59.9578 268.572 63.1109C268.572 63.1109 271.474 64.8474 277.689 64.9845C283.858 64.5961 286.965 63.1109 286.965 63.1109C286.577 59.3637 286.325 56.1877 286.166 54.9767C286.051 54.0856 285.731 50.544 286.303 49.5615C286.874 48.579 289.25 41.93 289.25 41.93Z" fill="#E55353"/>
<path d="M289.753 31.1224C289.753 31.1224 291.421 31.8993 292.221 31.945C292.997 31.9907 294.231 30.8025 295.739 30.9396C297.247 31.0767 297.819 31.8764 299.235 31.8079C300.652 31.7393 301.132 31.4423 301.246 30.9168C301.337 30.3912 303.142 27.1924 302.388 22.7826C301.634 18.3727 303.759 19.7208 303.759 19.7208C303.759 19.7208 305.838 23.468 306.25 27.6265C306.661 31.785 305.359 35.8293 305.29 36.4005C305.244 36.9717 304.925 37.7943 304.536 38.0228C304.148 38.2513 299.189 38.6625 297.476 38.7539C295.762 38.8453 292.221 38.2741 291.284 38.9139C290.324 39.5536 289.136 42.2041 289.136 42.2041C289.136 42.2041 287.491 34.0471 289.753 31.1224Z" fill="#EEA886"/>
<path d="M265.579 31.1224C265.579 31.1224 263.911 31.8993 263.111 31.945C262.334 31.9907 261.1 30.8025 259.592 30.9396C258.084 31.0767 257.513 31.8764 256.096 31.8079C254.68 31.7393 254.2 31.4423 254.086 30.9168C253.994 30.3912 252.189 27.1924 252.943 22.7826C253.697 18.3727 251.572 19.7208 251.572 19.7208C251.572 19.7208 249.493 23.468 249.082 27.6265C248.67 31.785 249.973 35.8293 250.041 36.4005C250.087 36.9717 250.407 37.7943 250.795 38.0228C251.184 38.2513 256.142 38.6625 257.856 38.7539C259.569 38.8453 263.111 38.2741 264.048 38.9139C265.007 39.5536 266.104 42.0213 266.104 42.0213C266.104 42.0213 267.841 34.0471 265.579 31.1224Z" fill="#EEA886"/>
<path d="M280.75 26.2327C280.75 26.2327 280.385 28.5405 281.139 30.117C281.139 30.117 281.961 33.7729 278.191 34.0242C274.444 34.2755 274.284 30.8939 274.284 30.8939C274.284 30.8939 275.152 29.6601 274.49 26.3927C273.804 23.1253 280.75 26.2327 280.75 26.2327Z" fill="#EEA886"/>
<path d="M278.168 12.9347C278.168 12.9347 282.989 13.5973 282.441 21.3431C281.87 29.066 277.62 28.5176 277.323 28.5176C277.049 28.5176 273.073 28.7461 272.548 19.3552C272.548 19.3552 272.273 12.3863 278.168 12.9347Z" fill="#EEA886"/>
<path d="M282.464 19.1497C282.464 19.1497 282.99 18.5556 283.195 19.1497C283.401 19.7209 282.578 22.2571 282.51 22.4627C282.51 22.4627 282.418 22.6912 282.281 22.577C282.167 22.4627 282.464 19.1497 282.464 19.1497Z" fill="#EEA886"/>
<path d="M272.662 19.2867C272.662 19.2867 272.136 18.7155 271.931 19.2867C271.748 19.8808 272.639 22.4856 272.685 22.5998C272.685 22.5998 272.776 22.8283 272.913 22.6912C273.05 22.577 272.662 19.2867 272.662 19.2867Z" fill="#EEA886"/>
<path d="M282.487 20.3377L281.824 21.2974C281.824 21.2974 281.801 19.2181 281.687 18.8983C281.573 18.5784 281.779 17.4359 281.687 17.2074C281.596 16.9789 278.42 17.9157 273.142 17.5045C273.142 17.5045 273.759 19.3552 273.439 19.4923C273.096 19.6294 273.324 21.9143 273.324 21.9143L272.753 21.2745C272.753 21.2745 272.022 17.3674 272.068 16.7276C272.136 15.8593 271.748 11.8151 279.151 12.3406C279.973 12.4092 280.796 12.7062 281.481 13.2089C282.258 13.7801 283.058 14.6941 283.012 15.9736C282.944 17.6416 282.487 20.3377 282.487 20.3377Z" fill="#FCCCA2"/>
<path d="M274.787 27.3295C274.787 27.3295 276.98 29.7743 280.339 27.2152C280.339 27.2152 279.425 29.1345 277.437 29.2259C275.427 29.3173 274.787 27.3295 274.787 27.3295Z" fill="#A77860"/>
<path d="M271.908 30.9396C271.908 30.9396 272.022 39.7592 277.666 40.0334V29.9114C277.666 29.9114 275.038 30.0028 271.908 30.9396Z" fill="#EEA886"/>
<path d="M283.447 30.9396C283.447 30.9396 283.332 39.7592 277.666 40.0334V29.9114C277.666 29.9114 280.293 30.0028 283.447 30.9396Z" fill="#EEA886"/>
<path d="M300.629 26.5985C304.087 26.5985 306.889 23.7955 306.889 20.3379C306.889 16.8802 304.087 14.0773 300.629 14.0773C297.171 14.0773 294.368 16.8802 294.368 20.3379C294.368 23.7955 297.171 26.5985 300.629 26.5985Z" fill="#434343"/>
<path d="M300.629 23.3766C302.307 23.3766 303.668 22.0161 303.668 20.3377C303.668 18.6594 302.307 17.2988 300.629 17.2988C298.951 17.2988 297.59 18.6594 297.59 20.3377C297.59 22.0161 298.951 23.3766 300.629 23.3766Z" fill="#6B6B6B"/>
<path d="M254.84 26.5985C258.297 26.5985 261.1 23.7955 261.1 20.3379C261.1 16.8802 258.297 14.0773 254.84 14.0773C251.382 14.0773 248.579 16.8802 248.579 20.3379C248.579 23.7955 251.382 26.5985 254.84 26.5985Z" fill="#434343"/>
<path d="M254.84 23.3766C256.518 23.3766 257.879 22.0161 257.879 20.3377C257.879 18.6594 256.518 17.2988 254.84 17.2988C253.161 17.2988 251.801 18.6594 251.801 20.3377C251.801 22.0161 253.161 23.3766 254.84 23.3766Z" fill="#6B6B6B"/>
<path d="M177.897 19.2501C177.897 19.2501 178.064 18.1887 177.876 17.6893C177.71 17.273 177.398 16.7111 177.231 16.3366C177.065 15.962 176.565 14.2971 176.565 13.8601C176.565 13.6936 177.002 12.5906 176.961 12.2368C176.919 11.883 176.711 11.1755 177.044 11.1338C177.377 11.113 177.751 11.6957 177.751 11.6957C177.751 11.6957 177.793 11.3836 178.084 11.2795C178.646 11.0714 178.854 11.3003 178.854 11.3003C178.854 11.3003 179.062 10.9257 179.333 10.8841C179.895 10.8009 180.165 11.0922 180.165 11.0922C180.165 11.0922 180.415 10.8841 180.79 10.9049C181.289 10.9465 181.456 11.3627 181.456 11.3627C181.456 11.3627 182.101 11.2587 182.267 11.5292C182.434 11.8206 182.434 12.0911 182.496 12.3617C182.559 12.6114 182.517 14.9006 181.685 16.5238C180.998 17.8349 180.956 19.8952 180.956 19.8952L177.897 19.2501Z" fill="#EEA886"/>
<path d="M135.693 19.2501C135.693 19.2501 135.526 18.1887 135.713 17.6893C135.88 17.2731 136.192 16.7112 136.359 16.3366C136.525 15.962 137.025 14.2971 137.025 13.8601C137.025 13.6936 136.588 12.5906 136.629 12.2368C136.671 11.883 136.879 11.1755 136.546 11.1338C136.213 11.113 135.838 11.6957 135.838 11.6957C135.838 11.6957 135.859 11.3628 135.568 11.2587C135.006 11.0506 134.715 11.2587 134.715 11.2587C134.715 11.2587 134.506 10.9049 134.236 10.8841C133.674 10.8009 133.403 11.0298 133.403 11.0298C133.403 11.0298 133.154 10.8425 132.758 10.8633C132.259 10.9049 132.072 11.3211 132.072 11.3211C132.072 11.3211 131.447 11.2379 131.26 11.5084C131.093 11.7998 131.114 12.0912 131.052 12.3409C130.989 12.5906 131.031 14.8798 131.863 16.5031C132.55 17.8141 132.592 19.8744 132.592 19.8744L135.693 19.2501Z" fill="#EEA886"/>
<path d="M194.691 12.3201H119.189V13.9017H194.691V12.3201Z" fill="#6392D1"/>
<path d="M150.822 47.1991C150.822 47.1991 148.783 48.2812 147.597 48.3645C146.39 48.4477 143.684 46.7412 142.581 45.2428C141.478 43.7445 141.478 43.5988 140.209 42.2669C138.939 40.935 137.274 37.2306 136.858 35.7323C136.442 34.2131 134.673 31.1331 134.486 30.4463C134.298 29.7595 133.445 26.8252 133.091 25.3268C132.717 23.7036 132.509 18.6465 132.509 18.6465L135.63 18.4176C135.63 18.4176 138.315 25.4101 139.251 27.3039C140.209 29.1768 139.668 30.3422 140.625 31.8198C141.561 33.2974 144.85 36.9393 145.661 39.1452C146.473 41.3512 148.387 41.6634 149.49 44.0774C150.552 46.4499 150.822 47.1991 150.822 47.1991Z" fill="#EEA886"/>
<path d="M162.788 47.3656C162.788 47.3656 164.828 48.4477 166.014 48.531C166.347 48.5518 166.805 48.4477 167.304 48.2188C167.388 48.1772 167.471 48.1356 167.575 48.0939C169.053 47.4072 170.509 46.1585 171.071 45.3677C172.153 43.911 172.174 43.7445 173.423 42.4126C174.11 41.705 174.88 40.3315 175.546 38.958C176.107 37.7509 176.586 36.5855 176.773 35.8779C177.19 34.3588 178.959 31.2787 179.146 30.5712C180.478 25.5141 180.852 26.0344 181.081 18.6673L177.98 18.5009C177.98 18.5009 175.337 25.5141 174.38 27.4079C173.423 29.2809 173.964 30.4463 173.027 31.9239C172.174 33.2766 169.386 36.3982 168.283 38.6042C168.178 38.8331 168.074 39.0412 167.991 39.2493C167.721 39.9569 167.346 40.4772 166.909 40.935C166.014 41.8715 164.89 42.5582 164.162 44.1815C163.08 46.6164 162.788 47.3656 162.788 47.3656Z" fill="#EEA886"/>
<path d="M181.872 115.5C181.498 114.647 179.77 107.759 178.938 103.742C178.105 99.7258 176.461 94.8353 175.962 94.0861C175.462 93.3161 173.527 87.052 173.027 84.409C172.528 81.766 166.639 70.5073 166.368 69.9871C166.097 69.446 165.473 67.7811 165.473 67.7811L156.982 68.4055L148.491 67.7811C148.491 67.7811 147.867 69.4668 147.597 69.9871C147.326 70.5282 140.771 82.4736 140.271 85.1166C139.772 87.7596 138.502 93.3369 138.003 94.0861C137.503 94.8561 135.859 99.7258 135.027 103.742C134.194 107.759 132.467 114.647 132.092 115.5C131.718 116.354 135.256 116.395 135.256 116.395C135.256 116.395 140.375 106.198 141.52 104.325C142.664 102.452 143.705 99.2264 143.851 97.1661C143.996 95.1058 145.453 94.0445 146.723 92.4628C148.013 90.902 154.173 79.0398 155.317 77.9785C156.67 76.709 157.315 76.7506 158.626 77.9785C159.771 79.0606 165.952 90.902 167.221 92.4628C168.512 94.0237 169.968 95.1058 170.093 97.1661C170.239 99.2264 171.279 102.452 172.424 104.325C173.569 106.198 178.688 116.395 178.688 116.395C178.688 116.395 182.226 116.354 181.872 115.5Z" fill="#2F4563"/>
<path d="M181.601 114.689C181.601 114.689 183.349 116.978 184.348 117.519C185.347 118.06 188.989 119.559 189.593 120.807C190.009 121.681 189.447 123.388 185.93 122.826C182.434 122.264 181.227 120.37 180.165 120.141C179.104 119.912 177.939 119.101 177.876 117.54C177.814 115.979 178.438 116.27 178.313 115.688C178.168 115.126 181.601 114.689 181.601 114.689Z" fill="#5279AD"/>
<path d="M132.342 114.793C132.342 114.793 130.76 116.978 129.762 117.519C128.763 118.06 125.121 119.559 124.517 120.807C124.101 121.681 124.663 123.388 128.18 122.826C131.676 122.264 132.883 120.37 133.945 120.141C135.006 119.912 136.171 119.101 136.234 117.54C136.296 115.979 135.672 116.27 135.797 115.688C135.942 115.126 132.342 114.793 132.342 114.793Z" fill="#5279AD"/>
<path d="M167.575 48.2604C166.638 45.0348 168.053 38.292 168.053 38.292C166.243 37.5012 163.912 38.188 162.913 38.188C161.914 38.188 159.146 37.418 159.146 37.418H156.92H154.693C154.693 37.418 151.925 38.188 150.926 38.188C149.927 38.188 147.596 37.5012 145.786 38.292C145.786 38.292 147.201 45.1596 146.264 48.3645C146.264 48.3645 148.45 54.3788 148.97 55.2737C149.49 56.1686 148.97 59.4567 148.949 60.2891C148.928 61.4754 148.741 64.8675 148.491 67.7602C148.491 67.7602 151.176 69.3627 156.899 69.4875C162.58 69.1129 165.452 67.7602 165.452 67.7602C165.098 64.3056 164.869 61.3921 164.724 60.2475C164.62 59.4151 164.328 56.1478 164.849 55.2529C165.39 54.3997 167.575 48.2604 167.575 48.2604Z" fill="#E55353"/>
<path d="M173.548 38.1465C174.463 38.2298 175.004 38.5835 175.629 38.7916C175.587 38.8541 175.566 38.9373 175.525 38.9998C174.879 40.3733 174.089 41.7468 173.402 42.4544C172.195 43.7238 172.132 43.9319 171.175 45.243C170.405 45.243 169.76 45.3055 169.448 45.5344C168.824 45.9506 168.074 47.3449 167.7 48.0733C167.554 48.3647 167.471 48.5728 167.471 48.5728C167.471 48.5728 167.45 48.4479 167.408 48.219C167.221 47.0952 166.659 43.5157 167.117 40.7895C167.284 39.8114 167.575 38.9373 168.054 38.313C168.054 38.313 168.178 38.3754 168.386 38.4587C168.886 38.6668 169.802 39.0414 170.322 39.083C171.029 39.1038 172.153 38.0216 173.548 38.1465Z" fill="#EEA886"/>
<path d="M146.244 48.3645C146.244 48.3645 146.161 48.198 146.036 47.9483C145.703 47.2615 144.995 45.9296 144.35 45.5134C144.017 45.2845 143.33 45.222 142.54 45.222C141.457 43.7653 141.437 43.5988 140.188 42.2669C139.501 41.5593 138.731 40.1858 138.065 38.8123C138.752 38.6042 139.293 38.2296 140.25 38.1463C141.645 38.0215 142.768 39.1244 143.497 39.062C143.975 39.0204 144.829 38.7082 145.328 38.4793C145.578 38.3753 145.765 38.292 145.765 38.292C146.244 38.9163 146.535 39.8112 146.702 40.8101C147.118 43.5988 146.473 47.865 146.244 48.3645Z" fill="#EEA886"/>
<path d="M159.75 33.7969C159.75 33.7969 159.438 36.1694 160.145 37.6262C160.145 37.6262 160.853 40.7478 157.398 40.9767C153.944 41.2056 153.777 38.1048 153.777 38.1048C153.777 38.1048 154.589 36.981 153.965 33.9634C153.361 30.925 159.75 33.7969 159.75 33.7969Z" fill="#EEA886"/>
<path d="M157.419 21.5393C157.419 21.5393 161.894 22.1637 161.373 29.281C160.853 36.3983 156.92 35.8989 156.649 35.8989C156.379 35.8989 152.716 36.107 152.237 27.4496C152.217 27.4496 151.946 21.0399 157.419 21.5393Z" fill="#EEA886"/>
<path d="M161.332 27.2622C161.332 27.2622 161.81 26.7211 161.998 27.2622C162.185 27.8033 161.436 30.1341 161.373 30.3214C161.373 30.3214 161.29 30.5295 161.165 30.4255C161.04 30.3006 161.332 27.2622 161.332 27.2622Z" fill="#EEA886"/>
<path d="M152.3 27.3871C152.3 27.3871 151.821 26.8668 151.634 27.3871C151.467 27.9282 152.3 30.3423 152.341 30.4255C152.341 30.4255 152.424 30.6336 152.549 30.5087C152.653 30.4047 152.3 27.3871 152.3 27.3871Z" fill="#EEA886"/>
<path d="M161.415 28.3653L160.791 29.2393C160.791 29.2393 160.77 27.3247 160.666 27.0334C160.562 26.742 160.749 25.6807 160.666 25.4726C160.582 25.2644 157.627 26.1177 152.758 25.7431C152.758 25.7431 153.34 27.4496 153.028 27.5745C152.716 27.6993 152.924 29.8012 152.924 29.8012L152.383 29.2185C152.383 29.2185 151.717 25.6182 151.759 25.0147C151.821 24.2031 151.467 20.4779 158.314 20.9774C159.105 21.0398 159.854 21.3104 160.499 21.7682C161.207 22.2885 161.956 23.1417 161.914 24.3071C161.852 25.868 161.415 28.3653 161.415 28.3653Z" fill="#E8734D"/>
<path d="M154.256 34.8166C154.256 34.8166 156.275 37.085 159.375 34.7125C159.375 34.7125 158.543 36.4814 156.691 36.5647C154.839 36.6271 154.256 34.8166 154.256 34.8166Z" fill="#A77860"/>
<path d="M151.592 38.1255C151.592 38.1255 151.696 46.2418 156.92 46.4915V37.1682C156.92 37.189 154.485 37.2723 151.592 38.1255Z" fill="#EEA886"/>
<path d="M162.226 38.1255C162.226 38.1255 162.122 46.2418 156.899 46.4915V37.1682C156.92 37.189 159.334 37.2723 162.226 38.1255Z" fill="#EEA886"/>
<path d="M177.647 11.9039C177.647 11.9039 177.543 13.9433 178.105 14.4012C178.667 14.859 178.75 14.1306 178.75 14.1306C178.75 14.1306 178.646 14.859 179.271 14.9839C179.895 15.1087 179.937 14.2555 179.937 14.2555C179.937 14.2555 180.02 14.8174 180.686 14.7342C181.352 14.6509 181.206 13.9225 181.206 13.9225C181.206 13.9225 181.81 14.6509 182.226 14.0058C182.933 12.9028 182.309 11.5293 182.309 11.5293C182.309 11.5293 182.122 11.2171 181.497 11.342C181.497 11.342 181.102 10.5304 180.165 11.0506C180.165 11.0506 179.229 10.5095 178.854 11.3004C178.854 11.2795 177.814 10.7593 177.647 11.9039Z" fill="#D6926F"/>
<path d="M135.942 11.9039C135.942 11.9039 136.046 13.9433 135.484 14.4012C134.923 14.859 134.839 14.1306 134.839 14.1306C134.839 14.1306 134.943 14.859 134.319 14.9839C133.695 15.1087 133.653 14.2555 133.653 14.2555C133.653 14.2555 133.57 14.8174 132.904 14.7342C132.238 14.6509 132.384 13.9225 132.384 13.9225C132.384 13.9225 131.78 14.6509 131.364 14.0058C130.656 12.9028 131.281 11.5293 131.281 11.5293C131.281 11.5293 131.468 11.2171 132.092 11.342C132.092 11.342 132.488 10.5304 133.424 11.0506C133.424 11.0506 134.361 10.5095 134.735 11.3004C134.735 11.2795 135.776 10.7593 135.942 11.9039Z" fill="#D6926F"/>
<path d="M197.501 0H193.505V26.4298H197.501V0Z" fill="#5279AD"/>
<path d="M201.497 2.68469H197.147V23.7453H201.497V2.68469Z" fill="#5279AD"/>
<path d="M205.513 5.53577H201.06V20.915H205.513V5.53577Z" fill="#5279AD"/>
<path d="M120.605 0H116.609V26.4298H120.605V0Z" fill="#5279AD"/>
<path d="M117.337 2.68469H112.613V23.7453H117.337V2.68469Z" fill="#5279AD"/>
<path d="M113.092 5.53577H108.618V20.915H113.092V5.53577Z" fill="#5279AD"/>
<path d="M38.7375 28.9241C38.7375 28.9241 42.1531 28.57 43.361 31.8606C44.5898 35.1512 45.7353 36.2342 45.8811 37.9628C46.4642 44.9606 49.734 43.3778 48.8176 47.3973C47.9012 51.4168 47.2556 52.0416 47.2556 52.0416L39.4456 50.5213L31.5315 50.5421C31.5315 50.5421 34.6347 49.0009 33.9266 45.7103C33.2393 42.4197 31.5315 37.0256 32.4895 33.3601C33.4892 29.653 36.6965 29.1948 38.7375 28.9241Z" fill="#163342"/>
<path d="M38.2376 117.208C48.4976 117.208 56.815 108.891 56.815 98.631C56.815 88.371 48.4976 80.0536 38.2376 80.0536C27.9776 80.0536 19.6603 88.371 19.6603 98.631C19.6603 108.891 27.9776 117.208 38.2376 117.208Z" fill="#EB4747"/>
<path d="M64.1875 113.418C64.1875 113.418 64.604 114.938 64.1875 116.354C63.771 117.771 63.5002 120.145 64.4999 121.457C65.4996 122.769 67.1449 123.31 69.5191 122.665C71.8934 122.019 71.4768 120.166 70.6854 118.583C69.894 117 67.9779 113.897 67.7072 112.876C67.4365 111.814 64.1875 113.418 64.1875 113.418Z" fill="#FAA146"/>
<path d="M64.3751 114.876C64.3751 114.876 65.9162 115.521 68.3321 114.251L67.7073 112.835L64.1876 113.397L64.3751 114.876Z" fill="#8E4F3A"/>
<path d="M66.7284 108.107C66.2285 105.733 64.9789 95.2987 64.1459 92.9036C63.3336 90.4877 61.48 87.4679 60.7095 86.3641C59.9389 85.2602 56.0443 82.0321 54.7322 80.5118C53.4201 78.9914 48.4842 75.5967 48.026 75.0552C47.5679 74.5137 47.2138 73.7639 47.2138 73.7639C43.2776 73.7015 38.175 74.3054 38.175 74.3054C38.175 74.3054 33.5932 73.7848 29.6569 73.8472C29.6569 73.8472 29.2196 74.5345 28.7822 75.076C28.324 75.6175 22.9299 79.0122 21.6179 80.5326C20.3058 82.0529 16.432 85.2811 15.6406 86.3849C14.87 87.4887 13.0165 90.5086 12.2042 92.9244C11.392 95.3403 10.2465 105.962 9.74667 108.336C9.24683 110.71 8.49707 112.856 8.49707 112.856C8.49707 112.856 9.66336 113.855 12.1626 113.46C12.1626 113.46 15.474 103.4 16.9943 100.568C18.5147 97.7562 19.1187 92.2163 20.2225 91.2375C21.3263 90.2586 25.2209 89.0715 29.1363 87.0305C33.0517 84.9895 33.9056 83.3025 35.301 83.2609C36.6963 83.2192 37.5919 83.3442 38.1542 83.3025C38.7374 83.3442 39.6329 83.2192 41.0075 83.2609C42.4028 83.3025 43.2567 84.9687 47.1721 87.0305C51.0876 89.0715 54.9821 90.2586 56.086 91.2375C57.1898 92.2163 57.7937 97.7354 59.3141 100.568C60.8344 103.379 64.1459 113.46 64.1459 113.46C66.6451 113.876 67.6656 112.897 67.6656 112.897C67.6656 112.897 67.2074 110.481 66.7284 108.107Z" fill="#8E4F3A"/>
<path d="M68.3321 114.251C68.3321 114.251 68.1863 114.459 67.6656 114.376C67.1241 114.293 65.8745 113.772 64.375 114.876C64.375 114.876 68.1654 116.417 68.3321 114.251Z" fill="#FAA146"/>
<path d="M8.51793 112.835C8.51793 112.835 7.4766 114.813 6.33114 115.438C5.18567 116.042 0.312235 118.375 0.937034 120.395C1.54101 122.394 8.14305 121.998 9.39265 120.395C10.6631 118.791 11.6836 119.583 12.0585 118.021C12.4333 116.459 12.1834 113.439 12.1834 113.439C12.1834 113.439 11.0796 113.397 10.2882 113.147C9.51761 112.897 9.49679 112.481 8.51793 112.835Z" fill="#FAA146"/>
<path d="M65.4372 99.6722C62.105 99.7972 59.7724 101.338 59.7724 101.338C59.6266 101.026 59.5016 100.755 59.3767 100.526C57.8563 97.7145 57.2524 92.1746 56.1485 91.1958C55.0447 90.2169 51.1502 89.0298 47.2347 86.9888C43.3193 84.9478 42.4654 83.2608 41.0701 83.2192C39.6747 83.1775 38.7791 83.3025 38.2168 83.2608C37.6337 83.3025 36.7381 83.1775 35.3636 83.2192C33.9682 83.2608 33.1143 84.927 29.1989 86.9888C25.2835 89.0298 21.3889 90.2169 20.2851 91.1958C19.1813 92.1746 18.5773 97.6937 17.0569 100.526C16.9736 100.672 16.8903 100.839 16.807 101.005C14.4328 99.464 11.0797 99.5056 11.0172 99.5056C11.4129 96.6524 11.8503 93.9657 12.2043 92.9036C13.0166 90.4877 14.8701 87.4678 15.6407 86.364C16.4113 85.2602 20.3059 82.0321 21.618 80.5117C22.9301 78.9914 28.3242 75.5966 28.7823 75.0551C29.2405 74.5136 29.6571 73.8264 29.6571 73.8264C33.5933 73.7639 38.1752 74.2845 38.1752 74.2845C38.1752 74.2845 43.2777 73.6806 47.2139 73.7431C47.2139 73.7431 47.5888 74.4928 48.0262 75.0343C48.4843 75.5758 53.4203 78.9705 54.7323 80.4909C56.0444 82.0112 59.9182 85.2394 60.7096 86.3432C61.4802 87.447 63.3337 90.4669 64.146 92.8827C64.5209 93.9866 64.9999 96.7565 65.4372 99.6722Z" fill="#FCCCA2"/>
<path d="M62.8963 40.7329C62.8963 40.7329 63.1879 39.6916 63.063 39.1501C62.9588 38.7127 62.7297 38.0879 62.6256 37.6922C62.5215 37.2965 62.2507 35.5263 62.3132 35.1097C62.334 34.9223 62.8755 33.9018 62.8755 33.5269C62.8755 33.152 62.7714 32.4231 63.1046 32.4231C63.417 32.4439 63.6878 33.0895 63.6878 33.0895C63.6878 33.0895 63.7086 32.7563 64.0002 32.673C64.5625 32.5272 64.7916 32.798 64.7916 32.798C64.7916 32.798 65.0415 32.4647 65.2914 32.4647C65.8329 32.4647 66.062 32.7147 66.062 32.7147C66.062 32.7147 66.3327 32.5481 66.6868 32.6314C67.145 32.7355 67.2908 33.1729 67.2908 33.1729C67.2908 33.1729 67.8947 33.1729 68.0197 33.4853C68.1447 33.7977 68.0822 34.0892 68.103 34.36C68.1447 34.6307 67.8114 36.9425 66.8118 38.4628C65.9995 39.6916 65.6871 41.7743 65.6871 41.7743L62.8963 40.7329Z" fill="#8E4F3A"/>
<path d="M69.8425 34.6504L61.1788 33.3002L60.9319 34.8847L69.5955 36.235L69.8425 34.6504Z" fill="#B85858"/>
<path d="M63.5836 33.2769C63.5836 33.2769 63.2296 35.3179 63.6878 35.8594C64.146 36.4009 64.3334 35.6719 64.3334 35.6719C64.3334 35.6719 64.146 36.4009 64.7083 36.6091C65.2706 36.8174 65.4372 35.9427 65.4372 35.9427C65.4372 35.9427 65.458 36.5258 66.0828 36.5258C66.7076 36.5258 66.666 35.7761 66.666 35.7761C66.666 35.7761 67.145 36.5883 67.624 35.9843C68.4362 34.9638 68.0197 33.4851 68.0197 33.4851C68.0197 33.4851 67.8947 33.1311 67.2908 33.1727C67.2908 33.1727 67.02 32.298 66.062 32.7146C66.062 32.7146 65.2498 32.0481 64.8124 32.777C64.7916 32.7979 63.8752 32.1314 63.5836 33.2769Z" fill="#693A2B"/>
<path d="M62.5215 28.9033L61.3552 28.695C61.0012 28.6325 60.6471 28.8825 60.5847 29.2365L59.0227 38.5252C58.9602 38.8792 59.2101 39.2333 59.5641 39.2958L60.7304 39.4832C61.0845 39.5457 61.4385 39.2958 61.501 38.9417L63.063 29.653C63.1255 29.299 62.8964 28.9658 62.5215 28.9033Z" fill="#EB7171"/>
<path d="M71.1852 30.257L70.0189 30.0488C69.6649 29.9863 69.3108 30.2362 69.2483 30.5903L67.6863 39.879C67.6239 40.233 67.8738 40.5871 68.2278 40.6495L69.3941 40.837C69.7482 40.8995 70.1022 40.6495 70.1647 40.2955L71.7267 31.0068C71.7892 30.6527 71.5393 30.3195 71.1852 30.257Z" fill="#EB7171"/>
<path d="M13.8495 40.7954C13.8495 40.7954 13.5579 39.6707 13.6829 39.1292C13.787 38.6919 14.0161 38.0671 14.1202 37.6714C14.2244 37.2757 14.4951 35.5054 14.4326 35.0889C14.4118 34.9014 13.8703 33.8809 13.8703 33.506C13.8703 33.1312 13.9744 32.4022 13.6412 32.4022C13.3288 32.423 13.0581 33.0687 13.0581 33.0687C13.0581 33.0687 13.0372 32.7354 12.7457 32.6521C12.1834 32.5064 11.9543 32.7771 11.9543 32.7771C11.9543 32.7771 11.7043 32.4439 11.4544 32.4439C10.9129 32.4439 10.6838 32.6938 10.6838 32.6938C10.6838 32.6938 10.4131 32.5272 10.059 32.6105C9.60085 32.7146 9.45507 33.152 9.45507 33.152C9.45507 33.152 8.85109 33.152 8.72613 33.4644C8.60117 33.7768 8.66365 34.0684 8.64283 34.3391C8.60117 34.6098 8.9344 36.9216 9.93408 38.4419C10.7463 39.6707 11.0587 41.7534 11.0587 41.7534L13.8495 40.7954Z" fill="#8E4F3A"/>
<path d="M7.17006 36.2391L15.8337 34.8888L15.5868 33.3042L6.9231 34.6545L7.17006 36.2391Z" fill="#B85858"/>
<path d="M13.1622 33.2769C13.1622 33.2769 13.5163 35.3179 13.0581 35.8594C12.5999 36.4009 12.4125 35.6719 12.4125 35.6719C12.4125 35.6719 12.5999 36.4009 12.0376 36.6091C11.4753 36.8174 11.3087 35.9427 11.3087 35.9427C11.3087 35.9427 11.2878 36.5258 10.663 36.5258C10.0382 36.5258 10.0799 35.7761 10.0799 35.7761C10.0799 35.7761 9.60089 36.5883 9.12188 35.9843C8.30964 34.9638 8.72617 33.4851 8.72617 33.4851C8.72617 33.4851 8.85113 33.1311 9.4551 33.1727C9.4551 33.1727 9.72585 32.298 10.6839 32.7146C10.6839 32.7146 11.4961 32.0481 11.9335 32.777C11.9543 32.7979 12.8707 32.1314 13.1622 33.2769Z" fill="#693A2B"/>
<path d="M14.2244 28.9033L15.3907 28.695C15.7448 28.6325 16.0988 28.8825 16.1613 29.2365L17.7233 38.5252C17.7858 38.8792 17.5359 39.2333 17.1818 39.2958L16.0155 39.4832C15.6615 39.5457 15.3074 39.2958 15.2449 38.9417L13.6829 29.653C13.6205 29.299 13.8704 28.9658 14.2244 28.9033Z" fill="#EB7171"/>
<path d="M5.56061 30.2571L6.7269 30.0697C7.08095 30.0072 7.435 30.2571 7.49748 30.6111L9.05948 39.8998C9.12196 40.2539 8.87204 40.6079 8.51799 40.6704L7.3517 40.8579C6.99764 40.9203 6.64359 40.6704 6.58111 40.3164L5.01911 31.0277C4.95663 30.6528 5.20655 30.3196 5.56061 30.2571Z" fill="#EB7171"/>
<path d="M35.7592 42.9822C35.7592 42.9822 36.1549 45.9396 35.9674 47.9806C35.7592 50.0216 41.549 48.5221 41.549 48.5221C41.549 48.5221 41.1949 44.1068 41.6947 42.5032C42.1946 40.9204 35.7592 42.9822 35.7592 42.9822Z" fill="#8E4F3A"/>
<path d="M41.4242 46.4601C41.4242 46.4601 43.0278 47.2099 43.6943 47.3348C44.3608 47.439 48.8177 51.0628 48.9634 51.4377C49.1092 51.8126 47.9221 54.8741 47.4639 56.2903C47.0057 57.7065 45.0897 66.2662 45.2563 66.8702C45.4437 67.4742 47.1307 73.3057 47.2557 73.8888C35.6344 76.1797 29.3864 74.2429 29.3864 74.2429C29.3864 74.2429 31.4691 68.4947 31.3858 67.3701C31.3024 66.2454 30.2195 59.8933 29.4489 58.1022C28.6575 56.3111 27.3662 51.7917 27.3662 51.7917C27.3662 51.7917 32.4479 47.8347 32.5937 47.5639C32.7395 47.2932 35.5303 46.7517 35.9884 46.4185L41.4242 46.4601Z" fill="#8E4F3A"/>
<path d="M43.7151 47.3349C43.7151 47.3349 46.1726 54.895 47.0057 58.1231C47.0057 58.1231 45.7144 63.8921 45.5687 64.7668C45.5687 64.7668 38.3418 63.3714 31.0941 65.0167C31.0941 65.0167 29.5321 58.2273 29.3864 57.8524C29.3864 57.8524 31.8647 53.4371 32.9685 47.3974C32.9685 47.3974 33.9057 46.8351 34.593 46.9184C34.593 46.9184 33.9057 54.4785 38.8833 54.3952C43.8609 54.3118 42.3197 46.8351 42.3197 46.8351C42.3197 46.8351 43.1944 47.0642 43.7151 47.3349Z" fill="#FCCCA2"/>
<path d="M43.715 47.335C43.715 47.335 45.8185 46.6269 48.7342 47.6891C51.6499 48.7512 51.3167 48.5221 54.399 49.0636C57.4814 49.6259 58.8976 50.0008 58.8976 50.0008C58.8976 50.0008 60.6054 46.5019 61.3968 45.1274C62.1257 43.857 63.1671 39.7333 63.1671 39.7333L65.9786 40.2956C65.9786 40.2956 64.8332 46.731 64.2709 48.5846C62.7089 53.708 61.5217 54.6868 60.6262 54.7285C59.7307 54.7493 56.565 55.0617 54.3366 54.6243C52.2539 54.2286 49.7547 53.9787 47.9844 54.9159L43.715 47.335Z" fill="#8E4F3A"/>
<path d="M32.9475 47.3767C32.9475 47.3767 30.9273 46.6269 28.0116 47.6891C25.0958 48.7512 25.429 48.5221 22.3467 49.0636C19.2644 49.6259 17.8481 50.0008 17.8481 50.0008C17.8481 50.0008 16.1404 46.5019 15.349 45.1274C14.62 43.857 13.5787 39.7333 13.5787 39.7333L10.7671 40.2956C10.7671 40.2956 11.9126 46.731 12.4749 48.5846C14.0369 53.708 15.224 54.6868 16.1195 54.7285C17.0151 54.7493 20.1807 55.0617 22.4092 54.6243C24.4918 54.2286 26.991 53.9787 28.7613 54.9159L32.9475 47.3767Z" fill="#8E4F3A"/>
<path d="M39.1748 30.8402C39.1748 30.8402 43.6942 31.4858 43.0277 38.1503C42.3613 44.8149 38.3834 44.2734 38.1126 44.2734C37.8419 44.2734 34.1139 44.4192 33.8015 36.2759C33.8015 36.2968 33.6557 30.2779 39.1748 30.8402Z" fill="#8E4F3A"/>
<path d="M38.6541 33.256C38.6541 33.256 40.7575 35.4636 41.7364 36.5883C42.7152 37.7129 42.8194 39.8789 42.8194 39.8789C42.8194 39.8789 44.4647 37.8587 43.7774 35.5261C43.0901 33.1727 41.4657 28.6117 37.3211 30.0279C33.1975 31.4233 33.0309 37.6088 33.5307 40.6703C33.5515 40.6495 35.4051 33.9016 38.6541 33.256Z" fill="#163342"/>
<path d="M36.8839 43.9818C36.8839 43.9818 38.8 44.8982 40.6744 43.5444C40.6744 43.5444 40.1537 44.6274 38.7791 44.7732C37.4046 44.919 36.8839 43.9818 36.8839 43.9818Z" fill="#633029"/>
</svg>
