<svg width="317" height="95" viewBox="0 0 317 95" fill="none" xmlns="http://www.w3.org/2000/svg">
<path d="M294.976 14.799C294.976 14.799 295.104 13.9831 294.96 13.5991C294.832 13.2791 294.592 12.8472 294.464 12.5592C294.336 12.2712 293.952 10.9913 293.952 10.6553C293.952 10.5273 294.288 9.67937 294.256 9.40739C294.224 9.13541 294.064 8.59144 294.32 8.55944C294.576 8.54345 294.864 8.99142 294.864 8.99142C294.864 8.99142 294.896 8.75143 295.12 8.67144C295.552 8.51145 295.712 8.68744 295.712 8.68744C295.712 8.68744 295.872 8.39945 296.08 8.36746C296.512 8.30346 296.72 8.52745 296.72 8.52745C296.72 8.52745 296.912 8.36746 297.2 8.38346C297.584 8.41545 297.712 8.73543 297.712 8.73543C297.712 8.73543 298.208 8.65544 298.336 8.86342C298.464 9.08741 298.464 9.2954 298.512 9.50338C298.56 9.69537 298.528 11.4553 297.888 12.7032C297.36 13.7111 297.328 15.295 297.328 15.295L294.976 14.799Z" fill="#EEA886"/>
<path d="M262.53 14.7992C262.53 14.7992 262.402 13.9832 262.546 13.5992C262.674 13.2793 262.914 12.8473 263.042 12.5593C263.17 12.2713 263.554 10.9914 263.554 10.6554C263.554 10.5274 263.218 9.6795 263.25 9.40751C263.282 9.13553 263.442 8.59157 263.186 8.55957C262.93 8.54357 262.642 8.99154 262.642 8.99154C262.642 8.99154 262.658 8.73556 262.434 8.65556C262.002 8.49557 261.778 8.65556 261.778 8.65556C261.778 8.65556 261.618 8.38358 261.41 8.36758C260.978 8.30359 260.77 8.47957 260.77 8.47957C260.77 8.47957 260.578 8.33558 260.274 8.35158C259.89 8.38358 259.746 8.70356 259.746 8.70356C259.746 8.70356 259.266 8.63956 259.122 8.84755C258.994 9.07154 259.01 9.29552 258.962 9.48751C258.914 9.6795 258.946 11.4394 259.586 12.6873C260.114 13.6952 260.146 15.2791 260.146 15.2791L262.53 14.7992Z" fill="#EEA886"/>
<path d="M307.887 9.47144H249.843V10.6874H307.887V9.47144Z" fill="#6392D1"/>
<path d="M274.161 36.2856C274.161 36.2856 272.594 37.1176 271.682 37.1816C270.754 37.2456 268.674 35.9337 267.826 34.7817C266.978 33.6298 266.978 33.5178 266.002 32.4939C265.026 31.4699 263.746 28.6221 263.426 27.4702C263.106 26.3023 261.746 23.9344 261.602 23.4065C261.458 22.8785 260.802 20.6226 260.53 19.4707C260.242 18.2228 260.082 14.335 260.082 14.335L262.482 14.1591C262.482 14.1591 264.546 19.5347 265.266 20.9906C266.002 22.4305 265.586 23.3265 266.322 24.4624C267.042 25.5983 269.57 28.3981 270.194 30.094C270.818 31.7899 272.29 32.0299 273.138 33.8858C273.954 35.7097 274.161 36.2856 274.161 36.2856Z" fill="#EEA886"/>
<path d="M283.361 36.4136C283.361 36.4136 284.929 37.2455 285.841 37.3095C286.097 37.3255 286.449 37.2455 286.833 37.0695C286.897 37.0375 286.961 37.0056 287.041 36.9736C288.177 36.4456 289.297 35.4857 289.729 34.8777C290.561 33.7578 290.576 33.6298 291.536 32.6058C292.064 32.0619 292.656 31.0059 293.168 29.95C293.6 29.0221 293.968 28.1261 294.112 27.5822C294.432 26.4142 295.792 24.0464 295.936 23.5024C296.96 19.6147 297.248 20.0146 297.424 14.351L295.04 14.223C295.04 14.223 293.008 19.6147 292.272 21.0706C291.536 22.5105 291.952 23.4064 291.232 24.5424C290.576 25.5823 288.433 27.9821 287.585 29.678C287.505 29.854 287.425 30.014 287.361 30.174C287.153 30.718 286.865 31.1179 286.529 31.4699C285.841 32.1899 284.977 32.7178 284.417 33.9657C283.585 35.8376 283.361 36.4136 283.361 36.4136Z" fill="#EEA886"/>
<path d="M298.032 88.7943C297.744 88.1383 296.416 82.8427 295.776 79.7549C295.136 76.6671 293.872 72.9073 293.488 72.3313C293.104 71.7394 291.616 66.9237 291.232 64.8918C290.848 62.86 286.321 54.2045 286.113 53.8045C285.905 53.3886 285.425 52.1086 285.425 52.1086L278.897 52.5886L272.37 52.1086C272.37 52.1086 271.89 53.4046 271.682 53.8045C271.474 54.2205 266.434 63.4039 266.05 65.4358C265.666 67.4677 264.69 71.7554 264.306 72.3313C263.922 72.9233 262.658 76.6671 262.018 79.7549C261.378 82.8427 260.05 88.1383 259.762 88.7943C259.474 89.4502 262.194 89.4822 262.194 89.4822C262.194 89.4822 266.13 81.6427 267.01 80.2028C267.89 78.7629 268.69 76.2831 268.802 74.6992C268.914 73.1153 270.034 72.2993 271.01 71.0834C272.002 69.8835 276.737 60.7641 277.617 59.9481C278.657 58.9722 279.153 59.0042 280.161 59.9481C281.041 60.7801 285.793 69.8835 286.769 71.0834C287.761 72.2833 288.881 73.1153 288.977 74.6992C289.089 76.2831 289.889 78.7629 290.768 80.2028C291.648 81.6427 295.584 89.4822 295.584 89.4822C295.584 89.4822 298.304 89.4502 298.032 88.7943Z" fill="#2F4563"/>
<path d="M297.824 88.1704C297.824 88.1704 299.168 89.9303 299.936 90.3463C300.704 90.7622 303.504 91.9142 303.968 92.8741C304.288 93.5461 303.856 94.858 301.152 94.426C298.464 93.994 297.536 92.5381 296.72 92.3621C295.904 92.1862 295.008 91.5622 294.96 90.3623C294.912 89.1623 295.392 89.3863 295.296 88.9384C295.184 88.5064 297.824 88.1704 297.824 88.1704Z" fill="#5279AD"/>
<path d="M259.954 88.25C259.954 88.25 258.739 89.9299 257.971 90.3459C257.203 90.7618 254.403 91.9138 253.939 92.8737C253.619 93.5457 254.051 94.8576 256.755 94.4256C259.443 93.9936 260.37 92.5377 261.186 92.3617C262.002 92.1857 262.898 91.5618 262.946 90.3619C262.994 89.1619 262.514 89.3859 262.61 88.938C262.722 88.506 259.954 88.25 259.954 88.25Z" fill="#5279AD"/>
<path d="M287.04 37.1017C286.321 34.6219 287.408 29.4382 287.408 29.4382C286.017 28.8302 284.225 29.3582 283.457 29.3582C282.689 29.3582 280.561 28.7662 280.561 28.7662H278.849H277.137C277.137 28.7662 275.009 29.3582 274.241 29.3582C273.473 29.3582 271.681 28.8302 270.29 29.4382C270.29 29.4382 271.377 34.7179 270.658 37.1817C270.658 37.1817 272.337 41.8054 272.737 42.4934C273.137 43.1813 272.737 45.7091 272.721 46.3491C272.705 47.261 272.561 49.8689 272.369 52.0927C272.369 52.0927 274.433 53.3247 278.833 53.4206C283.201 53.1327 285.409 52.0927 285.409 52.0927C285.137 49.4369 284.961 47.197 284.849 46.3171C284.769 45.6771 284.545 43.1653 284.945 42.4774C285.361 41.8214 287.04 37.1017 287.04 37.1017Z" fill="#E55353"/>
<path d="M291.632 29.3261C292.336 29.3901 292.752 29.6621 293.232 29.822C293.2 29.87 293.184 29.934 293.152 29.982C292.656 31.038 292.048 32.0939 291.52 32.6379C290.592 33.6138 290.544 33.7738 289.808 34.7817C289.216 34.7817 288.721 34.8297 288.481 35.0057C288.001 35.3257 287.425 36.3976 287.137 36.9576C287.025 37.1816 286.961 37.3416 286.961 37.3416C286.961 37.3416 286.945 37.2456 286.913 37.0696C286.769 36.2056 286.337 33.4538 286.689 31.3579C286.817 30.606 287.041 29.934 287.409 29.4541C287.409 29.4541 287.505 29.5021 287.665 29.5661C288.049 29.726 288.753 30.014 289.152 30.046C289.696 30.062 290.56 29.2301 291.632 29.3261Z" fill="#EEA886"/>
<path d="M270.642 37.1816C270.642 37.1816 270.578 37.0536 270.482 36.8616C270.226 36.3336 269.682 35.3097 269.186 34.9897C268.93 34.8137 268.402 34.7657 267.794 34.7657C266.962 33.6458 266.946 33.5178 265.986 32.4939C265.458 31.9499 264.866 30.894 264.354 29.838C264.882 29.678 265.298 29.3901 266.034 29.3261C267.106 29.2301 267.97 30.078 268.53 30.03C268.898 29.998 269.554 29.758 269.938 29.582C270.13 29.5021 270.274 29.4381 270.274 29.4381C270.642 29.918 270.866 30.606 270.994 31.3739C271.314 33.5178 270.818 36.7976 270.642 37.1816Z" fill="#EEA886"/>
<path d="M281.025 25.9823C281.025 25.9823 280.785 27.8061 281.329 28.9261C281.329 28.9261 281.873 31.3259 279.217 31.5019C276.561 31.6779 276.433 29.294 276.433 29.294C276.433 29.294 277.057 28.4301 276.577 26.1103C276.113 23.7744 281.025 25.9823 281.025 25.9823Z" fill="#EEA886"/>
<path d="M279.233 16.559C279.233 16.559 282.673 17.039 282.273 22.5107C281.873 27.9823 278.849 27.5983 278.641 27.5983C278.433 27.5983 275.617 27.7583 275.249 21.1028C275.233 21.1028 275.025 16.1751 279.233 16.559Z" fill="#EEA886"/>
<path d="M282.241 20.9586C282.241 20.9586 282.609 20.5426 282.753 20.9586C282.897 21.3745 282.321 23.1664 282.273 23.3104C282.273 23.3104 282.209 23.4704 282.113 23.3904C282.017 23.2944 282.241 20.9586 282.241 20.9586Z" fill="#EEA886"/>
<path d="M275.297 21.0546C275.297 21.0546 274.929 20.6546 274.785 21.0546C274.657 21.4706 275.297 23.3264 275.329 23.3904C275.329 23.3904 275.393 23.5504 275.489 23.4544C275.569 23.3744 275.297 21.0546 275.297 21.0546Z" fill="#EEA886"/>
<path d="M282.305 21.8066L281.825 22.4785C281.825 22.4785 281.809 21.0066 281.729 20.7826C281.649 20.5587 281.793 19.7427 281.729 19.5827C281.665 19.4227 279.393 20.0787 275.649 19.7907C275.649 19.7907 276.097 21.1026 275.857 21.1986C275.617 21.2946 275.777 22.9105 275.777 22.9105L275.361 22.4625C275.361 22.4625 274.849 19.6947 274.881 19.2307C274.929 18.6068 274.657 15.743 279.921 16.1269C280.529 16.1749 281.105 16.3829 281.601 16.7349C282.145 17.1349 282.721 17.7908 282.689 18.6868C282.641 19.8867 282.305 21.8066 282.305 21.8066Z" fill="#E8734D"/>
<path d="M276.801 26.7663C276.801 26.7663 278.353 28.5102 280.737 26.6863C280.737 26.6863 280.097 28.0462 278.673 28.1102C277.249 28.1582 276.801 26.7663 276.801 26.7663Z" fill="#A77860"/>
<path d="M274.753 29.3102C274.753 29.3102 274.833 35.5498 278.849 35.7418V28.5742C278.849 28.5902 276.977 28.6542 274.753 29.3102Z" fill="#EEA886"/>
<path d="M282.929 29.3102C282.929 29.3102 282.849 35.5498 278.833 35.7418V28.5742C278.849 28.5902 280.705 28.6542 282.929 29.3102Z" fill="#EEA886"/>
<path d="M294.784 9.15139C294.784 9.15139 294.704 10.7193 295.136 11.0713C295.568 11.4232 295.632 10.8633 295.632 10.8633C295.632 10.8633 295.552 11.4232 296.032 11.5192C296.512 11.6152 296.544 10.9593 296.544 10.9593C296.544 10.9593 296.608 11.3912 297.12 11.3272C297.632 11.2633 297.52 10.7033 297.52 10.7033C297.52 10.7033 297.984 11.2633 298.304 10.7673C298.848 9.91934 298.368 8.86341 298.368 8.86341C298.368 8.86341 298.224 8.62342 297.744 8.71942C297.744 8.71942 297.44 8.09546 296.72 8.49543C296.72 8.49543 296 8.07946 295.712 8.68742C295.712 8.67142 294.912 8.27145 294.784 9.15139Z" fill="#D6926F"/>
<path d="M262.722 9.15139C262.722 9.15139 262.802 10.7193 262.37 11.0713C261.938 11.4232 261.874 10.8633 261.874 10.8633C261.874 10.8633 261.954 11.4232 261.474 11.5192C260.994 11.6152 260.962 10.9593 260.962 10.9593C260.962 10.9593 260.898 11.3912 260.386 11.3272C259.874 11.2633 259.986 10.7033 259.986 10.7033C259.986 10.7033 259.522 11.2633 259.202 10.7673C258.658 9.91934 259.138 8.86341 259.138 8.86341C259.138 8.86341 259.282 8.62342 259.762 8.71942C259.762 8.71942 260.066 8.09546 260.786 8.49543C260.786 8.49543 261.506 8.07946 261.794 8.68742C261.794 8.67142 262.594 8.27145 262.722 9.15139Z" fill="#D6926F"/>
<path d="M310.047 0H306.975V20.3187H310.047V0Z" fill="#5279AD"/>
<path d="M313.119 2.06396H309.775V18.2549H313.119V2.06396Z" fill="#5279AD"/>
<path d="M316.207 4.25574H312.783V16.079H316.207V4.25574Z" fill="#5279AD"/>
<path d="M250.931 0H247.859V20.3187H250.931V0Z" fill="#5279AD"/>
<path d="M248.419 2.06396H244.787V18.2549H248.419V2.06396Z" fill="#5279AD"/>
<path d="M245.155 4.25574H241.715V16.079H245.155V4.25574Z" fill="#5279AD"/>
<path d="M184.843 22.2361C184.843 22.2361 187.469 21.9639 188.397 24.4936C189.342 27.0234 190.223 27.856 190.335 29.1849C190.783 34.5646 193.297 33.3478 192.592 36.4379C191.888 39.528 191.391 40.0084 191.391 40.0084L185.387 38.8396L179.303 38.8556C179.303 38.8556 181.689 37.6708 181.144 35.141C180.616 32.6113 179.303 28.4644 180.039 25.6464C180.808 22.7965 183.274 22.4442 184.843 22.2361Z" fill="#163342"/>
<path d="M184.459 90.1072C192.346 90.1072 198.74 83.713 198.74 75.8253C198.74 67.9377 192.346 61.5435 184.459 61.5435C176.571 61.5435 170.177 67.9377 170.177 75.8253C170.177 83.713 176.571 90.1072 184.459 90.1072Z" fill="#EB4747"/>
<path d="M204.408 87.193C204.408 87.193 204.729 88.3619 204.408 89.4506C204.088 90.5394 203.88 92.3646 204.648 93.3733C205.417 94.382 206.682 94.7983 208.507 94.302C210.332 93.8056 210.012 92.3806 209.404 91.1638C208.795 89.947 207.322 87.5613 207.114 86.7768C206.906 85.9602 204.408 87.193 204.408 87.193Z" fill="#FAA146"/>
<path d="M204.552 88.3137C204.552 88.3137 205.737 88.8101 207.595 87.8334L207.114 86.7446L204.408 87.1769L204.552 88.3137Z" fill="#8E4F3A"/>
<path d="M206.362 83.1104C205.977 81.2851 205.017 73.2635 204.376 71.4223C203.752 69.565 202.327 67.2434 201.734 66.3948C201.142 65.5462 198.148 63.0645 197.139 61.8957C196.131 60.7269 192.336 58.1171 191.984 57.7008C191.631 57.2845 191.359 56.7081 191.359 56.7081C188.333 56.66 184.41 57.1244 184.41 57.1244C184.41 57.1244 180.888 56.7241 177.862 56.7721C177.862 56.7721 177.526 57.3005 177.189 57.7168C176.837 58.1331 172.69 60.7429 171.682 61.9117C170.673 63.0805 167.695 65.5622 167.086 66.4108C166.494 67.2594 165.069 69.581 164.445 71.4383C163.82 73.2956 162.94 81.4612 162.555 83.2865C162.171 85.1117 161.595 86.7609 161.595 86.7609C161.595 86.7609 162.491 87.5294 164.413 87.2252C164.413 87.2252 166.958 79.4918 168.127 77.3143C169.296 75.1528 169.76 70.8939 170.609 70.1414C171.457 69.3889 174.452 68.4762 177.462 66.9071C180.472 65.3381 181.128 64.0412 182.201 64.0091C183.274 63.9771 183.962 64.0732 184.394 64.0412C184.843 64.0732 185.531 63.9771 186.588 64.0091C187.661 64.0412 188.317 65.322 191.327 66.9071C194.337 68.4762 197.331 69.3889 198.18 70.1414C199.029 70.8939 199.493 75.1368 200.662 77.3143C201.83 79.4758 204.376 87.2252 204.376 87.2252C206.298 87.5454 207.082 86.7929 207.082 86.7929C207.082 86.7929 206.73 84.9356 206.362 83.1104Z" fill="#8E4F3A"/>
<path d="M207.594 87.8336C207.594 87.8336 207.482 87.9937 207.082 87.9297C206.666 87.8656 205.705 87.4653 204.552 88.3139C204.552 88.3139 207.466 89.4988 207.594 87.8336Z" fill="#FAA146"/>
<path d="M161.611 86.7448C161.611 86.7448 160.81 88.2658 159.929 88.7462C159.049 89.2105 155.302 91.0037 155.783 92.5568C156.247 94.0939 161.322 93.7897 162.283 92.5568C163.26 91.324 164.044 91.9324 164.332 90.7315C164.621 89.5307 164.429 87.2091 164.429 87.2091C164.429 87.2091 163.58 87.1771 162.972 86.985C162.379 86.7928 162.363 86.4726 161.611 86.7448Z" fill="#FAA146"/>
<path d="M205.369 76.6258C202.807 76.7218 201.014 77.9066 201.014 77.9066C200.902 77.6665 200.806 77.4583 200.71 77.2822C199.541 75.1207 199.077 70.8618 198.228 70.1092C197.379 69.3567 194.385 68.4441 191.375 66.875C188.365 65.3059 187.709 64.009 186.636 63.977C185.563 63.945 184.875 64.041 184.442 64.009C183.994 64.041 183.306 63.945 182.249 63.977C181.176 64.009 180.52 65.2899 177.51 66.875C174.5 68.4441 171.505 69.3567 170.657 70.1092C169.808 70.8618 169.344 75.1047 168.175 77.2822C168.111 77.3943 168.047 77.5224 167.983 77.6505C166.158 76.4657 163.58 76.4977 163.532 76.4977C163.836 74.3042 164.172 72.2387 164.445 71.4222C165.069 69.5649 166.494 67.2433 167.086 66.3947C167.679 65.5461 170.673 63.0644 171.682 61.8956C172.69 60.7268 176.837 58.1169 177.189 57.7007C177.542 57.2844 177.862 56.756 177.862 56.756C180.888 56.708 184.41 57.1082 184.41 57.1082C184.41 57.1082 188.333 56.6439 191.359 56.692C191.359 56.692 191.647 57.2684 191.984 57.6846C192.336 58.1009 196.131 60.7107 197.139 61.8796C198.148 63.0484 201.126 65.5301 201.734 66.3787C202.327 67.2273 203.752 69.5489 204.376 71.4061C204.664 72.2547 205.033 74.3842 205.369 76.6258Z" fill="#FCCCA2"/>
<path d="M203.416 31.3144C203.416 31.3144 203.64 30.5139 203.544 30.0976C203.464 29.7614 203.288 29.281 203.207 28.9768C203.127 28.6726 202.919 27.3117 202.967 26.9915C202.983 26.8474 203.4 26.0628 203.4 25.7746C203.4 25.4864 203.32 24.926 203.576 24.926C203.816 24.942 204.024 25.4384 204.024 25.4384C204.024 25.4384 204.04 25.1822 204.264 25.1182C204.697 25.0061 204.873 25.2142 204.873 25.2142C204.873 25.2142 205.065 24.958 205.257 24.958C205.673 24.958 205.849 25.1502 205.849 25.1502C205.849 25.1502 206.057 25.0221 206.33 25.0861C206.682 25.1662 206.794 25.5024 206.794 25.5024C206.794 25.5024 207.258 25.5024 207.354 25.7426C207.45 25.9828 207.402 26.2069 207.418 26.4151C207.45 26.6232 207.194 28.4004 206.426 29.5692C205.801 30.5139 205.561 32.115 205.561 32.115L203.416 31.3144Z" fill="#8E4F3A"/>
<path d="M208.756 26.6384L202.096 25.6003L201.906 26.8185L208.566 27.8566L208.756 26.6384Z" fill="#B85858"/>
<path d="M203.944 25.5825C203.944 25.5825 203.672 27.1515 204.024 27.5678C204.376 27.9841 204.52 27.4237 204.52 27.4237C204.52 27.4237 204.376 27.9841 204.809 28.1442C205.241 28.3043 205.369 27.6319 205.369 27.6319C205.369 27.6319 205.385 28.0802 205.865 28.0802C206.346 28.0802 206.314 27.5038 206.314 27.5038C206.314 27.5038 206.682 28.1282 207.05 27.6639C207.675 26.8794 207.354 25.7426 207.354 25.7426C207.354 25.7426 207.258 25.4704 206.794 25.5024C206.794 25.5024 206.586 24.8299 205.849 25.1502C205.849 25.1502 205.225 24.6378 204.889 25.1982C204.873 25.2142 204.168 24.7018 203.944 25.5825Z" fill="#693A2B"/>
<path d="M203.128 22.2201L202.231 22.06C201.959 22.012 201.687 22.2041 201.639 22.4763L200.438 29.6172C200.39 29.8894 200.582 30.1616 200.854 30.2096L201.751 30.3537C202.023 30.4018 202.295 30.2096 202.343 29.9374L203.544 22.7965C203.592 22.5243 203.416 22.2681 203.128 22.2201Z" fill="#EB7171"/>
<path d="M209.788 23.2609L208.891 23.1008C208.619 23.0527 208.347 23.2449 208.299 23.517L207.098 30.658C207.05 30.9302 207.242 31.2024 207.514 31.2504L208.411 31.3945C208.683 31.4425 208.955 31.2504 209.003 30.9782L210.204 23.8373C210.252 23.5651 210.06 23.3089 209.788 23.2609Z" fill="#EB7171"/>
<path d="M165.71 31.3625C165.71 31.3625 165.485 30.4979 165.581 30.0816C165.661 29.7454 165.838 29.265 165.918 28.9608C165.998 28.6566 166.206 27.2957 166.158 26.9755C166.142 26.8314 165.726 26.0468 165.726 25.7586C165.726 25.4704 165.806 24.91 165.549 24.91C165.309 24.926 165.101 25.4224 165.101 25.4224C165.101 25.4224 165.085 25.1662 164.861 25.1022C164.429 24.9901 164.252 25.1982 164.252 25.1982C164.252 25.1982 164.06 24.9421 163.868 24.9421C163.452 24.9421 163.276 25.1342 163.276 25.1342C163.276 25.1342 163.068 25.0061 162.795 25.0701C162.443 25.1502 162.331 25.4864 162.331 25.4864C162.331 25.4864 161.867 25.4864 161.771 25.7266C161.675 25.9668 161.723 26.1909 161.707 26.3991C161.675 26.6072 161.931 28.3844 162.699 29.5532C163.324 30.4979 163.564 32.099 163.564 32.099L165.71 31.3625Z" fill="#8E4F3A"/>
<path d="M160.574 27.8597L167.235 26.8217L167.045 25.6035L160.385 26.6415L160.574 27.8597Z" fill="#B85858"/>
<path d="M165.181 25.5825C165.181 25.5825 165.453 27.1515 165.101 27.5678C164.749 27.9841 164.605 27.4237 164.605 27.4237C164.605 27.4237 164.749 27.9841 164.316 28.1442C163.884 28.3043 163.756 27.6319 163.756 27.6319C163.756 27.6319 163.74 28.0802 163.26 28.0802C162.779 28.0802 162.811 27.5038 162.811 27.5038C162.811 27.5038 162.443 28.1282 162.075 27.6639C161.45 26.8794 161.771 25.7426 161.771 25.7426C161.771 25.7426 161.867 25.4704 162.331 25.5024C162.331 25.5024 162.539 24.8299 163.276 25.1502C163.276 25.1502 163.9 24.6378 164.236 25.1982C164.252 25.2142 164.957 24.7018 165.181 25.5825Z" fill="#693A2B"/>
<path d="M165.998 22.2201L166.894 22.06C167.166 22.012 167.439 22.2041 167.487 22.4763L168.687 29.6172C168.736 29.8894 168.543 30.1616 168.271 30.2096L167.375 30.3537C167.102 30.4018 166.83 30.2096 166.782 29.9374L165.581 22.7965C165.533 22.5243 165.725 22.2681 165.998 22.2201Z" fill="#EB7171"/>
<path d="M159.337 23.261L160.234 23.1169C160.506 23.0688 160.778 23.261 160.826 23.5332L162.027 30.6741C162.075 30.9463 161.883 31.2185 161.611 31.2665L160.714 31.4106C160.442 31.4586 160.17 31.2665 160.122 30.9943L158.921 23.8534C158.873 23.5652 159.065 23.309 159.337 23.261Z" fill="#EB7171"/>
<path d="M182.553 33.0438C182.553 33.0438 182.857 35.3174 182.713 36.8864C182.553 38.4555 187.004 37.3027 187.004 37.3027C187.004 37.3027 186.732 33.9084 187.116 32.6755C187.501 31.4587 182.553 33.0438 182.553 33.0438Z" fill="#8E4F3A"/>
<path d="M186.908 35.7173C186.908 35.7173 188.141 36.2937 188.654 36.3898C189.166 36.4698 192.592 39.2558 192.704 39.544C192.816 39.8322 191.904 42.1858 191.552 43.2746C191.199 44.3633 189.726 50.9439 189.854 51.4082C189.998 51.8725 191.295 56.3556 191.391 56.8039C182.457 58.5651 177.654 57.0761 177.654 57.0761C177.654 57.0761 179.255 52.657 179.191 51.7924C179.127 50.9279 178.294 46.0445 177.702 44.6675C177.094 43.2906 176.101 39.8162 176.101 39.8162C176.101 39.8162 180.008 36.7741 180.12 36.5659C180.232 36.3578 182.377 35.9415 182.729 35.6853L186.908 35.7173Z" fill="#8E4F3A"/>
<path d="M188.669 36.39C188.669 36.39 190.559 42.202 191.199 44.6837C191.199 44.6837 190.206 49.1188 190.094 49.7913C190.094 49.7913 184.539 48.7185 178.967 49.9834C178.967 49.9834 177.766 44.7638 177.654 44.4756C177.654 44.4756 179.559 41.0813 180.408 36.438C180.408 36.438 181.128 36.0057 181.657 36.0698C181.657 36.0698 181.128 41.8818 184.955 41.8178C188.782 41.7537 187.597 36.0057 187.597 36.0057C187.597 36.0057 188.269 36.1819 188.669 36.39Z" fill="#FCCCA2"/>
<path d="M188.669 36.3901C188.669 36.3901 190.286 35.8457 192.528 36.6623C194.77 37.4788 194.513 37.3027 196.883 37.719C199.253 38.1513 200.341 38.4395 200.341 38.4395C200.341 38.4395 201.654 35.7496 202.263 34.6929C202.823 33.7162 203.624 30.546 203.624 30.546L205.785 30.9783C205.785 30.9783 204.905 35.9257 204.472 37.3507C203.271 41.2895 202.359 42.042 201.67 42.074C200.982 42.09 198.548 42.3302 196.835 41.9939C195.234 41.6897 193.313 41.4976 191.952 42.2181L188.669 36.3901Z" fill="#8E4F3A"/>
<path d="M180.392 36.4221C180.392 36.4221 178.839 35.8457 176.597 36.6623C174.355 37.4788 174.612 37.3027 172.242 37.719C169.872 38.1513 168.784 38.4395 168.784 38.4395C168.784 38.4395 167.471 35.7496 166.862 34.6929C166.302 33.7162 165.501 30.546 165.501 30.546L163.34 30.9783C163.34 30.9783 164.22 35.9257 164.653 37.3507C165.854 41.2895 166.766 42.042 167.455 42.074C168.143 42.09 170.577 42.3302 172.29 41.9939C173.891 41.6897 175.812 41.4976 177.173 42.2181L180.392 36.4221Z" fill="#8E4F3A"/>
<path d="M185.179 23.7092C185.179 23.7092 188.653 24.2055 188.141 29.3291C187.629 34.4526 184.571 34.0363 184.362 34.0363C184.154 34.0363 181.288 34.1484 181.048 27.8881C181.048 27.9041 180.936 23.2769 185.179 23.7092Z" fill="#8E4F3A"/>
<path d="M184.779 25.5665C184.779 25.5665 186.396 27.2636 187.148 28.1282C187.901 28.9928 187.981 30.658 187.981 30.658C187.981 30.658 189.246 29.1049 188.717 27.3117C188.189 25.5024 186.94 21.996 183.754 23.0847C180.584 24.1575 180.456 28.9128 180.84 31.2664C180.856 31.2504 182.281 26.0628 184.779 25.5665Z" fill="#163342"/>
<path d="M183.418 33.8122C183.418 33.8122 184.891 34.5167 186.332 33.476C186.332 33.476 185.932 34.3085 184.875 34.4206C183.818 34.5327 183.418 33.8122 183.418 33.8122Z" fill="#633029"/>
<path d="M96.2856 16.4707C96.2856 16.4707 95.3186 12.6211 97.7087 10.6689C100.08 8.71674 102.726 9.41004 104.04 10.6689C105.353 11.9278 106.977 14.4638 105.463 18.0763C103.948 21.6887 103.62 20.8312 104.295 23.495C104.97 26.1587 105.791 28.0014 104.441 29.2055C103.091 30.4097 101.029 30.0995 100.829 28.5852C100.628 27.0709 100.464 21.6887 100.318 20.9042C100.19 20.1014 96.2856 16.4707 96.2856 16.4707Z" fill="#1C4154"/>
<path d="M101.522 22.9294C101.522 22.9294 104.277 24.0058 105.28 24.1336C106.284 24.2613 105.919 27.2534 105.919 27.2534C105.919 27.2534 106.63 29.3151 106.594 30.6652C106.521 32.4714 105.682 32.964 105.609 33.0917C105.536 33.2194 104.806 37.5069 104.733 38.255C104.66 39.003 104.934 39.9517 105.116 40.572C105.299 41.2653 105.919 43.8196 105.919 43.8196C105.919 43.8196 100.847 45.3521 93.2023 43.9656C93.2023 43.9656 93.6949 41.9951 93.8774 41.0099C93.9686 40.4808 94.2605 39.4591 94.1328 38.4921C94.0051 37.5252 92.9287 33.4384 92.8922 33.037C92.8557 32.6538 90.7575 30.501 92.6367 27.9467C92.6367 27.9467 93.1294 25.283 93.2571 24.5714C93.2571 24.5714 96.5411 23.0754 97.3986 22.9476C98.2926 22.8017 101.522 22.9294 101.522 22.9294Z" fill="#EEA886"/>
<path d="M105.299 24.1334C105.299 24.1334 106.63 24.1699 107.634 24.8997C108.637 25.6295 109.312 28.6034 109.477 29.0777C109.641 29.5703 111.502 32.6355 111.812 33.6024C112.122 34.5694 112.304 35.1897 112.45 35.135C112.596 35.0802 114.53 32.0334 114.841 31.3036C115.169 30.4643 116.501 26.8154 116.501 26.8154L117.906 29.4244L117.997 29.6433C117.997 29.6433 116.647 33.3105 116.227 34.6241C115.807 35.9377 114.841 39.0211 114.384 39.4407C113.928 39.8604 112.14 40.4442 111.192 39.6779C110.243 38.9299 108.035 35.3904 107.47 34.2045C106.904 33.0186 105.809 31.0847 105.809 31.0847C105.809 31.0847 104.04 25.3741 105.299 24.1334Z" fill="#EEA886"/>
<path d="M93.257 24.553C93.257 24.553 91.8521 24.5348 91.1953 25.1186C90.5385 25.7025 89.2979 27.1073 89.006 28.3479C88.714 29.5886 88.5498 31.8327 88.1485 33.0368C87.7653 34.2592 86.6706 37.3973 86.105 38.5285C85.5395 39.6779 85.0286 44.4398 84.7002 45.5892C84.3536 46.7386 83.1129 50.5335 83.1129 50.5335L85.0833 51.537C85.0833 51.537 89.0972 42.7248 89.4803 41.3929C89.8635 40.061 89.9364 38.419 90.3013 37.4338C90.6662 36.4303 92.2718 32.7814 92.5089 32.0699C92.7826 31.3948 95.5193 24.8632 93.257 24.553Z" fill="#EEA886"/>
<path d="M93.0016 44.4946C93.0016 44.4946 92.3083 45.9176 91.8522 46.8846C91.3961 47.8516 89.6993 51.9749 89.006 54.8211C88.331 57.6672 86.8167 62.6845 86.6342 64.1076C86.4335 65.5307 85.7585 67.7018 85.1017 68.833C84.4449 69.9824 82.9123 73.3577 82.6386 75.547C82.365 77.7364 80.6682 87.4061 80.6682 87.4061C80.6682 87.4061 81.6352 88.3183 83.4597 87.2237C83.4597 87.2237 86.8349 78.1743 87.6194 76.8607C88.404 75.547 89.6264 72.0988 89.8088 70.8217C89.973 69.5445 91.2501 68.1762 92.4178 65.257C93.5855 62.3379 98.3108 54 98.9677 52.285C98.9677 52.285 99.1866 51.5917 99.8434 51.8107L99.588 44.4398L93.0016 44.4946Z" fill="#285173"/>
<path d="M106.119 44.4033C106.119 44.4033 106.867 45.9359 107.305 46.9028C107.761 47.8698 109.659 52.1573 110.352 55.0035C111.027 57.8497 112.341 62.7028 112.523 64.1441C112.724 65.5672 113.399 67.7383 114.056 68.8695C114.713 70.0189 116.245 73.3942 116.519 75.5835C116.793 77.7729 118.489 87.4426 118.489 87.4426C118.489 87.4426 117.522 88.3548 115.698 87.2601C115.698 87.2601 112.323 78.2108 111.538 76.8971C110.754 75.5835 109.531 72.1353 109.349 70.8581C109.185 69.581 107.907 68.2127 106.74 65.2935C105.572 62.3744 100.847 54.0365 100.19 52.3215C100.19 52.3215 100.026 51.5735 99.2594 51.8654L92.9468 44.5858L106.119 44.4033Z" fill="#285173"/>
<path d="M97.1614 12.1649C97.1614 12.1649 95.6106 14.6279 96.5775 18.0762C97.5445 21.5244 98.9494 21.7251 100.099 21.3785C101.485 20.9589 102.835 18.0397 103.054 16.7443C103.273 15.449 104.149 12.3291 100.792 11.9277C99.2595 11.7453 97.7087 11.8 97.1614 12.1649Z" fill="#EEA886"/>
<path d="M101.248 20.3751C101.248 20.3751 101.23 24.1152 101.741 25.1552C102.252 26.1951 97.125 25.5566 97.125 25.5566C97.125 25.5566 97.7453 21.3238 97.5264 20.3203C97.3074 19.2986 101.248 20.3751 101.248 20.3751Z" fill="#EEA886"/>
<path d="M96.2674 15.8139C96.2674 15.8139 97.5446 12.8218 98.7852 12.9312C98.7852 12.9312 101.23 16.124 103.383 17.3647C103.383 17.3647 106.028 13.0224 99.8069 11.1432C99.8069 11.125 96.0303 9.64718 96.2674 15.8139Z" fill="#1C4154"/>
<path d="M97.7817 20.6669C97.7817 20.6669 98.6027 21.6521 99.4967 21.5061C100.391 21.3602 100.902 20.9041 100.902 20.9041C100.902 20.9041 100.482 21.8893 99.4055 21.8893C98.4568 21.871 97.7817 20.6669 97.7817 20.6669Z" fill="#A77860"/>
<path d="M103.93 23.7869C103.93 23.7869 105.536 26.3959 105.919 27.2534C105.919 27.2534 108.017 31.2307 105.609 33.0917C105.609 33.0917 105.353 35.1716 104.934 36.9048C104.934 36.9048 99.6061 35.8101 93.8408 37.069C93.8408 37.069 92.8921 33.493 92.8921 33.0187C92.8921 33.0187 90.6297 30.2455 92.6366 27.9284C92.6366 27.9284 94.4246 24.316 94.5706 23.9693C94.5888 23.9693 98.6574 21.3786 103.93 23.7869Z" fill="#EB4747"/>
<path d="M120.861 29.6433C122.725 29.6433 124.236 27.9035 124.236 25.7572C124.236 23.611 122.725 21.8711 120.861 21.8711C118.997 21.8711 117.486 23.611 117.486 25.7572C117.486 27.9035 118.997 29.6433 120.861 29.6433Z" fill="#D1C0BA"/>
<path d="M120.734 27.9649C121.671 27.9649 122.43 27.0909 122.43 26.0127C122.43 24.9346 121.671 24.0605 120.734 24.0605C119.796 24.0605 119.037 24.9346 119.037 26.0127C119.037 27.0909 119.796 27.9649 120.734 27.9649Z" fill="#948884"/>
<path d="M117.979 29.6433C117.979 29.6433 119.092 28.2932 119.767 27.8735C120.423 27.4539 121.117 26.8336 121.025 26.195C120.952 25.5382 120.259 24.0239 119.84 23.9692C119.42 23.9144 117.851 24.4435 117.851 24.4435L116.483 26.8336L117.979 29.6433Z" fill="#EEA886"/>
<path d="M116.154 29.2785C118.018 29.2785 119.529 27.5386 119.529 25.3923C119.529 23.2461 118.018 21.5062 116.154 21.5062C114.29 21.5062 112.779 23.2461 112.779 25.3923C112.779 27.5386 114.29 29.2785 116.154 29.2785Z" fill="#EDDAD3"/>
<path d="M115.953 27.4905C116.961 27.4905 117.778 26.5511 117.778 25.3923C117.778 24.2336 116.961 23.2942 115.953 23.2942C114.946 23.2942 114.129 24.2336 114.129 25.3923C114.129 26.5511 114.946 27.4905 115.953 27.4905Z" fill="#CCBBB5"/>
<path d="M96.5594 23.1483C96.5594 23.1483 93.7862 29.2785 99.0771 29.4427C104.386 29.6069 102.325 23.7139 102.179 23.1483C102.179 23.1483 99.9894 21.78 96.5594 23.1483Z" fill="#EEA886"/>
<path d="M83.7515 86.4754C83.7515 86.4754 83.4596 86.7491 83.04 86.6944C82.6203 86.6396 81.4162 86.1288 80.8689 86.3477C80.3398 86.5666 80.0478 88.9567 78.9896 89.5405C77.9497 90.1244 74.8116 91.9488 74.9758 93.4996C75.14 95.0687 79.3728 94.649 80.4675 93.3537C81.5622 92.0583 82.5109 92.6969 83.3866 91.8029C84.2806 90.8906 83.6056 87.3694 83.7515 86.4754Z" fill="#CCBBB5"/>
<path d="M115.406 86.4572C115.406 86.4572 115.716 86.7491 116.136 86.6944C116.555 86.6396 117.76 86.1288 118.307 86.3477C118.836 86.5666 119.128 88.9567 120.186 89.5405C121.226 90.1244 124.364 91.9488 124.2 93.4996C124.036 95.0687 119.803 94.649 118.708 93.3537C117.614 92.0583 116.665 92.6969 115.789 91.8029C114.895 90.8906 115.534 87.3512 115.406 86.4572Z" fill="#CCBBB5"/>
<path d="M93.2022 43.9289C93.2022 43.9289 99.004 44.0566 105.919 43.783L106.229 44.6405C106.229 44.6405 101.12 45.6074 92.8738 44.7499L93.2022 43.9289Z" fill="#3B78AB"/>
<path d="M83.6239 49.7491C83.6239 49.7491 83.2042 50.187 83.0765 50.5702C82.967 50.8803 82.5839 51.2999 82.4015 51.5371C82.219 51.7743 81.5622 52.8872 81.471 53.1792C81.4345 53.3069 81.5257 54.1461 81.4162 54.4015C81.3068 54.6387 81.0514 55.1131 81.2703 55.2043C81.4892 55.2773 81.8541 54.9306 81.8541 54.9306C81.8541 54.9306 81.7811 55.1678 81.9453 55.2955C82.2737 55.551 82.5109 55.4232 82.5109 55.4232C82.5109 55.4232 82.5839 55.7152 82.7481 55.7699C83.113 55.9159 83.3319 55.8064 83.3319 55.8064C83.3319 55.8064 83.4597 55.9888 83.7333 56.0253C84.08 56.0801 84.2807 55.8246 84.2807 55.8246C84.2807 55.8246 84.682 56.0071 84.8645 55.8246C85.0469 55.6422 85.0652 55.4415 85.1564 55.259C85.2476 55.0948 85.6855 53.4346 85.4301 52.1574C85.1747 50.8621 85.9044 49.7856 85.9044 49.7856L83.6239 49.7491Z" fill="#EEA886"/>
<path d="M86.6655 54.4339L80.4757 52.9414L80.202 54.0765L86.3918 55.569L86.6655 54.4339Z" fill="#D1C0BA"/>
<path d="M81.7993 54.7665C81.7993 54.7665 82.1277 53.2887 82.5838 53.0515C83.04 52.8143 82.967 53.3617 82.967 53.3617C82.967 53.3617 83.04 52.8326 83.4778 52.8508C83.9157 52.869 83.788 53.4894 83.788 53.4894C83.788 53.4894 83.9522 53.1062 84.3718 53.2704C84.7915 53.4346 84.5543 53.9272 84.5543 53.9272C84.5543 53.9272 85.1016 53.5076 85.2476 54.055C85.503 54.9672 84.8279 55.8429 84.8279 55.8429C84.8279 55.8429 84.6455 56.0436 84.2441 55.8429C84.2441 55.8429 83.8245 56.3538 83.2954 55.8247C83.2954 55.8247 82.5656 56.0436 82.4744 55.4233C82.4926 55.4233 81.6899 55.624 81.7993 54.7665Z" fill="#DB9C7C"/>
<path d="M79.829 57.3934L79.1174 57.2292C78.8255 57.1562 78.6431 56.8643 78.716 56.5724L80.2121 50.0408C80.2851 49.7489 80.577 49.5664 80.8689 49.6394L81.5805 49.8036C81.8724 49.8766 82.0548 50.1685 81.9818 50.4604L80.4858 56.992C80.4128 57.2839 80.1209 57.4664 79.829 57.3934Z" fill="#EDDAD3"/>
<path d="M86.0138 58.8896L85.3022 58.7254C85.0103 58.6524 84.8279 58.3605 84.9009 58.0686L86.3969 51.537C86.4699 51.2451 86.7618 51.0626 87.0537 51.1356L87.7653 51.2998C88.0572 51.3728 88.2396 51.6647 88.1667 51.9566L86.6523 58.47C86.5976 58.7619 86.3057 58.9443 86.0138 58.8896Z" fill="#EDDAD3"/>
<path d="M25.4186 26.9681C25.4186 26.9681 28.0973 32.6102 26.2557 32.945C23.7277 33.4138 22.7064 28.7428 22.7064 28.7428L25.4186 26.9681Z" fill="#163342"/>
<path d="M25.9041 32.5266C25.9041 32.5266 27.3439 31.3881 27.9634 30.7687C28.5828 30.1492 31.295 25.7963 31.8475 24.9425C32.4 24.0886 33.0194 22.4312 33.3878 21.6945C33.7561 20.9746 37.4561 15.4163 37.4561 15.4163L38.8791 16.019C38.8791 16.019 36.3344 22.4479 35.6814 23.5194C35.0285 24.5909 34.3923 26.7673 33.89 27.7049C33.3878 28.6592 30.6923 32.4596 30.2235 33.3302C29.7548 34.2008 29.3027 35.9085 29.3027 35.9085C29.3027 35.9085 25.2512 34.8872 25.9041 32.5266Z" fill="#8E4F3A"/>
<path d="M20.5969 29.6469C20.5969 29.6469 20.8648 31.6225 20.7309 32.9786C20.5969 34.3347 24.4476 33.3469 24.4476 33.3469C24.4476 33.3469 24.2299 30.3836 24.5648 29.3288C24.8996 28.2574 20.5969 29.6469 20.5969 29.6469Z" fill="#8E4F3A"/>
<path d="M16.7294 49.8043C16.7294 49.8043 16.2104 51.0934 15.8756 51.964C15.5407 52.8346 13.9 56.4174 13.448 58.9454C12.9959 61.4902 12.3263 66.0775 12.2258 67.3499C12.1254 68.6223 11.6566 70.5476 11.1376 71.5856C10.6353 72.6236 9.49686 75.6707 9.36292 77.596C9.22899 79.5381 8.24121 88.11 8.24121 88.11C8.24121 88.11 9.11179 88.8634 10.6018 87.8253C10.6018 87.8253 13.0462 79.7222 13.6656 78.5335C14.2683 77.3449 15.1557 74.2476 15.2394 73.1259C15.3231 72.0042 16.3443 70.7318 17.1982 68.12C18.052 65.5083 21.6348 57.9911 21.9864 56.5011C21.9864 56.5011 22.0199 55.8314 22.9072 55.9653L22.338 49.5029L16.7294 49.8043Z" fill="#FAA146"/>
<path d="M28.0636 49.8378C28.0636 49.8378 28.6161 51.2106 28.951 52.0979C29.2858 52.9685 30.9098 56.5513 31.3618 59.0961C31.7971 61.6409 32.4668 66.2282 32.5672 67.5006C32.6677 68.7729 33.1364 70.6983 33.6387 71.7363C34.141 72.7743 35.2794 75.8213 35.3966 77.7634C35.5138 79.7055 36.5016 88.2774 36.5016 88.2774C36.5016 88.2774 35.631 89.0308 34.141 87.9928C34.141 87.9928 31.6966 79.8729 31.0939 78.6842C30.4912 77.4955 29.6039 74.3983 29.5202 73.2765C29.4365 72.1548 28.4152 70.8824 27.5614 68.2707C26.7075 65.6589 23.0913 58.0916 22.6057 56.5513C22.6057 56.5513 22.5053 55.8984 21.8356 56.0993L16.7963 49.4025L28.0636 49.8378Z" fill="#FAA146"/>
<path d="M10.8029 87.1558C10.8029 87.1558 10.5685 87.4069 10.2169 87.3734C9.8653 87.3567 8.79381 86.9716 8.35852 87.1893C7.90649 87.4069 7.77255 89.4494 6.90197 89.9852C6.03138 90.5377 3.43637 92.2286 3.65402 93.5512C3.87167 94.8906 7.45445 94.3214 8.34178 93.1829C9.21236 92.0277 10.0495 92.53 10.7526 91.7264C11.4725 90.906 10.7359 87.9259 10.8029 87.1558Z" fill="#EB7171"/>
<path d="M33.9401 87.323C33.9401 87.323 34.1745 87.5574 34.526 87.5407C34.8776 87.5239 35.9491 87.1389 36.3844 87.3565C36.8364 87.5742 36.9704 89.6167 37.8242 90.1692C38.6948 90.7217 41.2731 92.4126 41.0554 93.7352C40.8378 95.0746 37.255 94.5053 36.3677 93.3501C35.4971 92.195 34.66 92.6972 33.9568 91.8768C33.2871 91.0565 34.0238 88.0932 33.9401 87.323Z" fill="#EB7171"/>
<path d="M19.4249 24.4233C19.4249 24.4233 19.0734 24.0048 18.9394 24.4233C18.8055 24.8419 19.2408 26.1143 19.291 26.2984C19.291 26.2984 19.5086 27.0016 19.5924 26.9179C19.6761 26.8342 19.4249 24.4233 19.4249 24.4233Z" fill="#8E4F3A"/>
<path d="M25.5692 24.4736C25.5692 24.4736 25.9208 24.0551 26.0547 24.4736C26.1887 24.8922 25.7534 26.1646 25.7032 26.3487C25.7032 26.3487 25.4855 27.0519 25.4018 26.9682C25.3348 26.8845 25.5692 24.4736 25.5692 24.4736Z" fill="#8E4F3A"/>
<path d="M23.0579 20.3718C23.0579 20.3718 26.2891 20.8741 25.8204 25.9469C25.3516 31.0365 22.5054 30.6347 22.3045 30.6179C22.1204 30.6179 19.4417 30.7184 19.2073 24.5239C19.2073 24.5406 19.1068 19.9533 23.0579 20.3718Z" fill="#8E4F3A"/>
<path d="M19.8266 24.2393C19.8266 24.2393 23.4094 25.3108 25.1338 24.9592C25.1338 24.9592 25.251 25.5954 25.4854 25.6289C25.7365 25.6624 25.8537 24.4235 25.8537 24.4235C25.8537 24.4235 25.9374 20.2882 22.204 20.2547C18.4705 20.2212 19.2239 24.7416 19.2239 24.7416L19.2741 25.5117C19.2741 25.4949 19.8099 25.7126 19.8266 24.2393Z" fill="#163342"/>
<path d="M21.0322 30.1492C21.0322 30.1492 22.1707 31.2207 23.8951 30.2329C23.8951 30.2329 23.3761 31.0867 22.4051 31.07C21.434 31.0532 21.0322 30.1492 21.0322 30.1492Z" fill="#633029"/>
<path d="M24.3805 31.9573C24.3805 31.9573 25.452 32.4595 25.904 32.5432C26.3561 32.6102 29.3194 35.0378 29.4199 35.2889C29.5203 35.5401 28.7167 37.5826 28.4153 38.5369C28.114 39.4912 26.8249 45.1834 26.942 45.5853C27.0592 45.9871 28.181 49.9884 28.2312 50.3065C20.4796 51.83 16.4281 50.5241 16.4281 50.5241C16.4281 50.5241 17.7339 46.6567 17.6837 45.9034C17.6335 45.15 16.9136 40.9142 16.3946 39.7256C15.8756 38.5369 15.005 35.5066 15.005 35.5066C15.005 35.5066 18.3869 32.8613 18.4873 32.6939C18.5878 32.5265 20.2787 32.1917 20.7475 31.9573H24.3805Z" fill="#8E4F3A"/>
<path d="M18.705 32.56C18.705 32.56 17.081 31.3881 16.4615 30.7687C15.8421 30.1492 13.1299 25.7963 12.5774 24.9424C12.0249 24.0886 11.4055 22.4311 11.0371 21.6945C10.6688 20.9913 6.98557 15.433 6.98557 15.433L5.5625 16.0357C5.5625 16.0357 8.10728 22.4646 8.76022 23.5361C9.41316 24.6076 10.0494 26.7841 10.5516 27.7216C11.0539 28.6759 13.7493 32.4763 14.2181 33.3469C14.6869 34.2175 15.1389 35.9252 15.1389 35.9252C15.1389 35.9252 19.3579 34.9207 18.705 32.56Z" fill="#8E4F3A"/>
<path d="M25.9041 32.5265C25.9041 32.5265 27.5448 37.5658 28.0973 39.7255C28.0973 39.7255 27.2434 43.5762 27.1262 44.1622C27.1262 44.1622 22.3045 43.2246 17.4661 44.3296C17.4661 44.3296 16.4281 39.7925 16.3276 39.5414C16.3276 39.5414 17.9851 36.5948 18.705 32.5767C18.705 32.5767 19.3245 32.2084 19.7932 32.2586C19.7932 32.2586 19.3412 37.2979 22.6561 37.2477C25.971 37.1975 24.9498 32.2084 24.9498 32.2084C24.9498 32.2084 25.5525 32.3591 25.9041 32.5265Z" fill="#FAA146"/>
<path d="M7.80599 16.6719C7.80599 16.6719 7.45441 16.1361 7.43767 15.8013C7.42093 15.5334 7.45441 15.1316 7.45441 14.8805C7.45441 14.6293 7.30373 13.5579 7.20328 13.3067C7.1698 13.2063 6.66754 12.6873 6.60057 12.4864C6.5336 12.2687 6.46663 11.8167 6.28247 11.8837C6.09831 11.9506 6.04808 12.3692 6.04808 12.3692C6.04808 12.3692 5.98111 12.185 5.79695 12.185C5.44537 12.2017 5.36166 12.3859 5.36166 12.3859C5.36166 12.3859 5.16076 12.2352 5.02682 12.2855C4.70872 12.3692 4.62501 12.5701 4.62501 12.5701C4.62501 12.5701 4.44085 12.5198 4.23995 12.637C3.98882 12.771 3.98882 13.0556 3.98882 13.0556C3.98882 13.0556 3.63724 13.156 3.60375 13.3569C3.58701 13.5579 3.67072 13.7253 3.7042 13.8759C3.73769 14.0434 4.32366 15.3325 5.16076 16.0524C5.81369 16.6551 6.31595 17.8271 6.31595 17.8271L7.80599 16.6719Z" fill="#8E4F3A"/>
<path d="M3.12353 15.2257L7.9574 12.9548L7.54451 12.0759L2.71065 14.3468L3.12353 15.2257Z" fill="#B85858"/>
<path d="M6.1318 12.4696C6.1318 12.4696 6.68429 13.608 6.51687 13.9931C6.3327 14.3949 6.11506 13.9931 6.11506 13.9931C6.11506 13.9931 6.34945 14.3782 6.04809 14.5958C5.74673 14.8135 5.51235 14.3279 5.51235 14.3279C5.51235 14.3279 5.6128 14.6795 5.24447 14.78C4.87615 14.8804 4.7757 14.4451 4.7757 14.4451C4.7757 14.4451 4.64176 15.0144 4.2567 14.7298C3.60376 14.261 3.60376 13.3402 3.60376 13.3402C3.60376 13.3402 3.6205 13.1225 3.98883 13.0388C3.98883 13.0388 3.98883 12.4863 4.62502 12.5533C4.62502 12.5533 4.99334 12.0176 5.37841 12.3691C5.34493 12.4026 5.76348 11.8501 6.1318 12.4696Z" fill="#693A2B"/>
<path d="M6.14835 9.67375L6.49993 9.50633C6.78454 9.37239 7.11938 9.48959 7.25332 9.7742L9.61394 14.6294C9.74787 14.914 9.63068 15.2488 9.34606 15.3828L8.99448 15.5502C8.70987 15.6841 8.37503 15.5669 8.24109 15.2823L5.88047 10.4271C5.74654 10.1425 5.86373 9.80768 6.14835 9.67375Z" fill="#EB7171"/>
<path d="M1.20963 11.984L1.7956 11.6994C2.01325 11.5989 2.28112 11.6827 2.38157 11.9003L4.84264 16.9899C4.94309 17.2075 4.85938 17.4754 4.64174 17.5758L4.05577 17.8605C3.83812 17.9609 3.57025 17.8772 3.4698 17.6595L1.00873 12.5867C0.891533 12.3523 0.991985 12.1012 1.20963 11.984Z" fill="#EB7171"/>
<path d="M36.619 16.6719C36.619 16.6719 36.9706 16.1361 36.9873 15.8013C37.0041 15.5334 36.9706 15.1316 36.9706 14.8805C36.9706 14.6293 37.1213 13.5579 37.2217 13.3067C37.2552 13.2063 37.7575 12.6873 37.8244 12.4864C37.8914 12.2687 37.9584 11.8167 38.1425 11.8837C38.3267 11.9506 38.3769 12.3692 38.3769 12.3692C38.3769 12.3692 38.4439 12.185 38.6281 12.185C38.9796 12.2017 39.0634 12.3859 39.0634 12.3859C39.0634 12.3859 39.2643 12.2352 39.3982 12.2855C39.7163 12.3692 39.8 12.5701 39.8 12.5701C39.8 12.5701 39.9842 12.5198 40.1851 12.637C40.4362 12.771 40.4362 13.0556 40.4362 13.0556C40.4362 13.0556 40.7878 13.156 40.8213 13.3569C40.838 13.5579 40.7543 13.7253 40.7208 13.8759C40.6873 14.0434 40.1014 15.3325 39.2643 16.0524C38.5778 16.6384 38.0756 17.8103 38.0756 17.8103L36.619 16.6719Z" fill="#8E4F3A"/>
<path d="M41.7104 14.353L36.8766 12.0822L36.4637 12.961L41.2976 15.2319L41.7104 14.353Z" fill="#B85858"/>
<path d="M38.2931 12.4696C38.2931 12.4696 37.7406 13.608 37.9081 13.9931C38.0922 14.3949 38.3099 13.9931 38.3099 13.9931C38.3099 13.9931 38.0755 14.3782 38.3768 14.5958C38.6782 14.8135 38.9126 14.3279 38.9126 14.3279C38.9126 14.3279 38.8121 14.6795 39.1805 14.78C39.5488 14.8804 39.6492 14.4451 39.6492 14.4451C39.6492 14.4451 39.7832 15.0144 40.1682 14.7298C40.8212 14.261 40.8212 13.3402 40.8212 13.3402C40.8212 13.3402 40.8044 13.1225 40.4361 13.0388C40.4361 13.0388 40.4361 12.4863 39.7999 12.5533C39.7999 12.5533 39.4316 12.0176 39.0465 12.3691C39.08 12.4026 38.6614 11.8501 38.2931 12.4696Z" fill="#693A2B"/>
<path d="M38.2764 9.67375L37.9248 9.50633C37.6402 9.37239 37.3053 9.48959 37.1714 9.7742L34.8108 14.6294C34.6768 14.914 34.794 15.2488 35.0786 15.3828L35.4302 15.5502C35.7148 15.6841 36.0497 15.5669 36.1836 15.2823L38.5442 10.4271C38.6782 10.1425 38.561 9.80768 38.2764 9.67375Z" fill="#EB7171"/>
<path d="M43.2153 11.984L42.6294 11.6994C42.4117 11.5989 42.1439 11.6827 42.0434 11.9003L39.5823 16.9899C39.4819 17.2075 39.5656 17.4754 39.7832 17.5758L40.3692 17.8605C40.5869 17.9609 40.8547 17.8772 40.9552 17.6595L43.4163 12.57C43.5334 12.3523 43.433 12.1012 43.2153 11.984Z" fill="#EB7171"/>
</svg>
