<svg width="328" height="95" viewBox="0 0 328 95" fill="none" xmlns="http://www.w3.org/2000/svg">
<path d="M307.225 48.5182C307.225 48.5182 307.752 49.9234 307.981 50.3626C308.209 50.8017 313.127 60.1994 313.549 62.3951C313.97 64.5908 315.569 69.8254 315.991 70.4578C316.412 71.0902 317.782 75.1654 318.467 78.5205C319.152 81.8755 320.61 87.6195 320.909 88.3222C321.208 89.0248 318.274 89.0599 318.274 89.0599C318.274 89.0599 314.006 80.5581 313.057 78.9947C312.109 77.4314 311.23 74.7438 311.107 73.0224C310.984 71.301 309.772 70.4051 308.701 69.1052C307.629 67.8054 302.482 57.9159 301.534 57.02C300.585 56.1242 299.988 56.1944 299.988 56.1944V49.0276L307.225 48.5182Z" fill="#2F4563"/>
<path d="M293.085 48.5182C293.085 48.5182 292.558 49.9234 292.329 50.3626C292.101 50.8017 286.638 60.7791 286.216 62.9748C285.795 65.1705 284.741 69.8254 284.319 70.4578C283.898 71.0902 282.528 75.1654 281.843 78.5205C281.158 81.8755 279.7 87.6195 279.401 88.3222C279.102 89.0248 282.036 89.0599 282.036 89.0599C282.036 89.0599 286.304 80.5581 287.253 78.9947C288.201 77.4314 289.08 74.7438 289.203 73.0224C289.326 71.301 290.538 70.4051 291.609 69.1052C292.681 67.8054 297.827 57.9159 298.776 57.02C299.725 56.1242 300.339 56.1944 300.339 56.1944L300.322 49.0276L293.085 48.5182Z" fill="#2F4563"/>
<path d="M321.102 87.936C321.102 87.936 322.156 89.5345 322.982 89.9912C323.807 90.4304 326.846 91.6951 327.356 92.7315C327.707 93.4517 327.233 94.8921 324.299 94.4178C321.383 93.9435 320.382 92.3626 319.486 92.1869C318.608 92.0113 317.642 91.3262 317.571 90.0264C317.519 88.7265 318.046 88.9548 317.94 88.4806C317.817 87.9887 321.102 87.936 321.102 87.936Z" fill="#DBDFF0"/>
<path d="M279.331 87.936C279.331 87.936 278.277 89.5345 277.451 89.9912C276.626 90.4304 273.587 91.6951 273.077 92.7315C272.726 93.4517 273.2 94.8921 276.134 94.4178C279.05 93.9435 280.051 92.3626 280.947 92.1869C281.825 92.0113 282.791 91.3262 282.844 90.0264C282.897 88.7265 282.37 88.9548 282.475 88.4806C282.616 87.9887 279.331 87.936 279.331 87.936Z" fill="#DBDFF0"/>
<path d="M308.999 32.2347C308.226 29.5472 309.386 23.9261 309.386 23.9261C307.875 23.2762 305.925 23.8383 305.1 23.8383C304.256 23.8383 301.973 23.2059 301.973 23.2059H300.111H298.249C298.249 23.2059 295.948 23.8383 295.122 23.8383C294.279 23.8383 292.347 23.2586 290.836 23.9261C290.836 23.9261 292.013 29.6526 291.223 32.3401C291.223 32.3401 293.049 37.3639 293.489 38.1017C293.928 38.8394 293.489 41.5973 293.471 42.2823C293.453 43.266 293.295 46.0941 293.102 48.5182C293.102 48.5182 295.333 49.8532 300.111 49.9586C304.854 49.6599 307.243 48.5182 307.243 48.5182C306.944 45.6374 306.751 43.1957 306.628 42.2648C306.54 41.5797 306.294 38.857 306.733 38.1017C307.172 37.3464 308.999 32.2347 308.999 32.2347Z" fill="#E55353"/>
<path d="M309.386 23.9261C309.386 23.9261 310.668 24.5233 311.283 24.5585C311.88 24.5936 312.829 23.6802 313.988 23.7856C315.147 23.891 315.587 24.5058 316.676 24.4531C317.765 24.4004 318.134 24.172 318.221 23.768C318.292 23.364 319.679 20.9048 319.1 17.5146C318.52 14.1244 320.154 15.1608 320.154 15.1608C320.154 15.1608 321.752 18.0416 322.068 21.2385C322.384 24.4355 321.383 27.5446 321.331 27.9838C321.295 28.4229 321.049 29.0553 320.751 29.231C320.452 29.4066 316.64 29.7228 315.323 29.7931C314.006 29.8633 311.283 29.4242 310.563 29.916C309.825 30.4079 308.912 32.4455 308.912 32.4455C308.912 32.4455 307.647 26.1745 309.386 23.9261Z" fill="#EEA886"/>
<path d="M290.801 23.9261C290.801 23.9261 289.519 24.5233 288.904 24.5585C288.307 24.5936 287.358 23.6802 286.199 23.7856C285.04 23.891 284.6 24.5058 283.511 24.4531C282.422 24.4004 282.053 24.172 281.966 23.768C281.895 23.364 280.508 20.9048 281.087 17.5146C281.667 14.1244 280.033 15.1608 280.033 15.1608C280.033 15.1608 278.435 18.0416 278.119 21.2385C277.802 24.4355 278.804 27.5446 278.856 27.9838C278.892 28.4229 279.137 29.0553 279.436 29.231C279.735 29.4066 283.546 29.7228 284.864 29.7931C286.181 29.8633 288.904 29.4242 289.624 29.916C290.362 30.4079 291.205 32.305 291.205 32.305C291.205 32.305 292.54 26.1745 290.801 23.9261Z" fill="#EEA886"/>
<path d="M302.465 20.167C302.465 20.167 302.184 21.9411 302.763 23.1532C302.763 23.1532 303.396 25.9637 300.497 26.1569C297.617 26.3501 297.494 23.7504 297.494 23.7504C297.494 23.7504 298.161 22.8018 297.652 20.2899C297.125 17.778 302.465 20.167 302.465 20.167Z" fill="#EEA886"/>
<path d="M300.48 9.9438C300.48 9.9438 304.186 10.4532 303.765 16.408C303.326 22.3452 300.058 21.9236 299.83 21.9236C299.619 21.9236 296.563 22.0993 296.159 14.8798C296.159 14.8798 295.948 9.52222 300.48 9.9438Z" fill="#EEA886"/>
<path d="M303.782 14.7218C303.782 14.7218 304.186 14.2651 304.344 14.7218C304.502 15.1609 303.87 17.1107 303.817 17.2688C303.817 17.2688 303.747 17.4445 303.642 17.3566C303.554 17.2688 303.782 14.7218 303.782 14.7218Z" fill="#EEA886"/>
<path d="M296.247 14.8271C296.247 14.8271 295.843 14.388 295.684 14.8271C295.544 15.2838 296.229 17.2863 296.264 17.3742C296.264 17.3742 296.334 17.5498 296.44 17.4444C296.545 17.3566 296.247 14.8271 296.247 14.8271Z" fill="#EEA886"/>
<path d="M303.8 15.6351L303.29 16.3729C303.29 16.3729 303.273 14.7744 303.185 14.5285C303.097 14.2826 303.255 13.4043 303.185 13.2286C303.115 13.053 300.673 13.7732 296.615 13.457C296.615 13.457 297.09 14.8798 296.844 14.9852C296.58 15.0906 296.756 16.8472 296.756 16.8472L296.317 16.3553C296.317 16.3553 295.755 13.3516 295.79 12.8597C295.842 12.1922 295.544 9.08311 301.235 9.48712C301.868 9.53982 302.5 9.76817 303.027 10.1546C303.624 10.5938 304.239 11.2964 304.204 12.2801C304.151 13.5624 303.8 15.6351 303.8 15.6351Z" fill="#FCCCA2"/>
<path d="M297.88 21.0102C297.88 21.0102 299.566 22.8897 302.149 20.9224C302.149 20.9224 301.446 22.3979 299.918 22.4681C298.372 22.5384 297.88 21.0102 297.88 21.0102Z" fill="#A77860"/>
<path d="M295.667 23.7856C295.667 23.7856 295.755 30.566 300.093 30.7767V22.9951C300.093 22.9951 298.073 23.0654 295.667 23.7856Z" fill="#EEA886"/>
<path d="M304.538 23.7856C304.538 23.7856 304.45 30.566 300.093 30.7767V22.9951C300.093 22.9951 302.113 23.0654 304.538 23.7856Z" fill="#EEA886"/>
<path d="M317.747 20.4482C320.405 20.4482 322.56 18.2933 322.56 15.6352C322.56 12.977 320.405 10.8221 317.747 10.8221C315.089 10.8221 312.934 12.977 312.934 15.6352C312.934 18.2933 315.089 20.4482 317.747 20.4482Z" fill="#434343"/>
<path d="M317.747 17.9713C319.037 17.9713 320.083 16.9253 320.083 15.6351C320.083 14.3448 319.037 13.2988 317.747 13.2988C316.457 13.2988 315.411 14.3448 315.411 15.6351C315.411 16.9253 316.457 17.9713 317.747 17.9713Z" fill="#6B6B6B"/>
<path d="M282.545 20.4482C285.203 20.4482 287.358 18.2933 287.358 15.6352C287.358 12.977 285.203 10.8221 282.545 10.8221C279.887 10.8221 277.732 12.977 277.732 15.6352C277.732 18.2933 279.887 20.4482 282.545 20.4482Z" fill="#434343"/>
<path d="M282.545 17.9713C283.835 17.9713 284.881 16.9253 284.881 15.6351C284.881 14.3448 283.835 13.2988 282.545 13.2988C281.255 13.2988 280.209 14.3448 280.209 15.6351C280.209 16.9253 281.255 17.9713 282.545 17.9713Z" fill="#6B6B6B"/>
<path d="M220.006 14.799C220.006 14.799 220.134 13.9831 219.99 13.5991C219.862 13.2791 219.623 12.8472 219.495 12.5592C219.367 12.2712 218.983 10.9913 218.983 10.6553C218.983 10.5273 219.319 9.67937 219.287 9.40739C219.255 9.13541 219.095 8.59144 219.351 8.55944C219.607 8.54345 219.894 8.99142 219.894 8.99142C219.894 8.99142 219.926 8.75143 220.15 8.67144C220.582 8.51145 220.742 8.68744 220.742 8.68744C220.742 8.68744 220.902 8.39945 221.11 8.36746C221.542 8.30346 221.75 8.52745 221.75 8.52745C221.75 8.52745 221.942 8.36746 222.23 8.38346C222.614 8.41545 222.742 8.73543 222.742 8.73543C222.742 8.73543 223.238 8.65544 223.366 8.86342C223.494 9.08741 223.494 9.2954 223.542 9.50338C223.59 9.69537 223.558 11.4553 222.918 12.7032C222.39 13.7111 222.358 15.295 222.358 15.295L220.006 14.799Z" fill="#EEA886"/>
<path d="M187.561 14.7992C187.561 14.7992 187.433 13.9832 187.577 13.5992C187.705 13.2793 187.945 12.8473 188.073 12.5593C188.201 12.2713 188.585 10.9914 188.585 10.6554C188.585 10.5274 188.249 9.6795 188.281 9.40751C188.313 9.13553 188.473 8.59157 188.217 8.55957C187.961 8.54357 187.673 8.99154 187.673 8.99154C187.673 8.99154 187.689 8.73556 187.465 8.65556C187.033 8.49557 186.809 8.65556 186.809 8.65556C186.809 8.65556 186.649 8.38358 186.441 8.36758C186.009 8.30359 185.801 8.47957 185.801 8.47957C185.801 8.47957 185.609 8.33558 185.305 8.35158C184.921 8.38358 184.777 8.70356 184.777 8.70356C184.777 8.70356 184.297 8.63956 184.153 8.84755C184.025 9.07154 184.041 9.29552 183.993 9.48751C183.945 9.6795 183.977 11.4394 184.617 12.6873C185.145 13.6952 185.177 15.2791 185.177 15.2791L187.561 14.7992Z" fill="#EEA886"/>
<path d="M232.918 9.47144H174.873V10.6874H232.918V9.47144Z" fill="#6392D1"/>
<path d="M199.192 36.2856C199.192 36.2856 197.624 37.1176 196.712 37.1816C195.784 37.2456 193.704 35.9337 192.856 34.7817C192.008 33.6298 192.008 33.5178 191.032 32.4939C190.056 31.4699 188.777 28.6221 188.457 27.4702C188.137 26.3023 186.777 23.9344 186.633 23.4065C186.489 22.8785 185.833 20.6226 185.561 19.4707C185.273 18.2228 185.113 14.335 185.113 14.335L187.513 14.1591C187.513 14.1591 189.577 19.5347 190.296 20.9906C191.032 22.4305 190.616 23.3265 191.352 24.4624C192.072 25.5983 194.6 28.3981 195.224 30.094C195.848 31.7899 197.32 32.0299 198.168 33.8858C198.984 35.7097 199.192 36.2856 199.192 36.2856Z" fill="#EEA886"/>
<path d="M208.391 36.4136C208.391 36.4136 209.959 37.2455 210.871 37.3095C211.127 37.3255 211.479 37.2455 211.863 37.0695C211.927 37.0375 211.991 37.0056 212.071 36.9736C213.207 36.4456 214.327 35.4857 214.759 34.8777C215.591 33.7578 215.607 33.6298 216.567 32.6058C217.095 32.0619 217.687 31.0059 218.199 29.95C218.631 29.0221 218.999 28.1261 219.143 27.5822C219.463 26.4142 220.822 24.0464 220.966 23.5024C221.99 19.6147 222.278 20.0146 222.454 14.351L220.07 14.223C220.07 14.223 218.039 19.6147 217.303 21.0706C216.567 22.5105 216.983 23.4064 216.263 24.5424C215.607 25.5823 213.463 27.9821 212.615 29.678C212.535 29.854 212.455 30.014 212.391 30.174C212.183 30.718 211.895 31.1179 211.559 31.4699C210.871 32.1899 210.007 32.7178 209.447 33.9657C208.615 35.8376 208.391 36.4136 208.391 36.4136Z" fill="#EEA886"/>
<path d="M223.062 88.7943C222.774 88.1383 221.446 82.8427 220.807 79.7549C220.167 76.6671 218.903 72.9073 218.519 72.3313C218.135 71.7394 216.647 66.9237 216.263 64.8918C215.879 62.86 211.351 54.2045 211.143 53.8045C210.935 53.3886 210.455 52.1086 210.455 52.1086L203.928 52.5886L197.4 52.1086C197.4 52.1086 196.92 53.4046 196.712 53.8045C196.504 54.2205 191.464 63.4039 191.08 65.4358C190.696 67.4677 189.721 71.7554 189.337 72.3313C188.953 72.9233 187.689 76.6671 187.049 79.7549C186.409 82.8427 185.081 88.1383 184.793 88.7943C184.505 89.4502 187.225 89.4822 187.225 89.4822C187.225 89.4822 191.16 81.6427 192.04 80.2028C192.92 78.7629 193.72 76.2831 193.832 74.6992C193.944 73.1153 195.064 72.2993 196.04 71.0834C197.032 69.8835 201.768 60.7641 202.648 59.9481C203.688 58.9722 204.184 59.0042 205.192 59.9481C206.071 60.7801 210.823 69.8835 211.799 71.0834C212.791 72.2833 213.911 73.1153 214.007 74.6992C214.119 76.2831 214.919 78.7629 215.799 80.2028C216.679 81.6427 220.615 89.4822 220.615 89.4822C220.615 89.4822 223.334 89.4502 223.062 88.7943Z" fill="#2F4563"/>
<path d="M222.854 88.1704C222.854 88.1704 224.198 89.9303 224.966 90.3463C225.734 90.7622 228.534 91.9142 228.998 92.8741C229.318 93.5461 228.886 94.858 226.182 94.426C223.494 93.994 222.566 92.5381 221.75 92.3621C220.934 92.1862 220.038 91.5622 219.99 90.3623C219.942 89.1623 220.422 89.3863 220.326 88.9384C220.214 88.5064 222.854 88.1704 222.854 88.1704Z" fill="#5279AD"/>
<path d="M184.985 88.25C184.985 88.25 183.769 89.9299 183.001 90.3459C182.233 90.7618 179.433 91.9138 178.969 92.8737C178.649 93.5457 179.081 94.8576 181.785 94.4256C184.473 93.9936 185.401 92.5377 186.217 92.3617C187.033 92.1857 187.929 91.5618 187.977 90.3619C188.025 89.1619 187.545 89.3859 187.641 88.938C187.753 88.506 184.985 88.25 184.985 88.25Z" fill="#5279AD"/>
<path d="M212.071 37.1017C211.351 34.6219 212.439 29.4382 212.439 29.4382C211.047 28.8302 209.255 29.3582 208.487 29.3582C207.719 29.3582 205.591 28.7662 205.591 28.7662H203.879H202.168C202.168 28.7662 200.04 29.3582 199.272 29.3582C198.504 29.3582 196.712 28.8302 195.32 29.4382C195.32 29.4382 196.408 34.7179 195.688 37.1817C195.688 37.1817 197.368 41.8054 197.768 42.4934C198.168 43.1813 197.768 45.7091 197.752 46.3491C197.736 47.261 197.592 49.8689 197.4 52.0927C197.4 52.0927 199.464 53.3247 203.863 53.4206C208.231 53.1327 210.439 52.0927 210.439 52.0927C210.167 49.4369 209.991 47.197 209.879 46.3171C209.799 45.6771 209.575 43.1653 209.975 42.4774C210.391 41.8214 212.071 37.1017 212.071 37.1017Z" fill="#E55353"/>
<path d="M216.663 29.3261C217.367 29.3901 217.783 29.6621 218.263 29.822C218.231 29.87 218.215 29.934 218.183 29.982C217.687 31.038 217.079 32.0939 216.551 32.6379C215.623 33.6138 215.575 33.7738 214.839 34.7817C214.247 34.7817 213.751 34.8297 213.511 35.0057C213.031 35.3257 212.455 36.3976 212.167 36.9576C212.055 37.1816 211.991 37.3416 211.991 37.3416C211.991 37.3416 211.975 37.2456 211.943 37.0696C211.799 36.2056 211.367 33.4538 211.719 31.3579C211.847 30.606 212.071 29.934 212.439 29.4541C212.439 29.4541 212.535 29.5021 212.695 29.5661C213.079 29.726 213.783 30.014 214.183 30.046C214.727 30.062 215.591 29.2301 216.663 29.3261Z" fill="#EEA886"/>
<path d="M195.672 37.1816C195.672 37.1816 195.608 37.0536 195.512 36.8616C195.256 36.3336 194.712 35.3097 194.216 34.9897C193.96 34.8137 193.432 34.7657 192.824 34.7657C191.992 33.6458 191.976 33.5178 191.017 32.4939C190.489 31.9499 189.897 30.894 189.385 29.838C189.913 29.678 190.329 29.3901 191.065 29.3261C192.136 29.2301 193 30.078 193.56 30.03C193.928 29.998 194.584 29.758 194.968 29.582C195.16 29.5021 195.304 29.4381 195.304 29.4381C195.672 29.918 195.896 30.606 196.024 31.3739C196.344 33.5178 195.848 36.7976 195.672 37.1816Z" fill="#EEA886"/>
<path d="M206.055 25.9823C206.055 25.9823 205.815 27.8061 206.359 28.9261C206.359 28.9261 206.903 31.3259 204.248 31.5019C201.592 31.6779 201.464 29.294 201.464 29.294C201.464 29.294 202.088 28.4301 201.608 26.1103C201.144 23.7744 206.055 25.9823 206.055 25.9823Z" fill="#EEA886"/>
<path d="M204.264 16.559C204.264 16.559 207.703 17.039 207.303 22.5107C206.903 27.9823 203.88 27.5983 203.672 27.5983C203.464 27.5983 200.648 27.7583 200.28 21.1028C200.264 21.1028 200.056 16.1751 204.264 16.559Z" fill="#EEA886"/>
<path d="M207.271 20.9586C207.271 20.9586 207.639 20.5426 207.783 20.9586C207.927 21.3745 207.351 23.1664 207.303 23.3104C207.303 23.3104 207.239 23.4704 207.143 23.3904C207.047 23.2944 207.271 20.9586 207.271 20.9586Z" fill="#EEA886"/>
<path d="M200.328 21.0546C200.328 21.0546 199.96 20.6546 199.816 21.0546C199.688 21.4706 200.328 23.3264 200.36 23.3904C200.36 23.3904 200.424 23.5504 200.52 23.4544C200.6 23.3744 200.328 21.0546 200.328 21.0546Z" fill="#EEA886"/>
<path d="M207.335 21.8066L206.855 22.4785C206.855 22.4785 206.839 21.0066 206.759 20.7826C206.679 20.5587 206.823 19.7427 206.759 19.5827C206.695 19.4227 204.424 20.0787 200.68 19.7907C200.68 19.7907 201.128 21.1026 200.888 21.1986C200.648 21.2946 200.808 22.9105 200.808 22.9105L200.392 22.4625C200.392 22.4625 199.88 19.6947 199.912 19.2307C199.96 18.6068 199.688 15.743 204.952 16.1269C205.559 16.1749 206.135 16.3829 206.631 16.7349C207.175 17.1349 207.751 17.7908 207.719 18.6868C207.671 19.8867 207.335 21.8066 207.335 21.8066Z" fill="#E8734D"/>
<path d="M201.832 26.7663C201.832 26.7663 203.384 28.5102 205.767 26.6863C205.767 26.6863 205.127 28.0462 203.704 28.1102C202.28 28.1582 201.832 26.7663 201.832 26.7663Z" fill="#A77860"/>
<path d="M199.784 29.3102C199.784 29.3102 199.864 35.5498 203.88 35.7418V28.5742C203.88 28.5902 202.008 28.6542 199.784 29.3102Z" fill="#EEA886"/>
<path d="M207.959 29.3102C207.959 29.3102 207.879 35.5498 203.863 35.7418V28.5742C203.879 28.5902 205.735 28.6542 207.959 29.3102Z" fill="#EEA886"/>
<path d="M219.815 9.15139C219.815 9.15139 219.735 10.7193 220.167 11.0713C220.599 11.4232 220.663 10.8633 220.663 10.8633C220.663 10.8633 220.583 11.4232 221.062 11.5192C221.542 11.6152 221.574 10.9593 221.574 10.9593C221.574 10.9593 221.638 11.3912 222.15 11.3272C222.662 11.2633 222.55 10.7033 222.55 10.7033C222.55 10.7033 223.014 11.2633 223.334 10.7673C223.878 9.91934 223.398 8.86341 223.398 8.86341C223.398 8.86341 223.254 8.62342 222.774 8.71942C222.774 8.71942 222.47 8.09546 221.75 8.49543C221.75 8.49543 221.03 8.07946 220.742 8.68742C220.742 8.67142 219.943 8.27145 219.815 9.15139Z" fill="#D6926F"/>
<path d="M187.753 9.15139C187.753 9.15139 187.833 10.7193 187.401 11.0713C186.969 11.4232 186.905 10.8633 186.905 10.8633C186.905 10.8633 186.985 11.4232 186.505 11.5192C186.025 11.6152 185.993 10.9593 185.993 10.9593C185.993 10.9593 185.929 11.3912 185.417 11.3272C184.905 11.2633 185.017 10.7033 185.017 10.7033C185.017 10.7033 184.553 11.2633 184.233 10.7673C183.689 9.91934 184.169 8.86341 184.169 8.86341C184.169 8.86341 184.313 8.62342 184.793 8.71942C184.793 8.71942 185.097 8.09546 185.817 8.49543C185.817 8.49543 186.537 8.07946 186.825 8.68742C186.825 8.67142 187.625 8.27145 187.753 9.15139Z" fill="#D6926F"/>
<path d="M235.078 0H232.006V20.3187H235.078V0Z" fill="#5279AD"/>
<path d="M238.149 2.06396H234.806V18.2549H238.149V2.06396Z" fill="#5279AD"/>
<path d="M241.237 4.25574H237.813V16.079H241.237V4.25574Z" fill="#5279AD"/>
<path d="M175.961 0H172.89V20.3187H175.961V0Z" fill="#5279AD"/>
<path d="M173.45 2.06396H169.818V18.2549H173.45V2.06396Z" fill="#5279AD"/>
<path d="M170.186 4.25574H166.746V16.079H170.186V4.25574Z" fill="#5279AD"/>
<path d="M109.873 22.2361C109.873 22.2361 112.499 21.9639 113.428 24.4936C114.372 27.0234 115.253 27.856 115.365 29.1849C115.813 34.5646 118.327 33.3478 117.623 36.4379C116.918 39.528 116.422 40.0084 116.422 40.0084L110.418 38.8396L104.333 38.8556C104.333 38.8556 106.719 37.6708 106.175 35.141C105.646 32.6113 104.333 28.4644 105.07 25.6464C105.838 22.7965 108.304 22.4442 109.873 22.2361Z" fill="#163342"/>
<path d="M109.489 90.1072C117.377 90.1072 123.771 83.713 123.771 75.8253C123.771 67.9377 117.377 61.5435 109.489 61.5435C101.601 61.5435 95.207 67.9377 95.207 75.8253C95.207 83.713 101.601 90.1072 109.489 90.1072Z" fill="#EB4747"/>
<path d="M129.439 87.193C129.439 87.193 129.759 88.3619 129.439 89.4506C129.118 90.5394 128.91 92.3646 129.679 93.3733C130.447 94.382 131.712 94.7983 133.537 94.302C135.363 93.8056 135.042 92.3806 134.434 91.1638C133.826 89.947 132.353 87.5613 132.144 86.7768C131.936 85.9602 129.439 87.193 129.439 87.193Z" fill="#FAA146"/>
<path d="M129.583 88.3137C129.583 88.3137 130.768 88.8101 132.625 87.8334L132.145 86.7446L129.439 87.1769L129.583 88.3137Z" fill="#8E4F3A"/>
<path d="M131.392 83.1104C131.008 81.2851 130.047 73.2635 129.407 71.4223C128.782 69.565 127.357 67.2434 126.765 66.3948C126.172 65.5462 123.178 63.0645 122.17 61.8957C121.161 60.7269 117.366 58.1171 117.014 57.7008C116.662 57.2845 116.39 56.7081 116.39 56.7081C113.364 56.66 109.441 57.1244 109.441 57.1244C109.441 57.1244 105.918 56.7241 102.892 56.7721C102.892 56.7721 102.556 57.3005 102.22 57.7168C101.868 58.1331 97.7207 60.7429 96.712 61.9117C95.7033 63.0805 92.7253 65.5622 92.1169 66.4108C91.5245 67.2594 90.0995 69.581 89.475 71.4383C88.8506 73.2956 87.97 81.4612 87.5857 83.2865C87.2015 85.1117 86.6251 86.7609 86.6251 86.7609C86.6251 86.7609 87.5217 87.5294 89.443 87.2252C89.443 87.2252 91.9888 79.4918 93.1576 77.3143C94.3264 75.1528 94.7907 70.8939 95.6393 70.1414C96.4879 69.3889 99.482 68.4762 102.492 66.9071C105.502 65.3381 106.159 64.0412 107.231 64.0091C108.304 63.9771 108.993 64.0732 109.425 64.0412C109.873 64.0732 110.562 63.9771 111.618 64.0091C112.691 64.0412 113.348 65.322 116.358 66.9071C119.368 68.4762 122.362 69.3889 123.21 70.1414C124.059 70.8939 124.523 75.1368 125.692 77.3143C126.861 79.4758 129.407 87.2252 129.407 87.2252C131.328 87.5454 132.113 86.7929 132.113 86.7929C132.113 86.7929 131.76 84.9356 131.392 83.1104Z" fill="#8E4F3A"/>
<path d="M132.625 87.8336C132.625 87.8336 132.513 87.9937 132.113 87.9297C131.696 87.8656 130.736 87.4653 129.583 88.3139C129.583 88.3139 132.497 89.4988 132.625 87.8336Z" fill="#FAA146"/>
<path d="M86.6411 86.7448C86.6411 86.7448 85.8405 88.2658 84.9599 88.7462C84.0793 89.2105 80.3327 91.0037 80.813 92.5568C81.2774 94.0939 86.3529 93.7897 87.3135 92.5568C88.2902 91.324 89.0748 91.9324 89.363 90.7315C89.6512 89.5307 89.459 87.2091 89.459 87.2091C89.459 87.2091 88.6104 87.1771 88.002 86.985C87.4096 86.7928 87.3936 86.4726 86.6411 86.7448Z" fill="#FAA146"/>
<path d="M130.399 76.6258C127.838 76.7218 126.044 77.9066 126.044 77.9066C125.932 77.6665 125.836 77.4583 125.74 77.2822C124.571 75.1207 124.107 70.8618 123.258 70.1092C122.41 69.3567 119.416 68.4441 116.406 66.875C113.396 65.3059 112.739 64.009 111.666 63.977C110.594 63.945 109.905 64.041 109.473 64.009C109.025 64.041 108.336 63.945 107.279 63.977C106.207 64.009 105.55 65.2899 102.54 66.875C99.53 68.4441 96.5359 69.3567 95.6873 70.1092C94.8387 70.8618 94.3744 75.1047 93.2056 77.2822C93.1415 77.3943 93.0775 77.5224 93.0135 77.6505C91.1882 76.4657 88.6104 76.4977 88.5624 76.4977C88.8666 74.3042 89.2028 72.2387 89.475 71.4222C90.0994 69.5649 91.5244 67.2433 92.1168 66.3947C92.7092 65.5461 95.7033 63.0644 96.712 61.8956C97.7207 60.7268 101.868 58.1169 102.22 57.7007C102.572 57.2844 102.892 56.756 102.892 56.756C105.918 56.708 109.441 57.1082 109.441 57.1082C109.441 57.1082 113.364 56.6439 116.39 56.692C116.39 56.692 116.678 57.2684 117.014 57.6846C117.366 58.1009 121.161 60.7107 122.17 61.8796C123.178 63.0484 126.156 65.5301 126.765 66.3787C127.357 67.2273 128.782 69.5489 129.407 71.4061C129.695 72.2547 130.063 74.3842 130.399 76.6258Z" fill="#FCCCA2"/>
<path d="M128.446 31.3144C128.446 31.3144 128.67 30.5139 128.574 30.0976C128.494 29.7614 128.318 29.281 128.238 28.9768C128.158 28.6726 127.95 27.3117 127.998 26.9915C128.014 26.8474 128.43 26.0628 128.43 25.7746C128.43 25.4864 128.35 24.926 128.606 24.926C128.846 24.942 129.054 25.4384 129.054 25.4384C129.054 25.4384 129.07 25.1822 129.294 25.1182C129.727 25.0061 129.903 25.2142 129.903 25.2142C129.903 25.2142 130.095 24.958 130.287 24.958C130.703 24.958 130.88 25.1502 130.88 25.1502C130.88 25.1502 131.088 25.0221 131.36 25.0861C131.712 25.1662 131.824 25.5024 131.824 25.5024C131.824 25.5024 132.289 25.5024 132.385 25.7426C132.481 25.9828 132.433 26.2069 132.449 26.4151C132.481 26.6232 132.225 28.4004 131.456 29.5692C130.832 30.5139 130.591 32.115 130.591 32.115L128.446 31.3144Z" fill="#8E4F3A"/>
<path d="M133.787 26.6384L127.126 25.6003L126.936 26.8185L133.597 27.8566L133.787 26.6384Z" fill="#B85858"/>
<path d="M128.974 25.5825C128.974 25.5825 128.702 27.1515 129.054 27.5678C129.407 27.9841 129.551 27.4237 129.551 27.4237C129.551 27.4237 129.407 27.9841 129.839 28.1442C130.271 28.3043 130.399 27.6319 130.399 27.6319C130.399 27.6319 130.415 28.0802 130.896 28.0802C131.376 28.0802 131.344 27.5038 131.344 27.5038C131.344 27.5038 131.712 28.1282 132.081 27.6639C132.705 26.8794 132.385 25.7426 132.385 25.7426C132.385 25.7426 132.289 25.4704 131.824 25.5024C131.824 25.5024 131.616 24.8299 130.88 25.1502C130.88 25.1502 130.255 24.6378 129.919 25.1982C129.903 25.2142 129.199 24.7018 128.974 25.5825Z" fill="#693A2B"/>
<path d="M128.158 22.2201L127.261 22.06C126.989 22.012 126.717 22.2041 126.669 22.4763L125.468 29.6172C125.42 29.8894 125.612 30.1616 125.884 30.2096L126.781 30.3537C127.053 30.4018 127.325 30.2096 127.373 29.9374L128.574 22.7965C128.622 22.5243 128.446 22.2681 128.158 22.2201Z" fill="#EB7171"/>
<path d="M134.818 23.2609L133.922 23.1008C133.65 23.0527 133.377 23.2449 133.329 23.517L132.128 30.658C132.08 30.9302 132.273 31.2024 132.545 31.2504L133.441 31.3945C133.714 31.4425 133.986 31.2504 134.034 30.9782L135.235 23.8373C135.283 23.5651 135.091 23.3089 134.818 23.2609Z" fill="#EB7171"/>
<path d="M90.7398 31.3625C90.7398 31.3625 90.5157 30.4979 90.6117 30.0816C90.6918 29.7454 90.8679 29.265 90.948 28.9608C91.028 28.6566 91.2362 27.2957 91.1881 26.9755C91.1721 26.8314 90.7558 26.0468 90.7558 25.7586C90.7558 25.4704 90.8359 24.91 90.5797 24.91C90.3396 24.926 90.1314 25.4224 90.1314 25.4224C90.1314 25.4224 90.1154 25.1662 89.8913 25.1022C89.459 24.9901 89.2828 25.1982 89.2828 25.1982C89.2828 25.1982 89.0907 24.9421 88.8986 24.9421C88.4823 24.9421 88.3062 25.1342 88.3062 25.1342C88.3062 25.1342 88.098 25.0061 87.8258 25.0701C87.4736 25.1502 87.3615 25.4864 87.3615 25.4864C87.3615 25.4864 86.8972 25.4864 86.8011 25.7266C86.705 25.9668 86.7531 26.1909 86.7371 26.3991C86.705 26.6072 86.9612 28.3844 87.7298 29.5532C88.3542 30.4979 88.5944 32.099 88.5944 32.099L90.7398 31.3625Z" fill="#8E4F3A"/>
<path d="M85.6049 27.8597L92.2653 26.8217L92.0755 25.6035L85.415 26.6415L85.6049 27.8597Z" fill="#B85858"/>
<path d="M90.2114 25.5825C90.2114 25.5825 90.4836 27.1515 90.1314 27.5678C89.7792 27.9841 89.6351 27.4237 89.6351 27.4237C89.6351 27.4237 89.7792 27.9841 89.3469 28.1442C88.9146 28.3043 88.7865 27.6319 88.7865 27.6319C88.7865 27.6319 88.7705 28.0802 88.2901 28.0802C87.8098 28.0802 87.8418 27.5038 87.8418 27.5038C87.8418 27.5038 87.4736 28.1282 87.1053 27.6639C86.4809 26.8794 86.8011 25.7426 86.8011 25.7426C86.8011 25.7426 86.8972 25.4704 87.3615 25.5024C87.3615 25.5024 87.5696 24.8299 88.3061 25.1502C88.3061 25.1502 88.9306 24.6378 89.2668 25.1982C89.2828 25.2142 89.9873 24.7018 90.2114 25.5825Z" fill="#693A2B"/>
<path d="M91.028 22.2201L91.9247 22.06C92.1968 22.012 92.469 22.2041 92.5171 22.4763L93.7179 29.6172C93.7659 29.8894 93.5738 30.1616 93.3016 30.2096L92.405 30.3537C92.1328 30.4018 91.8606 30.2096 91.8126 29.9374L90.6117 22.7965C90.5637 22.5243 90.7558 22.2681 91.028 22.2201Z" fill="#EB7171"/>
<path d="M84.3674 23.261L85.2641 23.1169C85.5363 23.0688 85.8084 23.261 85.8565 23.5332L87.0573 30.6741C87.1053 30.9463 86.9132 31.2185 86.641 31.2665L85.7444 31.4106C85.4722 31.4586 85.2 31.2665 85.152 30.9943L83.9512 23.8534C83.9031 23.5652 84.0953 23.309 84.3674 23.261Z" fill="#EB7171"/>
<path d="M107.584 33.0438C107.584 33.0438 107.888 35.3174 107.744 36.8864C107.584 38.4555 112.035 37.3027 112.035 37.3027C112.035 37.3027 111.762 33.9084 112.147 32.6755C112.531 31.4587 107.584 33.0438 107.584 33.0438Z" fill="#8E4F3A"/>
<path d="M111.939 35.7173C111.939 35.7173 113.172 36.2937 113.684 36.3898C114.196 36.4698 117.623 39.2558 117.735 39.544C117.847 39.8322 116.934 42.1858 116.582 43.2746C116.23 44.3633 114.757 50.9439 114.885 51.4082C115.029 51.8725 116.326 56.3556 116.422 56.8039C107.488 58.5651 102.684 57.0761 102.684 57.0761C102.684 57.0761 104.285 52.657 104.221 51.7924C104.157 50.9279 103.325 46.0445 102.732 44.6675C102.124 43.2906 101.131 39.8162 101.131 39.8162C101.131 39.8162 105.038 36.7741 105.15 36.5659C105.262 36.3578 107.408 35.9415 107.76 35.6853L111.939 35.7173Z" fill="#8E4F3A"/>
<path d="M113.7 36.39C113.7 36.39 115.589 42.202 116.23 44.6837C116.23 44.6837 115.237 49.1188 115.125 49.7913C115.125 49.7913 109.569 48.7185 103.997 49.9834C103.997 49.9834 102.796 44.7638 102.684 44.4756C102.684 44.4756 104.59 41.0813 105.438 36.438C105.438 36.438 106.159 36.0057 106.687 36.0698C106.687 36.0698 106.159 41.8818 109.985 41.8178C113.812 41.7537 112.627 36.0057 112.627 36.0057C112.627 36.0057 113.3 36.1819 113.7 36.39Z" fill="#FCCCA2"/>
<path d="M113.7 36.3901C113.7 36.3901 115.317 35.8457 117.558 36.6623C119.8 37.4788 119.544 37.3027 121.913 37.719C124.283 38.1513 125.372 38.4395 125.372 38.4395C125.372 38.4395 126.685 35.7496 127.293 34.6929C127.854 33.7162 128.654 30.546 128.654 30.546L130.816 30.9783C130.816 30.9783 129.935 35.9257 129.503 37.3507C128.302 41.2895 127.389 42.042 126.701 42.074C126.012 42.09 123.579 42.3302 121.865 41.9939C120.264 41.6897 118.343 41.4976 116.982 42.2181L113.7 36.3901Z" fill="#8E4F3A"/>
<path d="M105.422 36.4221C105.422 36.4221 103.869 35.8457 101.627 36.6623C99.3858 37.4788 99.642 37.3027 97.2723 37.719C94.9027 38.1513 93.8139 38.4395 93.8139 38.4395C93.8139 38.4395 92.501 35.7496 91.8926 34.6929C91.3322 33.7162 90.5317 30.546 90.5317 30.546L88.3702 30.9783C88.3702 30.9783 89.2508 35.9257 89.6831 37.3507C90.8839 41.2895 91.7965 42.042 92.485 42.074C93.1735 42.09 95.6072 42.3302 97.3204 41.9939C98.9215 41.6897 100.843 41.4976 102.204 42.2181L105.422 36.4221Z" fill="#8E4F3A"/>
<path d="M110.209 23.7092C110.209 23.7092 113.684 24.2055 113.171 29.3291C112.659 34.4526 109.601 34.0363 109.393 34.0363C109.185 34.0363 106.319 34.1484 106.079 27.8881C106.079 27.9041 105.966 23.2769 110.209 23.7092Z" fill="#8E4F3A"/>
<path d="M109.809 25.5665C109.809 25.5665 111.426 27.2636 112.179 28.1282C112.931 28.9928 113.011 30.658 113.011 30.658C113.011 30.658 114.276 29.1049 113.748 27.3117C113.219 25.5024 111.971 21.996 108.784 23.0847C105.614 24.1575 105.486 28.9128 105.87 31.2664C105.886 31.2504 107.311 26.0628 109.809 25.5665Z" fill="#163342"/>
<path d="M108.448 33.8122C108.448 33.8122 109.921 34.5167 111.362 33.476C111.362 33.476 110.962 34.3085 109.905 34.4206C108.848 34.5327 108.448 33.8122 108.448 33.8122Z" fill="#633029"/>
<path d="M21.316 16.4707C21.316 16.4707 20.349 12.6211 22.7391 10.6689C25.1109 8.71674 27.7564 9.41004 29.07 10.6689C30.3836 11.9278 32.0074 14.4638 30.4931 18.0763C28.9788 21.6887 28.6504 20.8312 29.3254 23.495C30.0005 26.1587 30.8215 28.0014 29.4714 29.2055C28.1213 30.4097 26.0596 30.0995 25.8589 28.5852C25.6582 27.0709 25.494 21.6887 25.3481 20.9042C25.2204 20.1014 21.316 16.4707 21.316 16.4707Z" fill="#1C4154"/>
<path d="M26.5523 22.9294C26.5523 22.9294 29.3072 24.0058 30.3107 24.1336C31.3141 24.2613 30.9492 27.2534 30.9492 27.2534C30.9492 27.2534 31.6608 29.3151 31.6243 30.6652C31.5513 32.4714 30.712 32.964 30.6391 33.0917C30.5661 33.2194 29.8363 37.5069 29.7633 38.255C29.6903 39.003 29.964 39.9517 30.1465 40.572C30.3289 41.2653 30.9492 43.8196 30.9492 43.8196C30.9492 43.8196 25.8772 45.3521 18.2327 43.9656C18.2327 43.9656 18.7253 41.9951 18.9077 41.0099C18.9989 40.4808 19.2909 39.4591 19.1631 38.4921C19.0354 37.5252 17.959 33.4384 17.9225 33.037C17.886 32.6538 15.7879 30.501 17.6671 27.9467C17.6671 27.9467 18.1597 25.283 18.2874 24.5714C18.2874 24.5714 21.5715 23.0754 22.429 22.9476C23.3229 22.8017 26.5523 22.9294 26.5523 22.9294Z" fill="#EEA886"/>
<path d="M30.3289 24.1334C30.3289 24.1334 31.6607 24.1699 32.6642 24.8997C33.6676 25.6295 34.3427 28.6034 34.5069 29.0777C34.6711 29.5703 36.5321 32.6355 36.8422 33.6024C37.1524 34.5694 37.3348 35.1897 37.4808 35.135C37.6267 35.0802 39.5607 32.0334 39.8708 31.3036C40.1992 30.4643 41.5311 26.8154 41.5311 26.8154L42.936 29.4244L43.0272 29.6433C43.0272 29.6433 41.6771 33.3105 41.2574 34.6241C40.8378 35.9377 39.8708 39.0211 39.4147 39.4407C38.9586 39.8604 37.1706 40.4442 36.2219 39.6779C35.2732 38.9299 33.0656 35.3904 32.5 34.2045C31.9344 33.0186 30.8397 31.0847 30.8397 31.0847C30.8397 31.0847 29.07 25.3741 30.3289 24.1334Z" fill="#EEA886"/>
<path d="M18.2874 24.553C18.2874 24.553 16.8825 24.5348 16.2257 25.1186C15.5689 25.7025 14.3283 27.1073 14.0364 28.3479C13.7444 29.5886 13.5802 31.8327 13.1788 33.0368C12.7957 34.2592 11.701 37.3973 11.1354 38.5285C10.5699 39.6779 10.059 44.4398 9.7306 45.5892C9.38395 46.7386 8.14331 50.5335 8.14331 50.5335L10.1137 51.537C10.1137 51.537 14.1276 42.7248 14.5107 41.3929C14.8939 40.061 14.9668 38.419 15.3317 37.4338C15.6966 36.4303 17.3022 32.7814 17.5393 32.0699C17.813 31.3948 20.5497 24.8632 18.2874 24.553Z" fill="#EEA886"/>
<path d="M18.032 44.4946C18.032 44.4946 17.3387 45.9176 16.8826 46.8846C16.4264 47.8516 14.7297 51.9749 14.0364 54.8211C13.3613 57.6672 11.847 62.6845 11.6646 64.1076C11.4639 65.5307 10.7888 67.7018 10.132 68.833C9.4752 69.9824 7.94265 73.3577 7.66898 75.547C7.39531 77.7364 5.69855 87.4061 5.69855 87.4061C5.69855 87.4061 6.66552 88.3183 8.48999 87.2237C8.48999 87.2237 11.8653 78.1743 12.6498 76.8607C13.4343 75.547 14.6567 72.0988 14.8391 70.8217C15.0033 69.5445 16.2805 68.1762 17.4481 65.257C18.6158 62.3379 23.3412 54 23.998 52.285C23.998 52.285 24.2169 51.5917 24.8737 51.8107L24.6183 44.4398L18.032 44.4946Z" fill="#285173"/>
<path d="M31.1499 44.4033C31.1499 44.4033 31.8979 45.9359 32.3358 46.9028C32.7919 47.8698 34.6894 52.1573 35.3827 55.0035C36.0577 57.8497 37.3714 62.7028 37.5538 64.1441C37.7545 65.5672 38.4295 67.7383 39.0864 68.8695C39.7432 70.0189 41.2757 73.3942 41.5494 75.5835C41.8231 77.7729 43.5198 87.4426 43.5198 87.4426C43.5198 87.4426 42.5529 88.3548 40.7284 87.2601C40.7284 87.2601 37.3531 78.2108 36.5686 76.8971C35.7841 75.5835 34.5617 72.1353 34.3792 70.8581C34.215 69.581 32.9379 68.2127 31.7702 65.2935C30.6026 62.3744 25.8772 54.0365 25.2204 52.3215C25.2204 52.3215 25.0562 51.5735 24.2899 51.8654L17.9772 44.5858L31.1499 44.4033Z" fill="#285173"/>
<path d="M22.1917 12.1649C22.1917 12.1649 20.6409 14.6279 21.6079 18.0762C22.5749 21.5244 23.9797 21.7251 25.1291 21.3785C26.5157 20.9589 27.8658 18.0397 28.0848 16.7443C28.3037 15.449 29.1794 12.3291 25.8224 11.9277C24.2899 11.7453 22.7391 11.8 22.1917 12.1649Z" fill="#EEA886"/>
<path d="M26.2786 20.3751C26.2786 20.3751 26.2603 24.1152 26.7712 25.1552C27.282 26.1951 22.1553 25.5566 22.1553 25.5566C22.1553 25.5566 22.7756 21.3238 22.5567 20.3203C22.3377 19.2986 26.2786 20.3751 26.2786 20.3751Z" fill="#EEA886"/>
<path d="M21.2978 15.8139C21.2978 15.8139 22.575 12.8218 23.8156 12.9312C23.8156 12.9312 26.2604 16.124 28.4133 17.3647C28.4133 17.3647 31.0588 13.0224 24.8373 11.1432C24.8373 11.125 21.0606 9.64718 21.2978 15.8139Z" fill="#1C4154"/>
<path d="M22.8121 20.6669C22.8121 20.6669 23.6331 21.6521 24.5271 21.5061C25.4211 21.3602 25.9319 20.9041 25.9319 20.9041C25.9319 20.9041 25.5123 21.8893 24.4359 21.8893C23.4871 21.871 22.8121 20.6669 22.8121 20.6669Z" fill="#A77860"/>
<path d="M28.9605 23.7869C28.9605 23.7869 30.566 26.3959 30.9492 27.2534C30.9492 27.2534 33.0473 31.2307 30.639 33.0917C30.639 33.0917 30.3836 35.1716 29.964 36.9048C29.964 36.9048 24.6365 35.8101 18.8712 37.069C18.8712 37.069 17.9225 33.493 17.9225 33.0187C17.9225 33.0187 15.6601 30.2455 17.667 27.9284C17.667 27.9284 19.455 24.316 19.601 23.9693C19.6192 23.9693 23.6878 21.3786 28.9605 23.7869Z" fill="#EB4747"/>
<path d="M45.8916 29.6433C47.7557 29.6433 49.2668 27.9035 49.2668 25.7572C49.2668 23.611 47.7557 21.8711 45.8916 21.8711C44.0275 21.8711 42.5163 23.611 42.5163 25.7572C42.5163 27.9035 44.0275 29.6433 45.8916 29.6433Z" fill="#D1C0BA"/>
<path d="M45.7639 27.9649C46.701 27.9649 47.4607 27.0909 47.4607 26.0127C47.4607 24.9346 46.701 24.0605 45.7639 24.0605C44.8268 24.0605 44.0671 24.9346 44.0671 26.0127C44.0671 27.0909 44.8268 27.9649 45.7639 27.9649Z" fill="#948884"/>
<path d="M43.0089 29.6433C43.0089 29.6433 44.1219 28.2932 44.7969 27.8735C45.4537 27.4539 46.147 26.8336 46.0558 26.195C45.9828 25.5382 45.2895 24.0239 44.8699 23.9692C44.4503 23.9144 42.8812 24.4435 42.8812 24.4435L41.5129 26.8336L43.0089 29.6433Z" fill="#EEA886"/>
<path d="M41.1845 29.2785C43.0486 29.2785 44.5598 27.5386 44.5598 25.3923C44.5598 23.2461 43.0486 21.5062 41.1845 21.5062C39.3204 21.5062 37.8093 23.2461 37.8093 25.3923C37.8093 27.5386 39.3204 29.2785 41.1845 29.2785Z" fill="#EDDAD3"/>
<path d="M40.9838 27.4905C41.9914 27.4905 42.8082 26.5511 42.8082 25.3923C42.8082 24.2336 41.9914 23.2942 40.9838 23.2942C39.9761 23.2942 39.1593 24.2336 39.1593 25.3923C39.1593 26.5511 39.9761 27.4905 40.9838 27.4905Z" fill="#CCBBB5"/>
<path d="M21.5897 23.1483C21.5897 23.1483 18.8165 29.2785 24.1075 29.4427C29.4167 29.6069 27.355 23.7139 27.2091 23.1483C27.2091 23.1483 25.0197 21.78 21.5897 23.1483Z" fill="#EEA886"/>
<path d="M8.78191 86.4754C8.78191 86.4754 8.49 86.7491 8.07037 86.6944C7.65074 86.6396 6.44659 86.1288 5.89925 86.3477C5.37015 86.5666 5.07824 88.9567 4.02004 89.5405C2.9801 90.1244 -0.157993 91.9488 0.0062092 93.4996C0.170412 95.0687 4.40318 94.649 5.49787 93.3537C6.59255 92.0583 7.54127 92.6969 8.41702 91.8029C9.31101 90.8906 8.63595 87.3694 8.78191 86.4754Z" fill="#CCBBB5"/>
<path d="M40.4365 86.4572C40.4365 86.4572 40.7466 86.7491 41.1662 86.6944C41.5859 86.6396 42.79 86.1288 43.3374 86.3477C43.8665 86.5666 44.1584 88.9567 45.2166 89.5405C46.2565 90.1244 49.3946 91.9488 49.2304 93.4996C49.0662 95.0687 44.8334 94.649 43.7387 93.3537C42.6441 92.0583 41.6953 92.6969 40.8196 91.8029C39.9256 90.8906 40.5642 87.3512 40.4365 86.4572Z" fill="#CCBBB5"/>
<path d="M18.2326 43.9289C18.2326 43.9289 24.0345 44.0566 30.9492 43.783L31.2594 44.6405C31.2594 44.6405 26.1508 45.6074 17.9042 44.7499L18.2326 43.9289Z" fill="#3B78AB"/>
<path d="M8.65413 49.7491C8.65413 49.7491 8.2345 50.187 8.10679 50.5702C7.99732 50.8803 7.61418 51.2999 7.43173 51.5371C7.24929 51.7743 6.59248 52.8872 6.50125 53.1792C6.46476 53.3069 6.55599 54.1461 6.44652 54.4015C6.33705 54.6387 6.08163 55.1131 6.30056 55.2043C6.5195 55.2773 6.88439 54.9306 6.88439 54.9306C6.88439 54.9306 6.81141 55.1678 6.97562 55.2955C7.30402 55.551 7.5412 55.4232 7.5412 55.4232C7.5412 55.4232 7.61418 55.7152 7.77838 55.7699C8.14328 55.9159 8.36221 55.8064 8.36221 55.8064C8.36221 55.8064 8.48993 55.9888 8.7636 56.0253C9.11025 56.0801 9.31094 55.8246 9.31094 55.8246C9.31094 55.8246 9.71232 56.0071 9.89477 55.8246C10.0772 55.6422 10.0955 55.4415 10.1867 55.259C10.2779 55.0948 10.7158 53.4346 10.4604 52.1574C10.2049 50.8621 10.9347 49.7856 10.9347 49.7856L8.65413 49.7491Z" fill="#EEA886"/>
<path d="M11.6959 54.4339L5.5061 52.9414L5.2324 54.0765L11.4222 55.569L11.6959 54.4339Z" fill="#D1C0BA"/>
<path d="M6.82972 54.7665C6.82972 54.7665 7.15813 53.2887 7.61424 53.0515C8.07036 52.8143 7.99738 53.3617 7.99738 53.3617C7.99738 53.3617 8.07036 52.8326 8.50823 52.8508C8.94611 52.869 8.81839 53.4894 8.81839 53.4894C8.81839 53.4894 8.9826 53.1062 9.40222 53.2704C9.82185 53.4346 9.58467 53.9272 9.58467 53.9272C9.58467 53.9272 10.132 53.5076 10.278 54.055C10.5334 54.9672 9.85834 55.8429 9.85834 55.8429C9.85834 55.8429 9.67589 56.0436 9.27451 55.8429C9.27451 55.8429 8.85488 56.3538 8.32579 55.8247C8.32579 55.8247 7.596 56.0436 7.50477 55.4233C7.52302 55.4233 6.72025 55.624 6.82972 54.7665Z" fill="#DB9C7C"/>
<path d="M4.85924 57.3934L4.1477 57.2292C3.85579 57.1562 3.67334 56.8643 3.74632 56.5724L5.24238 50.0408C5.31536 49.7489 5.60728 49.5664 5.89919 49.6394L6.61074 49.8036C6.90265 49.8766 7.0851 50.1685 7.01212 50.4604L5.51605 56.992C5.44307 57.2839 5.15116 57.4664 4.85924 57.3934Z" fill="#EDDAD3"/>
<path d="M11.0442 58.8896L10.3326 58.7254C10.0407 58.6524 9.85827 58.3605 9.93125 58.0686L11.4273 51.537C11.5003 51.2451 11.7922 51.0626 12.0841 51.1356L12.7957 51.2998C13.0876 51.3728 13.27 51.6647 13.1971 51.9566L11.6827 58.47C11.628 58.7619 11.3361 58.9443 11.0442 58.8896Z" fill="#EDDAD3"/>
</svg>
