<svg width="264" height="111" viewBox="0 0 264 111" fill="none" xmlns="http://www.w3.org/2000/svg">
<path d="M227.643 9.42466C227.643 9.42466 226.386 4.4172 229.494 1.87787C232.58 -0.661464 236.021 0.240355 237.729 1.87787C239.438 3.51538 241.55 6.81414 239.581 11.5131C237.611 16.212 237.184 15.0966 238.062 18.5615C238.94 22.0264 240.008 24.4233 238.252 25.9896C236.495 27.556 233.814 27.1525 233.553 25.1828C233.292 23.213 233.078 16.212 232.888 15.1916C232.722 14.1473 227.643 9.42466 227.643 9.42466Z" fill="#1C4154"/>
<path d="M234.454 17.8259C234.454 17.8259 238.038 19.2261 239.343 19.3923C240.648 19.5584 240.174 23.4504 240.174 23.4504C240.174 23.4504 241.099 26.1322 241.052 27.8883C240.957 30.2378 239.865 30.8786 239.77 31.0447C239.675 31.2108 238.726 36.7879 238.631 37.7609C238.536 38.7339 238.892 39.968 239.13 40.7748C239.367 41.6767 240.174 44.9991 240.174 44.9991C240.174 44.9991 233.576 46.9926 223.633 45.189C223.633 45.189 224.273 42.6259 224.511 41.3444C224.629 40.6562 225.009 39.3272 224.843 38.0694C224.677 36.8116 223.277 31.4956 223.229 30.9735C223.182 30.4751 220.452 27.6747 222.897 24.3523C222.897 24.3523 223.538 20.8874 223.704 19.9618C223.704 19.9618 227.976 18.0158 229.091 17.8497C230.254 17.6598 234.454 17.8259 234.454 17.8259Z" fill="#EEA886"/>
<path d="M239.367 19.3921C239.367 19.3921 241.099 19.4396 242.405 20.3888C243.71 21.3381 244.588 25.2064 244.802 25.8235C245.015 26.4642 247.436 30.4512 247.839 31.709C248.243 32.9668 248.48 33.7737 248.67 33.7025C248.86 33.6313 251.375 29.6681 251.779 28.7188C252.206 27.6271 253.938 22.8807 253.938 22.8807L255.766 26.2744L255.885 26.5592C255.885 26.5592 254.128 31.3293 253.583 33.038C253.037 34.7467 251.779 38.7575 251.186 39.3033C250.592 39.8491 248.267 40.6086 247.032 39.6118C245.798 38.6388 242.927 34.0348 242.191 32.4922C241.455 30.9496 240.031 28.434 240.031 28.434C240.031 28.434 237.729 21.0059 239.367 19.3921Z" fill="#EEA886"/>
<path d="M223.704 19.9379C223.704 19.9379 221.876 19.9142 221.022 20.6736C220.168 21.4331 218.554 23.2604 218.174 24.8742C217.795 26.488 217.581 29.407 217.059 30.9734C216.56 32.5634 215.137 36.6453 214.401 38.1167C213.665 39.6118 213.001 45.8059 212.573 47.301C212.123 48.7961 210.509 53.7324 210.509 53.7324L213.072 55.0377C213.072 55.0377 218.293 43.5751 218.791 41.8426C219.29 40.1102 219.385 37.9743 219.859 36.6928C220.334 35.3875 222.422 30.6411 222.731 29.7156C223.087 28.8375 226.647 20.3414 223.704 19.9379Z" fill="#EEA886"/>
<path d="M223.372 45.8771C223.372 45.8771 222.47 47.7282 221.876 48.986C221.283 50.2438 219.076 55.6073 218.174 59.3095C217.296 63.0117 215.326 69.538 215.089 71.3891C214.828 73.2402 213.95 76.0643 213.096 77.5357C212.241 79.0308 210.248 83.4212 209.892 86.2691C209.536 89.1169 207.329 101.695 207.329 101.695C207.329 101.695 208.587 102.882 210.96 101.458C210.96 101.458 215.35 89.6865 216.371 87.9778C217.391 86.2691 218.981 81.7837 219.218 80.1225C219.432 78.4612 221.093 76.6813 222.612 72.8842C224.131 69.0871 230.278 58.2415 231.132 56.0107C231.132 56.0107 231.417 55.1089 232.271 55.3937L231.939 45.8059L223.372 45.8771Z" fill="#285173"/>
<path d="M240.435 45.7585C240.435 45.7585 241.408 47.752 241.978 49.0098C242.571 50.2676 245.039 55.8447 245.941 59.5469C246.819 63.2491 248.528 69.5618 248.765 71.4366C249.026 73.2877 249.904 76.1119 250.758 77.5832C251.613 79.0784 253.606 83.4688 253.962 86.3166C254.318 89.1645 256.525 101.742 256.525 101.742C256.525 101.742 255.268 102.929 252.894 101.505C252.894 101.505 248.504 89.7341 247.483 88.0253C246.463 86.3166 244.873 81.8313 244.636 80.17C244.422 78.5088 242.761 76.7289 241.242 72.9318C239.723 69.1346 233.576 58.2891 232.722 56.0583C232.722 56.0583 232.508 55.0852 231.512 55.465L223.3 45.9959L240.435 45.7585Z" fill="#285173"/>
<path d="M228.782 3.82388C228.782 3.82388 226.765 7.02771 228.023 11.5131C229.281 15.9984 231.108 16.2595 232.603 15.8086C234.407 15.2627 236.163 11.4656 236.448 9.78063C236.733 8.09566 237.872 4.03747 233.505 3.51537C231.512 3.27805 229.494 3.34924 228.782 3.82388Z" fill="#EEA886"/>
<path d="M234.099 14.5033C234.099 14.5033 234.075 19.3684 234.739 20.7211C235.404 22.0739 228.735 21.2432 228.735 21.2432C228.735 21.2432 229.542 15.7374 229.257 14.4321C228.972 13.1031 234.099 14.5033 234.099 14.5033Z" fill="#EEA886"/>
<path d="M227.62 8.57038C227.62 8.57038 229.281 4.67832 230.895 4.82072C230.895 4.82072 234.075 8.97383 236.875 10.5876C236.875 10.5876 240.316 4.93938 232.224 2.49497C232.224 2.47124 227.311 0.548945 227.62 8.57038Z" fill="#1C4154"/>
<path d="M229.589 14.8829C229.589 14.8829 230.657 16.1645 231.82 15.9746C232.983 15.7848 233.648 15.1915 233.648 15.1915C233.648 15.1915 233.102 16.473 231.702 16.473C230.467 16.4492 229.589 14.8829 229.589 14.8829Z" fill="#A77860"/>
<path d="M237.587 18.9412C237.587 18.9412 239.675 22.3349 240.174 23.4503C240.174 23.4503 242.903 28.6239 239.77 31.0446C239.77 31.0446 239.438 33.75 238.892 36.0046C238.892 36.0046 231.962 34.5807 224.463 36.2182C224.463 36.2182 223.229 31.5667 223.229 30.9496C223.229 30.9496 220.286 27.3424 222.897 24.3284C222.897 24.3284 225.223 19.6294 225.412 19.1785C225.436 19.1785 230.728 15.8086 237.587 18.9412Z" fill="#EB4747"/>
<path d="M259.61 26.5592C262.035 26.5592 264.001 24.296 264.001 21.5043C264.001 18.7125 262.035 16.4493 259.61 16.4493C257.186 16.4493 255.22 18.7125 255.22 21.5043C255.22 24.296 257.186 26.5592 259.61 26.5592Z" fill="#D1C0BA"/>
<path d="M259.444 24.3759C260.663 24.3759 261.651 23.239 261.651 21.8366C261.651 20.4341 260.663 19.2972 259.444 19.2972C258.225 19.2972 257.237 20.4341 257.237 21.8366C257.237 23.239 258.225 24.3759 259.444 24.3759Z" fill="#948884"/>
<path d="M255.861 26.5592C255.861 26.5592 257.308 24.803 258.187 24.2572C259.041 23.7113 259.943 22.9044 259.824 22.0738C259.729 21.2195 258.827 19.2497 258.281 19.1785C257.736 19.1073 255.695 19.7955 255.695 19.7955L253.915 22.9044L255.861 26.5592Z" fill="#EEA886"/>
<path d="M253.488 26.0846C255.912 26.0846 257.878 23.8214 257.878 21.0297C257.878 18.2379 255.912 15.9747 253.488 15.9747C251.063 15.9747 249.097 18.2379 249.097 21.0297C249.097 23.8214 251.063 26.0846 253.488 26.0846Z" fill="#EDDAD3"/>
<path d="M253.226 23.7588C254.537 23.7588 255.6 22.5369 255.6 21.0296C255.6 19.5223 254.537 18.3004 253.226 18.3004C251.916 18.3004 250.853 19.5223 250.853 21.0296C250.853 22.5369 251.916 23.7588 253.226 23.7588Z" fill="#CCBBB5"/>
<path d="M227.999 18.1106C227.999 18.1106 224.392 26.0846 231.274 26.2982C238.18 26.5118 235.499 18.8463 235.309 18.1106C235.309 18.1106 232.461 16.3307 227.999 18.1106Z" fill="#EEA886"/>
<path d="M211.339 100.484C211.339 100.484 210.96 100.84 210.414 100.769C209.868 100.698 208.302 100.034 207.59 100.318C206.902 100.603 206.522 103.712 205.145 104.471C203.793 105.231 199.711 107.604 199.924 109.621C200.138 111.662 205.644 111.116 207.068 109.431C208.492 107.747 209.726 108.577 210.865 107.414C212.028 106.228 211.15 101.647 211.339 100.484Z" fill="#CCBBB5"/>
<path d="M252.515 100.461C252.515 100.461 252.918 100.84 253.464 100.769C254.01 100.698 255.576 100.034 256.288 100.318C256.976 100.603 257.356 103.712 258.732 104.471C260.085 105.231 264.167 107.604 263.953 109.621C263.74 111.662 258.234 111.116 256.81 109.431C255.386 107.747 254.152 108.577 253.013 107.414C251.85 106.228 252.681 101.624 252.515 100.461Z" fill="#CCBBB5"/>
<path d="M223.633 45.1415C223.633 45.1415 231.179 45.3076 240.174 44.9517L240.577 46.0671C240.577 46.0671 233.932 47.3249 223.205 46.2095L223.633 45.1415Z" fill="#3B78AB"/>
<path d="M211.173 52.7119C211.173 52.7119 210.627 53.2815 210.461 53.7799C210.319 54.1833 209.821 54.7291 209.583 55.0377C209.346 55.3462 208.492 56.7938 208.373 57.1735C208.325 57.3397 208.444 58.4313 208.302 58.7636C208.159 59.0721 207.827 59.6891 208.112 59.8078C208.397 59.9027 208.871 59.4518 208.871 59.4518C208.871 59.4518 208.776 59.7603 208.99 59.9265C209.417 60.2587 209.726 60.0926 209.726 60.0926C209.726 60.0926 209.821 60.4723 210.034 60.5435C210.509 60.7334 210.794 60.591 210.794 60.591C210.794 60.591 210.96 60.8283 211.316 60.8757C211.767 60.9469 212.028 60.6147 212.028 60.6147C212.028 60.6147 212.55 60.852 212.787 60.6147C213.024 60.3774 213.048 60.1163 213.167 59.879C213.285 59.6654 213.855 57.5058 213.523 55.8445C213.19 54.1596 214.14 52.7594 214.14 52.7594L211.173 52.7119Z" fill="#EEA886"/>
<path d="M215.129 58.8056L207.078 56.8641L206.721 58.3406L214.773 60.282L215.129 58.8056Z" fill="#D1C0BA"/>
<path d="M208.8 59.2383C208.8 59.2383 209.227 57.316 209.821 57.0075C210.414 56.699 210.319 57.4109 210.319 57.4109C210.319 57.4109 210.414 56.7227 210.983 56.7464C211.553 56.7702 211.387 57.5771 211.387 57.5771C211.387 57.5771 211.6 57.0787 212.146 57.2923C212.692 57.5059 212.384 58.1466 212.384 58.1466C212.384 58.1466 213.096 57.6008 213.285 58.3128C213.618 59.4994 212.74 60.6385 212.74 60.6385C212.74 60.6385 212.502 60.8996 211.98 60.6385C211.98 60.6385 211.434 61.303 210.746 60.6148C210.746 60.6148 209.797 60.8996 209.678 60.0927C209.702 60.0927 208.658 60.3537 208.8 59.2383Z" fill="#DB9C7C"/>
<path d="M206.237 62.6555L205.311 62.4419C204.932 62.347 204.694 61.9673 204.789 61.5876L206.735 53.0915C206.83 52.7118 207.21 52.4745 207.59 52.5694L208.515 52.783C208.895 52.8779 209.132 53.2576 209.037 53.6373L207.091 62.1334C206.996 62.5131 206.617 62.7505 206.237 62.6555Z" fill="#EDDAD3"/>
<path d="M214.282 64.6017L213.357 64.3881C212.977 64.2932 212.74 63.9135 212.835 63.5337L214.781 55.0377C214.875 54.658 215.255 54.4206 215.635 54.5156L216.56 54.7292C216.94 54.8241 217.177 55.2038 217.083 55.5835L215.113 64.0559C215.042 64.4356 214.662 64.6729 214.282 64.6017Z" fill="#EDDAD3"/>
<path d="M139.56 23.0793C139.56 23.0793 143.044 30.4183 140.649 30.8539C137.361 31.4636 136.032 25.3877 136.032 25.3877L139.56 23.0793Z" fill="#163342"/>
<path d="M140.192 30.3096C140.192 30.3096 142.064 28.8287 142.87 28.023C143.676 27.2172 147.204 21.5551 147.923 20.4444C148.641 19.3338 149.447 17.1778 149.926 16.2196C150.405 15.2832 155.218 8.0531 155.218 8.0531L157.069 8.83709C157.069 8.83709 153.759 17.1996 152.91 18.5934C152.06 19.9871 151.233 22.8182 150.579 24.0377C149.926 25.279 146.42 30.2225 145.81 31.3549C145.2 32.4873 144.612 34.7086 144.612 34.7086C144.612 34.7086 139.342 33.3802 140.192 30.3096Z" fill="#8E4F3A"/>
<path d="M133.288 26.5639C133.288 26.5639 133.637 29.1336 133.462 30.8976C133.288 32.6615 138.297 31.3767 138.297 31.3767C138.297 31.3767 138.014 27.5221 138.449 26.1501C138.885 24.7563 133.288 26.5639 133.288 26.5639Z" fill="#8E4F3A"/>
<path d="M128.258 52.7838C128.258 52.7838 127.582 54.4607 127.147 55.5931C126.711 56.7255 124.577 61.3859 123.989 64.6743C123.401 67.9845 122.53 73.9515 122.399 75.6065C122.269 77.2616 121.659 79.766 120.984 81.1162C120.331 82.4664 118.85 86.4299 118.676 88.9343C118.501 91.4605 117.216 102.61 117.216 102.61C117.216 102.61 118.349 103.59 120.287 102.24C120.287 102.24 123.467 91.7 124.272 90.1538C125.056 88.6076 126.21 84.5788 126.319 83.1197C126.428 81.6606 127.757 80.0056 128.867 76.6083C129.978 73.211 134.638 63.433 135.096 61.4948C135.096 61.4948 135.139 60.6237 136.293 60.7979L135.553 52.3918L128.258 52.7838Z" fill="#FAA146"/>
<path d="M143.001 52.8273C143.001 52.8273 143.719 54.6131 144.155 55.7673C144.591 56.8997 146.703 61.5601 147.291 64.8702C147.857 68.1804 148.728 74.1474 148.859 75.8025C148.99 77.4575 149.599 79.9619 150.253 81.3121C150.906 82.6623 152.387 86.6258 152.539 89.152C152.692 91.6782 153.977 102.828 153.977 102.828C153.977 102.828 152.844 103.808 150.906 102.458C150.906 102.458 147.726 91.896 146.942 90.3498C146.159 88.8036 145.004 84.7747 144.895 83.3157C144.787 81.8566 143.458 80.2015 142.347 76.8042C141.237 73.4069 136.533 63.5636 135.901 61.5601C135.901 61.5601 135.771 60.7107 134.9 60.9721L128.345 52.2611L143.001 52.8273Z" fill="#FAA146"/>
<path d="M120.549 101.369C120.549 101.369 120.244 101.696 119.786 101.652C119.329 101.631 117.935 101.13 117.369 101.413C116.781 101.696 116.607 104.353 115.474 105.05C114.342 105.768 110.966 107.968 111.25 109.688C111.533 111.43 116.193 110.69 117.347 109.209C118.48 107.706 119.569 108.36 120.483 107.314C121.42 106.247 120.461 102.371 120.549 101.369Z" fill="#EB7171"/>
<path d="M150.645 101.587C150.645 101.587 150.95 101.892 151.407 101.87C151.864 101.848 153.258 101.347 153.824 101.63C154.412 101.914 154.586 104.57 155.697 105.289C156.829 106.008 160.183 108.207 159.9 109.928C159.617 111.67 154.957 110.929 153.802 109.427C152.67 107.924 151.581 108.577 150.666 107.51C149.795 106.443 150.754 102.589 150.645 101.587Z" fill="#EB7171"/>
<path d="M131.764 19.7692C131.764 19.7692 131.306 19.2248 131.132 19.7692C130.958 20.3136 131.524 21.9687 131.59 22.2083C131.59 22.2083 131.873 23.1229 131.982 23.014C132.09 22.9051 131.764 19.7692 131.764 19.7692Z" fill="#8E4F3A"/>
<path d="M139.756 19.8346C139.756 19.8346 140.213 19.2902 140.388 19.8346C140.562 20.3791 139.996 22.0341 139.93 22.2737C139.93 22.2737 139.647 23.1883 139.538 23.0795C139.451 22.9706 139.756 19.8346 139.756 19.8346Z" fill="#8E4F3A"/>
<path d="M136.489 14.4991C136.489 14.4991 140.692 15.1524 140.083 21.751C139.473 28.3713 135.771 27.8486 135.509 27.8269C135.27 27.8269 131.786 27.9575 131.481 19.8999C131.481 19.9217 131.35 13.9547 136.489 14.4991Z" fill="#8E4F3A"/>
<path d="M132.286 19.5298C132.286 19.5298 136.947 20.9236 139.19 20.4662C139.19 20.4662 139.342 21.2938 139.647 21.3373C139.974 21.3809 140.126 19.7694 140.126 19.7694C140.126 19.7694 140.235 14.3904 135.379 14.3468C130.522 14.3032 131.502 20.1831 131.502 20.1831L131.568 21.1849C131.568 21.1631 132.264 21.4462 132.286 19.5298Z" fill="#163342"/>
<path d="M133.854 27.2172C133.854 27.2172 135.335 28.6109 137.578 27.3261C137.578 27.3261 136.903 28.4367 135.64 28.4149C134.377 28.3931 133.854 27.2172 133.854 27.2172Z" fill="#633029"/>
<path d="M138.21 29.5691C138.21 29.5691 139.603 30.2224 140.191 30.3313C140.779 30.4184 144.634 33.5761 144.765 33.9028C144.895 34.2295 143.85 36.8863 143.458 38.1276C143.066 39.3689 141.389 46.7732 141.542 47.2959C141.694 47.8185 143.153 53.0233 143.219 53.4371C133.136 55.4188 127.865 53.7202 127.865 53.7202C127.865 53.7202 129.564 48.6896 129.499 47.7097C129.433 46.7297 128.497 41.22 127.822 39.6738C127.147 38.1276 126.014 34.1859 126.014 34.1859C126.014 34.1859 130.413 30.7451 130.544 30.5273C130.675 30.3095 132.874 29.874 133.484 29.5691H138.21Z" fill="#8E4F3A"/>
<path d="M130.827 30.3531C130.827 30.3531 128.715 28.8287 127.909 28.0229C127.103 27.2172 123.575 21.555 122.857 20.4444C122.138 19.3337 121.332 17.1778 120.853 16.2196C120.374 15.3049 115.583 8.07483 115.583 8.07483L113.732 8.85882C113.732 8.85882 117.042 17.2213 117.892 18.6151C118.741 20.0088 119.568 22.8399 120.222 24.0594C120.875 25.3007 124.381 30.2442 124.991 31.3766C125.601 32.5091 126.189 34.7303 126.189 34.7303C126.189 34.7303 131.677 33.4237 130.827 30.3531Z" fill="#8E4F3A"/>
<path d="M140.192 30.3095C140.192 30.3095 142.326 36.8645 143.044 39.6738C143.044 39.6738 141.934 44.6826 141.781 45.4448C141.781 45.4448 135.509 44.2253 129.216 45.6626C129.216 45.6626 127.866 39.7609 127.735 39.4342C127.735 39.4342 129.891 35.6014 130.827 30.3749C130.827 30.3749 131.633 29.8958 132.243 29.9611C132.243 29.9611 131.655 36.5161 135.967 36.4507C140.279 36.3854 138.95 29.8958 138.95 29.8958C138.95 29.8958 139.734 30.0917 140.192 30.3095Z" fill="#FAA146"/>
<path d="M116.65 9.68626C116.65 9.68626 116.193 8.98939 116.171 8.55384C116.149 8.2054 116.193 7.68275 116.193 7.35608C116.193 7.02942 115.997 5.63567 115.866 5.30901C115.823 5.17835 115.169 4.50325 115.082 4.24192C114.995 3.95881 114.908 3.37082 114.668 3.45793C114.429 3.54504 114.363 4.08948 114.363 4.08948C114.363 4.08948 114.276 3.84993 114.037 3.84993C113.58 3.8717 113.471 4.11125 113.471 4.11125C113.471 4.11125 113.209 3.91526 113.035 3.98059C112.621 4.08948 112.512 4.35081 112.512 4.35081C112.512 4.35081 112.273 4.28547 112.012 4.43791C111.685 4.61213 111.685 4.98235 111.685 4.98235C111.685 4.98235 111.228 5.11301 111.184 5.37434C111.162 5.63567 111.271 5.85344 111.315 6.04944C111.358 6.26722 112.12 7.94407 113.209 8.8805C114.059 9.66449 114.712 11.1889 114.712 11.1889L116.65 9.68626Z" fill="#8E4F3A"/>
<path d="M110.56 7.80518L116.847 4.85132L116.31 3.7081L110.023 6.66196L110.56 7.80518Z" fill="#B85858"/>
<path d="M114.473 4.22018C114.473 4.22018 115.191 5.70104 114.973 6.20192C114.734 6.72457 114.451 6.20192 114.451 6.20192C114.451 6.20192 114.756 6.7028 114.364 6.9859C113.972 7.26901 113.667 6.63747 113.667 6.63747C113.667 6.63747 113.797 7.09479 113.318 7.22545C112.839 7.35612 112.709 6.78991 112.709 6.78991C112.709 6.78991 112.534 7.53034 112.034 7.16012C111.184 6.55036 111.184 5.3526 111.184 5.3526C111.184 5.3526 111.206 5.06949 111.685 4.96061C111.685 4.96061 111.685 4.24195 112.513 4.32906C112.513 4.32906 112.992 3.63219 113.493 4.08951C113.449 4.13307 113.993 3.41441 114.473 4.22018Z" fill="#693A2B"/>
<path d="M114.494 0.583379L114.952 0.365605C115.322 0.191386 115.757 0.343828 115.932 0.714043L119.002 7.02948C119.176 7.3997 119.024 7.83525 118.654 8.00947L118.196 8.22724C117.826 8.40146 117.391 8.24902 117.216 7.8788L114.146 1.56336C113.972 1.19315 114.124 0.757598 114.494 0.583379Z" fill="#EB7171"/>
<path d="M108.07 3.58865L108.832 3.21843C109.115 3.08777 109.464 3.19666 109.594 3.47976L112.796 10.1001C112.926 10.3832 112.817 10.7316 112.534 10.8623L111.772 11.2325C111.489 11.3632 111.141 11.2543 111.01 10.9712L107.809 4.37263C107.656 4.06775 107.787 3.74109 108.07 3.58865Z" fill="#EB7171"/>
<path d="M154.129 9.68626C154.129 9.68626 154.586 8.98939 154.608 8.55384C154.63 8.2054 154.586 7.68274 154.586 7.35608C154.586 7.02942 154.782 5.63567 154.913 5.30901C154.957 5.17835 155.61 4.50325 155.697 4.24192C155.784 3.95881 155.871 3.37082 156.111 3.45793C156.35 3.54504 156.416 4.08948 156.416 4.08948C156.416 4.08948 156.503 3.84993 156.742 3.84993C157.2 3.8717 157.309 4.11125 157.309 4.11125C157.309 4.11125 157.57 3.91526 157.744 3.98059C158.158 4.08948 158.267 4.35081 158.267 4.35081C158.267 4.35081 158.506 4.28547 158.768 4.43791C159.094 4.61213 159.094 4.98235 159.094 4.98235C159.094 4.98235 159.552 5.11301 159.595 5.37434C159.617 5.63567 159.508 5.85344 159.465 6.04944C159.421 6.26721 158.659 7.94407 157.57 8.8805C156.677 9.64271 156.024 11.1671 156.024 11.1671L154.129 9.68626Z" fill="#8E4F3A"/>
<path d="M160.752 6.67017L154.464 3.71631L153.927 4.85953L160.215 7.81339L160.752 6.67017Z" fill="#B85858"/>
<path d="M156.307 4.22018C156.307 4.22018 155.588 5.70104 155.806 6.20192C156.046 6.72457 156.329 6.20192 156.329 6.20192C156.329 6.20192 156.024 6.7028 156.416 6.9859C156.808 7.26901 157.113 6.63747 157.113 6.63747C157.113 6.63747 156.982 7.09479 157.461 7.22545C157.94 7.35612 158.071 6.78991 158.071 6.78991C158.071 6.78991 158.245 7.53034 158.746 7.16012C159.595 6.55036 159.595 5.3526 159.595 5.3526C159.595 5.3526 159.573 5.06949 159.094 4.96061C159.094 4.96061 159.094 4.24195 158.267 4.32906C158.267 4.32906 157.788 3.63219 157.287 4.08951C157.33 4.13307 156.786 3.41441 156.307 4.22018Z" fill="#693A2B"/>
<path d="M156.285 0.583379L155.828 0.365605C155.458 0.191386 155.022 0.343828 154.848 0.714043L151.777 7.02948C151.603 7.3997 151.755 7.83525 152.126 8.00947L152.583 8.22724C152.953 8.40146 153.389 8.24902 153.563 7.8788L156.634 1.56336C156.808 1.19315 156.655 0.757598 156.285 0.583379Z" fill="#EB7171"/>
<path d="M162.709 3.58865L161.947 3.21843C161.664 3.08777 161.316 3.19666 161.185 3.47976L157.984 10.1001C157.853 10.3832 157.962 10.7316 158.245 10.8623L159.007 11.2325C159.29 11.3632 159.639 11.2543 159.769 10.9712L162.971 4.35086C163.123 4.06775 162.992 3.74109 162.709 3.58865Z" fill="#EB7171"/>
<path d="M44.5482 51.1108C44.5482 51.1108 45.2337 52.9388 45.5307 53.51C45.8277 54.0812 52.2254 66.3053 52.7738 69.1615C53.3222 72.0176 55.4014 78.8265 55.9498 79.6491C56.4982 80.4717 58.2804 85.7726 59.1715 90.1367C60.0626 94.5009 61.9591 101.972 62.3475 102.886C62.7359 103.8 58.9202 103.846 58.9202 103.846C58.9202 103.846 53.3679 92.7872 52.134 90.7537C50.9002 88.7201 49.7577 85.2242 49.5978 82.985C49.4379 80.7458 47.8613 79.5806 46.4675 77.8897C45.0737 76.1989 38.379 63.335 37.1452 62.1697C35.9113 61.0044 35.1345 61.0958 35.1345 61.0958V51.7735L44.5482 51.1108Z" fill="#2F4563"/>
<path d="M26.1548 51.1108C26.1548 51.1108 25.4693 52.9388 25.1723 53.51C24.8753 54.0812 17.7693 67.0594 17.2209 69.9155C16.6725 72.7716 15.3016 78.8265 14.7532 79.6491C14.2048 80.4717 12.4226 85.7726 11.5315 90.1367C10.6404 94.5009 8.74395 101.972 8.35552 102.886C7.96709 103.8 11.7829 103.846 11.7829 103.846C11.7829 103.846 17.3351 92.7872 18.569 90.7537C19.8028 88.7201 20.9453 85.2242 21.1052 82.985C21.2651 80.7458 22.8417 79.5806 24.2355 77.8897C25.6293 76.1989 32.324 63.335 33.5578 62.1697C34.7917 61.0044 35.5914 61.0958 35.5914 61.0958L35.5686 51.7735L26.1548 51.1108Z" fill="#2F4563"/>
<path d="M62.5989 102.384C62.5989 102.384 63.9699 104.463 65.0438 105.057C66.1177 105.628 70.0705 107.273 70.7331 108.622C71.1901 109.558 70.5732 111.432 66.7574 110.815C62.9645 110.198 61.6621 108.142 60.4968 107.913C59.3544 107.685 58.0977 106.794 58.0063 105.103C57.9378 103.412 58.6232 103.709 58.4861 103.092C58.3262 102.452 62.5989 102.384 62.5989 102.384Z" fill="#DBDFF0"/>
<path d="M8.2642 102.384C8.2642 102.384 6.89326 104.463 5.81937 105.057C4.74547 105.628 0.792611 107.273 0.129994 108.622C-0.326984 109.558 0.289936 111.432 4.1057 110.815C7.89862 110.198 9.201 108.142 10.3663 107.913C11.5087 107.685 12.7654 106.794 12.834 105.103C12.9025 103.412 12.2171 103.709 12.3541 103.092C12.5369 102.452 8.2642 102.384 8.2642 102.384Z" fill="#DBDFF0"/>
<path d="M46.8559 29.93C45.8506 26.4341 47.3586 19.1225 47.3586 19.1225C45.3936 18.2771 42.8574 19.0082 41.7835 19.0082C40.6867 19.0082 37.7164 18.1857 37.7164 18.1857H35.2944H32.8724C32.8724 18.1857 29.8792 19.0082 28.8053 19.0082C27.7085 19.0082 25.1952 18.2542 23.2302 19.1225C23.2302 19.1225 24.761 26.5712 23.7328 30.0671C23.7328 30.0671 26.1091 36.6019 26.6803 37.5615C27.2516 38.5212 26.6803 42.1085 26.6575 42.9996C26.6346 44.2791 26.429 47.9578 26.1777 51.1109C26.1777 51.1109 29.0795 52.8474 35.2944 52.9845C41.4636 52.5961 44.571 51.1109 44.571 51.1109C44.1826 47.3637 43.9313 44.1877 43.7713 42.9767C43.6571 42.0856 43.3372 38.544 43.9084 37.5615C44.4796 36.579 46.8559 29.93 46.8559 29.93Z" fill="#E55353"/>
<path d="M47.3588 19.1224C47.3588 19.1224 49.0267 19.8993 49.8264 19.945C50.6033 19.9907 51.8371 18.8025 53.3452 18.9396C54.8532 19.0767 55.4244 19.8764 56.841 19.8079C58.2577 19.7393 58.7375 19.4423 58.8517 18.9168C58.9431 18.3912 60.7482 15.1924 59.9942 10.7826C59.2402 6.37272 61.3651 7.7208 61.3651 7.7208C61.3651 7.7208 63.4444 11.468 63.8556 15.6265C64.2669 19.785 62.9645 23.8293 62.896 24.4005C62.8503 24.9717 62.5304 25.7943 62.142 26.0228C61.7536 26.2513 56.7953 26.6625 55.0817 26.7539C53.368 26.8453 49.8264 26.2741 48.8896 26.9139C47.93 27.5536 46.7418 30.2041 46.7418 30.2041C46.7418 30.2041 45.0967 22.0471 47.3588 19.1224Z" fill="#EEA886"/>
<path d="M23.1844 19.1224C23.1844 19.1224 21.5165 19.8993 20.7168 19.945C19.9399 19.9907 18.7061 18.8025 17.198 18.9396C15.69 19.0767 15.1188 19.8764 13.7022 19.8079C12.2855 19.7393 11.8057 19.4423 11.6915 18.9168C11.6001 18.3912 9.795 15.1924 10.549 10.7826C11.303 6.37272 9.17808 7.7208 9.17808 7.7208C9.17808 7.7208 7.09883 11.468 6.68755 15.6265C6.27627 19.785 7.57866 23.8293 7.6472 24.4005C7.6929 24.9717 8.01279 25.7943 8.40122 26.0228C8.78965 26.2513 13.7479 26.6625 15.4615 26.7539C17.1752 26.8453 20.7168 26.2741 21.6536 26.9139C22.6132 27.5536 23.71 30.0213 23.71 30.0213C23.71 30.0213 25.4465 22.0471 23.1844 19.1224Z" fill="#EEA886"/>
<path d="M38.3561 14.2327C38.3561 14.2327 37.9905 16.5405 38.7446 18.117C38.7446 18.117 39.5671 21.7729 35.7971 22.0242C32.0498 22.2755 31.8899 18.8939 31.8899 18.8939C31.8899 18.8939 32.7581 17.6601 32.0955 14.3927C31.4101 11.1253 38.3561 14.2327 38.3561 14.2327Z" fill="#EEA886"/>
<path d="M35.7742 0.934676C35.7742 0.934676 40.5954 1.59729 40.047 9.34307C39.4758 17.066 35.2259 16.5176 34.9288 16.5176C34.6546 16.5176 30.6789 16.7461 30.1534 7.35521C30.1534 7.35521 29.8792 0.386302 35.7742 0.934676Z" fill="#EEA886"/>
<path d="M40.0698 7.14965C40.0698 7.14965 40.5953 6.55558 40.8009 7.14965C41.0066 7.72087 40.184 10.2571 40.1155 10.4627C40.1155 10.4627 40.0241 10.6912 39.887 10.577C39.7727 10.4627 40.0698 7.14965 40.0698 7.14965Z" fill="#EEA886"/>
<path d="M30.2677 7.28671C30.2677 7.28671 29.7422 6.71549 29.5365 7.28671C29.3537 7.88078 30.2448 10.4856 30.2905 10.5998C30.2905 10.5998 30.3819 10.8283 30.519 10.6912C30.6561 10.577 30.2677 7.28671 30.2677 7.28671Z" fill="#EEA886"/>
<path d="M40.0927 8.33773L39.43 9.29738C39.43 9.29738 39.4072 7.21813 39.2929 6.89825C39.1787 6.57837 39.3843 5.43592 39.2929 5.20743C39.2015 4.97894 36.0256 5.91575 30.7475 5.50447C30.7475 5.50447 31.3644 7.35523 31.0445 7.49232C30.7018 7.62941 30.9303 9.9143 30.9303 9.9143L30.359 9.27453C30.359 9.27453 29.6279 5.36737 29.6736 4.72761C29.7421 3.85935 29.3537 -0.184905 36.7567 0.34062C37.5793 0.409166 38.4018 0.706202 39.0873 1.20888C39.8642 1.7801 40.6639 2.69406 40.6182 3.97359C40.5496 5.64156 40.0927 8.33773 40.0927 8.33773Z" fill="#FCCCA2"/>
<path d="M32.3926 15.3295C32.3926 15.3295 34.5861 17.7743 37.9449 15.2152C37.9449 15.2152 37.0309 17.1345 35.0431 17.2259C33.0323 17.3173 32.3926 15.3295 32.3926 15.3295Z" fill="#A77860"/>
<path d="M29.5136 18.9396C29.5136 18.9396 29.6279 27.7592 35.2715 28.0334V17.9114C35.2715 17.9114 32.6439 18.0028 29.5136 18.9396Z" fill="#EEA886"/>
<path d="M41.0523 18.9396C41.0523 18.9396 40.9381 27.7592 35.2715 28.0334V17.9114C35.2715 17.9114 37.8992 18.0028 41.0523 18.9396Z" fill="#EEA886"/>
<path d="M58.2347 14.5985C61.6923 14.5985 64.4953 11.7955 64.4953 8.33787C64.4953 4.88023 61.6923 2.07727 58.2347 2.07727C54.7771 2.07727 51.9741 4.88023 51.9741 8.33787C51.9741 11.7955 54.7771 14.5985 58.2347 14.5985Z" fill="#434343"/>
<path d="M58.2346 11.3766C59.913 11.3766 61.2735 10.0161 61.2735 8.33773C61.2735 6.65939 59.913 5.29883 58.2346 5.29883C56.5563 5.29883 55.1957 6.65939 55.1957 8.33773C55.1957 10.0161 56.5563 11.3766 58.2346 11.3766Z" fill="#6B6B6B"/>
<path d="M12.4455 14.5985C15.9031 14.5985 18.7061 11.7955 18.7061 8.33787C18.7061 4.88023 15.9031 2.07727 12.4455 2.07727C8.98784 2.07727 6.18488 4.88023 6.18488 8.33787C6.18488 11.7955 8.98784 14.5985 12.4455 14.5985Z" fill="#434343"/>
<path d="M12.4455 11.3766C14.1238 11.3766 15.4844 10.0161 15.4844 8.33773C15.4844 6.65939 14.1238 5.29883 12.4455 5.29883C10.7671 5.29883 9.40656 6.65939 9.40656 8.33773C9.40656 10.0161 10.7671 11.3766 12.4455 11.3766Z" fill="#6B6B6B"/>
</svg>
